<svg width="370" height="317" viewBox="0 0 370 317" fill="none" xmlns="http://www.w3.org/2000/svg">
<g opacity="0.1">
<path d="M0 10H354V0" stroke="#FF5400" stroke-width="20"/>
<path d="M30.7252 49.061C48.072 30.5712 61.6801 23.0321 85.5967 21.6252C108.146 20.2988 123.17 25.3909 140.468 39.9157C157.604 54.3038 167.904 90.2146 167.904 90.2146C167.904 90.2146 175.141 124.917 167.904 145.086C159.79 167.699 152.621 174.923 126.75 190.812C114.438 197.637 105.834 199.781 85.5967 199.958C66.4428 198.96 59.0588 191.823 44.4431 181.667C44.4431 181.667 154.988 295.203 163.331 300.555C171.675 305.908 177.294 307.051 186.194 305.128C201.21 301.885 209.058 273.12 209.058 273.12" stroke="#FF5400" stroke-width="20"/>
<path d="M281.291 31.5802C268.837 24.5554 261.83 23.3667 249.283 27.0076C236.94 36.7111 235.565 45.2974 235.565 54.443C235.565 63.5879 236.45 66.3612 240.138 72.7339C249.283 88.5367 331.59 150.5 345.308 173.332C359.026 196.163 361.266 205.937 359.026 228.203C355.509 251.489 349.101 263.4 331.59 283.075C314.011 297.005 302.83 304.656 281.291 305.938C256.463 307.416 236.956 298.818 221.847 283.075C202.396 262.831 198.713 254.733 194.412 232.776C191.665 218.757 190.759 210.006 194.412 196.195C198.092 182.276 212.702 164.186 212.702 164.186" stroke="#FF5400" stroke-width="20"/>
<path d="M17.0076 94.7871C95.574 96.282 139.637 96.1843 218.203 94.7871" stroke="#FF5400" stroke-width="20"/>
</g>
</svg>
