<svg width="153" height="164" viewBox="0 0 153 164" fill="none" xmlns="http://www.w3.org/2000/svg">
<path d="M63.7856 26.6191V51.757H52.7425C51.7635 51.757 50.9683 50.9614 50.9683 49.9801V28.3934C50.9683 27.4121 51.7635 26.6191 52.7425 26.6191H63.7856Z" fill="#1D253D"/>
<path d="M106.777 38.521C105.642 49.2091 99.5722 51.7569 99.5722 51.7569H63.7854V26.619C73.8274 24.6881 78.6095 12.321 77.5745 6.11914C77.7578 4.72422 77.7605 3.42918 77.5817 2.32819C78.2916 0.206266 80.3841 0.632099 80.3841 0.632099C87.2886 1.71403 87.6824 16.0387 87.6286 20.7088C87.6187 21.5189 88.2405 22.1967 89.0506 22.2532C91.6891 22.4319 97.443 22.9531 102.485 24.2725C105.794 25.1391 107.167 26.0052 107.573 27.8995C108.004 29.896 107.36 33.0362 106.777 38.521Z" fill="#FEA30A"/>
<path d="M63.7856 26.6191V47.9291H52.7425C51.7635 47.9291 50.9683 47.1339 50.9683 46.1549V28.3938C50.9683 27.4125 51.7635 26.6195 52.7425 26.6195H63.7856V26.6191Z" fill="#465A94"/>
<path d="M107.573 27.8993C107.397 29.6469 107.079 31.8569 106.777 34.6936C105.642 45.3817 99.5722 47.9295 99.5722 47.9295H63.7854V26.6195C68.7909 25.6569 72.6875 21.9556 75.0488 17.5821C76.7522 14.4274 77.2847 10.8683 77.5104 7.33466C77.6423 5.26992 76.8379 -0.0894091 80.3841 0.632258C87.2886 1.71419 87.6824 16.0389 87.6286 20.709C87.6187 21.5191 88.2405 22.1969 89.0506 22.2533C91.6891 22.4321 97.443 22.9532 102.485 24.2727C105.794 25.1385 107.167 26.005 107.573 27.8993Z" fill="#FEB12F"/>
<path d="M93.2695 51.7563H98.6559L96.0533 54.5988V57.6788H92.2253V55.0178C92.2253 54.4082 92.3538 53.8051 92.6028 53.2485L93.2695 51.7563Z" fill="#BF6D3E"/>
<path d="M93.116 54.217C93.7039 53.9307 94.0947 53.2807 94.0722 52.6268C94.0497 51.973 93.6147 51.352 93.0082 51.1069C92.9029 50.0539 91.9499 49.2293 90.908 49.0444C91.6544 50.7664 92.1378 52.6021 92.3364 54.4682L93.116 54.217Z" fill="#BF6D3E"/>
<path d="M92.2724 49.5551C92.6529 49.6977 92.7821 50.1136 92.8652 50.4735C92.9129 50.6805 92.9571 50.9081 93.0936 51.0785C93.2343 51.2539 93.4634 51.3332 93.6441 51.4582C94.0089 51.711 94.2602 52.0812 94.3078 52.5276C94.3601 53.0155 94.1832 53.4974 94.015 53.9461C93.9601 54.0933 93.744 53.9782 93.7985 53.8321C93.9563 53.4101 94.1264 52.9446 94.057 52.4868C93.9883 52.0358 93.6658 51.7426 93.2884 51.5284C93.1245 51.4353 92.9701 51.3332 92.8618 51.175C92.7615 51.029 92.707 50.8547 92.6643 50.6847C92.5812 50.3508 92.5279 49.9104 92.1588 49.772C92.0113 49.7168 92.1268 49.5006 92.2724 49.5551Z" fill="#80410E"/>
<path d="M58.371 51.7563H52.9846L55.5873 54.5988V57.6788H59.4152V55.0178C59.4152 54.4082 59.2867 53.8051 59.0378 53.2485L58.371 51.7563Z" fill="#BF6D3E"/>
<path d="M81.2803 79.7295C84.4925 77.6392 87.4207 75.1136 89.9605 72.2433C90.8556 67.1848 91.3752 61.7618 91.7466 56.6381C93.3161 56.4798 95.0793 56.3975 96.6503 56.5427C97.831 63.4316 98.293 70.3414 97.8226 77.3148C93.4979 81.5899 88.8824 86.3621 84.5577 90.6373L81.2803 79.7295Z" fill="#465A94"/>
<path d="M97.3473 74.1758C97.6058 73.814 97.8181 73.4408 97.9939 73.0596C97.9737 74.4755 97.9184 75.8936 97.8227 77.3141C93.4981 81.5892 88.8825 86.3614 84.5578 90.6365L83.7961 88.1017C88.5832 83.7923 93.312 79.3887 97.3473 74.1758Z" fill="#1D253D"/>
<path d="M92.1417 59.066C93.2324 59.0919 94.3227 59.1178 95.4134 59.1437C95.5701 59.1475 95.5819 59.3919 95.4241 59.3881C94.3334 59.3622 93.243 59.3363 92.1523 59.3103C91.996 59.3069 91.9838 59.0621 92.1417 59.066Z" fill="#1D253D"/>
<path d="M70.315 79.7295C67.1027 77.6392 64.1745 75.1136 61.6348 72.2433C60.7396 67.1848 60.22 61.7618 59.8487 56.6381C58.2792 56.4798 56.516 56.3975 54.9449 56.5427C53.7643 63.4316 53.3022 70.3414 53.7727 77.3148C58.0973 81.5899 62.7129 86.3621 67.0375 90.6373L70.315 79.7295Z" fill="#465A94"/>
<path d="M67.2437 86.9025C67.3165 87.721 67.3741 88.541 67.4202 89.3614L67.0371 90.6362C62.7124 86.3611 58.0968 81.5889 53.7722 77.3138C53.6475 75.4644 53.5899 73.6197 53.5926 71.7783C55.9662 78.1163 61.3415 82.9678 67.2437 86.9025Z" fill="#1D253D"/>
<path d="M55.2097 59.2521C56.6538 59.1789 58.0979 59.1057 59.542 59.0329C59.6994 59.0249 59.7101 59.2693 59.5526 59.2773C58.1085 59.3505 56.6644 59.4237 55.2203 59.4965C55.0633 59.5045 55.0522 59.2601 55.2097 59.2521Z" fill="#1D253D"/>
<path d="M65.1531 155.977C65.1546 156.576 65.1584 157.158 65.166 157.718H68.6406L68.8346 155.977H65.1531Z" fill="#001E4A"/>
<path d="M82.3552 155.977C82.3567 156.576 82.3606 157.158 82.3682 157.718H85.8427L86.0368 155.977H82.3552Z" fill="#001E4A"/>
<path d="M86.1576 108.618C76.9528 109.63 75.6196 114.897 75.6196 114.897L79.337 136.85L81.2885 156.956H87.482C89.3523 131.815 86.1576 108.618 86.1576 108.618Z" fill="#1D253D"/>
<path d="M78.0934 114.594C78.0934 114.594 82.1881 111.971 82.6677 109.675L66.0736 110.222C66.0736 110.222 63.7629 139.868 63.8285 155.977H70.16L78.0934 114.594Z" fill="#465A94"/>
<path d="M77.6274 117.025L70.1595 156.956H63.828C63.7792 144.969 65.0461 124.511 65.6976 115.326C69.5564 116.568 73.5875 117.195 77.6274 117.025Z" fill="#465A94"/>
<path d="M65.6975 115.325C65.9217 112.167 66.073 110.222 66.073 110.222L82.6672 109.675C82.1876 111.971 78.0928 114.594 78.0928 114.594L77.6269 117.025C73.5874 117.195 69.5563 116.568 65.6975 115.325Z" fill="#1D253D"/>
<path d="M81.2594 111.982C82.0722 111.166 82.7836 110.235 82.9681 109.351L67.4349 108.617C67.4349 108.617 67.3087 110.286 67.2493 110.98C71.8804 112.058 76.6176 112.461 81.2594 111.982Z" fill="#1D253D"/>
<path d="M68.8366 157.456L64.77 157.345C63.637 158.524 62.8292 160.008 62.4338 161.594H69.7759C69.6276 160.182 69.3249 158.793 68.8366 157.456Z" fill="#001E4A"/>
<path d="M62.4339 161.594C62.3961 161.746 62.3573 161.898 62.3271 162.051C62.2799 162.292 62.4602 162.518 62.7057 162.518H69.4371C69.6612 162.518 69.8415 162.328 69.824 162.104C69.8107 161.934 69.7939 161.764 69.776 161.594H62.4339Z" fill="#A86114"/>
<path d="M82.1354 157.456L86.202 157.345C87.335 158.524 94.159 160.008 94.5543 161.594H81.196C81.3443 160.182 81.6474 158.793 82.1354 157.456Z" fill="#001E4A"/>
<path d="M94.5545 161.594C94.5922 161.746 94.6315 161.898 94.6616 162.051C94.7089 162.292 94.5286 162.518 94.283 162.518H81.5351C81.3109 162.518 81.1306 162.328 81.1482 162.104C81.1615 161.934 81.1783 161.764 81.1962 161.594H94.5545Z" fill="#A86114"/>
<path d="M68.3756 138.458C67.8713 137.592 67.344 136.748 66.9262 135.834C66.5038 134.91 66.2022 133.95 65.8969 132.983C65.8595 132.865 65.6914 132.914 65.7131 133.034C65.8961 134.037 66.2594 135.014 66.6719 135.944C67.0833 136.872 67.5609 137.801 68.1964 138.596C68.2784 138.699 68.4389 138.568 68.3756 138.458Z" fill="#1D253D"/>
<path d="M64.8381 155.385H68.8738C69.0309 155.385 69.0423 155.629 68.8845 155.629H64.8488C64.6917 155.629 64.6799 155.385 64.8381 155.385Z" fill="#1D253D"/>
<path d="M84.5133 82.6945C84.4626 81.6152 83.7116 80.6824 82.5973 80.2767C80.2329 79.4167 77.5818 79.1521 74.9986 79.3241C72.6277 79.4819 70.3003 79.987 68.027 80.6561C66.5456 81.0922 65.6192 82.4162 65.8464 83.7783C67.2017 91.8962 67.6637 100.255 67.1392 108.463C73.2221 110.228 79.2901 110.742 85.0409 108.733C85.2377 100.331 84.9075 91.1098 84.5133 82.6945Z" fill="#A6F3FF"/>
<path d="M75.9425 81.6613C75.2776 81.9991 74.6509 82.4138 74.0829 82.898C73.837 82.4409 73.6086 81.9728 73.3719 81.5111C73.2419 81.2576 73.1115 81.0044 72.9803 80.7517C72.853 80.5058 72.7383 80.2263 72.5648 80.0094C72.4931 79.9198 72.3544 80.0174 72.381 80.1166C72.4504 80.3746 72.6079 80.6266 72.7264 80.8649C72.858 81.1291 72.9899 81.3929 73.1229 81.6567C73.3833 82.174 73.6601 82.6864 73.9037 83.2118C73.9483 83.3078 74.0749 83.2998 74.1427 83.2426C74.7462 82.7329 75.3905 82.2827 76.0862 81.9076C76.2486 81.8199 76.1053 81.5786 75.9425 81.6613Z" fill="#47BED1"/>
<path d="M78.3437 81.6661C78.3342 81.4446 78.3281 81.2227 78.325 81.0012C78.3224 80.8041 78.37 80.5403 78.2751 80.3619C78.2396 80.2956 78.1379 80.2978 78.1016 80.3619C78.0063 80.5319 78.0502 80.7866 78.0525 80.9757C78.0551 81.2059 78.0608 81.4362 78.0704 81.6665C78.0852 82.0351 78.1115 82.4026 78.1436 82.7701C77.8393 82.5967 77.5351 82.4232 77.2305 82.2505C77.0437 82.1445 76.8558 82.0412 76.6678 81.9379C76.4814 81.8353 76.2977 81.7095 76.0857 81.671C76.0117 81.6577 75.9629 81.7374 76.0133 81.7957C76.1543 81.9589 76.3545 82.0523 76.5375 82.1605C76.722 82.2699 76.9069 82.379 77.0929 82.4861C77.4726 82.7042 77.8523 82.9218 78.2328 83.1384C78.3163 83.186 78.4512 83.1273 78.4402 83.0194C78.3956 82.5688 78.3632 82.1178 78.3437 81.6661Z" fill="#47BED1"/>
<path d="M76.0135 81.7949L75.1497 82.4781L75.5816 83.154L75.5015 106.156L77.2171 107.049L78.6745 106.156L76.6643 83.2851L76.9121 82.3797L76.0135 81.7949Z" fill="#DD4F05"/>
<path d="M65.3232 85.4095C65.0315 83.4454 65.8355 81.3174 67.4203 80.7413C68.6063 80.3102 70.1038 79.9038 71.4247 79.8085C72.4975 84.2788 76.9118 93.4157 76.9118 93.4157C76.9118 93.4157 80.3451 82.9597 78.3257 79.356C79.6154 79.2892 82.074 79.6537 83.3671 80.3128C84.584 80.9331 85.3469 82.9349 85.438 84.4862C86.0014 94.0798 87.794 104.052 88.5492 113.782C87.6129 114.221 86.3872 114.231 85.3785 114.322C83.7358 114.469 82.0858 114.545 80.4378 114.606C75.0925 114.803 69.8083 114.632 64.7551 112.689C65.4886 103.575 66.6716 94.4873 65.3232 85.4095Z" fill="#465A94"/>
<path d="M67.2434 86.9029C68.0135 95.5686 67.2682 104.385 65.6041 112.997C65.3205 112.899 65.0376 112.798 64.7551 112.689C65.4833 103.636 66.6544 94.6083 65.3483 85.5903C65.9724 86.0387 66.6041 86.4767 67.2434 86.9029Z" fill="#1D253D"/>
<path d="M80.0274 87.4332L81.8397 86.8126C81.9907 86.7608 82.1416 86.7093 82.2926 86.6575C82.4241 86.6125 82.5709 86.5782 82.6933 86.5103C82.9541 86.3658 82.8526 86.057 82.7783 85.8294C82.3773 84.6022 81.9712 83.377 81.5675 82.1509C81.5183 82.0011 81.7513 81.926 81.8005 82.0755C82.1436 83.1181 82.4867 84.1608 82.8298 85.2034C82.9098 85.4463 83.0036 85.6891 83.0661 85.9373C83.1111 86.1165 83.1359 86.3189 83.0494 86.4901C82.9617 86.6628 82.7894 86.744 82.6155 86.805C82.3639 86.8934 82.1108 86.9781 81.8584 87.0642C81.2732 87.2648 80.688 87.4649 80.1025 87.6654C79.9534 87.7173 79.8783 87.4843 80.0274 87.4332Z" fill="#1D253D"/>
<path d="M80.1825 87.4965C80.8645 88.2037 81.5462 88.9109 82.2282 89.6181C82.3372 89.7309 82.1725 89.9124 82.0627 89.7984C81.3807 89.0912 80.6991 88.384 80.017 87.6768C79.9084 87.564 80.0731 87.3829 80.1825 87.4965Z" fill="#1D253D"/>
<path d="M77.4153 95.4402C78.9619 93.4997 80.5086 91.5597 82.0552 89.6192C82.1536 89.4957 82.3335 89.6619 82.2359 89.7847C80.6893 91.7251 79.1426 93.6656 77.596 95.6057C77.4972 95.7292 77.3173 95.563 77.4153 95.4402Z" fill="#1D253D"/>
<path d="M72.5592 87.8622L70.6783 87.5C70.5216 87.4699 70.3649 87.4398 70.2078 87.4093C70.0713 87.383 69.9211 87.3696 69.7908 87.3193C69.5125 87.2125 69.57 86.8927 69.612 86.6567C69.838 85.3857 70.0698 84.1158 70.2989 82.8456C70.3268 82.6904 70.0858 82.6485 70.058 82.8032C69.8632 83.8837 69.6688 84.9641 69.474 86.0441C69.4286 86.2957 69.3695 86.5492 69.342 86.8035C69.3222 86.9872 69.326 87.1912 69.4358 87.3486C69.5464 87.5072 69.7286 87.5637 69.9093 87.6003C70.1708 87.6529 70.4331 87.7013 70.695 87.7516C71.3023 87.8686 71.91 87.9857 72.5173 88.1027C72.6717 88.1332 72.7136 87.8919 72.5592 87.8622Z" fill="#1D253D"/>
<path d="M72.4144 87.9469C71.8376 88.7422 71.2608 89.5374 70.684 90.3323C70.5917 90.4592 70.78 90.6159 70.8727 90.4878C71.4495 89.6926 72.0263 88.8973 72.6031 88.1025C72.6953 87.9755 72.507 87.8192 72.4144 87.9469Z" fill="#1D253D"/>
<path d="M76.2606 95.4277C74.4589 93.7217 72.6572 92.0153 70.8555 90.3089C70.7408 90.2002 70.586 90.3897 70.6996 90.4976C72.5013 92.2036 74.303 93.91 76.1047 95.6164C76.2194 95.7246 76.3746 95.5356 76.2606 95.4277Z" fill="#1D253D"/>
<path d="M77.0295 93.8216C77.2041 96.5604 77.3405 99.3014 77.4381 102.044C77.5357 104.787 77.5948 107.531 77.6154 110.275C77.6268 111.819 77.6261 113.365 77.6135 114.91C77.6124 115.067 77.3676 115.078 77.3691 114.92C77.3916 112.176 77.3764 109.432 77.3222 106.688C77.2681 103.944 77.1751 101.201 77.0439 98.4597C76.97 96.9165 76.8834 95.374 76.7855 93.8319C76.7752 93.6752 77.0195 93.6646 77.0295 93.8216Z" fill="#1D253D"/>
<path d="M81.2748 106.275C82.7155 106.679 84.2553 106.616 85.6582 106.098C85.8061 106.043 85.8809 106.276 85.7337 106.33C84.2927 106.863 82.6995 106.927 81.2203 106.513C81.069 106.471 81.1224 106.232 81.2748 106.275Z" fill="#1D253D"/>
<path d="M68.1176 106.596C69.5583 107 71.098 106.937 72.501 106.419C72.6489 106.364 72.7236 106.597 72.5764 106.652C71.1354 107.184 69.5422 107.249 68.0631 106.834C67.9121 106.792 67.9655 106.553 68.1176 106.596Z" fill="#1D253D"/>
<path d="M80.372 71.6468C80.8047 70.1607 80.698 68.5237 80.0754 67.1063C80.1582 66.759 80.0911 66.3572 79.9142 66.0473C79.7373 65.7373 79.4613 65.4907 79.1502 65.3161C78.7316 65.0816 78.2242 64.9745 77.7648 65.1125C77.3054 65.2505 76.9185 65.6668 76.8983 66.146C76.5422 65.9336 76.2456 65.7213 75.8541 65.5856C75.4626 65.4499 75.031 65.3957 74.6326 65.5093C74.2339 65.6229 73.8759 65.9233 73.763 66.3221C73.6502 66.7209 73.8313 67.2024 74.2095 67.3716C73.9041 66.9999 73.2015 66.929 72.76 67.1204C72.3186 67.3118 72.0018 67.7205 71.8138 68.1631C71.6644 68.515 71.5851 68.9065 71.6537 69.2827C71.7223 69.659 71.9549 70.0159 72.3022 70.176C71.6453 70.5034 71.4326 71.3017 71.5687 72.023C71.7052 72.7439 72.1585 73.3619 72.6373 73.9181C73.1161 74.4739 73.6407 75.0065 73.9693 75.6626L80.372 71.6468Z" fill="#7A2923"/>
<path d="M80.1614 71.7984C80.5461 70.368 80.4512 68.7924 79.898 67.4283C79.9716 67.0944 79.9117 66.7074 79.7547 66.4089C79.5972 66.1108 79.3525 65.8729 79.0757 65.7052C78.7036 65.4795 78.2526 65.3762 77.8443 65.5092C77.436 65.6419 77.0922 66.0429 77.0743 66.5038C76.7578 66.2995 76.4944 66.0952 76.1463 65.9644C75.7983 65.8336 75.4148 65.7818 75.0606 65.8908C74.7064 65.9999 74.3881 66.2892 74.2879 66.6731C74.1876 67.057 74.3485 67.5206 74.6847 67.6834C74.4133 67.3258 73.7888 67.2575 73.3965 67.4413C73.0042 67.6254 72.7225 68.0185 72.5555 68.4447C72.4229 68.7836 72.352 69.1602 72.4133 69.5224C72.4743 69.8846 72.681 70.2281 72.9898 70.3821C72.4061 70.6974 72.2166 71.4659 72.3379 72.1598C72.4591 72.8536 72.8621 73.4483 73.2879 73.9836C73.7137 74.5188 74.1796 75.0312 74.472 75.6629L80.1614 71.7984Z" fill="#3B1411"/>
<path d="M73.391 73.6836C73.5457 75.6622 73.5 77.6564 73.2549 79.6262C73.2053 80.0246 73.3742 80.4188 73.7032 80.649C74.6109 81.2845 75.7687 81.5655 76.8571 81.402C77.4106 81.3189 77.7991 80.8099 77.753 80.2522C77.647 78.9724 77.6146 77.7566 77.6451 76.4323C76.5613 75.0583 75.0569 74.2192 73.391 73.6836Z" fill="#BF6D3E"/>
<path d="M77.6451 76.4323C76.5617 75.0583 75.0569 74.2192 73.3914 73.6836C73.4321 74.2044 73.4581 74.7259 73.471 75.2482C74.126 77.4482 75.8354 78.8161 77.6954 79.3555C77.6402 78.3937 77.6219 77.444 77.6451 76.4323Z" fill="#80410E"/>
<path d="M80.3942 70.4573C80.7628 73.2205 80.1853 77.9534 78.0992 78.168C75.6463 78.4204 74.1413 76.2379 73.5942 74.228C73.6037 74.2624 73.3696 74.3927 73.1306 74.3786C72.8946 74.3649 72.5813 74.0866 72.452 73.8929C72.2023 73.519 71.9484 72.9364 72.2168 72.5091C72.5397 71.9948 73.2549 71.8896 73.5568 72.4938C73.5343 71.4885 73.861 70.5576 74.2099 69.6186C74.3242 69.3109 74.5659 69.0643 74.8759 68.9564C76.2925 68.4639 78.0336 68.4326 79.4739 68.863C79.8326 68.9701 80.1045 69.2621 80.2089 69.6216C80.2943 69.9148 80.3637 70.2274 80.3942 70.4573Z" fill="#BF6D3E"/>
<path d="M77.4377 70.6293C76.9928 70.0647 75.7694 70.4543 75.3192 70.8169C75.2369 70.8832 75.1377 70.9678 75.1477 71.0849C75.153 71.1455 75.1862 71.1981 75.2472 71.2156C75.3855 71.2553 75.5167 71.1405 75.6322 71.0803C75.7847 71.0006 75.9459 70.9404 76.1141 70.903C76.3211 70.8569 76.5361 70.8443 76.7469 70.8668C76.9512 70.8885 77.1468 70.9839 77.3527 70.953C77.5132 70.9286 77.5159 70.7284 77.4377 70.6293Z" fill="#3B1411"/>
<path d="M76.7871 71.6194C76.776 71.5859 76.7574 71.5565 76.7311 71.5321C76.7063 71.5054 76.6773 71.4871 76.6438 71.4761C76.6114 71.4589 76.5767 71.4513 76.5393 71.4528C76.5153 71.4559 76.4913 71.4593 76.4673 71.4624C76.4211 71.4753 76.3815 71.4986 76.3475 71.5321C76.3334 71.5504 76.3193 71.5687 76.3052 71.587C76.2808 71.6293 76.2682 71.6751 76.2682 71.7239V71.7529C76.2667 71.7902 76.2747 71.8253 76.2915 71.8577C76.3026 71.8912 76.3212 71.9206 76.3475 71.945C76.3719 71.9713 76.4013 71.99 76.4348 72.001C76.4672 72.0182 76.5019 72.0258 76.5393 72.0243L76.6114 72.0148C76.6575 72.0018 76.6971 71.9785 76.7311 71.945C76.7452 71.9267 76.7593 71.9084 76.7734 71.8901C76.7978 71.8478 76.8104 71.802 76.8104 71.7529V71.7239C76.8119 71.6865 76.8043 71.6518 76.7871 71.6194Z" fill="#3B1411"/>
<path d="M79.7589 71.7874C79.7479 71.7538 79.7292 71.7245 79.7029 71.7001C79.6785 71.6734 79.6491 71.6547 79.6156 71.6441C79.5832 71.6269 79.5485 71.6193 79.5107 71.6208C79.4867 71.6238 79.4627 71.6273 79.4387 71.6303C79.3926 71.6433 79.3529 71.6665 79.319 71.7001C79.3049 71.7184 79.2908 71.7367 79.2767 71.755C79.2523 71.7973 79.2397 71.8431 79.2397 71.8918V71.9208C79.2382 71.9582 79.2462 71.9933 79.2629 72.0253C79.274 72.0588 79.2927 72.0882 79.319 72.1126C79.3438 72.1393 79.3727 72.1579 79.4063 72.1686C79.4387 72.1858 79.4734 72.1934 79.5107 72.1919L79.5828 72.1823C79.6289 72.1694 79.6686 72.1461 79.7025 72.1126C79.7166 72.0943 79.7307 72.076 79.7448 72.0577C79.7692 72.0154 79.7818 71.9696 79.7818 71.9208V71.8918C79.7837 71.8545 79.7761 71.8198 79.7589 71.7874Z" fill="#3B1411"/>
<path d="M80.2965 71.0209C80.1913 70.8166 79.9649 70.711 79.7472 70.6538C79.5348 70.5978 79.3179 70.5886 79.1044 70.6416C79.0061 70.666 78.9458 70.7678 78.9588 70.8646C78.9809 71.0297 79.1208 71.0354 79.2519 71.037C79.4285 71.0389 79.5962 71.0621 79.7601 71.1315C79.8699 71.178 80.446 71.4662 80.3305 71.1021C80.3209 71.0736 80.3099 71.0465 80.2965 71.0209Z" fill="#3B1411"/>
<path d="M77.7619 76.4323C77.6815 76.4075 77.5816 76.4319 77.4981 76.4319C77.4226 76.4319 77.3292 76.4266 77.2656 76.4174C77.1847 76.406 77.1039 76.3888 77.0246 76.3686C76.9381 76.3465 76.8565 76.308 76.7658 76.316C76.6697 76.3244 76.6354 76.4216 76.6918 76.4944C76.7528 76.573 76.8519 76.6019 76.9427 76.6328C77.0288 76.6622 77.1165 76.6831 77.2065 76.6969C77.3003 76.711 77.3944 76.7209 77.4893 76.7228C77.5858 76.7247 77.7097 76.7331 77.7951 76.6831C77.8988 76.6221 77.8732 76.467 77.7619 76.4323Z" fill="#804E26"/>
<path d="M73.3339 73.531C73.2488 73.56 73.1288 73.5166 73.1093 73.4171C73.0994 73.3663 73.1253 73.3244 73.157 73.2851C73.1871 73.247 73.2321 73.2249 73.2763 73.2242C73.3464 73.2234 73.4002 73.1555 73.3811 73.0869C73.2996 72.7964 73.0678 72.4998 72.7327 72.5334C72.5844 72.5482 72.4494 72.6321 72.3865 72.7701C72.3572 72.8345 72.3507 72.9054 72.3686 72.9741C72.3789 73.0137 72.4284 73.1155 72.4845 73.0648C72.5176 73.0343 72.5074 72.9897 72.5184 72.9504C72.5302 72.9089 72.5474 72.8692 72.5718 72.8334C72.6213 72.7606 72.7056 72.7327 72.791 72.7411C72.9618 72.7575 73.0712 72.8921 73.1349 73.0408C72.9816 73.1098 72.8832 73.2794 72.9298 73.4544C72.9805 73.6443 73.1962 73.7685 73.3846 73.7114C73.4989 73.6763 73.4478 73.4922 73.3339 73.531Z" fill="#804E26"/>
<path d="M79.0758 73.1851C78.9492 73.0673 78.7937 72.9911 78.6538 72.8912C78.4994 72.7806 78.4372 72.6582 78.4567 72.4699C78.47 72.3411 78.2962 72.3254 78.2356 72.4101C78.051 72.6682 78.3027 72.9899 78.5089 73.1394C78.6328 73.2293 78.7742 73.2938 78.8836 73.4028C78.9801 73.4992 79.0518 73.6212 79.0929 73.7508C79.1772 74.0173 79.1353 74.3063 78.9591 74.5259C78.7704 74.7615 78.5177 74.824 78.2405 74.8949C78.1524 74.9174 78.1578 75.0432 78.2405 75.0684C78.5287 75.1557 78.8543 74.9994 79.0674 74.8122C79.2999 74.6079 79.4315 74.3048 79.4265 73.9952C79.4212 73.6948 79.2973 73.3914 79.0758 73.1851Z" fill="#80410E"/>
<path d="M78.1466 75.8727C77.2667 76.1316 76.3183 75.7885 75.8127 75.0234C75.7258 74.8915 75.9313 74.7588 76.0182 74.8899C76.4627 75.5628 77.2961 75.8682 78.0708 75.6398C78.2217 75.5956 78.298 75.8281 78.1466 75.8727Z" fill="#3B1411"/>
<path d="M85.4847 84.1541C85.6734 87.8124 86.0047 91.463 86.4801 95.095C86.6131 96.1129 86.758 97.1289 86.9132 98.1437C86.9372 98.2992 86.6924 98.3088 86.6688 98.1544C86.1141 94.5334 85.7008 90.8912 85.4325 87.2379C85.3574 86.2143 85.2933 85.1895 85.2407 84.1644C85.2323 84.0073 85.4767 83.9963 85.4847 84.1541Z" fill="#1D253D"/>
<path d="M58.5242 54.217C57.9363 53.9307 57.5456 53.2807 57.5681 52.6268C57.5906 51.973 58.0255 51.352 58.6321 51.1069C58.7373 50.0539 59.6904 49.2293 60.7323 49.0444C59.9858 50.7664 59.5024 52.6021 59.3038 54.4682L58.5242 54.217Z" fill="#BF6D3E"/>
<path d="M59.3678 49.5551C58.9873 49.6977 58.8581 50.1136 58.775 50.4735C58.7273 50.6805 58.6831 50.9081 58.547 51.0785C58.4063 51.2539 58.1772 51.3332 57.9965 51.4582C57.6317 51.711 57.3805 52.0812 57.3328 52.5276C57.2806 53.0155 57.4575 53.4974 57.6256 53.9461C57.6805 54.0933 57.8966 53.9782 57.8421 53.8321C57.6843 53.4101 57.5143 52.9446 57.584 52.4868C57.6527 52.0358 57.9752 51.7426 58.3526 51.5284C58.5169 51.4353 58.6709 51.3332 58.7792 51.175C58.8795 51.029 58.934 50.8547 58.9767 50.6847C59.0598 50.3508 59.1131 49.9104 59.4822 49.772C59.6289 49.7168 59.5138 49.5006 59.3678 49.5551Z" fill="#80410E"/>
<path d="M120.608 70.553C122.362 71.0516 123.76 72.6276 124.047 74.4285C124.112 74.8437 124.132 75.2886 124.369 75.6359C124.621 76.0042 125.099 76.2302 125.197 76.6656C125.303 77.1284 124.92 77.6423 125.14 78.0632C125.364 78.4921 126.057 78.4924 126.272 78.9263C126.51 79.4063 125.969 80.0033 126.188 80.4928C126.386 80.9384 127.017 80.9285 127.436 81.1793C127.822 81.4111 128.017 81.8839 128.014 82.3345C128.012 82.7851 127.842 83.2182 127.639 83.6204C126.435 86.0042 123.984 87.6267 121.367 88.1616C118.75 88.6964 115.997 88.2252 113.534 87.1925C112.949 86.947 112.355 86.6534 111.961 86.1548C111.568 85.6561 111.434 84.899 111.812 84.3882C111.954 84.1964 112.158 84.0485 112.259 83.8323C112.616 83.0706 111.482 82.2967 111.65 81.4725C111.741 81.0265 112.177 80.7543 112.549 80.4931C112.922 80.2316 113.304 79.8336 113.208 79.3887C113.16 79.1695 113.001 78.988 112.95 78.77C112.816 78.2042 113.407 77.7685 113.781 77.3228C114.446 76.5291 114.486 75.4068 114.615 74.3786C114.971 71.5419 117.829 69.7627 120.608 70.553Z" fill="#96432A"/>
<path d="M120.562 71.5632C122.217 72.0336 123.536 73.5204 123.806 75.2192C123.868 75.6107 123.886 76.0305 124.11 76.3579C124.348 76.7052 124.799 76.9187 124.892 77.3289C124.991 77.7658 124.63 78.2503 124.838 78.6472C125.049 79.0517 125.702 79.0525 125.905 79.4615C126.129 79.9144 125.62 80.4775 125.826 80.9392C126.013 81.3593 126.608 81.3501 127.003 81.5869C127.367 81.8053 127.551 82.2514 127.549 82.6764C127.547 83.1015 127.386 83.5098 127.195 83.8895C126.058 86.138 123.746 87.6686 121.278 88.173C118.81 88.6774 116.213 88.2332 113.889 87.2588C113.337 87.027 112.776 86.7502 112.405 86.2798C112.034 85.8094 111.908 85.0953 112.265 84.6135C112.399 84.4324 112.591 84.2928 112.687 84.0889C113.024 83.3703 111.953 82.6402 112.112 81.8625C112.198 81.4416 112.609 81.1851 112.961 80.9384C113.312 80.6917 113.673 80.3162 113.582 79.8965C113.537 79.6899 113.387 79.5187 113.338 79.3128C113.212 78.7791 113.77 78.3682 114.122 77.9477C114.75 77.1989 114.787 76.1399 114.909 75.1704C115.245 72.4965 117.941 70.8179 120.562 71.5632Z" fill="#6C301E"/>
<path d="M136.962 77.5555C136.972 77.2429 136.765 76.9547 136.502 76.7854C136.239 76.6162 135.926 76.5456 135.619 76.4873C134.72 76.3169 133.806 76.2258 132.891 76.2159C132.417 76.2105 132.009 76.5491 131.917 77.0134C131.87 77.2517 131.825 77.4892 131.813 77.7145C131.192 78.1399 131.215 79.1037 131.32 79.849C129.873 81.1269 127.509 82.9385 125.637 83.4116C123.766 83.8843 121.766 84.667 120.866 86.3745C120.242 87.5586 120.271 88.9669 120.328 90.3042C120.37 91.2779 120.469 92.3796 121.75 92.6987C122.152 92.799 122.573 92.7837 122.98 92.7052C125.601 92.1986 127.274 89.9318 129.553 88.5624C131.729 87.2548 133.947 85.8568 135.406 83.7787C136.865 81.7018 138.349 79.6824 136.962 77.5555Z" fill="#FF941E"/>
<path d="M137.191 80.8406C137.627 79.759 137.691 78.6721 136.962 77.5555C136.972 77.2429 136.765 76.9547 136.502 76.7854C136.239 76.6162 135.926 76.5456 135.619 76.4873C134.72 76.3169 133.806 76.2258 132.891 76.2159C132.417 76.2105 132.009 76.5491 131.917 77.0134C131.87 77.2517 131.825 77.4892 131.813 77.7145C131.192 78.1399 131.215 79.1037 131.32 79.849C129.873 81.1269 127.509 82.9385 125.637 83.4116C123.766 83.8843 121.766 84.667 120.866 86.3745C120.242 87.5586 120.271 88.9669 120.328 90.3042C120.337 90.5219 120.351 90.7457 120.378 90.966C126.532 88.9352 132.811 85.7375 137.191 80.8406Z" fill="#FF941E"/>
<path d="M120.378 90.9667C120.474 91.7318 120.756 92.4516 121.75 92.6994C122.152 92.7996 122.574 92.7844 122.981 92.7058C125.601 92.1992 127.274 89.9324 129.553 88.563C131.73 87.2554 133.947 85.8574 135.406 83.7793C136.099 82.7927 136.797 81.8191 137.191 80.8408C132.811 85.7377 126.532 88.9355 120.378 90.9667Z" fill="#A86114"/>
<path d="M132.397 68.2202L132.175 76.7834C132.158 77.4154 132.634 77.9614 133.264 78.0098C133.772 78.0487 134.412 77.9896 135.097 77.6629C135.565 77.4391 135.824 76.9248 135.748 76.4113L134.502 68.0643C134.502 68.0643 133.387 67.9716 132.397 68.2202Z" fill="#FFC9B9"/>
<path d="M134.184 81.6849C133.201 81.5381 132.309 80.9788 131.732 80.1725C131.64 80.0444 131.461 80.211 131.551 80.338C132.168 81.1995 133.128 81.7737 134.173 81.9296C134.329 81.9525 134.339 81.7077 134.184 81.6849Z" fill="#A86114"/>
<path d="M134.821 78.6875C134.076 78.6898 133.344 78.4923 132.703 78.1111C132.568 78.0307 132.435 78.2361 132.571 78.317C133.247 78.7192 134.022 78.9342 134.81 78.9319C134.967 78.9315 134.979 78.6871 134.821 78.6875Z" fill="#A86114"/>
<path d="M119.669 82.607C118.036 82.1709 116.263 82.2723 114.69 82.8918C113.953 83.1819 113.163 83.7427 113.193 84.5338C113.219 85.22 113.855 85.7106 114.459 86.0366C116.692 87.2409 119.368 87.6015 121.84 87.0312C123.043 86.7537 124.24 85.7568 123.161 84.5871C122.267 83.6188 120.927 82.9429 119.669 82.607Z" fill="#FF941E"/>
<path d="M114.417 85.5908C112.67 85.8699 111.256 87.2911 110.23 88.8519C109.203 90.4126 108.442 92.1743 107.317 93.6519C106.393 94.8658 105.236 95.8672 104.409 97.1611C103.582 98.455 103.127 100.209 103.799 101.605C104.439 102.934 105.924 103.55 107.306 103.567C108.311 103.579 109.387 103.288 110.04 102.458C110.526 101.84 110.715 100.993 110.686 100.18C110.681 100.015 110.667 99.8515 110.646 99.6891C110.527 98.7482 110.882 97.8249 111.52 97.1756C111.722 96.9701 111.904 96.7399 112.06 96.523C113.187 94.9462 114.24 93.2604 114.783 91.3527C115.326 89.4451 115.354 87.3086 114.417 85.5908Z" fill="#FF941E"/>
<path d="M114.625 91.8479C114.68 91.6836 114.736 91.5201 114.784 91.3527C115.326 89.4451 115.355 87.3086 114.417 85.5908C112.67 85.8699 111.256 87.2911 110.229 88.8519C109.203 90.4126 108.442 92.1743 107.317 93.6519C106.392 94.8658 105.236 95.8672 104.409 97.1611C103.581 98.455 103.127 100.209 103.799 101.605C104.439 102.934 105.924 103.55 107.306 103.567C108.311 103.579 109.387 103.288 110.04 102.458C110.526 101.84 110.714 100.993 110.686 100.18C110.68 100.015 110.667 99.8515 110.646 99.6891C110.641 99.6521 110.642 99.6159 110.639 99.5789C110.293 98.8485 109.911 98.1897 109.419 97.5332C111.394 95.9286 113.244 94.0126 114.625 91.8479Z" fill="#FF941E"/>
<path d="M109.419 97.5329C109.911 98.1898 110.293 98.8482 110.639 99.5786C110.56 98.6762 110.907 97.799 111.52 97.1753C111.722 96.9698 111.905 96.7396 112.06 96.5227C113.089 95.0843 114.051 93.5529 114.624 91.8477C113.243 94.0123 111.394 95.9283 109.419 97.5329Z" fill="#A86114"/>
<path d="M121.96 113.027C122.902 111.887 123.689 110.715 123.829 109.851L111.231 107.527C110.837 108.552 110.25 109.594 109.948 110.646C113.741 112.065 117.981 113.078 121.96 113.027Z" fill="#1D253D"/>
<path d="M120.141 159.265L122.755 159.193C123.483 159.951 127.869 160.905 128.123 161.924H119.538C119.633 161.017 119.827 160.124 120.141 159.265Z" fill="white"/>
<path d="M128.122 161.924C128.147 162.021 128.172 162.119 128.191 162.218C128.221 162.373 128.106 162.518 127.948 162.518H119.755C119.611 162.518 119.495 162.395 119.506 162.252C119.515 162.142 119.526 162.033 119.537 161.924H128.122Z" fill="#465A94"/>
<path d="M126.538 109.036C122.745 110.455 120.99 109.903 117.011 109.851C116.664 112.096 118.054 116.888 118.054 116.888L118.216 120.398H127.936C127.896 116.419 127.515 112.43 126.538 109.036Z" fill="#1D253D"/>
<path d="M118.216 120.397L118.327 122.065L127.833 122.174C127.913 121.593 127.952 120.996 127.936 120.398L118.216 120.397Z" fill="#006CB0"/>
<path d="M116.049 159.265L113.435 159.193C112.707 159.951 111.503 160.905 111.249 161.924H116.653C116.557 161.017 116.362 160.124 116.049 159.265Z" fill="white"/>
<path d="M111.249 161.924C111.224 162.021 111.2 162.119 111.18 162.218C111.15 162.373 111.266 162.518 111.424 162.518H116.435C116.579 162.518 116.695 162.395 116.684 162.252C116.675 162.142 116.664 162.033 116.653 161.924H111.249Z" fill="#465A94"/>
<path d="M118.221 116.888C118.221 116.888 120.324 115.006 121.96 113.027C117.981 113.079 113.741 112.065 109.948 110.646C109.037 113.814 108.59 117.091 108.455 120.398H118.06L118.221 116.888Z" fill="#465A94"/>
<path d="M108.455 120.397C108.39 120.988 108.397 121.581 108.462 122.174H118.061V120.397H108.455Z" fill="#0081C9"/>
<path d="M125.515 100.445C125.531 95.7832 126.022 91.9987 126.209 87.3393C126.229 86.8266 126.071 86.2437 125.624 86.0157C118.962 82.6147 114.039 85.3714 112.956 86.1575C112.402 86.5589 112.162 87.2863 112.371 87.9531C113.583 91.8214 113.481 95.4 112.837 99.3999C112.333 102.525 108.968 106.196 109.815 110.23C115.179 112.633 121.606 112.394 127.488 111.274C129.049 108.473 125.505 102.988 125.515 100.445Z" fill="#FF941E"/>
<path d="M117.626 78.5591C117.871 80.4953 117.983 82.4568 117.959 84.4033C117.954 84.7971 118.096 85.1761 118.332 85.3865C118.984 85.9668 119.779 86.1867 120.495 85.9729C120.86 85.8642 121.083 85.3453 121.012 84.7998C120.85 83.5475 120.742 82.355 120.668 81.0527C119.845 79.7554 118.779 79.0044 117.626 78.5591Z" fill="#FFC9B9"/>
<path d="M120.668 81.0523C119.845 79.7554 118.778 79.0044 117.626 78.5591C117.691 79.0688 117.745 79.58 117.791 80.092C118.577 81.6566 119.693 83.2108 120.91 83.9218C120.805 82.9798 120.724 82.0473 120.668 81.0523Z" fill="#FFAB90"/>
<path d="M125.37 110.597C123.588 111.111 121.743 111.4 119.889 111.456C118.036 111.513 116.174 111.343 114.363 110.944C113.34 110.719 112.333 110.421 111.352 110.053C111.204 109.998 111.129 110.231 111.276 110.286C113.026 110.941 114.856 111.372 116.712 111.576C118.577 111.78 120.468 111.752 122.326 111.494C123.373 111.349 124.409 111.128 125.425 110.836C125.575 110.793 125.522 110.553 125.37 110.597Z" fill="#A86114"/>
<path d="M122.821 74.9421C123.503 77.9515 122.72 81.4546 121.927 81.5774C119.294 81.9849 117.544 79.5256 117.527 79.4947C117.544 79.5256 117.149 79.7418 116.917 79.7837C116.688 79.8252 116.324 79.632 116.155 79.4768C115.829 79.1772 115.45 78.6785 115.608 78.2069C115.797 77.6397 116.655 77.3621 117.084 77.8699C117.886 76.3156 117.192 75.5071 117.159 74.3767C118.462 73.3577 120.153 72.9132 121.839 73.0374C122.12 73.0584 122.758 74.6642 122.821 74.9421Z" fill="#FFC9B9"/>
<path d="M119.775 76.2918C119.756 76.2621 119.732 76.2388 119.701 76.2213C119.671 76.2018 119.639 76.1904 119.604 76.1877C119.569 76.179 119.534 76.1797 119.498 76.1896C119.476 76.1984 119.454 76.2072 119.432 76.2156C119.39 76.2384 119.358 76.2701 119.333 76.3101C119.324 76.3311 119.315 76.3517 119.305 76.3726C119.292 76.4188 119.291 76.4656 119.302 76.5125L119.309 76.5404C119.316 76.5766 119.332 76.6082 119.356 76.6349C119.374 76.6646 119.399 76.6883 119.43 76.7054C119.459 76.7249 119.491 76.7363 119.527 76.739C119.562 76.7478 119.597 76.747 119.632 76.7371L119.699 76.7112C119.74 76.6883 119.773 76.6566 119.797 76.6166C119.806 76.5956 119.816 76.5751 119.825 76.5541C119.839 76.508 119.84 76.4611 119.828 76.4142L119.822 76.3863C119.814 76.3505 119.798 76.3189 119.775 76.2918Z" fill="#3B1411"/>
<path d="M122.345 75.8377C122.327 75.808 122.302 75.7847 122.271 75.7672C122.242 75.7477 122.21 75.7363 122.174 75.7336C122.139 75.7249 122.104 75.7256 122.069 75.7355C122.047 75.7443 122.024 75.7531 122.002 75.7615C121.961 75.7843 121.928 75.816 121.904 75.856C121.895 75.877 121.885 75.8976 121.876 75.9185C121.862 75.9647 121.861 76.0112 121.873 76.0584L121.879 76.0863C121.887 76.1225 121.902 76.1541 121.926 76.1808C121.944 76.2105 121.969 76.2338 122 76.2513C122.03 76.2708 122.062 76.2822 122.097 76.2849C122.132 76.2937 122.167 76.2929 122.202 76.283L122.269 76.2571C122.31 76.2338 122.343 76.2025 122.367 76.1625C122.377 76.1415 122.386 76.121 122.395 76.1C122.409 76.0539 122.41 76.0074 122.399 75.9601L122.392 75.9322C122.385 75.8964 122.369 75.8648 122.345 75.8377Z" fill="#3B1411"/>
<path d="M116.914 78.9253C116.839 78.973 116.714 78.9593 116.673 78.8685C116.651 78.8224 116.667 78.7763 116.688 78.7313C116.708 78.6878 116.746 78.6562 116.788 78.6451C116.855 78.628 116.891 78.5506 116.856 78.4892C116.711 78.2304 116.42 78.0001 116.107 78.1103C115.968 78.1591 115.859 78.2708 115.83 78.4175C115.817 78.4862 115.828 78.5555 115.86 78.6169C115.879 78.6524 115.951 78.7385 115.992 78.6768C116.017 78.6402 115.997 78.5998 115.998 78.5597C116 78.517 116.007 78.4755 116.022 78.4355C116.052 78.3543 116.127 78.3081 116.21 78.2963C116.377 78.2723 116.513 78.3756 116.609 78.5029C116.478 78.6047 116.424 78.79 116.509 78.9467C116.602 79.1163 116.837 79.1853 117.004 79.087C117.106 79.026 117.014 78.8617 116.914 78.9253Z" fill="#FFAB90"/>
<path d="M120.155 74.7087C119.603 74.7591 119.077 74.968 118.634 75.3C118.508 75.3946 118.671 75.5776 118.796 75.4834C119.205 75.1765 119.694 74.995 120.202 74.9489C120.268 74.9428 120.311 74.8654 120.299 74.8052C120.285 74.7347 120.221 74.7026 120.155 74.7087Z" fill="#6C301E"/>
<path d="M122.633 74.7709C122.368 74.5201 121.991 74.4064 121.632 74.4831C121.569 74.4964 121.52 74.5616 121.535 74.6268C121.551 74.6905 121.612 74.7374 121.679 74.7232C121.716 74.7152 121.755 74.7091 121.793 74.7057C121.795 74.7053 121.808 74.7046 121.809 74.7046C121.815 74.7042 121.821 74.7042 121.826 74.7038C121.845 74.7034 121.862 74.7034 121.881 74.7042C121.919 74.7053 121.957 74.7088 121.996 74.7145C122.005 74.716 122.015 74.7175 122.025 74.7194C122.027 74.7198 122.035 74.7213 122.038 74.7221C122.042 74.7232 122.057 74.7267 122.059 74.7271C122.069 74.7293 122.079 74.732 122.089 74.7347C122.124 74.7446 122.158 74.756 122.192 74.7698C122.209 74.7766 122.225 74.7839 122.242 74.7915C122.246 74.7938 122.247 74.7938 122.249 74.7945C122.25 74.7949 122.249 74.7949 122.252 74.7961C122.26 74.8006 122.27 74.8056 122.278 74.8105C122.31 74.8285 122.341 74.8479 122.37 74.8689C122.387 74.8807 122.403 74.8929 122.418 74.9055C122.423 74.9093 122.428 74.9135 122.432 74.9173C122.434 74.9188 122.449 74.9329 122.449 74.9329C122.497 74.9783 122.569 74.9901 122.622 74.9436C122.669 74.9028 122.682 74.8166 122.633 74.7709Z" fill="#6C301E"/>
<path d="M121.752 80.0499C121.485 80.0887 121.218 80.1276 120.951 80.1665C120.888 80.1757 120.839 80.2481 120.855 80.3102C120.871 80.3773 120.931 80.4166 120.998 80.4067C121.265 80.3678 121.532 80.3289 121.799 80.29C121.863 80.2809 121.911 80.2084 121.896 80.1463C121.879 80.0792 121.82 80.0399 121.752 80.0499Z" fill="#FFAB90"/>
<path d="M122.092 77.7129C122.002 77.5742 121.863 77.4926 121.722 77.4167C121.606 77.3546 121.482 77.2894 121.435 77.159C121.412 77.0969 121.325 77.077 121.271 77.1041C121.206 77.1365 121.193 77.2059 121.216 77.2684C121.315 77.541 121.614 77.5898 121.812 77.7602C121.897 77.8326 121.946 77.9283 121.885 78.0313C121.811 78.1533 121.673 78.2238 121.576 78.3244C121.53 78.3721 121.519 78.4449 121.565 78.4971C121.606 78.5436 121.691 78.5558 121.738 78.5078C121.851 78.3904 122 78.3088 122.088 78.1674C122.176 78.0259 122.184 77.8551 122.092 77.7129Z" fill="#FFAB90"/>
<path d="M121.722 79.3634C121.69 79.2994 121.62 79.2849 121.557 79.3085C121.205 79.4427 120.811 79.4587 120.449 79.3573C120.385 79.3394 120.316 79.3676 120.293 79.4328C120.272 79.4923 120.304 79.5708 120.368 79.5887C120.798 79.7092 121.25 79.6867 121.667 79.5277C121.729 79.5041 121.749 79.4187 121.722 79.3634Z" fill="#3B1411"/>
<path d="M116.278 103.679C116.046 105.152 115.202 106.493 113.99 107.357C113.862 107.449 114.028 107.628 114.155 107.538C115.423 106.634 116.281 105.226 116.523 103.69C116.547 103.535 116.302 103.525 116.278 103.679Z" fill="#A86114"/>
<path d="M123.893 103.336C121.389 103.409 118.885 103.481 116.381 103.554C116.225 103.559 116.213 103.803 116.371 103.798C118.875 103.726 121.379 103.653 123.882 103.58C124.038 103.576 124.05 103.331 123.893 103.336Z" fill="#A86114"/>
<path d="M125.409 106.431C124.445 105.779 123.89 104.619 123.979 103.459C123.991 103.302 123.747 103.291 123.735 103.449C123.639 104.693 124.244 105.938 125.277 106.637C125.407 106.726 125.54 106.519 125.409 106.431Z" fill="#A86114"/>
<path d="M115.995 104.747L108.408 99.0015C108.408 99.0015 106.601 99.937 106.689 102.338L114.895 106.548C114.895 106.548 115.62 105.697 115.995 104.747Z" fill="#FFC9B9"/>
<path d="M108.472 98.9137C107.049 99.5729 106.18 101.172 106.375 102.723C106.395 102.879 106.633 102.823 106.614 102.668C106.432 101.223 107.269 99.7402 108.586 99.1303C108.729 99.0643 108.615 98.8478 108.472 98.9137Z" fill="#A86114"/>
<path d="M109.728 98.8826C109.091 98.1091 107.97 97.8377 107.044 98.2086C106.898 98.267 107.013 98.4835 107.158 98.4252C107.985 98.0943 108.985 98.3653 109.548 99.0481C109.648 99.1697 109.828 99.0039 109.728 98.8826Z" fill="#A86114"/>
<path d="M113.294 91.2471C113.283 91.0919 113.038 91.0794 113.05 91.2364C113.215 93.5741 113.154 95.9244 112.867 98.2503C112.848 98.4066 113.092 98.4165 113.111 98.261C113.398 95.9351 113.459 93.5848 113.294 91.2471Z" fill="#A86114"/>
<path d="M121.685 84.5346C121.635 84.3867 121.396 84.4397 121.446 84.5891C121.639 85.1652 121.343 85.7176 121.003 86.1693C120.845 86.3782 120.684 86.6093 120.477 86.7728C120.243 86.9573 120.002 86.9226 119.767 86.761C119.551 86.6127 119.361 86.4289 119.151 86.2734C118.931 86.1099 118.701 85.9585 118.464 85.8205C117.995 85.5475 117.498 85.328 116.983 85.1595C116.453 84.986 115.75 84.7767 115.662 84.1286C115.64 83.9727 115.402 84.028 115.423 84.1831C115.503 84.7691 116.045 85.0943 116.554 85.2753C117.159 85.4904 117.748 85.6897 118.308 86.013C118.576 86.1678 118.835 86.3397 119.082 86.5269C119.316 86.705 119.53 86.931 119.795 87.0625C120.364 87.3443 120.768 86.8609 121.09 86.4549C121.516 85.9173 121.922 85.2418 121.685 84.5346Z" fill="#A86114"/>
<path d="M117.731 87.5534C117.68 87.4066 117.44 87.4593 117.493 87.6079C118.024 89.1237 118.17 90.7504 117.918 92.3363C117.893 92.4915 118.138 92.501 118.162 92.347C118.417 90.7432 118.268 89.0863 117.731 87.5534Z" fill="white"/>
<path d="M122.013 87.2029C121.967 87.0538 121.727 87.1068 121.775 87.2574C122.327 89.0069 122.425 90.8837 122.046 92.6797C122.014 92.8325 122.247 92.9092 122.279 92.7551C122.667 90.9161 122.58 88.9958 122.013 87.2029Z" fill="white"/>
<path d="M113.435 159.193L111.939 151.049C111.431 148.287 111.208 142.544 111.272 139.736L111.34 136.769L108.912 122.173H117.572L115.234 137.212L115.545 138.716C116.23 142.021 116.505 148.334 116.364 151.706L116.049 159.265L113.435 159.193Z" fill="#FFC9B9"/>
<path d="M127.833 122.173L122.754 159.192H120.14L119.698 149.186C119.57 146.31 119.993 140.5 120.942 137.781L118.698 122.068L127.833 122.173Z" fill="#FFC9B9"/>
<path d="M117.572 122.173H108.913L109.043 122.959H117.45L117.572 122.173Z" fill="#FFAB90"/>
<path d="M115.234 137.213L117.45 122.959H109.044L111.341 136.769L111.273 139.736C111.208 142.544 111.431 148.288 111.939 151.049L113.436 159.193L116.05 159.264L116.365 151.706C116.505 148.334 116.231 142.02 115.546 138.715L115.234 137.213Z" fill="#FFC9B9"/>
<path d="M127.833 122.174L118.699 122.069L118.826 122.96H127.725L127.833 122.174Z" fill="#FFAB90"/>
<path d="M118.826 122.959L120.942 137.782C119.993 140.5 119.571 146.311 119.698 149.187L120.141 159.193H122.754L127.725 122.959H118.826Z" fill="#FFC9B9"/>
<path d="M134.535 68.5591V68.537L136.023 65.7514L134.426 64.5391L132.845 65.1441L132.562 67.4684C132.45 67.8142 132.434 68.0578 132.41 68.4337L134.535 68.5591Z" fill="#FFC9B9"/>
<path d="M134.248 36.8237L139.748 47.9675L152.046 49.7547L143.147 58.4288L145.248 70.6773L134.248 64.8944L123.248 70.6773L125.349 58.4288L116.45 49.7547L128.748 47.9675L134.248 36.8237Z" fill="#FEB12F"/>
<path d="M121.365 49.04L116.45 49.7541L125.349 58.4282L123.248 70.6763L134.248 64.8935L145.247 70.6763L143.464 60.2817C134.907 59.9177 126.405 55.9178 121.365 49.04Z" fill="#FEA30A"/>
<path d="M132.856 68.235C133.192 68.0081 133.415 67.4939 133.402 66.9769C133.389 66.4596 133.141 65.9682 132.794 65.7741C132.734 64.9408 132.189 64.2885 131.593 64.1421C132.02 65.5046 132.296 66.9575 132.41 68.434L132.856 68.235Z" fill="#FFC9B9"/>
<path d="M132.373 64.5461C132.591 64.6589 132.664 64.9883 132.712 65.2727C132.74 65.4366 132.765 65.6166 132.843 65.7515C132.923 65.8903 133.054 65.9532 133.157 66.0519C133.366 66.2517 133.51 66.5449 133.537 66.8983C133.566 67.2844 133.465 67.6657 133.369 68.021C133.338 68.1372 133.214 68.0461 133.245 67.9306C133.336 67.5967 133.433 67.2284 133.393 66.8662C133.354 66.5094 133.169 66.2772 132.953 66.1076C132.86 66.034 132.772 65.9532 132.709 65.8281C132.652 65.7126 132.621 65.575 132.597 65.4401C132.549 65.1759 132.518 64.827 132.308 64.7176C132.224 64.6738 132.29 64.5026 132.373 64.5461Z" fill="#FFAB90"/>
<path d="M120.66 73.2304C120.435 73.5102 120.087 73.7088 119.763 73.9185C119.44 74.1282 119.121 74.3699 118.996 74.6863C118.855 75.0435 118.984 75.4297 118.969 75.804C118.948 76.2966 118.661 76.7785 118.193 77.1021C117.726 77.4262 117.087 77.5874 116.47 77.5363C116.404 76.3625 116.356 75.1224 117.056 74.0878C117.513 73.4126 118.286 72.8846 119.178 72.5998C119.93 72.3596 121.524 72.1538 120.66 73.2304Z" fill="#6C301E"/>
<path d="M34.4794 76.5405C34.1004 77.0251 33.7375 77.4871 33.4054 77.8882C31.2275 78.3495 30.5481 79.0277 29.6396 81.06L31.2279 88.8115C34.3886 87.7128 36.7991 84.597 38.9028 81.9948C39.0831 81.7718 39.2596 81.5522 39.4319 81.3345C39.268 81.3261 39.1018 81.307 38.9321 81.2762C36.689 80.9026 34.7333 78.8146 34.4794 76.5405Z" fill="#465A94"/>
<path d="M41.6498 74.0135C41.3151 72.9724 40.5515 71.8611 39.4581 71.8867C38.8634 71.9008 38.3354 72.2587 37.8783 72.6396C36.8368 73.5084 35.5875 75.1222 34.4792 76.5392C34.7335 78.8132 36.6892 80.9008 38.9324 81.2748C39.1017 81.3057 39.2683 81.3248 39.4322 81.3331C41.2724 79.0092 42.5865 76.9265 41.6498 74.0135Z" fill="#FFAB91"/>
<path d="M20.1949 81.6411C20.2094 81.0144 19.9013 80.4083 19.4534 79.9695C19.0054 79.5307 18.4283 79.2444 17.8343 79.0435C16.5614 78.6138 15.1295 78.6161 13.8249 78.9375C11.5006 77.3557 9.26122 75.6497 7.11909 73.8286C5.79508 74.8065 4.41808 76.8823 3.38037 78.1598C7.44123 83.1337 12.7415 86.4252 18.7687 88.6398L20.1949 81.6411Z" fill="#FFAB91"/>
<path d="M20.1946 81.6413C20.2091 81.0145 19.901 80.4084 19.4531 79.9696C19.0052 79.5308 18.428 79.2445 17.834 79.0436C16.5611 78.6139 15.1292 78.6162 13.8246 78.9376C13.1194 78.4576 12.4248 77.9628 11.7359 77.46C10.3097 79.2826 9.6555 81.4747 9.3894 83.7804C12.2258 85.8116 15.382 87.3959 18.768 88.6399L20.1946 81.6413Z" fill="#465A94"/>
<path d="M17.6198 88.2003C14.9352 86.1089 12.3615 83.8627 9.76186 81.6816C9.59336 82.3656 9.47175 83.0674 9.3894 83.7811C11.9021 85.5805 14.6671 87.028 17.6198 88.2003Z" fill="#1D253D"/>
<path d="M17.2684 109.293C25.6154 110.293 25.4926 115.494 25.4926 115.494L22.1218 137.171L19.7136 156.059H15.7324C14.0363 131.232 17.2684 109.293 17.2684 109.293Z" fill="#A86114"/>
<path d="M23.2498 115.196C23.2498 115.196 19.5367 112.605 19.1021 110.338L33.0402 110.878C33.0402 110.878 35.3706 140.152 35.3112 156.058H31.3628L23.2498 115.196Z" fill="#FF941E"/>
<path d="M34.9838 156.059C34.9827 156.65 34.9788 157.225 34.9724 157.777H31.8219L31.6458 156.059H34.9838Z" fill="#FFAB91"/>
<path d="M19.3847 156.059C19.3835 156.65 19.3797 157.225 19.3732 157.777H16.2228L16.0466 156.059H19.3847Z" fill="#FFAB91"/>
<path d="M20.3787 112.617C19.6417 111.811 18.9967 110.891 18.8293 110.019L32.915 109.293C32.915 109.293 33.0294 110.942 33.0831 111.627C28.8839 112.692 24.5882 113.089 20.3787 112.617Z" fill="#A86114"/>
<path d="M31.6432 157.52L35.3308 157.41C36.3582 158.574 37.0909 160.04 37.4493 161.606H30.7915C30.9261 160.212 31.2006 158.84 31.6432 157.52Z" fill="#465A94"/>
<path d="M37.4492 161.605C37.4835 161.755 37.5189 161.905 37.546 162.057C37.5887 162.295 37.4255 162.518 37.2025 162.518H31.0986C30.8954 162.518 30.7319 162.329 30.7479 162.109C30.7601 161.94 30.7754 161.773 30.7914 161.605H37.4492V161.605Z" fill="#A86114"/>
<path d="M19.5835 157.52L15.8959 157.41C14.8685 158.574 8.68038 160.04 8.32202 161.606H20.4352C20.301 160.212 20.0265 158.84 19.5835 157.52Z" fill="#465A94"/>
<path d="M8.32263 161.605C8.28832 161.755 8.25286 161.905 8.2258 162.057C8.1831 162.295 8.34665 162.518 8.56928 162.518H20.1289C20.3321 162.518 20.4957 162.329 20.4797 162.109C20.4675 161.94 20.4522 161.773 20.4362 161.605H8.32263V161.605Z" fill="#A86114"/>
<path d="M32.0617 138.76C32.5188 137.905 32.9973 137.072 33.3758 136.169C33.7586 135.257 34.0323 134.308 34.3095 133.354C34.3434 133.237 34.4955 133.286 34.4761 133.404C34.3098 134.395 33.9805 135.359 33.6065 136.278C33.2333 137.194 32.8002 138.111 32.2241 138.897C32.1498 138.998 32.0042 138.868 32.0617 138.76Z" fill="#A86114"/>
<path d="M17.6108 82.6487C17.6703 81.5061 18.3877 80.5104 19.443 80.0689C21.6858 79.1307 24.1931 78.8211 26.6315 78.9752C28.8681 79.1162 31.0602 79.6259 33.1997 80.3098C34.6003 80.7578 35.4501 82.1714 35.2194 83.6239C33.9023 91.9274 33.3663 100.459 33.6945 108.846C33.7158 109.391 33.7665 110.176 33.2458 110.339C28.4526 111.834 21.619 112.08 17.058 110.865C15.9265 110.564 16.8178 109.52 16.8148 108.35C16.7923 99.9706 17.1792 90.9408 17.6108 82.6487Z" fill="#465A94"/>
<path d="M28.1484 73.6543C28.0024 75.5208 28.0459 77.4018 28.2769 79.2591C28.3238 79.635 28.1644 80.0067 27.8541 80.224C26.9982 80.8237 25.906 81.0887 24.8794 80.9339C24.3575 80.8553 23.9907 80.3754 24.0346 79.8493C24.1344 78.6419 24.1649 77.4956 24.1363 76.2463C25.158 74.9509 26.5774 74.1594 28.1484 73.6543Z" fill="#FFAB91"/>
<path d="M24.1359 76.2467C25.158 74.9509 26.5773 74.1594 28.1484 73.6543C28.0862 74.4499 28.0603 75.2482 28.0668 76.0465C27.3558 77.9923 26.0688 79.847 24.3345 80.6563C24.1279 80.4512 24.0086 80.1596 24.0345 79.8497C24.1344 78.6423 24.1649 77.4959 24.1359 76.2467Z" fill="#FF8A65"/>
<path d="M28.5081 73.1931C28.7238 72.3823 28.9396 71.571 29.155 70.7601C29.2679 70.3366 29.3811 69.8948 29.2965 69.4647C29.2118 69.0343 28.8653 68.6218 28.4269 68.6157C27.2645 66.9063 25.1632 65.9433 23.1106 66.1915C22.4046 66.2769 21.6829 66.5163 21.2041 67.042C20.6509 67.6489 20.5148 68.5265 20.5202 69.3477C20.527 70.3259 20.9647 70.4311 21.6349 71.1437C22.2731 71.8223 22.9905 73.0273 23.9085 73.1844C25.4651 73.4497 26.9481 73.4345 28.5081 73.1931Z" fill="#3E2410"/>
<path d="M28.2836 73.21C28.4788 72.4704 28.6743 71.7308 28.8695 70.9912C28.9717 70.6046 29.0743 70.2021 28.9976 69.8098C28.921 69.4175 28.6072 69.0412 28.2104 69.0355C27.1578 67.4763 25.2551 66.5987 23.397 66.8247C22.758 66.9025 22.1042 67.121 21.6708 67.6002C21.1702 68.1533 21.0467 68.9539 21.0517 69.7026C21.0578 70.5947 21.4542 70.6904 22.0608 71.3404C22.6383 71.9591 23.2883 73.0579 24.1194 73.2012C25.5284 73.444 26.8715 73.4299 28.2836 73.21Z" fill="#170D05"/>
<path d="M21.5427 70.6116C21.1951 73.2177 22.2671 77.8321 23.7074 77.8843C26.7824 77.9956 27.4407 76.0639 27.9565 74.1681C27.9478 74.2005 28.1681 74.3236 28.3938 74.3103C28.6165 74.2973 28.9119 74.035 29.0339 73.8524C29.2691 73.4998 29.5089 72.9504 29.2558 72.5471C28.9512 72.0618 28.2768 71.9627 27.9916 72.5326C28.013 71.5795 27.7015 70.6978 27.371 69.8076C27.2661 69.5255 27.0446 69.3002 26.7606 69.2007C25.3916 68.7211 23.6986 68.6997 22.3182 69.1366C22.0471 69.2224 21.8371 69.4367 21.7524 69.7081C21.6567 70.0154 21.5759 70.3642 21.5427 70.6116Z" fill="#FFAB91"/>
<path opacity="0.37" d="M26.6105 74.8909C25.0875 74.4792 23.3834 74.6428 22.0049 75.3812C22.4101 76.7822 23.0163 77.8596 23.7075 77.8844C26.6391 77.9903 27.3741 76.2393 27.8831 74.4331L28.084 72.4351C27.5929 73.2536 27.1019 74.0724 26.6105 74.8909Z" fill="#170D05"/>
<path d="M29.2557 72.5465C29.0014 72.1413 28.4898 72.0071 28.162 72.3048C28.1361 72.3479 28.1101 72.3913 28.0842 72.4344L27.8833 74.4324C27.9081 74.3444 27.9329 74.2559 27.9569 74.1675C27.9481 74.1999 28.1685 74.323 28.3942 74.3097C28.6168 74.2967 28.9122 74.0341 29.0342 73.8518C29.2691 73.4996 29.5089 72.9498 29.2557 72.5465Z" fill="#FFAB91"/>
<path d="M27.9915 72.5316C28.0128 71.5786 27.7014 70.6968 27.3709 69.8066C27.266 69.5249 27.0445 69.2992 26.7605 69.1997C25.3915 68.7201 23.6985 68.6988 22.318 69.1356C22.047 69.2214 21.8369 69.4357 21.7523 69.7071C21.6562 70.0148 21.5758 70.3636 21.5426 70.611C21.3619 71.9663 21.5655 73.8633 22.0047 75.3806C23.3836 74.6421 25.0873 74.4786 26.6103 74.8903C27.1013 74.0718 27.5927 73.2529 28.0837 72.4344L28.0887 72.3841C28.0533 72.4276 28.0201 72.4748 27.9915 72.5316Z" fill="#FFAB91"/>
<path d="M28.0892 72.385L28.0842 72.4353C28.1102 72.3922 28.1361 72.3487 28.162 72.3057C28.1361 72.3285 28.1124 72.3564 28.0892 72.385Z" fill="#FFAB91"/>
<path d="M24.3314 70.7733C24.7511 70.2407 25.9047 70.6083 26.3298 70.9502C26.4075 71.0127 26.5009 71.0928 26.4914 71.203C26.4865 71.2602 26.4552 71.3097 26.3976 71.3261C26.2672 71.3635 26.1433 71.2552 26.0347 71.1984C25.891 71.1233 25.7389 71.0665 25.5803 71.031C25.3851 70.9876 25.1823 70.9754 24.9833 70.9967C24.7907 71.0173 24.6062 71.1069 24.4118 71.0779C24.2601 71.0558 24.2578 70.8667 24.3314 70.7733Z" fill="#170D05"/>
<path d="M24.9454 71.7069C24.9557 71.6752 24.9732 71.6478 24.9984 71.6245C25.0216 71.5994 25.0491 71.5818 25.0807 71.5715C25.1112 71.5555 25.144 71.5483 25.1795 71.5494C25.2023 71.5525 25.2248 71.5555 25.2477 71.5586C25.2912 71.5708 25.3289 71.5925 25.3606 71.6245C25.3739 71.6417 25.3872 71.6592 25.4006 71.6764C25.4238 71.7164 25.4353 71.7595 25.4357 71.8056V71.8331C25.4368 71.8681 25.4296 71.9013 25.4135 71.9318C25.4033 71.9634 25.3857 71.9909 25.3606 72.0141C25.3373 72.0393 25.3099 72.0568 25.2782 72.0671C25.2477 72.0831 25.2149 72.0904 25.1795 72.0893L25.1112 72.0801C25.0678 72.0679 25.03 72.0458 24.998 72.0141C24.9847 71.997 24.9713 71.9795 24.958 71.9623C24.9347 71.9223 24.9233 71.8792 24.9229 71.8331V71.8056C24.9221 71.7705 24.9294 71.7374 24.9454 71.7069Z" fill="#3B1411"/>
<path d="M22.142 71.8661C22.1523 71.8344 22.1699 71.807 22.195 71.7837C22.2183 71.7586 22.2457 71.741 22.2774 71.7307C22.3079 71.7147 22.3407 71.7075 22.3761 71.7086C22.399 71.7117 22.4215 71.7147 22.4444 71.7178C22.4878 71.73 22.5256 71.7521 22.5576 71.7837C22.5709 71.8009 22.5843 71.8184 22.5976 71.8356C22.6209 71.8756 22.6323 71.9187 22.6327 71.9648V71.9922C22.6338 72.0277 22.6266 72.0605 22.6106 72.091C22.6003 72.1226 22.5827 72.1501 22.5576 72.1733C22.5343 72.1985 22.5069 72.216 22.4752 72.2263C22.4447 72.2423 22.412 72.2496 22.3765 72.2484L22.3083 72.2393C22.2648 72.2271 22.2271 72.205 22.1954 72.1733C22.1821 72.1562 22.1687 72.1386 22.1554 72.1215C22.1321 72.0815 22.1207 72.0384 22.1203 71.9922V71.9648C22.1188 71.9297 22.126 71.8966 22.142 71.8661Z" fill="#3B1411"/>
<path d="M21.635 71.1432C21.7342 70.9503 21.9476 70.8511 22.1531 70.7966C22.3533 70.7436 22.558 70.7352 22.7593 70.7852C22.8519 70.8084 22.9091 70.9041 22.8965 70.9956C22.8756 71.1516 22.7436 71.1569 22.6201 71.1584C22.4535 71.1603 22.2953 71.1821 22.1409 71.2476C22.0372 71.2915 21.494 71.5633 21.603 71.2198C21.6122 71.1927 21.6228 71.1672 21.635 71.1432Z" fill="#170D05"/>
<path d="M28.2023 73.51C28.2827 73.5375 28.396 73.4963 28.4143 73.4025C28.4238 73.3545 28.399 73.3152 28.3696 73.2778C28.3411 73.242 28.2987 73.221 28.2568 73.2203C28.1908 73.2195 28.1398 73.1555 28.1581 73.0907C28.2351 72.8169 28.4539 72.5367 28.7696 72.5684C28.9095 72.5825 29.0368 72.6614 29.0963 72.7918C29.1241 72.8528 29.1298 72.9195 29.1134 72.9839C29.1039 73.0213 29.057 73.1173 29.004 73.0693C28.9724 73.0407 28.9823 72.9984 28.972 72.9614C28.9609 72.9222 28.9445 72.8848 28.9217 72.8512C28.8752 72.7826 28.7955 72.7563 28.715 72.7643C28.5542 72.78 28.4508 72.9069 28.391 73.0468C28.5355 73.112 28.6285 73.2717 28.5843 73.4368C28.5366 73.6156 28.3327 73.733 28.1554 73.6793C28.0467 73.6472 28.0948 73.4738 28.2023 73.51Z" fill="#FF8A65"/>
<path d="M20.5343 109.304C22.5179 109.491 24.5422 109.144 26.3561 108.322C28.032 107.563 29.5028 106.382 30.6308 104.931C31.2549 104.128 31.7684 103.243 32.1599 102.305C32.2171 102.168 32.4211 102.276 32.3643 102.413C31.6517 104.12 30.5271 105.648 29.115 106.842C27.6157 108.111 25.7983 108.979 23.8712 109.359C22.7546 109.578 21.6155 109.636 20.4829 109.529C20.3357 109.516 20.3883 109.29 20.5343 109.304Z" fill="#1D253D"/>
<path d="M24.2137 81.3714C25.7916 81.8213 27.5677 81.3985 28.7652 80.2727C28.873 80.1713 29.0438 80.3269 28.9356 80.4286C27.6798 81.6089 25.8221 82.0695 24.1622 81.5963C24.02 81.5559 24.0699 81.3306 24.2137 81.3714Z" fill="#1D253D"/>
<path d="M22.7667 72.9839C22.9425 72.7689 23.1491 72.5607 23.1983 72.2764C23.2234 72.13 23.4488 72.1814 23.4232 72.3278C23.3374 72.8238 22.8537 73.0815 22.6874 73.5336C22.5967 73.7814 22.6539 74.0769 22.8365 74.269C23.0275 74.4696 23.3241 74.5325 23.5841 74.4478C23.7255 74.4017 23.7964 74.6213 23.6554 74.6674C23.0389 74.8679 22.3805 74.3941 22.4149 73.7353C22.4305 73.4425 22.586 73.2046 22.7667 72.9839Z" fill="#FF8A65"/>
<path d="M25.3201 75.3483C24.8923 75.9175 24.1283 76.2114 23.4292 76.0696C23.2763 76.0387 23.1997 76.2713 23.3537 76.3025C24.1672 76.4676 25.0257 76.1458 25.5255 75.481C25.6205 75.3548 25.4142 75.2233 25.3201 75.3483Z" fill="#3B1411"/>
<path d="M21.9568 29.917L27.4564 41.0607L39.7545 42.8479L30.8554 51.522L32.9564 63.7706L21.9568 57.9877L10.9568 63.7706L13.0577 51.522L4.15869 42.8479L16.4568 41.0607L21.9568 29.917Z" fill="#FEB12F"/>
<path d="M9.07389 42.1333L4.15869 42.8473L13.0577 51.5215L10.9572 63.7696L21.9568 57.9867L32.9564 63.7696L31.1738 53.375C22.6152 53.0105 14.1141 49.0107 9.07389 42.1333Z" fill="#FEA30A"/>
<path d="M14.2499 58.9232C14.3963 58.9068 14.5473 58.895 14.6879 58.9373C14.8286 58.9796 14.959 59.0886 14.9845 59.2335C15.0154 59.4081 14.8858 59.5781 14.728 59.6586C14.5701 59.739 14.3879 59.7531 14.2125 59.779C13.6125 59.8675 13.0364 60.113 12.5572 60.4839C12.3098 60.6753 12.0864 60.9006 11.8135 61.0535C10.8711 61.5822 10.1345 60.5663 11.1158 59.9628C12.0513 59.3883 13.1638 59.0452 14.2499 58.9232Z" fill="#FFAB91"/>
<path d="M14.8102 59.8328C14.9566 59.8164 15.1072 59.8046 15.2482 59.8469C15.3893 59.8893 15.5193 59.9983 15.5448 60.1432C15.5757 60.3178 15.4461 60.4878 15.2883 60.5682C15.1304 60.6487 14.9482 60.6628 14.7728 60.6887C14.1732 60.7771 13.5971 61.0227 13.1175 61.3936C12.8701 61.585 12.6463 61.8103 12.3738 61.9632C11.4314 62.4919 10.6948 61.4759 11.6761 60.8725C12.6113 60.2976 13.7241 59.9545 14.8102 59.8328Z" fill="#FFAB91"/>
<path d="M14.6437 60.8602C14.7901 60.8438 14.9407 60.832 15.0817 60.8743C15.2224 60.9166 15.3528 61.0256 15.3783 61.1705C15.4092 61.3451 15.2796 61.5148 15.1218 61.5956C14.9639 61.676 14.7817 61.6901 14.6063 61.716C14.0067 61.8045 13.4306 62.05 12.951 62.4209C12.7036 62.6123 12.4802 62.8376 12.2073 62.9905C11.2649 63.5193 10.5283 62.5033 11.5096 61.8998C12.4448 61.3249 13.5572 60.9818 14.6437 60.8602Z" fill="#FFAB91"/>
<path d="M14.1526 61.9093C14.2719 61.8959 14.3951 61.886 14.5102 61.9207C14.6253 61.9554 14.7313 62.0442 14.7523 62.1624C14.7774 62.305 14.6718 62.4438 14.5426 62.5093C14.4137 62.5753 14.2651 62.5867 14.1217 62.6077C13.6318 62.6797 13.1618 62.8803 12.7703 63.1833C12.5682 63.3396 12.3856 63.5234 12.163 63.6484C11.3936 64.08 10.7924 63.2508 11.5934 62.7583C12.3574 62.2886 13.2659 62.0084 14.1526 61.9093Z" fill="#FFAB91"/>
<path d="M11 60.0429C10.4865 60.4843 10.2177 60.7763 9.84409 61.3413C9.47048 61.9063 9.25013 62.6051 9.39156 63.2673C9.533 63.9299 10.0995 64.5204 10.7758 64.552C11.1788 64.5707 11.5718 64.3988 11.8947 64.1567C12.5634 63.6558 12.9801 62.8346 12.9896 61.9989C12.9995 61.1637 12.6019 60.333 11.9454 59.8164L11 60.0429Z" fill="#FFAB91"/>
<path d="M10.0585 61.897C8.53396 63.733 2.60165 73.0201 2.56696 75.3746C2.54904 76.6101 2.96801 77.9227 3.9146 78.7569C4.96832 79.6855 6.21151 79.4514 6.90649 78.2403C8.16226 76.0516 10.6509 66.3718 11.2437 63.4025L10.0585 61.897Z" fill="#FFAB91"/>
<path d="M29.8066 58.0155C29.6606 57.9991 29.5096 57.9872 29.3686 58.0296C29.2275 58.0719 29.0975 58.1809 29.072 58.3258C29.0411 58.5004 29.1707 58.6704 29.3285 58.7508C29.4867 58.8313 29.6686 58.8454 29.844 58.8713C30.4436 58.9598 31.0197 59.2053 31.4992 59.5762C31.7467 59.7676 31.9704 59.9929 32.243 60.1458C33.1854 60.6745 33.922 59.6586 32.9407 59.0551C32.0051 58.4806 30.8927 58.1371 29.8066 58.0155Z" fill="#FFAB91"/>
<path d="M29.2463 58.9251C29.0999 58.9087 28.9493 58.8969 28.8083 58.9392C28.6676 58.9816 28.5372 59.0906 28.5117 59.2354C28.4808 59.41 28.6104 59.5801 28.7682 59.6605C28.9261 59.741 29.1083 59.7551 29.2836 59.781C29.8837 59.8694 30.4594 60.1149 30.9389 60.4859C31.1864 60.6773 31.4098 60.9026 31.6827 61.0554C32.6251 61.5842 33.3617 60.5682 32.3804 59.9647C31.4452 59.3898 30.3324 59.0467 29.2463 58.9251Z" fill="#FFAB91"/>
<path d="M29.413 59.9515C29.2666 59.9351 29.1157 59.9233 28.975 59.9656C28.8343 60.0079 28.704 60.117 28.6784 60.2618C28.6475 60.4364 28.7771 60.6061 28.935 60.6869C29.0928 60.7673 29.275 60.7814 29.4504 60.8074C30.0505 60.8958 30.6261 61.1413 31.1057 61.5123C31.3531 61.7036 31.5769 61.9289 31.8495 62.0818C32.7919 62.6106 33.5284 61.5946 32.5471 60.9911C31.612 60.4166 30.4995 60.0735 29.413 59.9515Z" fill="#FFAB91"/>
<path d="M29.9039 61.0006C29.7846 60.9872 29.6615 60.9773 29.5463 61.012C29.4312 61.0467 29.3252 61.1355 29.3043 61.2541C29.2791 61.3967 29.3847 61.5354 29.5139 61.601C29.6428 61.667 29.7915 61.6784 29.9348 61.6994C30.4247 61.7718 30.8948 61.972 31.2863 62.275C31.4883 62.4313 31.6709 62.6151 31.8936 62.7401C32.6629 63.1717 33.2641 62.3425 32.4631 61.85C31.6992 61.3803 30.7907 61.1001 29.9039 61.0006Z" fill="#FFAB91"/>
<path d="M33.0566 59.1351C33.5701 59.5766 33.8389 59.8686 34.2125 60.4336C34.5861 60.9986 34.8064 61.6974 34.665 62.3596C34.5236 63.0218 33.9571 63.6127 33.2808 63.6443C32.8774 63.663 32.4848 63.4907 32.1619 63.249C31.4932 62.7481 31.0765 61.9269 31.0666 61.0912C31.0567 60.256 31.4543 59.4253 32.1108 58.9087L33.0566 59.1351Z" fill="#FFAB91"/>
<path d="M33.998 60.9893C35.5225 62.8253 41.4548 72.1124 41.4895 74.4669C41.5078 75.7024 41.0885 77.015 40.1419 77.8491C39.0882 78.7778 37.845 78.5437 37.15 77.3326C35.8942 75.1439 33.4052 65.4641 32.8127 62.4947L33.998 60.9893Z" fill="#FFAB91"/>
<path d="M39.1067 81.4642C37.6119 83.2312 36.1171 84.9982 34.6223 86.7652C34.1942 87.2711 33.7664 87.777 33.3383 88.2832C33.2377 88.4022 33.402 88.584 33.5038 88.4636C34.9986 86.6966 36.4934 84.9296 37.9882 83.1626L39.2722 81.6449C39.3724 81.5259 39.2081 81.3441 39.1067 81.4642Z" fill="#1D253D"/>
<path d="M17.315 82.4236C17.1812 84.4907 17.0718 86.5588 16.9872 88.6285C16.9022 90.7081 16.8419 92.7889 16.8065 94.87C16.7867 96.0373 16.7748 97.205 16.7703 98.3728C16.7695 98.5298 17.0143 98.5413 17.0146 98.3834C17.0223 96.3122 17.0543 94.241 17.1107 92.1705C17.1675 90.0898 17.2495 88.0102 17.3562 85.9313C17.4161 84.7651 17.4839 83.5997 17.559 82.4343C17.5697 82.2772 17.3253 82.2666 17.315 82.4236Z" fill="#1D253D"/>
<path d="M21.9323 73.4135C21.2698 73.4135 20.7307 72.8745 20.7307 72.2119C20.7307 71.5493 21.2698 71.0103 21.9323 71.0103C22.5949 71.0103 23.134 71.5493 23.134 72.2119C23.134 72.8745 22.5949 73.4135 21.9323 73.4135ZM21.9323 71.1326C21.3372 71.1326 20.8531 71.6168 20.8531 72.2119C20.8531 72.807 21.3372 73.2912 21.9323 73.2912C22.5274 73.2912 23.0116 72.807 23.0116 72.2119C23.0116 71.6168 22.5274 71.1326 21.9323 71.1326Z" fill="#170D05"/>
<path d="M24.8728 73.4135C24.2102 73.4135 23.6711 72.8745 23.6711 72.2119C23.6711 71.5493 24.2102 71.0103 24.8728 71.0103C25.5354 71.0103 26.0744 71.5493 26.0744 72.2119C26.074 72.8745 25.535 73.4135 24.8728 73.4135ZM24.8728 71.1326C24.2777 71.1326 23.7935 71.6168 23.7935 72.2119C23.7935 72.807 24.2777 73.2912 24.8728 73.2912C25.4679 73.2912 25.952 72.807 25.952 72.2119C25.9517 71.6168 25.4679 71.1326 24.8728 71.1326Z" fill="#170D05"/>
<path d="M23.0902 71.8393L23.0056 71.7509C23.2183 71.5469 23.5778 71.5316 23.807 71.7173L23.7299 71.8122C23.5504 71.667 23.2576 71.6792 23.0902 71.8393Z" fill="#170D05"/>
<path d="M28.3459 72.2136C27.5968 71.9296 26.7824 71.8416 25.9887 71.959L25.9712 71.8378C26.7844 71.7177 27.6208 71.808 28.3893 72.0993L28.3459 72.2136Z" fill="#170D05"/>
<path d="M142.422 162.518H0V163.434H142.422V162.518Z" fill="#001E4A"/>
</svg>
