<svg width="165" height="136" viewBox="0 0 165 136" fill="none" xmlns="http://www.w3.org/2000/svg">
<path d="M158.92 98.8274C158.92 98.8274 162.159 86.4074 159.989 80.3295C157.82 74.2513 151.027 69.7537 151.3 65.9359C151.573 62.118 155.934 51.7986 152.378 44.1157C152.378 44.1157 151.028 50.9689 149.695 52.4932C148.362 54.0176 139.216 60.1653 140.837 68.2842C142.459 76.4033 151.35 78.3012 153.54 80.6914C155.73 83.0816 158.687 83.0786 158.705 84.6677C158.724 86.2569 159.301 92.0358 158.319 97.7377L158.92 98.8274Z" fill="#3C8F7C"/>
<path d="M149.695 52.4931C148.362 54.0174 139.216 60.1652 140.837 68.2841C142.459 76.4031 151.351 78.301 153.54 80.6912C155.73 83.0814 158.687 83.0784 158.705 84.6676C158.724 86.2567 159.301 92.0356 158.319 97.7375L158.581 98.2134C159.061 95.9881 159.727 92.5994 159.944 90.0258C160.298 85.8467 159.621 84.1168 158.277 80.7312C156.934 77.3455 148.588 70.4501 146.496 66.8249C144.405 63.1996 150.529 57.1393 151.888 54.2136C153.248 51.2878 152.379 44.1152 152.379 44.1152C152.379 44.1152 151.028 50.9686 149.695 52.4931Z" fill="#327F6B"/>
<path d="M33.0712 110.589C37.3211 112.573 36.1747 117.5 36.1747 117.5C36.1747 117.5 47.6975 108.533 52.0049 113.767C56.3123 119 54.0491 129.259 48.9963 130.927C43.9437 132.594 0 131.426 0 131.426C0 131.426 29.2484 108.804 33.0712 110.589Z" fill="#96D9C9"/>
<path d="M0 131.382C0 131.382 19.2039 127.441 23.3927 123.603C27.5815 119.765 25.728 118.269 25.728 118.269C25.728 118.269 33.1081 112.455 32.9928 108.659C32.8777 104.863 28.0696 106.789 28.0696 106.789C28.0696 106.789 36.2184 96.3315 34.2855 94.3429C30.6854 90.6387 21.2638 101.508 21.2638 101.508C21.2638 101.508 24.0598 96.3375 21.1099 95.5165C16.6614 94.2782 13.3895 107.031 13.3895 107.031C13.3895 107.031 14.2194 101.994 11.1532 102.663C5.65171 103.862 0 131.382 0 131.382Z" fill="#50BFA5"/>
<path d="M12.2126 35.6611L0.580811 131.624L2.24097 133.421L12.204 93.6254L12.2126 35.6611Z" fill="#353535"/>
<path d="M13.6275 26.0187L2.24097 133.421H27.3755L21.132 23.8071L13.6275 26.0187Z" fill="#353535"/>
<path d="M10.0182 132.21H150.338C152.737 132.21 154.815 130.153 154.979 127.617L161.372 28.5979C161.51 26.4539 159.978 24.7158 157.95 24.7158H16.9584C14.93 24.7158 13.1734 26.4539 13.0351 28.5979L6.59608 128.327C6.45776 130.471 7.9898 132.21 10.0182 132.21Z" fill="#E6E6E6"/>
<path d="M21.1519 24.1547L21.132 23.8071L12.9782 24.5329L2.24097 133.421H3.43991L14.8266 26.0187L21.1519 24.1547Z" fill="#282828"/>
<path d="M13.6069 37.5226L7.52881 129.35C7.71324 131.594 9.68439 132.209 10.824 132.209H29.0426L18.1706 29.2432L13.6069 37.5226Z" fill="#FEF8F8"/>
<path d="M28.1454 60.4501H18.6764C17.3179 60.4501 16.3191 59.3038 16.445 57.8899L17.3239 48.0329C17.4498 46.6188 18.6533 45.4727 20.0116 45.4727H29.4805C30.8389 45.4727 31.8377 46.6189 31.7116 48.0329L30.8329 57.8899C30.707 59.3038 29.5037 60.4501 28.1454 60.4501Z" fill="#9BC1F9"/>
<path d="M48.5561 60.4501H39.0871C37.7287 60.4501 36.7299 59.3038 36.856 57.8899L37.7348 48.0329C37.8609 46.6188 39.0641 45.4727 40.4225 45.4727H49.8915C51.2498 45.4727 52.2488 46.6189 52.1228 48.0329L51.244 57.8899C51.1177 59.3038 49.9144 60.4501 48.5561 60.4501Z" fill="#9BC1F9"/>
<path d="M68.9668 60.4501H59.4978C58.1395 60.4501 57.1405 59.3038 57.2666 57.8899L58.1453 48.0329C58.2714 46.6188 59.4747 45.4727 60.833 45.4727H70.302C71.6604 45.4727 72.6593 46.6189 72.5332 48.0329L71.6545 57.8899C71.5286 59.3038 70.3252 60.4501 68.9668 60.4501Z" fill="#9BC1F9"/>
<path d="M89.3774 60.4501H79.9084C78.5501 60.4501 77.5512 59.3038 77.6772 57.8899L78.5558 48.0329C78.6819 46.6188 79.8852 45.4727 81.2436 45.4727H90.7127C92.0709 45.4727 93.0699 46.6189 92.9438 48.0329L92.0651 57.8899C91.939 59.3038 90.7359 60.4501 89.3774 60.4501Z" fill="#9BC1F9"/>
<path d="M109.788 60.4501H100.319C98.9612 60.4501 97.9622 59.3038 98.0881 57.8899L98.967 48.0329C99.0929 46.6188 100.296 45.4727 101.655 45.4727H111.124C112.482 45.4727 113.481 46.6189 113.355 48.0329L112.476 57.8899C112.35 59.3038 111.147 60.4501 109.788 60.4501Z" fill="#9BC1F9"/>
<path d="M130.199 60.4501H120.73C119.372 60.4501 118.373 59.3038 118.499 57.8899L119.378 48.0329C119.504 46.6188 120.707 45.4727 122.066 45.4727H131.535C132.893 45.4727 133.892 46.6189 133.766 48.0329L132.887 57.8899C132.761 59.3038 131.558 60.4501 130.199 60.4501Z" fill="#F47458"/>
<path d="M150.61 60.4501H141.141C139.783 60.4501 138.784 59.3038 138.91 57.8899L139.788 48.0329C139.915 46.6188 141.118 45.4727 142.476 45.4727H151.945C153.303 45.4727 154.302 46.6189 154.177 48.0329L153.298 57.8899C153.172 59.3038 151.968 60.4501 150.61 60.4501Z" fill="#F47458"/>
<path d="M26.1348 82.9999H16.6657C15.3075 82.9999 14.3085 81.8534 14.4346 80.4397L15.3133 70.5826C15.4394 69.1685 16.6427 68.0225 18.001 68.0225H27.47C28.8282 68.0225 29.8272 69.1687 29.7012 70.5826L28.8223 80.4397C28.6965 81.8534 27.493 82.9999 26.1348 82.9999Z" fill="#9BC1F9"/>
<path d="M46.5457 82.9999H37.0769C35.7186 82.9999 34.7196 81.8534 34.8457 80.4397L35.7244 70.5826C35.8505 69.1685 37.0538 68.0225 38.4122 68.0225H47.8811C49.2395 68.0225 50.2384 69.1687 50.1124 70.5826L49.2337 80.4397C49.1073 81.8534 47.904 82.9999 46.5457 82.9999Z" fill="#9BC1F9"/>
<path d="M66.9564 82.9999H57.4874C56.129 82.9999 55.1301 81.8534 55.2561 80.4397L56.1349 70.5826C56.261 69.1685 57.4643 68.0225 58.8226 68.0225H68.2916C69.6499 68.0225 70.6489 69.1687 70.5228 70.5826L69.6441 80.4397C69.518 81.8534 68.3147 82.9999 66.9564 82.9999Z" fill="#9BC1F9"/>
<path d="M87.3674 82.9999H77.8984C76.5401 82.9999 75.5411 81.8534 75.6672 80.4397L76.5459 70.5826C76.672 69.1685 77.8753 68.0225 79.2336 68.0225H88.7026C90.0611 68.0225 91.0599 69.1687 90.934 70.5826L90.0553 80.4397C89.929 81.8534 88.7258 82.9999 87.3674 82.9999Z" fill="#9BC1F9"/>
<path d="M107.778 82.9999H98.3089C96.9507 82.9999 95.9517 81.8534 96.0776 80.4397L96.9563 70.5826C97.0824 69.1685 98.2859 68.0225 99.644 68.0225H109.113C110.471 68.0225 111.47 69.1687 111.344 70.5826L110.466 80.4397C110.34 81.8534 109.136 82.9999 107.778 82.9999Z" fill="#9BC1F9"/>
<path d="M128.189 82.9999H118.72C117.362 82.9999 116.363 81.8534 116.488 80.4397L117.367 70.5826C117.493 69.1685 118.697 68.0225 120.055 68.0225H129.524C130.882 68.0225 131.881 69.1687 131.755 70.5826L130.877 80.4397C130.75 81.8534 129.547 82.9999 128.189 82.9999Z" fill="#F47458"/>
<path d="M148.599 82.9999H139.13C137.772 82.9999 136.773 81.8534 136.899 80.4397L137.778 70.5826C137.904 69.1685 139.107 68.0225 140.466 68.0225H149.935C151.293 68.0225 152.292 69.1687 152.166 70.5826L151.287 80.4397C151.161 81.8534 149.958 82.9999 148.599 82.9999Z" fill="#F47458"/>
<path d="M24.1246 105.55H14.6556C13.2972 105.55 12.2984 104.403 12.4243 102.989L13.303 93.1324C13.4291 91.7183 14.6324 90.5723 15.9907 90.5723H25.4597C26.818 90.5723 27.817 91.7185 27.6909 93.1324L26.8122 102.989C26.6862 104.403 25.4829 105.55 24.1246 105.55Z" fill="#D6D6D6"/>
<path d="M44.5354 105.55H35.0664C33.7081 105.55 32.7091 104.403 32.8352 102.989L33.7139 93.1324C33.84 91.7183 35.0433 90.5723 36.4016 90.5723H45.8706C47.2289 90.5723 48.2279 91.7185 48.1018 93.1324L47.2231 102.989C47.097 104.403 45.8938 105.55 44.5354 105.55Z" fill="#9BC1F9"/>
<path d="M64.9463 105.55H55.4773C54.1188 105.55 53.12 104.403 53.2461 102.989L54.1248 93.1324C54.2509 91.7183 55.4542 90.5723 56.8126 90.5723H66.2817C67.6399 90.5723 68.6389 91.7185 68.5128 93.1324L67.6341 102.989C67.508 104.403 66.3046 105.55 64.9463 105.55Z" fill="#9BC1F9"/>
<path d="M85.3569 105.55H75.8879C74.5295 105.55 73.5306 104.403 73.6567 102.989L74.5354 93.1324C74.6615 91.7183 75.8648 90.5723 77.2231 90.5723H86.6921C88.0506 90.5723 89.0494 91.7185 88.9235 93.1324L88.0446 102.989C87.9185 104.403 86.7152 105.55 85.3569 105.55Z" fill="#9BC1F9"/>
<path d="M105.768 105.55H96.2987C94.9404 105.55 93.9414 104.403 94.0674 102.989L94.9462 93.1324C95.0723 91.7183 96.2756 90.5723 97.6339 90.5723H107.103C108.461 90.5723 109.46 91.7185 109.334 93.1324L108.456 102.989C108.329 104.403 107.126 105.55 105.768 105.55Z" fill="#9BC1F9"/>
<path d="M126.179 105.55H116.71C115.351 105.55 114.352 104.403 114.478 102.989L115.357 93.1324C115.483 91.7183 116.686 90.5723 118.045 90.5723H127.514C128.872 90.5723 129.871 91.7185 129.745 93.1324L128.866 102.989C128.74 104.403 127.537 105.55 126.179 105.55Z" fill="#F47458"/>
<path d="M146.589 105.55H137.12C135.762 105.55 134.763 104.403 134.889 102.989L135.768 93.1324C135.894 91.7183 137.097 90.5723 138.456 90.5723H147.925C149.283 90.5723 150.282 91.7185 150.156 93.1324L149.277 102.989C149.151 104.403 147.948 105.55 146.589 105.55Z" fill="#F47458"/>
<path d="M22.1143 128.1H12.6455C11.287 128.1 10.2882 126.954 10.4143 125.54L11.293 115.683C11.4191 114.269 12.6224 113.123 13.9807 113.123H23.4497C24.8081 113.123 25.807 114.269 25.681 115.683L24.8023 125.54C24.6761 126.954 23.4728 128.1 22.1143 128.1Z" fill="#D6D6D6"/>
<path d="M42.525 128.1H33.0561C31.6978 128.1 30.6989 126.954 30.8249 125.54L31.7036 115.683C31.8297 114.269 33.0331 113.123 34.3913 113.123H43.8604C45.2186 113.123 46.2176 114.269 46.0917 115.683L45.2128 125.54C45.0867 126.954 43.8834 128.1 42.525 128.1Z" fill="#9BC1F9"/>
<path d="M62.936 128.1H53.4671C52.1087 128.1 51.1099 126.954 51.2358 125.54L52.1145 115.683C52.2406 114.269 53.4439 113.123 54.8024 113.123H64.2712C65.6297 113.123 66.6285 114.269 66.5025 115.683L65.6238 125.54C65.4978 126.954 64.2944 128.1 62.936 128.1Z" fill="#9BC1F9"/>
<path d="M83.3468 128.1H73.8779C72.5195 128.1 71.5206 126.954 71.6467 125.54L72.5254 115.683C72.6515 114.269 73.8548 113.123 75.2131 113.123H84.6821C86.0404 113.123 87.0394 114.269 86.9135 115.683L86.0346 125.54C85.9085 126.954 84.7052 128.1 83.3468 128.1Z" fill="#9BC1F9"/>
<path d="M103.757 128.1H94.2884C92.9302 128.1 91.9312 126.954 92.0571 125.54L92.936 115.683C93.062 114.269 94.2654 113.123 95.6236 113.123H105.093C106.451 113.123 107.45 114.269 107.324 115.683L106.445 125.54C106.319 126.954 105.116 128.1 103.757 128.1Z" fill="#9BC1F9"/>
<path d="M160.407 135.247H20.0876C17.6881 135.247 15.6975 133.268 15.6414 130.826L13.451 35.5157C13.4036 33.4518 15.0095 31.7788 17.0379 31.7788H158.029C160.058 31.7788 161.74 33.4517 161.788 35.5157L163.994 131.51C164.041 133.574 162.435 135.247 160.407 135.247Z" fill="#E6E6E6"/>
<path d="M161.412 135.313H21.0928C18.6933 135.313 16.7027 133.334 16.6467 130.893L14.4563 35.5821C14.409 33.5182 16.0149 31.8452 18.0433 31.8452H159.035C161.063 31.8452 162.746 33.5182 162.793 35.5821L164.999 131.576C165.047 133.64 163.441 135.313 161.412 135.313Z" fill="#FFFBF3"/>
<path d="M152.04 17.4126H21.0626C16.2549 17.4126 12.6233 21.2658 12.9515 26.0188L13.8318 38.7697H162.22L161.34 26.0188C161.011 21.2658 156.848 17.4126 152.04 17.4126Z" fill="#B75742"/>
<path d="M152.716 17.4126H21.7389C16.9312 17.4126 13.2995 21.2658 13.6278 26.0188L14.5081 38.7697H162.896L162.016 26.0188C161.688 21.2658 157.524 17.4126 152.716 17.4126Z" fill="#DC4437"/>
<path d="M32.7533 62.2321H23.2842C21.926 62.2321 20.7874 61.0979 20.7411 59.6989L20.4197 49.9458C20.3735 48.5468 21.4373 47.4126 22.7956 47.4126H32.2646C33.6229 47.4126 34.7614 48.5468 34.8077 49.9458L35.1292 59.6989C35.1753 61.0979 34.1115 62.2321 32.7533 62.2321Z" fill="#DC4437"/>
<path d="M53.1639 62.2321H43.6949C42.3365 62.2321 41.1981 61.0979 41.1519 59.6989L40.8303 49.9458C40.7842 48.5468 41.8479 47.4126 43.2062 47.4126H52.6752C54.0335 47.4126 55.1721 48.5468 55.2182 49.9458L55.5398 59.6989C55.5859 61.0979 54.5222 62.2321 53.1639 62.2321Z" fill="#E6E6E6"/>
<path d="M73.5747 62.2321H64.1058C62.7474 62.2321 61.6088 61.0979 61.5627 59.6989L61.2412 49.9458C61.1951 48.5468 62.2588 47.4126 63.6171 47.4126H73.0861C74.4444 47.4126 75.583 48.5468 75.6291 49.9458L75.9507 59.6989C75.9967 61.0979 74.9329 62.2321 73.5747 62.2321Z" fill="#E6E6E6"/>
<path d="M93.9855 62.2321H84.5164C83.1582 62.2321 82.0196 61.0979 81.9735 59.6989L81.6518 49.9458C81.6056 48.5468 82.6693 47.4126 84.0278 47.4126H93.4966C94.8549 47.4126 95.9936 48.5468 96.0397 49.9458L96.3614 59.6989C96.4075 61.0979 95.3437 62.2321 93.9855 62.2321Z" fill="#E6E6E6"/>
<path d="M114.396 62.2321H104.927C103.569 62.2321 102.43 61.0979 102.384 59.6989L102.063 49.9458C102.017 48.5468 103.08 47.4126 104.439 47.4126H113.908C115.266 47.4126 116.404 48.5468 116.451 49.9458L116.772 59.6989C116.818 61.0979 115.755 62.2321 114.396 62.2321Z" fill="#E6E6E6"/>
<path d="M134.807 62.2321H125.338C123.98 62.2321 122.841 61.0979 122.795 59.6989L122.473 49.9458C122.427 48.5468 123.491 47.4126 124.849 47.4126H134.318C135.676 47.4126 136.815 48.5468 136.861 49.9458L137.183 59.6989C137.229 61.0979 136.165 62.2321 134.807 62.2321Z" fill="#E6E6E6"/>
<path d="M155.218 62.2321H145.749C144.391 62.2321 143.252 61.0979 143.206 59.6989L142.884 49.9458C142.838 48.5468 143.902 47.4126 145.26 47.4126H154.729C156.087 47.4126 157.226 48.5468 157.272 49.9458L157.594 59.6989C157.64 61.0979 156.576 62.2321 155.218 62.2321Z" fill="#DC4437"/>
<path d="M33.4887 84.5446H24.0198C22.6614 84.5446 21.5229 83.4104 21.4767 82.0114L21.1553 72.2583C21.1091 70.8593 22.1729 69.7251 23.5312 69.7251H33.0002C34.3586 69.7251 35.497 70.8593 35.5433 72.2583L35.8648 82.0114C35.9109 83.4104 34.8471 84.5446 33.4887 84.5446Z" fill="#DC4437"/>
<path d="M53.8995 84.5446H44.4305C43.0722 84.5446 41.9337 83.4104 41.8876 82.0114L41.5659 72.2583C41.5198 70.8593 42.5834 69.7251 43.9418 69.7251H53.4107C54.7691 69.7251 55.9077 70.8593 55.9538 72.2583L56.2753 82.0114C56.3215 83.4104 55.2578 84.5446 53.8995 84.5446Z" fill="#E6E6E6"/>
<path d="M74.3104 84.5446H64.8414C63.4829 84.5446 62.3445 83.4104 62.2984 82.0114L61.9768 72.2583C61.9307 70.8593 62.9944 69.7251 64.3527 69.7251H73.8216C75.18 69.7251 76.3184 70.8593 76.3647 72.2583L76.6862 82.0114C76.7324 83.4104 75.6687 84.5446 74.3104 84.5446Z" fill="#E6E6E6"/>
<path d="M94.7213 84.5446H85.2523C83.894 84.5446 82.7553 83.4104 82.7092 82.0114L82.3877 72.2583C82.3414 70.8593 83.4052 69.7251 84.7636 69.7251H94.2325C95.5907 69.7251 96.7293 70.8593 96.7756 72.2583L97.0972 82.0114C97.1433 83.4104 96.0796 84.5446 94.7213 84.5446Z" fill="#E6E6E6"/>
<path d="M115.132 84.5446H105.663C104.305 84.5446 103.166 83.4104 103.12 82.0114L102.798 72.2583C102.752 70.8593 103.816 69.7251 105.174 69.7251H114.643C116.001 69.7251 117.14 70.8593 117.186 72.2583L117.508 82.0114C117.554 83.4104 116.491 84.5446 115.132 84.5446Z" fill="#E6E6E6"/>
<path d="M135.543 84.5446H126.074C124.716 84.5446 123.577 83.4104 123.531 82.0114L123.209 72.2583C123.163 70.8593 124.227 69.7251 125.585 69.7251H135.054C136.412 69.7251 137.551 70.8593 137.597 72.2583L137.919 82.0114C137.965 83.4104 136.901 84.5446 135.543 84.5446Z" fill="#E6E6E6"/>
<path d="M155.953 84.5446H146.484C145.126 84.5446 143.988 83.4104 143.942 82.0114L143.62 72.2583C143.574 70.8593 144.637 69.7251 145.996 69.7251H155.465C156.823 69.7251 157.961 70.8593 158.008 72.2583L158.329 82.0114C158.376 83.4104 157.312 84.5446 155.953 84.5446Z" fill="#DC4437"/>
<path d="M34.2247 106.857H24.7557C23.3974 106.857 22.2588 105.723 22.2127 104.324L21.8911 94.5708C21.845 93.1716 22.9087 92.0376 24.267 92.0376H33.736C35.0945 92.0376 36.2329 93.1716 36.279 94.5708L36.6006 104.324C36.6467 105.723 35.583 106.857 34.2247 106.857Z" fill="#DC4437"/>
<path d="M54.6354 106.857H45.1663C43.8079 106.857 42.6695 105.723 42.6232 104.324L42.3017 94.5708C42.2556 93.1716 43.3194 92.0376 44.6777 92.0376H54.1467C55.5051 92.0376 56.6435 93.1716 56.6898 94.5708L57.0113 104.324C57.0572 105.723 55.9936 106.857 54.6354 106.857Z" fill="#E6E6E6"/>
<path d="M75.0461 106.857H65.5772C64.2188 106.857 63.0804 105.723 63.0341 104.324L62.7126 94.5708C62.6665 93.1716 63.7303 92.0376 65.0885 92.0376H74.5576C75.9158 92.0376 77.0544 93.1716 77.1005 94.5708L77.4222 104.324C77.4681 105.723 76.4045 106.857 75.0461 106.857Z" fill="#E6E6E6"/>
<path d="M95.457 106.857H85.988C84.6296 106.857 83.491 105.723 83.4449 104.324L83.1233 94.5708C83.0772 93.1716 84.1409 92.0376 85.4992 92.0376H94.9682C96.3265 92.0376 97.465 93.1716 97.5112 94.5708L97.8328 104.324C97.8791 105.723 96.8155 106.857 95.457 106.857Z" fill="#E6E6E6"/>
<path d="M115.868 106.857H106.399C105.04 106.857 103.902 105.723 103.856 104.324L103.534 94.5708C103.488 93.1716 104.552 92.0376 105.91 92.0376H115.379C116.737 92.0376 117.876 93.1716 117.922 94.5708L118.244 104.324C118.29 105.723 117.226 106.857 115.868 106.857Z" fill="#E6E6E6"/>
<path d="M136.278 106.857H126.809C125.451 106.857 124.313 105.723 124.266 104.324L123.945 94.5708C123.899 93.1716 124.962 92.0376 126.321 92.0376H135.79C137.148 92.0376 138.286 93.1716 138.333 94.5708L138.654 104.324C138.701 105.723 137.637 106.857 136.278 106.857Z" fill="#E6E6E6"/>
<path d="M156.689 106.857H147.22C145.862 106.857 144.724 105.723 144.677 104.324L144.356 94.5708C144.31 93.1716 145.373 92.0376 146.732 92.0376H156.201C157.559 92.0376 158.698 93.1716 158.744 94.5708L159.065 104.324C159.111 105.723 158.048 106.857 156.689 106.857Z" fill="#DC4437"/>
<path d="M34.9604 129.169H25.4914C24.1331 129.169 22.9945 128.035 22.9484 126.636L22.6269 116.883C22.5808 115.484 23.6446 114.35 25.0029 114.35H34.4719C35.8303 114.35 36.9687 115.484 37.0148 116.883L37.3365 126.636C37.3824 128.035 36.3187 129.169 34.9604 129.169Z" fill="#DC4437"/>
<path d="M55.371 129.169H45.9022C44.5437 129.169 43.4053 128.035 43.3591 126.636L43.0376 116.883C42.9915 115.484 44.0552 114.35 45.4135 114.35H54.8825C56.2408 114.35 57.3793 115.484 57.4255 116.883L57.7471 126.636C57.7931 128.035 56.7293 129.169 55.371 129.169Z" fill="#E6E6E6"/>
<path d="M75.7817 129.169H66.3127C64.9544 129.169 63.8158 128.035 63.7697 126.636L63.4482 116.883C63.4021 115.484 64.4657 114.35 65.8241 114.35H75.2932C76.6516 114.35 77.79 115.484 77.8361 116.883L78.1578 126.636C78.2039 128.035 77.1401 129.169 75.7817 129.169Z" fill="#E6E6E6"/>
<path d="M96.1927 129.169H86.7237C85.3654 129.169 84.2269 128.035 84.1808 126.636L83.8591 116.883C83.813 115.484 84.8766 114.35 86.235 114.35H95.7041C97.0623 114.35 98.2009 115.484 98.2471 116.883L98.5686 126.636C98.6148 128.035 97.551 129.169 96.1927 129.169Z" fill="#E6E6E6"/>
<path d="M116.604 129.169H107.134C105.776 129.169 104.638 128.035 104.591 126.636L104.27 116.883C104.224 115.484 105.287 114.35 106.646 114.35H116.115C117.473 114.35 118.612 115.484 118.658 116.883L118.979 126.636C119.026 128.035 117.962 129.169 116.604 129.169Z" fill="#E6E6E6"/>
<path d="M22.2193 32.5533C22.4241 32.673 22.7182 32.7725 23.0205 32.7725C23.4691 32.7725 23.715 32.5384 23.6914 32.1996C23.6698 31.8858 23.476 31.7064 23.0055 31.532C22.4376 31.3377 22.0753 31.0539 22.0427 30.5806C22.0067 30.0574 22.4182 29.6689 23.0784 29.6689C23.4262 29.6689 23.6836 29.7486 23.8406 29.8333L23.744 30.1871C23.6292 30.1273 23.3954 30.0276 23.088 30.0276C22.6244 30.0276 22.4669 30.3016 22.4828 30.5307C22.5044 30.8445 22.7216 30.999 23.2026 31.1784C23.7923 31.3975 24.1034 31.6716 24.1374 32.1648C24.1732 32.683 23.8161 33.1313 23.0149 33.1313C22.6874 33.1313 22.3231 33.0366 22.1334 32.9171L22.2193 32.5533Z" fill="white"/>
<path d="M26.781 32.423C26.7981 32.6721 26.8183 32.8913 26.8465 33.0806H26.4534L26.401 32.6871H26.391C26.2884 32.8813 26.0489 33.1353 25.6156 33.1353C25.2326 33.1353 24.7595 32.9261 24.701 32.0791L24.6038 30.6691H25.0473L25.1395 32.0045C25.1712 32.4629 25.3336 32.7717 25.7367 32.7717C26.034 32.7717 26.2266 32.5675 26.2937 32.373C26.3144 32.3082 26.324 32.2286 26.3185 32.1487L26.2164 30.6689H26.6599L26.781 32.423Z" fill="white"/>
<path d="M27.4407 31.3227C27.4235 31.0736 27.4043 30.8693 27.3755 30.67H27.7685L27.8212 31.0686H27.8312C27.9365 30.8395 28.2031 30.6152 28.6063 30.6152C28.9439 30.6152 29.4817 30.8146 29.5388 31.6415L29.6382 33.0813H29.1947L29.0987 31.6914C29.0719 31.3028 28.9033 30.9789 28.485 30.9789C28.1927 30.9789 27.9801 31.1833 27.9214 31.4273C27.9051 31.4822 27.9001 31.5568 27.9052 31.6316L28.0055 33.0815H27.5619L27.4407 31.3227Z" fill="white"/>
<path d="M45.6998 31.323C45.6913 31.2956 45.6753 31.2192 45.652 31.0944C45.6317 30.9906 45.6143 30.9046 45.5997 30.8364C45.5906 30.9175 45.5753 30.9986 45.5538 31.0797C45.5323 31.1607 45.5039 31.2434 45.4688 31.3278L44.6574 33.2252L43.5812 31.2889C43.5364 31.2095 43.4969 31.1323 43.4631 31.0577C43.4293 30.9832 43.3992 30.9093 43.3728 30.8364C43.3763 30.9111 43.3756 30.9893 43.3705 31.0712C43.3656 31.1531 43.3554 31.2385 43.3403 31.3278L43.075 33.0817H42.5361L43.1313 29.3696L44.3495 31.6174C44.3683 31.6532 44.3975 31.7123 44.4369 31.7949C44.4762 31.8776 44.5239 31.9798 44.5799 32.1015C44.6072 31.9994 44.6523 31.8696 44.7154 31.7123C44.7322 31.6701 44.7447 31.6376 44.753 31.6149L45.6364 29.3696L46.7637 33.0817H46.22L45.6998 31.323Z" fill="white"/>
<path d="M46.9352 31.9318C46.9236 31.7632 46.9449 31.6039 46.9993 31.4539C47.0538 31.3038 47.1377 31.1704 47.251 31.0537C47.3629 30.9386 47.4944 30.8501 47.6461 30.7887C47.7976 30.727 47.9586 30.6963 48.1293 30.6963C48.3048 30.6963 48.4721 30.727 48.6314 30.7887C48.7908 30.8503 48.936 30.9411 49.0673 31.0611C49.1984 31.1795 49.3012 31.3132 49.3754 31.4625C49.4497 31.6118 49.4926 31.7682 49.5039 31.9321C49.5156 32.1024 49.4951 32.262 49.4422 32.4113C49.3892 32.5606 49.3063 32.6927 49.1927 32.8078C49.0731 32.9293 48.9377 33.0216 48.7861 33.0838C48.6344 33.1462 48.4727 33.1776 48.3004 33.1776C48.1313 33.1776 47.9668 33.1464 47.8067 33.0838C47.6466 33.0216 47.5018 32.9311 47.3721 32.8127C47.2409 32.6927 47.138 32.5581 47.0638 32.409C46.9898 32.2594 46.947 32.1004 46.9352 31.9318ZM48.9408 31.9366C48.9261 31.7226 48.8436 31.5413 48.6942 31.3929C48.5444 31.2446 48.3687 31.1704 48.1669 31.1704C47.9666 31.1704 47.8017 31.2446 47.6716 31.3929C47.5416 31.5413 47.4841 31.7226 47.4988 31.9366C47.5136 32.1507 47.5962 32.332 47.7468 32.4803C47.8973 32.6287 48.0725 32.7029 48.2728 32.7029C48.4729 32.7029 48.6379 32.6287 48.7679 32.4803C48.898 32.3318 48.9557 32.1507 48.9408 31.9366Z" fill="white"/>
<path d="M50.1494 33.0822L49.9902 30.7761H50.4921L50.5181 31.1531C50.6136 30.9941 50.7312 30.8782 50.8707 30.8053C51.0098 30.7323 51.1827 30.6958 51.3896 30.6958C51.5635 30.6958 51.7134 30.7229 51.8394 30.7774C51.9653 30.8316 52.0666 30.9124 52.1428 31.0193C52.1882 31.0825 52.2228 31.1564 52.2468 31.2408C52.2707 31.3251 52.2898 31.4727 52.3044 31.6835L52.401 33.0822H51.8621L51.7804 31.8976C51.7596 31.5944 51.7083 31.3927 51.6267 31.2931C51.5452 31.1934 51.4094 31.1435 51.219 31.1435C51.0943 31.1435 50.9847 31.1664 50.8903 31.2117C50.7957 31.2572 50.7234 31.3212 50.6735 31.404C50.6379 31.4592 50.6154 31.5301 50.6058 31.6168C50.5961 31.7036 50.5979 31.8419 50.611 32.0316L50.6836 33.0825H50.1494V33.0822Z" fill="white"/>
<path d="M64.3719 30.0114L64.5838 33.0812H63.998L63.7862 30.0114H62.829L62.7952 29.52H65.2901L65.324 30.0114H64.3719Z" fill="white"/>
<path d="M65.7904 30.7755L65.8801 32.0745C65.8955 32.2983 65.9534 32.4589 66.0536 32.5562C66.1538 32.6535 66.3089 32.7022 66.5189 32.7022C66.7289 32.7022 66.8772 32.6535 66.964 32.5562C67.0507 32.4588 67.0863 32.2983 67.0709 32.0745L66.9814 30.7755H67.5154L67.5941 31.9165C67.6245 32.3576 67.5572 32.6777 67.3923 32.8772C67.2271 33.0767 66.9486 33.1764 66.5565 33.1764C66.1579 33.1764 65.8624 33.0774 65.6698 32.8795C65.4774 32.6816 65.3659 32.3606 65.3353 31.9163L65.2566 30.7754L65.7904 30.7755Z" fill="white"/>
<path d="M70.5675 32.0069H68.7024C68.7304 32.2225 68.8068 32.3908 68.9318 32.5115C69.0565 32.6325 69.2157 32.6928 69.4092 32.6928C69.5814 32.6928 69.7225 32.6572 69.8325 32.5857C69.9424 32.5144 70.0345 32.3993 70.1088 32.2402L70.5761 32.4885C70.461 32.7204 70.3105 32.8931 70.1248 33.0066C69.9391 33.1202 69.7158 33.177 69.455 33.177C69.0809 33.177 68.7754 33.0642 68.5385 32.8388C68.3014 32.6135 68.1701 32.3127 68.1441 31.9365C68.1191 31.5748 68.2129 31.2776 68.4257 31.0449C68.6385 30.8122 68.9244 30.6958 69.2839 30.6958C69.6595 30.6958 69.9596 30.802 70.1842 31.0145C70.4088 31.227 70.5344 31.5245 70.5608 31.9071L70.5675 32.0069ZM69.9893 31.6517C69.9567 31.4862 69.8841 31.3603 69.7713 31.2734C69.6587 31.1867 69.5097 31.1432 69.3243 31.1432C69.1487 31.1432 69.0105 31.1856 68.9097 31.2698C68.8089 31.3542 68.743 31.4815 68.7121 31.6518L69.9893 31.6517Z" fill="white"/>
<path d="M83.2832 29.5204H83.8614L84.6672 31.3181C84.7196 31.4365 84.764 31.5403 84.8008 31.6294C84.837 31.7186 84.8695 31.802 84.8979 31.88C84.9423 31.6918 84.9895 31.5078 85.0392 31.3278C85.0459 31.3051 85.0506 31.2897 85.0533 31.2817L85.6455 29.3794L86.542 31.3182C86.5845 31.4123 86.6252 31.5063 86.6636 31.6004C86.7022 31.6945 86.7386 31.7893 86.7729 31.885C86.7843 31.8121 86.801 31.7318 86.8228 31.6443C86.8446 31.5566 86.8734 31.4529 86.9097 31.333L87.4611 29.5207H88.0445L86.9045 33.2207L85.9425 31.1895C85.9002 31.0987 85.8613 31.0115 85.826 30.9281C85.7907 30.8445 85.759 30.7654 85.7309 30.6909C85.7098 30.7866 85.6881 30.8763 85.666 30.9597C85.6437 31.0433 85.6207 31.1231 85.5964 31.1994L84.9289 33.2209L83.2832 29.5204Z" fill="white"/>
<path d="M90.5408 32.0069H88.6757C88.7037 32.2225 88.7801 32.3908 88.905 32.5115C89.0298 32.6325 89.189 32.6928 89.3825 32.6928C89.5548 32.6928 89.6958 32.6572 89.8058 32.5857C89.9155 32.5144 90.0078 32.3993 90.0821 32.2402L90.5494 32.4885C90.4342 32.7204 90.2838 32.8931 90.0981 33.0066C89.9121 33.1202 89.6891 33.177 89.4283 33.177C89.0542 33.177 88.7488 33.0642 88.5116 32.8388C88.2747 32.6135 88.1432 32.3127 88.1172 31.9365C88.0923 31.5748 88.1861 31.2776 88.3989 31.0449C88.6117 30.8122 88.8977 30.6958 89.257 30.6958C89.6326 30.6958 89.9328 30.802 90.1574 31.0145C90.3819 31.227 90.5074 31.5245 90.5339 31.9071L90.5408 32.0069ZM89.9626 31.6517C89.93 31.4862 89.8572 31.3603 89.7446 31.2734C89.632 31.1867 89.483 31.1432 89.2976 31.1432C89.122 31.1432 88.9838 31.1856 88.883 31.2698C88.7822 31.3542 88.7163 31.4815 88.6854 31.6518L89.9626 31.6517Z" fill="white"/>
<path d="M92.5717 29.311H93.1055L93.3657 33.0815H92.8319L92.8112 32.7822C92.7252 32.9152 92.6209 33.0142 92.4983 33.0791C92.3757 33.144 92.2323 33.1765 92.0683 33.1765C91.7385 33.1765 91.4713 33.065 91.2664 32.842C91.0616 32.619 90.9459 32.3138 90.9191 31.9261C90.8937 31.5581 90.9699 31.2609 91.1479 31.0346C91.3259 30.8083 91.5705 30.6952 91.8823 30.6952C92.0727 30.6952 92.2383 30.7344 92.379 30.8131C92.5195 30.8917 92.6261 31.0049 92.6989 31.1525L92.5717 29.311ZM92.7665 31.9213C92.7502 31.6829 92.681 31.4972 92.5596 31.3642C92.4381 31.2312 92.2764 31.1647 92.0746 31.1647C91.8729 31.1647 91.7187 31.2334 91.6127 31.3703C91.5065 31.5074 91.4618 31.6975 91.4786 31.9407C91.4956 32.1857 91.5644 32.3747 91.685 32.5075C91.8056 32.6403 91.9679 32.707 92.1715 32.707C92.3648 32.707 92.5165 32.6351 92.6264 32.4916C92.7362 32.3481 92.7829 32.1579 92.7665 31.9213Z" fill="white"/>
<path d="M105.445 30.0109L105.657 33.0807H105.071L104.859 30.0109H103.902L103.868 29.5195H106.363L106.397 30.0109H105.445Z" fill="white"/>
<path d="M107.013 33.0815L106.752 29.311H107.254L107.381 31.1525C107.477 30.9935 107.595 30.8776 107.734 30.8047C107.873 30.7317 108.046 30.6952 108.253 30.6952C108.427 30.6952 108.577 30.7223 108.703 30.7767C108.829 30.831 108.93 30.9118 109.006 31.0187C109.052 31.0819 109.086 31.1558 109.11 31.2402C109.134 31.3245 109.153 31.4721 109.168 31.6829L109.264 33.0816H108.725L108.644 31.8969C108.623 31.5938 108.571 31.3921 108.49 31.2925C108.408 31.1928 108.272 31.1429 108.082 31.1429C107.957 31.1429 107.848 31.1658 107.753 31.2112C107.659 31.2566 107.587 31.3206 107.537 31.4034C107.501 31.4586 107.478 31.5295 107.469 31.6162C107.459 31.703 107.461 31.8413 107.474 32.031L107.547 33.0819H107.013V33.0815Z" fill="white"/>
<path d="M110.333 30.7751L110.422 32.074C110.438 32.2978 110.496 32.4584 110.596 32.5557C110.696 32.6531 110.851 32.7017 111.061 32.7017C111.271 32.7017 111.419 32.6531 111.506 32.5557C111.593 32.4583 111.629 32.2978 111.613 32.074L111.524 30.7751H112.058L112.136 31.916C112.167 32.3571 112.099 32.6772 111.934 32.8767C111.769 33.0762 111.491 33.1759 111.099 33.1759C110.7 33.1759 110.405 33.077 110.212 32.879C110.02 32.6811 109.908 32.3601 109.878 31.9158L109.799 30.7749L110.333 30.7751Z" fill="white"/>
<path d="M125.03 33.0817L124.784 29.5205H126.794L126.828 30.0119H125.404L125.465 30.8998H126.89L126.925 31.4082H125.5L125.616 33.0819H125.03V33.0817Z" fill="white"/>
<path d="M127.942 31.1419C127.989 30.9895 128.057 30.8769 128.146 30.8038C128.236 30.7307 128.35 30.6943 128.489 30.6943C128.565 30.6943 128.64 30.7033 128.714 30.721C128.788 30.7389 128.862 30.7648 128.935 30.7988L128.774 31.2464C128.725 31.2139 128.674 31.1899 128.62 31.1745C128.566 31.1592 128.506 31.1515 128.44 31.1515C128.263 31.1515 128.141 31.2216 128.073 31.3619C128.006 31.5023 127.983 31.7377 128.006 32.0686L128.076 33.0806H127.542L127.383 30.7698H127.916L127.942 31.1419Z" fill="white"/>
<path d="M129.122 29.7776C129.116 29.6884 129.144 29.6114 129.206 29.5466C129.268 29.4817 129.345 29.4492 129.437 29.4492C129.532 29.4492 129.613 29.4804 129.68 29.5429C129.748 29.6053 129.785 29.6835 129.792 29.7776C129.798 29.8717 129.771 29.9507 129.712 30.0147C129.652 30.0789 129.576 30.1109 129.482 30.1109C129.39 30.1109 129.309 30.0779 129.238 30.0124C129.167 29.9467 129.128 29.8684 129.122 29.7776ZM129.422 33.0812L129.262 30.775H129.796L129.956 33.0812H129.422Z" fill="white"/>
<path d="M145.31 32.3687L145.763 32.1546C145.818 32.3136 145.908 32.4349 146.032 32.5183C146.156 32.6017 146.31 32.6436 146.493 32.6436C146.667 32.6436 146.802 32.5958 146.898 32.5001C146.994 32.4044 147.036 32.2763 147.025 32.1157C147.011 31.9065 146.822 31.72 146.46 31.5563C146.409 31.532 146.37 31.5141 146.343 31.5028C145.933 31.3115 145.657 31.1384 145.514 30.9834C145.371 30.8285 145.292 30.6392 145.277 30.4154C145.257 30.1251 145.34 29.8899 145.527 29.71C145.714 29.53 145.969 29.4399 146.292 29.4399C146.558 29.4399 146.783 29.4906 146.969 29.5919C147.155 29.6932 147.289 29.8389 147.371 30.0285L146.93 30.262C146.849 30.1501 146.765 30.0684 146.675 30.0163C146.585 29.9644 146.485 29.9385 146.373 29.9385C146.216 29.9385 146.093 29.9791 146.006 30.06C145.919 30.1413 145.88 30.2498 145.89 30.3861C145.905 30.6002 146.122 30.7996 146.541 30.9844C146.574 30.999 146.599 31.0104 146.617 31.0184C146.985 31.1806 147.24 31.3391 147.383 31.4941C147.527 31.649 147.607 31.8424 147.623 32.0742C147.646 32.4115 147.557 32.6795 147.356 32.878C147.155 33.0767 146.871 33.176 146.505 33.176C146.199 33.176 145.942 33.1062 145.737 32.9668C145.531 32.8276 145.389 32.6281 145.31 32.3687Z" fill="white"/>
<path d="M150.482 33.0806H149.949L149.928 32.7814C149.842 32.9144 149.737 33.0133 149.615 33.0783C149.493 33.1432 149.349 33.1756 149.185 33.1756C148.855 33.1756 148.588 33.0641 148.383 32.8411C148.178 32.6181 148.062 32.3129 148.036 31.9253C148.01 31.5572 148.087 31.26 148.265 31.0337C148.443 30.8074 148.687 30.6943 148.999 30.6943C149.189 30.6943 149.355 30.7335 149.496 30.8123C149.636 30.8908 149.743 31.0041 149.816 31.1516L149.79 30.7746H150.323L150.482 33.0806ZM149.883 31.9203C149.867 31.6819 149.798 31.4962 149.676 31.3632C149.555 31.2302 149.393 31.1637 149.191 31.1637C148.989 31.1637 148.835 31.2324 148.729 31.3693C148.623 31.5064 148.578 31.6965 148.595 31.9397C148.612 32.1847 148.681 32.3736 148.802 32.5065C148.922 32.6395 149.084 32.706 149.288 32.706C149.48 32.706 149.631 32.6338 149.742 32.4894C149.852 32.3451 149.899 32.1553 149.883 31.9203Z" fill="white"/>
<path d="M151.346 33.0807L151.219 31.2369H150.81L150.779 30.7747H151.187L151.127 29.9014H151.661L151.721 30.7747H152.129L152.161 31.2369H151.753L151.88 33.0807H151.346Z" fill="white"/>
<path d="M98.1972 57.7956C97.8425 59.5197 97.0436 61.3511 95.3488 62.5739C93.1996 64.1243 90.0054 64.1447 87.5807 62.6236L87.5525 62.6068C86.556 62.0153 83.4328 59.7404 85.0889 55.3022L85.9922 55.639C84.6353 59.2751 86.9755 61.1433 88.0446 61.778C88.0662 61.7907 88.0824 61.8006 88.0929 61.8072C90.1937 63.1251 92.9456 63.1189 94.7848 61.7921C97.593 59.7662 97.5812 55.685 97.4458 54.0242C97.3888 53.3237 97.2834 52.5171 96.9348 51.8459C96.1891 50.4105 94.3727 49.0509 92.5174 48.5398C90.6678 48.0301 88.9937 47.8423 87.5418 47.9815C85.8876 48.1401 84.3143 49.0705 83.5333 50.3518C83.4709 50.4544 83.4082 50.5561 83.3457 50.6576C82.4758 52.0712 81.7245 53.292 81.9522 55.4651L80.9937 55.5656C80.7318 53.0662 81.6434 51.5849 82.5249 50.1523C82.5867 50.0519 82.6485 49.9514 82.7103 49.8501C83.6436 48.3185 85.504 47.2084 87.4499 47.0219C89.0193 46.8715 90.8104 47.0694 92.7734 47.6103C94.5436 48.098 96.7815 49.4594 97.7902 51.4011C98.2178 52.2241 98.3416 53.1491 98.4067 53.9455C98.4765 54.8053 98.5135 56.2579 98.1972 57.7956Z" fill="#DC4437"/>
<path d="M146.575 22.2639C146.575 23.8215 145.518 25.0841 144.213 25.0841C142.908 25.0841 141.85 23.8215 141.85 22.2639C141.85 20.7065 142.908 19.4438 144.213 19.4438C145.517 19.4438 146.575 20.7065 146.575 22.2639Z" fill="#C12925"/>
<path d="M144.213 19.4438C143.971 19.4438 143.737 19.4876 143.517 19.5682C144.482 19.9227 145.184 20.9955 145.184 22.2639C145.184 23.5325 144.482 24.6052 143.517 24.9596C143.737 25.0404 143.971 25.084 144.213 25.084C145.517 25.084 146.575 23.8214 146.575 22.2638C146.575 20.7065 145.517 19.4438 144.213 19.4438Z" fill="#C12925"/>
<path d="M134.208 0.686523C127.329 0.686523 121.733 6.81513 121.733 14.3481C121.733 15.4018 121.845 16.4272 122.052 17.4128H123.966C123.729 16.435 123.601 15.4083 123.601 14.3481C123.601 7.84501 128.359 2.55416 134.208 2.55416C140.056 2.55416 144.814 7.84485 144.814 14.3481C144.814 17.6686 143.574 20.6729 141.581 22.8183C141.226 23.2007 141.264 23.801 141.658 24.1426C141.663 24.1467 141.668 24.1507 141.672 24.155C142.047 24.4774 142.612 24.4484 142.948 24.0863C145.251 21.6062 146.682 18.1567 146.682 14.3481C146.682 6.81513 141.086 0.686523 134.208 0.686523Z" fill="#353535"/>
<path d="M141.85 22.3467C141.85 22.3467 141.964 23.9644 143.103 24.7543C144.243 25.5442 141.522 25.9592 141.384 25.8209C141.245 25.6825 139.985 24.8678 139.954 24.0531C139.924 23.2384 140.185 22.5775 140.231 22.4698C140.277 22.3622 140.631 21.7319 140.723 21.7319C140.815 21.7319 141.85 22.3467 141.85 22.3467Z" fill="#DC4437"/>
<path d="M114.524 22.2639C114.524 23.8215 113.466 25.0841 112.161 25.0841C110.857 25.0841 109.799 23.8215 109.799 22.2639C109.799 20.7065 110.857 19.4438 112.161 19.4438C113.466 19.4438 114.524 20.7065 114.524 22.2639Z" fill="#C12925"/>
<path d="M112.161 19.4438C111.919 19.4438 111.685 19.4876 111.465 19.5682C112.431 19.9227 113.133 20.9955 113.133 22.2639C113.133 23.5325 112.431 24.6052 111.465 24.9596C111.685 25.0404 111.919 25.084 112.161 25.084C113.466 25.084 114.524 23.8214 114.524 22.2638C114.524 20.7065 113.466 19.4438 112.161 19.4438Z" fill="#C12925"/>
<path d="M102.156 0.686523C95.2778 0.686523 89.6819 6.81513 89.6819 14.3481C89.6819 15.4018 89.7932 16.4272 90.0006 17.4128H91.9149C91.6778 16.435 91.5494 15.4083 91.5494 14.3481C91.5494 7.84501 96.3075 2.55416 102.156 2.55416C108.004 2.55416 112.762 7.84485 112.762 14.3481C112.762 17.6686 111.522 20.6729 109.529 22.8183C109.174 23.2007 109.212 23.801 109.606 24.1426C109.611 24.1467 109.616 24.1507 109.621 24.155C109.995 24.4774 110.56 24.4484 110.896 24.0863C113.2 21.6062 114.63 18.1567 114.63 14.3481C114.63 6.81513 109.034 0.686523 102.156 0.686523Z" fill="#353535"/>
<path d="M109.798 22.3467C109.798 22.3467 109.912 23.9644 111.052 24.7543C112.192 25.5442 109.471 25.9592 109.332 25.8209C109.194 25.6825 107.933 24.8678 107.903 24.0531C107.872 23.2384 108.133 22.5775 108.179 22.4698C108.226 22.3622 108.579 21.7319 108.671 21.7319C108.764 21.7319 109.798 22.3467 109.798 22.3467Z" fill="#DC4437"/>
<path d="M82.4721 22.2639C82.4721 23.8215 81.4143 25.0841 80.1093 25.0841C78.8045 25.0841 77.7466 23.8215 77.7466 22.2639C77.7466 20.7065 78.8045 19.4438 80.1093 19.4438C81.4143 19.4438 82.4721 20.7065 82.4721 22.2639Z" fill="#C12925"/>
<path d="M80.1095 19.4438C79.8674 19.4438 79.6338 19.4876 79.4138 19.5682C80.3792 19.9227 81.081 20.9955 81.081 22.2639C81.081 23.5325 80.3792 24.6052 79.4138 24.9596C79.6337 25.0404 79.8674 25.084 80.1095 25.084C81.4144 25.084 82.4722 23.8214 82.4722 22.2638C82.4724 20.7065 81.4146 19.4438 80.1095 19.4438Z" fill="#C12925"/>
<path d="M70.1047 0.686523C63.2264 0.686523 57.6304 6.81513 57.6304 14.3481C57.6304 15.4018 57.7419 16.4272 57.9492 17.4128H59.8636C59.6265 16.435 59.498 15.4083 59.498 14.3481C59.498 7.84501 64.2561 2.55416 70.1045 2.55416C75.9529 2.55416 80.7108 7.84485 80.7108 14.3481C80.7108 17.6686 79.4705 20.6729 77.4778 22.8183C77.1228 23.2007 77.1606 23.801 77.5549 24.1426C77.5596 24.1467 77.5644 24.1507 77.5691 24.155C77.9436 24.4774 78.5087 24.4484 78.8449 24.0863C81.1482 21.6062 82.5786 18.1567 82.5786 14.3481C82.5786 6.81513 76.9828 0.686523 70.1047 0.686523Z" fill="#353535"/>
<path d="M77.7469 22.3467C77.7469 22.3467 77.8607 23.9644 79.0002 24.7543C80.1399 25.5442 77.4191 25.9592 77.2808 25.8209C77.1423 25.6825 75.8819 24.8678 75.8511 24.0531C75.8204 23.2384 76.0818 22.5775 76.1279 22.4698C76.174 22.3622 76.5275 21.7319 76.6199 21.7319C76.712 21.7318 77.7469 22.3467 77.7469 22.3467Z" fill="#DC4437"/>
<path d="M50.4206 22.2639C50.4206 23.8215 49.3626 25.0841 48.0578 25.0841C46.753 25.0841 45.6951 23.8215 45.6951 22.2639C45.6951 20.7065 46.753 19.4438 48.0578 19.4438C49.3626 19.4438 50.4206 20.7065 50.4206 22.2639Z" fill="#C12925"/>
<path d="M48.058 19.4438C47.8159 19.4438 47.5823 19.4876 47.3623 19.5682C48.3277 19.9227 49.0295 20.9955 49.0295 22.2639C49.0295 23.5325 48.3277 24.6052 47.3623 24.9596C47.5822 25.0404 47.8159 25.084 48.058 25.084C49.3629 25.084 50.4207 23.8214 50.4207 22.2638C50.4209 20.7065 49.3629 19.4438 48.058 19.4438Z" fill="#C12925"/>
<path d="M38.0529 0.686523C31.1746 0.686523 25.5786 6.81513 25.5786 14.3481C25.5786 15.4018 25.6901 16.4272 25.8974 17.4128H27.8118C27.5747 16.435 27.4463 15.4083 27.4463 14.3481C27.4463 7.84501 32.2044 2.55416 38.0529 2.55416C43.9013 2.55416 48.6592 7.84485 48.6592 14.3481C48.6592 17.6686 47.4187 20.6729 45.4261 22.8183C45.071 23.2007 45.1088 23.801 45.5033 24.1426C45.508 24.1467 45.5128 24.1507 45.5175 24.155C45.892 24.4774 46.4569 24.4484 46.7933 24.0863C49.0965 21.6062 50.527 18.1567 50.527 14.3481C50.5269 6.81513 44.931 0.686523 38.0529 0.686523Z" fill="#353535"/>
<path d="M45.6951 22.3467C45.6951 22.3467 45.8089 23.9644 46.9484 24.7543C48.0881 25.5442 45.3673 25.9592 45.229 25.8209C45.0907 25.6825 43.8301 24.8678 43.7994 24.0531C43.7686 23.2384 44.0299 22.5775 44.076 22.4698C44.1221 22.3622 44.4758 21.7319 44.568 21.7319C44.6602 21.7318 45.6951 22.3467 45.6951 22.3467Z" fill="#DC4437"/>
<path d="M164.861 131.577L164.711 125.072L157.603 126.46C157.603 126.46 136.436 128.919 136.344 128.919C136.252 128.919 115.907 134.883 115.907 134.883L113.366 135.314H161.274C163.302 135.314 164.908 133.641 164.861 131.577Z" fill="#D6D6D6"/>
<path d="M113.366 135.314C113.366 135.314 130.268 131.623 143.619 108.475C143.619 108.475 150.167 126.321 164.711 125.072C164.711 125.072 145.218 134.141 113.366 135.314Z" fill="#E6E6E6"/>
<path d="M50.2829 44.6843C49.8411 44.6509 49.4011 44.5982 48.9668 44.5102C48.4761 44.4108 47.8466 44.308 47.4745 44.3436C46.691 44.4188 45.4153 44.8241 44.8959 45.7788C44.2489 46.968 42.4654 46.5797 44.0627 51.5448C45.8708 57.1648 48.8985 55.7306 48.9513 55.6144C49.0042 55.4981 50.8676 51.2404 50.8676 51.2404C50.8676 51.2404 52.3681 53.1029 52.3485 53.0255C52.3297 52.9507 55.5899 45.0868 50.2829 44.6843Z" fill="#353535"/>
<path d="M51.5149 65.2295C52.1188 64.7383 56.7893 66.7877 56.73 67.5011C56.6707 68.2147 59.989 75.1304 59.989 75.1304L65.7232 70.5583L65.7255 70.5599C65.7762 70.3944 66.3199 68.6161 66.3463 68.2979C66.374 67.9644 67.3429 67.3804 67.793 67.4665C68.2431 67.5524 67.4081 68.1168 67.3533 68.2205C67.2041 68.5026 67.7809 68.6086 67.7809 68.6086C67.7809 68.6086 69.4378 67.6992 69.4729 67.1646C69.5082 66.6298 69.8501 65.5088 70.2081 65.7432C70.3929 65.8642 70.3911 66.6596 70.3334 67.0369C70.4399 66.6086 70.5906 66.1248 70.7373 66.077C71.0053 65.9893 71.1387 66.3302 71.09 66.4977C71.0412 66.6651 70.6085 68.4836 70.4769 68.6883C70.3485 68.8882 67.6729 71.044 67.2874 71.512C67.2874 71.512 59.8703 79.9908 59.3422 80.2125C58.879 80.4071 57.2268 77.4852 55.6659 75.5454C54.105 73.6056 49.6276 66.764 51.5149 65.2295Z" fill="#F7A491"/>
<path d="M36.5494 127.575C36.5494 127.575 35.5302 128.569 35.507 128.935C35.4839 129.299 35.4168 133.209 35.8328 133.574C36.2489 133.939 37.471 134.198 37.078 134.609C36.781 134.919 34.4964 134.853 32.9824 134.769C32.5404 134.745 31.986 131.218 31.8109 130.7C31.5567 129.947 30.9383 128.252 31.1694 127.727C31.2822 127.471 31.8209 126.946 32.5803 126.456C33.3788 125.94 34.1429 124.792 34.1429 124.792L36.5494 127.575Z" fill="#F48C7F"/>
<path d="M47.1074 129.891C47.1074 129.891 46.1953 132.468 46.1942 132.474C46.1263 132.883 45.8594 133.891 45.8594 134.262C45.8594 135.656 52.1467 133.079 50.7376 132.461C50.6101 132.405 50.2099 131.958 50.1679 131.484C50.1032 130.753 50.6976 129.836 50.6976 129.836L47.1074 129.891Z" fill="#F7A491"/>
<path d="M56.97 81.9106C56.97 81.9106 57.4284 86.5296 57.4284 86.5986C57.4284 94.0706 58.9097 108.666 58.6279 110.071C57.9408 113.497 50.5447 130.976 50.5447 130.976L46.5474 130.498L51.7562 109.571L49.8393 101.148L47.127 84.4972L56.97 81.9106Z" fill="#282828"/>
<path d="M43.555 85.9962L42.7966 90.3741L40.7443 108.392L32.9292 126.001C32.9292 126.001 34.0286 128.564 35.6503 128.924L48.0887 110.844L55.8152 87.7095L55.544 82.5698L43.555 85.9962Z" fill="#353535"/>
<path d="M58.5644 70.9128L53.0216 71.4787C53.0216 71.4787 52.7673 66.9345 52.7673 64.767C52.7673 62.1371 52.9913 58.75 53.3089 58.8229C54.2003 59.0276 55.4006 59.5196 56.1153 60.5016C58.5883 63.8996 58.5644 70.9128 58.5644 70.9128Z" fill="#5B6B1A"/>
<path d="M55.8416 64.3036C55.9577 65.1055 58.0885 86.9029 58.0885 86.9029C47.9961 91.7773 42.4272 87.7713 42.4272 87.7713C42.4272 87.7713 42.7573 72.4646 42.3616 70.3813C42.0997 69.0029 41.7732 59.8436 42.6665 59.5871C43.8127 59.2577 45.1269 58.9083 46.5595 58.7597C47.7823 58.6326 52.5326 58.5592 53.3824 58.8447C53.3824 58.8447 55.3534 60.932 55.8416 64.3036Z" fill="#748828"/>
<path d="M32.63 126.431C32.63 126.431 34.9789 133.045 35.8984 133.364C36.1426 133.449 37.314 133.664 37.535 134.182C37.6015 134.338 37.535 134.859 37.535 134.859H32.6389C32.6389 134.859 32.0196 131.945 31.7748 130.665C31.7748 130.665 30.4788 127.536 30.6227 127.252C30.7667 126.968 32.63 126.431 32.63 126.431Z" fill="#353535"/>
<path d="M45.5017 134.721L46.2217 132.447C46.2217 132.447 47.7338 133.086 48.4897 132.98C49.2456 132.873 50.7218 132.447 50.7218 132.447C53.7396 133.44 56.2117 133.922 55.7621 134.721H45.5017Z" fill="#353535"/>
<path d="M59.3422 80.2126C59.3651 80.2031 59.4471 80.1384 59.4944 80.0995C59.315 77.964 59.3473 75.8947 60.0176 75.1953C60.0015 75.1617 59.855 74.8504 59.7021 74.5273C58.9253 75.1281 58.5563 76.7242 58.7011 79.3148C58.7111 79.4931 58.7622 79.6291 58.8035 79.8513C59.0285 80.0989 59.2329 80.2586 59.3422 80.2126Z" fill="#F7A491"/>
<path d="M50.6312 56.5189L50.929 58.7284C50.929 58.7284 51.5962 61.9117 50.7379 62.5253C49.8796 63.139 47.0879 58.6378 47.0879 58.6378L47.3827 53.0391L50.6312 56.5189Z" fill="#F7A491"/>
<path d="M47.2874 54.8536C47.9964 56.7631 49.6849 57.9369 50.8835 58.3922L50.631 56.5189L47.3825 53.0391L47.2874 54.8536Z" fill="#F47458"/>
<path d="M74.083 64.3473L83.2311 50.4399L67.5204 55.9423L65.4277 61.9976L74.083 64.3473Z" fill="#F2E9DA"/>
<path d="M65.4277 61.9976L67.6544 62.6021L83.2311 50.4399L67.5204 55.9423L65.4277 61.9976Z" fill="#E0D5C3"/>
<path d="M67.5208 55.9429L71.5873 54.5186L69.3711 58.3125L19.4612 97.2812L19.1206 93.7327L67.5208 55.9429Z" fill="#F7971E"/>
<path d="M69.371 58.3125L74.0194 57.6333L72.2329 61.9782L22.3233 100.947L19.4612 97.2812L69.371 58.3125Z" fill="#EFBE5E"/>
<path d="M72.2329 61.9782L76.4512 60.748L74.0833 64.3478L25.6831 102.138L22.3232 100.947L72.2329 61.9782Z" fill="#FFD800"/>
<path d="M23.1343 94.4088L19.459 97.2783L22.3209 100.944L25.9962 98.0743L23.1343 94.4088Z" fill="#748828"/>
<path d="M25.9986 98.0771L22.3232 100.947L25.6831 102.138L27.849 100.447L25.9986 98.0771Z" fill="#748828"/>
<path d="M21.2864 92.0415L19.1206 93.7324L19.4612 97.2809L23.1368 94.4115L21.2864 92.0415Z" fill="#5B6B1A"/>
<path d="M25.9982 98.0805L27.8484 100.45L32.1798 97.0684L30.3296 94.6986L25.9982 98.0805Z" fill="#FFFBF3"/>
<path d="M21.2832 92.0437L23.1335 94.4136L27.4651 91.0316L25.6148 88.6618L21.2832 92.0437Z" fill="#E6E6E6"/>
<path d="M23.1346 94.414L25.9966 98.0796L30.3282 94.6976L27.4662 91.0321L23.1346 94.414Z" fill="#E6E6E6"/>
<path d="M80.1271 55.1598C80.1584 55.1123 83.2318 50.4399 83.2318 50.4399L77.8999 52.3073L79.795 53.1234L80.1271 55.1598Z" fill="#DC4437"/>
<path d="M79.7945 53.1235L83.2314 50.4399L77.8994 52.3073L79.7945 53.1235Z" fill="#C12925"/>
<path d="M32.4313 87.1345C32.425 87.0877 32.4243 87.041 32.4288 86.994C32.5775 85.4845 33.8308 72.8087 34.0419 72.2698C34.2325 71.7832 39.8538 63.7437 39.8538 63.7437L42.6167 67.5078L37.2106 74.7187C37.0895 75.1769 35.1389 83.7337 35.1389 83.7337C35.1389 83.7337 34.7392 85.2933 34.5601 86.2277C34.6418 86.4527 34.7219 86.6652 34.793 86.8396C34.9721 87.2126 35.1833 87.5184 35.3754 87.7759C35.6169 88.0997 36.0165 88.8073 36.0658 88.9968C36.123 89.2168 36.2262 89.6744 36.2847 89.9504C36.3432 90.2268 36.4232 90.5481 36.4367 90.698C36.4448 90.7892 36.5389 90.9711 36.6114 91.0997C36.7193 91.2911 36.5351 91.5168 36.3267 91.4477C36.1304 91.3824 35.9773 91.1282 35.8831 90.9697C35.6171 90.5225 35.4752 89.7061 35.409 89.7494C35.3428 89.7925 35.1098 91.1778 35.0731 91.3344C35.0362 91.4909 34.7564 93.0995 34.5987 93.3936C34.4409 93.6875 34.2322 93.6384 34.1766 93.4543C34.129 93.2959 34.3509 91.0452 34.3509 91.0452C34.3509 91.0452 34.3785 90.7581 34.2527 90.8478C34.1269 90.9375 33.9215 92.9806 33.834 93.2795C33.7465 93.5783 33.5473 93.737 33.3781 93.4968C33.1723 93.2044 33.5261 91.0374 33.5261 91.0374C33.5261 91.0374 33.5658 90.765 33.4494 90.7903C33.3331 90.8157 33.1874 92.5569 33.0967 92.7076C33.0062 92.8582 32.7776 92.9123 32.6686 92.661C32.5402 92.3654 32.8728 90.4336 32.8728 90.4336C32.8728 90.4336 32.8565 90.2798 32.7839 90.3309C32.7113 90.3819 32.4809 91.8573 32.3306 91.994C32.2045 92.1087 32.0995 91.9973 32.0995 91.9973C31.8239 91.8095 32.2464 90.406 32.2422 89.708C32.2381 89.0103 32.5618 88.2261 32.4652 87.3951C32.4589 87.343 32.442 87.2151 32.4313 87.1345Z" fill="#F8A492"/>
<path d="M35.4619 68.8356L40.2636 72.0594C40.2636 72.0594 42.97 68.0323 44.4228 66.5986C46.2426 64.8026 43.7599 59.3005 42.5873 59.6118C39.9646 60.308 35.4619 68.8356 35.4619 68.8356Z" fill="#5B6B1A"/>
<path d="M48.0893 46.8728C49.7007 46.1768 51.5486 47.1416 51.9311 48.8283C52.0975 49.5613 52.2678 50.4861 52.3641 51.5042C52.5957 53.9526 51.5085 56.4356 50.3952 56.5204C49.2817 56.6054 46.0838 55.253 45.7068 51.7807C45.4744 49.637 46.3984 47.603 48.0893 46.8728Z" fill="#F7A491"/>
<path d="M46.5486 51.9928C46.5898 52.5336 46.2647 52.9994 45.8225 53.0331C45.3802 53.0668 44.9881 52.6558 44.9469 52.1149C44.9056 51.5742 45.2307 51.1084 45.673 51.0747C46.1152 51.041 46.5073 51.452 46.5486 51.9928Z" fill="#F7A491"/>
<path d="M45.6728 51.0752C45.6728 51.0752 47.043 51.0678 47.3123 50.1201C47.5814 49.1724 48.8406 46.9555 51.2029 47.144C53.5651 47.3325 48.8334 45.8309 48.6593 45.875C48.4854 45.919 46.3938 46.4336 46.3938 46.4336C46.3938 46.4336 45.1186 48.1607 45.0973 48.3205C45.076 48.4803 45.0125 50.1783 45.0125 50.1783L45.6728 51.0752Z" fill="#353535"/>
<path d="M51.3881 53.4468L49.1011 53.6285C49.1011 53.6285 49.2228 54.493 50.2309 54.4422C51.4601 54.3802 51.3881 53.4468 51.3881 53.4468Z" fill="white"/>
</svg>
