<svg width="25" height="24" viewBox="0 0 25 24" fill="none" xmlns="http://www.w3.org/2000/svg">
<path d="M8.98718 21H16.0132C16.6433 21 17.2646 20.8511 17.8263 20.5654C18.388 20.2798 18.8742 19.8654 19.2454 19.3562C19.6166 18.847 19.8623 18.2573 19.9623 17.6351C20.0624 17.0129 20.014 16.3759 19.8212 15.776L18.1152 10.47C17.7913 9.4622 17.1558 8.58321 16.3004 7.95963C15.445 7.33604 14.4138 7.00003 13.3552 7H11.6452C10.5866 7.00003 9.55535 7.33604 8.69994 7.95963C7.84453 8.58321 7.2091 9.4622 6.88518 10.47L5.17918 15.776C4.98635 16.3759 4.93799 17.0129 5.03805 17.6351C5.1381 18.2573 5.38373 18.847 5.75493 19.3562C6.12613 19.8654 6.61239 20.2798 7.17408 20.5654C7.73578 20.8511 8.35702 21 8.98718 21ZM15.5002 3C14.8335 5.66667 13.8335 7 12.5002 7C11.1668 7 10.1668 5.66667 9.50018 3H15.5002Z" stroke="black" stroke-linecap="round" stroke-linejoin="round"/>
<path d="M14.5 11H12C11.6022 11 11.2206 11.158 10.9393 11.4393C10.658 11.7206 10.5 12.1022 10.5 12.5C10.5 12.8978 10.658 13.2794 10.9393 13.5607C11.2206 13.842 11.6022 14 12 14H13C13.3978 14 13.7794 14.158 14.0607 14.4393C14.342 14.7206 14.5 15.1022 14.5 15.5C14.5 15.8978 14.342 16.2794 14.0607 16.5607C13.7794 16.842 13.3978 17 13 17H10.5M12.5 10V11M12.5 17V18" stroke="black" stroke-linecap="round" stroke-linejoin="round"/>
</svg>
