<svg width="94" height="30" viewBox="0 0 94 30" fill="none" xmlns="http://www.w3.org/2000/svg">
<g clip-path="url(#clip0_2106_9251)">
<path d="M3.20796 9.22308C25.8641 8.37481 48.5202 7.52655 71.1764 6.67828L90.738 5.94588L89.8536 0.108766C72.6727 2.78241 55.9186 7.26537 39.821 13.2432C38.2908 13.8114 37.1715 14.9205 37.438 16.5037C37.6812 17.9482 39.0165 19.0787 40.7054 19.0803C45.3358 19.0846 49.8223 20.0462 54.0006 21.8267V16.6949C51.6985 17.671 49.1312 18.4808 46.993 19.72C44.5235 21.1511 43.5859 23.9736 44.6863 26.3894C46.0157 29.3081 49.096 29.8165 52.2741 29.9931C56.5503 30.2306 56.5345 24.2864 52.2741 24.0498C51.7059 24.0182 51.1217 23.9242 50.5533 23.9197C50.3726 23.9182 50.797 23.9701 50.7838 24.0799C50.7325 24.5064 50.6647 23.7544 50.8368 24.1867C51.0523 24.7281 50.894 23.8419 50.8468 24.3748C50.8118 24.7701 50.134 24.8344 50.8921 24.5688C51.2365 24.4482 51.569 24.2818 51.9027 24.1403C53.7214 23.3691 55.5401 22.5979 57.3588 21.8267C59.5364 20.9033 59.53 17.6201 57.3588 16.6949C52.1048 14.456 46.5497 13.1425 40.7054 13.1371L41.5897 18.9742C57.6874 12.9964 74.4415 8.51342 91.6224 5.83976C95.3224 5.26398 94.455 -0.136524 90.738 0.00264303C68.0819 0.850889 45.4257 1.69915 22.7696 2.54742L3.20796 3.27982C-1.05804 3.43954 -1.08058 9.38365 3.20796 9.22308Z" fill="#C1F558"/>
</g>
<defs>
<clipPath id="clip0_2106_9251">
<rect width="94" height="30" fill="white"/>
</clipPath>
</defs>
</svg>
