<svg width="154" height="154" viewBox="0 0 154 154" fill="none" xmlns="http://www.w3.org/2000/svg">
<circle cx="76.8801" cy="76.8215" r="76.8215" fill="url(#paint0_linear_2121_10088)"/>
<circle cx="76.8793" cy="76.8217" r="64.8715" fill="#004C48"/>
<path d="M83.8745 51.4632L83.7921 56.9839C87.1087 52.7404 90.8579 48.847 94.9985 45.3862C95.4311 45.0154 96.0903 45.0978 96.4405 45.5304C96.5641 45.6952 96.6465 45.8806 96.6671 46.066L96.9143 48.5998C98.3975 46.8076 100.169 45.2626 102.147 44.0472C101.529 43.0584 100.993 42.049 100.56 40.9778C100.293 40.3186 100.602 39.577 101.261 39.3092C101.384 39.268 101.508 39.2268 101.632 39.2268C103.959 39.0208 106.823 38.856 109.171 38.65C109.81 38.5882 110.366 39.062 110.428 39.7006C110.448 39.8448 110.428 40.0096 110.387 40.1538L107.379 49.877C107.214 50.392 106.658 50.6804 106.164 50.5156C105.937 50.4538 105.752 50.289 105.628 50.083L103.898 47.2402C101.24 48.9294 99.0567 51.7722 97.0997 54.4914C96.6877 55.0682 95.8843 55.1918 95.3075 54.7798C95.0603 54.5944 94.8749 54.3472 94.8131 54.0382C94.5247 53.0494 94.4629 51.9988 94.6277 50.9688C89.6837 54.7386 85.6667 58.1582 82.6797 63.2257C82.4737 63.576 82.0205 63.6996 81.6703 63.4936C81.4643 63.37 81.3201 63.1434 81.3201 62.8962C81.2583 60.8774 81.3201 58.8792 81.5467 56.881C75.4697 61.825 70.0313 66.4393 66.1173 73.0519C66.0555 73.1549 65.9113 73.1961 65.7877 73.1343C65.7053 73.0932 65.6641 73.0107 65.6641 72.9283C65.9731 66.0686 77.9829 53.482 82.4943 50.6804C82.9269 50.4126 83.4831 50.5568 83.7509 50.9894C83.8333 51.113 83.8745 51.2984 83.8745 51.4632Z" fill="white"/>
<path d="M69.3927 106.424C68.4863 106.033 67.5799 105.579 66.8795 104.9C66.1791 104.22 65.7053 103.21 65.8495 102.242C65.9937 101.274 66.9413 100.409 67.9095 100.553C66.7147 99.5231 65.9525 98.0811 65.8083 96.5155C65.7465 96.0623 65.8083 95.6091 65.9937 95.1765C66.1997 94.7851 66.6529 94.4761 67.1061 94.5585C66.0143 91.8187 66.1173 88.7699 67.3945 86.1125C67.5593 85.7829 67.7653 85.4533 68.0949 85.3297C68.6511 85.1443 69.1661 85.6593 69.4957 86.1537C70.7111 87.9871 71.2879 90.1501 71.1849 92.3543C71.8441 91.5921 72.7505 90.7475 73.7393 91.0153C74.5633 91.2419 74.9547 92.1689 75.1401 93.0135C75.5315 94.8675 75.3873 96.7833 74.7281 98.5343C74.7281 97.8133 75.5521 97.2983 76.2525 97.4425C76.9529 97.5867 77.4473 98.2459 77.6121 98.9463C77.7769 99.6467 77.6533 100.368 77.4679 101.047C77.0353 102.675 76.2937 104.24 75.0577 105.373C73.8217 106.506 72.0501 107.124 70.4227 106.712" fill="white"/>
<path d="M119.925 106.486C120.687 106.156 121.45 105.765 122.047 105.188C122.644 104.611 123.036 103.767 122.912 102.943C122.789 102.119 121.985 101.398 121.161 101.501C122.171 100.636 122.809 99.3997 122.933 98.0813C122.995 97.6899 122.933 97.3191 122.768 96.9689C122.603 96.6187 122.232 96.4127 121.841 96.4539C122.747 94.1467 122.665 91.5717 121.594 89.3263C121.47 89.0585 121.285 88.7701 120.996 88.6671C120.523 88.5229 120.09 88.9555 119.822 89.3469C118.792 90.8919 118.298 92.7253 118.401 94.5793C117.824 93.9407 117.062 93.2197 116.238 93.4669C115.537 93.6729 115.208 94.4557 115.043 95.1561C114.713 96.7217 114.837 98.3285 115.414 99.8323C115.414 99.2349 114.713 98.7817 114.137 98.9053C113.56 99.0289 113.127 99.5851 112.983 100.162C112.88 100.759 112.921 101.377 113.107 101.954C113.457 103.314 114.095 104.653 115.146 105.621C116.197 106.589 117.7 107.104 119.06 106.754" fill="white"/>
<path d="M82.5972 98.3285C82.8032 97.5663 83.174 96.7835 83.8538 96.3715C84.5336 95.9595 85.5842 96.1449 85.8932 96.8659C85.234 95.1767 85.44 93.2814 86.4494 91.7776C86.6142 91.4892 86.882 91.2627 87.191 91.1185C87.5206 91.0155 87.9326 91.139 88.015 91.4686C88.1386 90.6858 88.3652 89.8619 88.9214 89.2851C89.4776 88.7083 90.4046 88.4405 91.0844 88.8525C91.6406 89.2027 91.8878 89.8824 92.0114 90.5416C92.3822 92.4986 92.1144 94.5174 91.2698 96.3096C91.723 95.7328 92.7118 95.9183 93.1444 96.4951C93.577 97.0719 93.577 97.8959 93.4328 98.5963C93.1444 99.9971 92.4234 101.274 91.3728 102.222C91.3522 101.727 91.9908 101.398 92.444 101.604C92.8972 101.81 93.0826 102.387 93.0002 102.881C92.8766 103.375 92.65 103.808 92.2998 104.179C90.6312 106.239 88.3446 107.516 85.7078 106.589C83.9362 105.971 83.4006 104.797 82.8238 103.087C82.3294 101.563 82.1646 99.9559 82.5972 98.3285Z" fill="white"/>
<path d="M98.2528 97.5454C98.2528 97.1334 98.3146 96.6596 98.6442 96.3712C99.0356 96.0416 99.6742 96.1446 100.066 96.4742C100.457 96.8038 100.684 97.2982 100.89 97.772C98.9738 95.3206 98.088 92.2306 98.4176 89.1406C98.4176 88.7904 98.5412 88.4608 98.7472 88.193C99.1386 87.7604 99.8802 87.8222 100.333 88.1724C100.787 88.5226 101.075 89.0788 101.322 89.5938C100.457 87.4102 100.354 85 101.013 82.7546C101.26 81.9306 101.817 81.0036 102.661 81.0654C103.444 81.1066 103.897 81.9718 104.144 82.7134C105.133 85.6592 105.38 88.7904 104.886 91.8392C104.968 91.3448 105.133 90.8504 105.38 90.4178C105.669 90.0058 106.163 89.6968 106.658 89.7792C107.502 89.9234 107.77 90.974 107.811 91.8186C107.894 93.7962 107.626 95.7738 107.008 97.669C107.276 97.0098 107.543 96.3094 108.12 95.8768C108.697 95.4442 109.624 95.4236 110.015 96.0416C110.263 96.433 110.201 96.9274 110.118 97.3806C109.83 99.008 109.397 100.615 108.779 102.16C108.306 103.355 107.749 104.529 106.864 105.456C106.081 106.259 104.701 107.186 103.506 107.001C102.476 106.836 101.508 105.682 100.869 104.92C99.1386 102.881 98.191 100.244 98.2528 97.5454Z" fill="white"/>
<path d="M71.7824 105.043C71.7412 105.043 71.7 105.023 71.6794 104.982C69.4546 99.914 68.2804 94.4344 68.2598 88.893C68.2598 88.8312 68.301 88.79 68.3628 88.79C68.4246 88.79 68.4658 88.8312 68.4658 88.893C68.4864 94.3932 69.64 99.8522 71.8648 104.899C71.8854 104.961 71.8648 105.002 71.803 105.043H71.7824Z" fill="#004C48"/>
<path d="M71.7829 105.209C71.6799 105.209 71.5975 105.147 71.5563 105.044C69.3315 99.9559 68.1573 94.4557 68.1367 88.8937C68.1367 88.7495 68.2397 88.6465 68.3839 88.6465C68.5281 88.6465 68.6311 88.7701 68.6517 88.8937C68.6723 94.3733 69.8259 99.8117 72.0301 104.838C72.0919 104.962 72.0301 105.126 71.8859 105.188C71.8447 105.209 71.8035 105.209 71.7829 105.209Z" fill="white"/>
<path d="M117.905 105.332C117.885 105.332 117.885 105.332 117.864 105.332C117.823 105.311 117.782 105.25 117.802 105.208C119.677 100.944 120.645 96.3504 120.666 91.6948C120.666 91.633 120.707 91.5918 120.769 91.5918C120.831 91.5918 120.872 91.633 120.872 91.6948C120.851 96.371 119.862 101.006 117.988 105.291C117.988 105.332 117.947 105.353 117.905 105.332Z" fill="#004C48"/>
<path d="M117.906 105.497C117.762 105.497 117.638 105.373 117.659 105.229C117.659 105.188 117.659 105.167 117.679 105.126C119.533 100.882 120.522 96.309 120.543 91.674C120.543 91.5298 120.666 91.4268 120.79 91.4268C120.852 91.4268 120.913 91.4474 120.975 91.5092C121.016 91.5504 121.058 91.6328 121.058 91.6946C121.037 96.3914 120.048 101.047 118.153 105.352C118.091 105.435 118.009 105.497 117.906 105.497Z" fill="white"/>
<path d="M86.7182 105.435H86.6976C86.6358 105.414 86.6152 105.373 86.6152 105.311C87.81 100.841 88.8606 96.2678 89.7258 91.7152C89.7464 91.6534 89.7876 91.6328 89.8494 91.6328C89.9112 91.6534 89.9318 91.6946 89.9318 91.7564C89.0666 96.309 88.0366 100.882 86.8212 105.352C86.8006 105.414 86.7594 105.435 86.7182 105.435Z" fill="#004C48"/>
<path d="M86.7178 105.6C86.6972 105.6 86.6766 105.6 86.656 105.6C86.5942 105.579 86.5324 105.538 86.4912 105.476C86.45 105.415 86.45 105.353 86.4706 105.27C87.6654 100.8 88.716 96.2271 89.5812 91.6745C89.6018 91.6127 89.6224 91.5509 89.6842 91.5097C89.8078 91.4273 89.952 91.4685 90.0344 91.5715C90.0756 91.6333 90.0962 91.6951 90.0756 91.7569C89.2104 96.3095 88.1598 100.903 86.965 105.394C86.9444 105.518 86.8414 105.6 86.7178 105.6Z" fill="white"/>
<path d="M104.144 104.055C104.103 104.055 104.041 104.014 104.041 103.973C103.156 97.6483 102.682 91.2829 102.641 84.8969C102.641 84.8351 102.682 84.7939 102.744 84.7939C102.805 84.7939 102.847 84.8351 102.847 84.8969C102.888 91.2623 103.341 97.6277 104.247 103.931C104.247 103.993 104.206 104.034 104.144 104.055Z" fill="#004C48"/>
<path d="M104.144 104.199C104.02 104.199 103.917 104.096 103.897 103.972C103.011 97.6482 102.537 91.2622 102.496 84.8762C102.496 84.732 102.599 84.6084 102.743 84.6084C102.805 84.6084 102.867 84.629 102.908 84.6702C102.97 84.7114 102.99 84.7938 102.99 84.8556C103.032 91.221 103.485 97.5658 104.391 103.869C104.412 104.014 104.309 104.137 104.185 104.158L104.144 104.199Z" fill="white"/>
<path d="M59.9575 96.4121H70.9785C71.3905 96.4121 71.7407 96.7623 71.7407 97.1743V106.795C71.7407 107.207 71.3905 107.557 70.9785 107.557H59.9575C59.5455 107.557 59.1953 107.207 59.1953 106.795V97.1743C59.1953 96.7417 59.5249 96.4121 59.9575 96.4121Z" fill="#004C48"/>
<path d="M70.9782 107.701H59.9572C59.4422 107.701 59.0508 107.289 59.0508 106.794V97.174C59.0508 96.6796 59.4628 96.2676 59.9572 96.2676H70.9782C71.4726 96.2676 71.8846 96.6796 71.8846 97.174V106.794C71.8846 107.289 71.4726 107.701 70.9782 107.701ZM59.9572 96.556C59.6276 96.556 59.3598 96.8238 59.3598 97.1534V106.774C59.3598 107.103 59.6276 107.371 59.9572 107.371H70.9782C71.3078 107.371 71.5756 107.103 71.5756 106.774V97.174C71.5756 96.8444 71.3078 96.5766 70.9782 96.5766L59.9572 96.556Z" fill="white"/>
<path d="M75.2008 87.6982H85.7274C86.2836 87.6982 86.7368 88.1514 86.7368 88.7076V106.156C86.7368 106.712 86.2836 107.165 85.7274 107.165H75.2008C74.6446 107.165 74.1914 106.712 74.1914 106.156V88.7076C74.212 88.1308 74.6446 87.6982 75.2008 87.6982Z" fill="#004C48"/>
<path d="M85.7486 107.289H75.222C74.5834 107.289 74.0684 106.774 74.0684 106.135V88.6868C74.0684 88.0482 74.5834 87.5332 75.222 87.5332H85.7486C86.3872 87.5332 86.9022 88.0482 86.9022 88.6868V106.135C86.9022 106.774 86.3872 107.289 85.7486 107.289ZM75.2014 87.8422C74.7276 87.8422 74.3568 88.213 74.3568 88.6868V106.135C74.3568 106.609 74.7276 106.98 75.2014 106.98H85.728C86.2018 106.98 86.5726 106.588 86.5726 106.135V88.6868C86.5726 88.213 86.2018 87.8422 85.728 87.8422H75.2014Z" fill="white"/>
<path d="M91.0224 75.1523H100.972C101.693 75.1523 102.27 75.7291 102.27 76.4501V105.867C102.27 106.588 101.693 107.165 100.972 107.165H91.0224C90.3014 107.165 89.7246 106.588 89.7246 105.867V76.4295C89.7246 75.7291 90.3014 75.1523 91.0224 75.1523Z" fill="#004C48"/>
<path d="M100.973 107.288H91.0025C90.1991 107.288 89.5605 106.65 89.5605 105.846V76.4293C89.5605 75.6259 90.1991 74.9873 91.0025 74.9873H100.973C101.776 74.9873 102.415 75.6259 102.415 76.4293V105.846C102.415 106.65 101.776 107.288 100.973 107.288ZM91.0231 75.2963C90.4051 75.2963 89.8901 75.8113 89.8901 76.4293V105.846C89.8901 106.464 90.4051 106.979 91.0231 106.979H100.994C101.612 106.979 102.127 106.464 102.127 105.846V76.4293C102.127 75.8113 101.612 75.2963 100.994 75.2963H91.0231Z" fill="white"/>
<path d="M107.626 62.8135H117.576C118.297 62.8135 118.874 63.3903 118.874 64.1113V105.847C118.874 106.568 118.297 107.145 117.576 107.145H107.626C106.905 107.145 106.328 106.568 106.328 105.847V64.1113C106.328 63.4109 106.905 62.8135 107.626 62.8135Z" fill="#004C48"/>
<path d="M117.576 107.289H107.606C106.803 107.289 106.164 106.65 106.164 105.847V64.1109C106.164 63.3075 106.803 62.6689 107.606 62.6689H117.576C118.38 62.6689 119.018 63.3075 119.018 64.1109V105.847C119.018 106.65 118.38 107.289 117.576 107.289ZM107.627 62.9779C107.009 62.9779 106.494 63.4929 106.494 64.1109V105.847C106.494 106.465 107.009 106.98 107.627 106.98H117.597C118.215 106.98 118.73 106.465 118.73 105.847V64.1109C118.73 63.4929 118.215 62.9779 117.597 62.9779H107.627Z" fill="white"/>
<path d="M34.4134 108.38C62.347 107.165 90.4454 107.68 118.482 107.742C119.553 107.742 120.995 107.577 120.995 107.041C120.995 106.506 119.533 106.32 118.461 106.32C104.968 106.32 91.4548 106.423 77.9618 106.465C64.3658 106.506 50.7286 106.732 37.1326 106.609C35.567 106.588 31.9826 106.053 30.623 106.588C29.9226 106.856 29.9226 107.289 30.314 107.701C31.0556 108.483 32.9096 108.463 34.4134 108.38Z" fill="white"/>
<path d="M37.9577 104.961C38.0607 105.662 38.2255 106.403 39.0495 106.856C38.9671 105.208 38.8641 103.56 38.7199 101.933C38.5963 100.47 38.5551 98.9461 38.2667 97.5041C38.2255 97.2981 37.6487 97.3805 37.6899 97.5865C37.7311 97.7925 37.8341 98.1015 37.8341 98.2457C37.7929 99.0079 37.7105 99.7495 37.6899 100.512C37.6487 101.995 37.7311 103.478 37.9577 104.961Z" fill="white"/>
<path d="M33.7762 103.107C33.735 102.819 33.735 102.51 34.0852 102.304C34.4354 102.098 35.074 102.036 35.6508 102.015C37.4224 101.953 39.2146 101.974 40.9862 102.118C41.3982 102.118 41.7896 102.201 42.181 102.345C42.4488 102.489 42.6136 102.777 42.5518 103.086C42.5106 103.89 42.3458 104.673 42.0368 105.414C41.8926 105.806 41.6248 106.156 41.2746 106.403C40.2034 107.124 37.8344 107.206 36.2894 106.856C35.0122 106.568 34.7032 105.826 34.4148 105.208C34.0852 104.549 33.8792 103.828 33.7762 103.107Z" fill="#004C48"/>
<path d="M38.1841 107.206C37.5249 107.206 36.8863 107.144 36.2477 107C34.9293 106.691 34.5791 105.929 34.2907 105.311L34.2701 105.249C33.9405 104.569 33.7345 103.848 33.6109 103.107C33.5697 102.777 33.5697 102.406 34.0023 102.159C34.3937 101.933 35.0117 101.871 35.6297 101.85C37.4219 101.788 39.1935 101.809 40.9651 101.953C41.3977 101.953 41.8097 102.036 42.2011 102.2C42.5307 102.365 42.7161 102.715 42.6543 103.086C42.6131 103.91 42.4277 104.714 42.1187 105.455C41.9745 105.888 41.6861 106.259 41.3153 106.506C40.6561 106.98 39.3995 107.206 38.1841 107.206ZM37.4013 102.139C36.8039 102.139 36.2271 102.139 35.6297 102.159C35.0323 102.18 34.4761 102.221 34.1465 102.427C33.8993 102.571 33.8581 102.777 33.8993 103.066C34.0023 103.787 34.2083 104.466 34.5173 105.126L34.5379 105.187C34.8263 105.805 35.1147 106.423 36.2889 106.691C37.7927 107.041 40.1205 106.938 41.1505 106.259C41.4801 106.032 41.7273 105.702 41.8509 105.332C42.1599 104.611 42.3247 103.848 42.3659 103.066C42.3865 102.798 42.3247 102.612 42.0775 102.468C41.7273 102.324 41.3359 102.262 40.9445 102.262C39.7909 102.18 38.5961 102.139 37.4013 102.139Z" fill="white"/>
<path d="M34.1884 89.0581C32.458 90.8503 31.8606 93.7137 32.8906 96.0003C33.9824 98.4311 36.8458 99.8937 39.462 99.3581C42.0782 98.8225 44.097 96.3299 44.1588 93.6725C44.2206 90.1911 40.595 86.8127 37.093 87.4513C35.9806 87.6985 34.9712 88.2547 34.1884 89.0581Z" fill="white"/>
<path d="M34.6007 89.4288C33.0145 91.0562 32.4789 93.6724 33.4059 95.7324C34.3947 97.9366 37.0109 99.2756 39.3799 98.7812C41.7489 98.2868 43.6235 96.0414 43.6647 93.6312C43.7265 90.4588 40.4305 87.3688 37.2375 87.9662C36.2281 88.1722 35.3011 88.6872 34.6007 89.4288Z" fill="#004C48"/>
<path d="M38.3908 99.0491C36.269 99.0491 34.1266 97.7513 33.2614 95.7943C32.3138 93.6931 32.8288 91.0357 34.4768 89.3053C35.2184 88.5431 36.166 88.0075 37.196 87.8015C38.6792 87.5337 40.286 88.0075 41.625 89.1405C43.0258 90.3353 43.8498 92.0039 43.8292 93.6313C43.788 96.1033 41.8516 98.4517 39.4208 98.9461C39.0706 99.0079 38.7204 99.0491 38.3908 99.0491ZM34.7034 89.5319C33.1172 91.1593 32.6434 93.6931 33.5498 95.6707C34.518 97.8131 37.0518 99.1109 39.359 98.6371C41.6662 98.1633 43.479 95.9591 43.5202 93.6313C43.5408 92.1069 42.7786 90.5207 41.4396 89.3877C40.183 88.3371 38.6792 87.8633 37.2784 88.1311C36.2896 88.3165 35.3832 88.8109 34.7034 89.5319Z" fill="white"/>
<path d="M37.876 96.4536C36.9902 96.2888 36.2692 95.6914 36.0632 94.9498C36.0014 94.7232 36.1456 94.476 36.3722 94.4142C36.5988 94.3524 36.846 94.4966 36.9078 94.7232C37.052 95.2176 37.5876 95.5266 38.0408 95.609C38.391 95.6914 38.7618 95.6296 39.0708 95.4442C39.318 95.2794 39.4622 95.0116 39.421 94.7026C39.3386 94.3112 38.8236 94.064 38.5352 93.961C38.4116 93.9198 38.3086 93.8786 38.185 93.8374C37.7112 93.7138 37.2786 93.5078 36.9078 93.2194C36.0838 92.4778 36.022 91.2418 36.743 90.4178C37.464 89.5938 38.7206 89.532 39.5446 90.253C39.627 90.3148 39.6888 90.3972 39.7506 90.4796C39.8948 90.665 39.8742 90.9328 39.6888 91.0976C39.5034 91.2418 39.2356 91.2212 39.0708 91.0358C38.6794 90.562 37.979 90.5002 37.5052 90.9122C37.0314 91.3036 36.9696 92.004 37.3816 92.4778C37.4022 92.519 37.4434 92.5396 37.4846 92.5808C37.773 92.7868 38.1026 92.9516 38.4734 93.034L38.8442 93.1576C39.6682 93.446 40.1626 93.9198 40.2862 94.5378C40.4098 95.1764 40.1008 95.8356 39.5446 96.1858C39.0502 96.4948 38.4528 96.5978 37.876 96.4536Z" fill="white"/>
<path d="M38.577 97.7311C38.3916 97.6899 38.2474 97.5457 38.2268 97.3603C37.8972 94.6823 37.753 91.9837 37.8148 89.2851C37.8148 89.0379 38.0208 88.8525 38.268 88.8525C38.5152 88.8525 38.7006 89.0585 38.7006 89.3057C38.6388 91.9631 38.783 94.6205 39.092 97.2573C39.1126 97.5045 38.9478 97.7105 38.7212 97.7311C38.6594 97.7311 38.6182 97.7311 38.577 97.7311Z" fill="white"/>
<path d="M48.752 100.099C48.752 101.171 48.8138 102.304 49.5348 103.169C49.7202 100.697 49.8438 98.2248 49.9674 95.7528C50.0704 93.528 50.2558 91.262 50.194 89.0372C50.194 88.7076 49.6172 88.7076 49.5966 89.0372C49.576 89.408 49.679 89.8406 49.6378 90.0672C49.473 91.1796 49.2876 92.292 49.1434 93.4044C48.8962 95.6292 48.752 97.8746 48.752 100.099Z" fill="white"/>
<path d="M43.8084 94.8672C42.2428 93.8372 41.0068 92.3128 40.8832 90.6442C40.8214 89.7584 41.2128 88.7078 42.2222 88.4606C43.2316 88.2134 44.1998 88.955 44.8178 89.6966C45.5594 90.6236 46.2392 91.6124 46.816 92.663L48.2992 95.135C48.5464 95.5676 49.6382 96.68 48.7318 96.8448C48.0932 96.9684 46.8366 96.3092 46.2598 96.0826C45.4152 95.7736 44.5912 95.3616 43.8084 94.8672Z" fill="white"/>
<path d="M55.7149 88.481C56.5801 88.069 57.6925 87.76 58.5371 88.1926C59.3199 88.584 59.5877 89.4904 59.3817 90.2526C59.1345 91.2208 58.2899 92.0036 57.3217 92.5186C56.3535 93.0336 55.2205 93.3014 54.1287 93.5692L52.0275 94.0842C51.5949 94.1872 50.4825 94.6816 50.0705 94.558C49.5761 94.4138 50.0293 93.8782 50.2353 93.5074C50.4619 93.0954 50.7297 92.6834 50.9975 92.292C52.1099 90.8088 53.7991 89.2226 55.7149 88.481Z" fill="white"/>
<path d="M51.2246 93.7339C51.204 93.7339 51.1628 93.7133 51.1422 93.6927C51.101 93.6515 51.101 93.5897 51.1422 93.5485C53.264 91.6327 55.6124 90.0053 58.1256 88.6663C58.1668 88.6457 58.2286 88.6663 58.2698 88.7075C58.2904 88.7487 58.2698 88.8105 58.2286 88.8517C55.7154 90.1701 53.3876 91.7975 51.2864 93.6927C51.2864 93.7133 51.2452 93.7339 51.2246 93.7339Z" fill="white"/>
<path d="M47.1048 95.4232C47.0842 95.4232 47.0842 95.4232 47.0636 95.4232C44.7564 94.3726 43.0878 92.3333 42.6758 90.1085C42.6758 90.0467 42.6964 90.0055 42.7582 89.9849C42.82 89.9643 42.8612 90.0054 42.8818 90.0672C43.2732 92.2302 44.9212 94.2079 47.1666 95.2379C47.2078 95.2585 47.249 95.3202 47.2078 95.382C47.1872 95.4026 47.146 95.4232 47.1048 95.4232Z" fill="white"/>
<path d="M44.7566 100.388C44.7154 99.9141 44.7154 99.3785 45.0656 99.0283C45.4158 98.6781 46.0544 98.5751 46.6312 98.5339C48.4028 98.4309 50.195 98.4721 51.9666 98.6987C52.3992 98.7605 52.8524 98.8223 53.1614 99.0901C53.5322 99.3991 53.5528 99.9141 53.5322 100.347C53.5116 101.686 53.3262 103.004 53.0172 104.302C52.873 104.899 52.6876 105.497 52.255 105.991C51.1838 107.206 48.8148 107.371 47.2698 106.774C45.9926 106.28 45.6836 105.023 45.3952 103.952C45.0862 102.798 44.8802 101.603 44.7566 100.388Z" fill="#004C48"/>
<path d="M49.1844 107.268C48.5046 107.268 47.8454 107.165 47.2068 106.918C45.8884 106.403 45.5588 105.187 45.2704 104.096L45.2498 103.993C44.9202 102.818 44.7142 101.603 44.6112 100.388C44.57 99.8521 44.57 99.2959 44.982 98.9045C45.394 98.5131 46.012 98.4101 46.6506 98.3689C48.4428 98.2659 50.235 98.3071 52.0066 98.5337C52.4392 98.5955 52.9336 98.6779 53.2838 98.9663C53.6752 99.3165 53.7164 99.8315 53.7164 100.346C53.6752 101.685 53.5104 103.024 53.1808 104.322C53.0366 104.899 52.8512 105.538 52.398 106.073C51.6564 106.897 50.4204 107.268 49.1844 107.268ZM44.9202 100.388C45.0232 101.582 45.2292 102.777 45.5588 103.931L45.5794 104.034C45.8678 105.084 46.1562 106.197 47.3304 106.65C48.8342 107.227 51.1208 107.062 52.1302 105.908C52.5422 105.435 52.7276 104.817 52.8512 104.281C53.1602 103.004 53.3456 101.685 53.3662 100.367C53.3868 99.8727 53.325 99.4813 53.0366 99.2341C52.7482 98.9869 52.3362 98.9251 51.9242 98.8839C50.1732 98.6573 48.4016 98.6161 46.63 98.7191C46.0532 98.7603 45.497 98.8221 45.1674 99.1517C44.8378 99.4813 44.879 99.9551 44.9202 100.388Z" fill="white"/>
<path d="M45.7646 79.2728C44.0342 81.065 43.4368 83.9284 44.4668 86.215C45.5586 88.6458 48.422 90.1084 51.0382 89.5728C53.6544 89.0372 55.6938 86.5652 55.7556 83.9078C55.8174 80.4264 52.1918 77.048 48.6898 77.6866C47.5568 77.8926 46.5474 78.4488 45.7646 79.2728Z" fill="white"/>
<path d="M46.1769 79.6433C44.5907 81.2707 44.0551 83.8869 44.9821 85.9469C45.9709 88.1511 48.5871 89.4901 50.9561 88.9957C53.3251 88.5013 55.1997 86.2559 55.2409 83.8457C55.3027 80.6939 52.0067 77.5833 48.8137 78.1807C47.8043 78.3867 46.8979 78.9017 46.1769 79.6433Z" fill="#004C48"/>
<path d="M49.9873 89.264C47.8655 89.264 45.7231 87.9662 44.8579 86.0092C43.9103 83.908 44.4047 81.2506 46.0733 79.5202C46.8149 78.758 47.7625 78.2224 48.7925 78.0164C50.2757 77.7486 51.8825 78.2224 53.2215 79.3554C54.6223 80.5502 55.4463 82.2188 55.4051 83.8462C55.3639 86.3182 53.4275 88.6666 50.9967 89.161C50.6671 89.2228 50.3169 89.264 49.9873 89.264ZM49.6165 78.2636C49.3487 78.2636 49.1015 78.2842 48.8337 78.3254C47.8655 78.5314 46.9591 79.0052 46.2793 79.7262C44.6931 81.3536 44.2193 83.8874 45.1257 85.865C46.0939 88.0074 48.6277 89.3052 50.9349 88.8314C53.2421 88.3576 55.0549 86.1534 55.0961 83.8256C55.1167 82.3012 54.3545 80.715 53.0155 79.582C52.0679 78.7786 50.8731 78.3048 49.6165 78.2636Z" fill="white"/>
<path d="M49.4522 86.6685C48.5664 86.5037 47.8454 85.9063 47.6394 85.1647C47.5776 84.9381 47.7218 84.6909 47.9484 84.6291C48.175 84.5673 48.4222 84.7115 48.484 84.9381C48.6282 85.4325 49.1638 85.7415 49.6376 85.8239C49.9878 85.9063 50.3586 85.8445 50.6676 85.6591C50.9148 85.4943 51.059 85.2265 51.0178 84.9175C50.9354 84.5261 50.4204 84.2789 50.132 84.1759C50.0084 84.1347 49.9054 84.0935 49.7818 84.0523C49.308 83.9287 48.8754 83.7227 48.5046 83.4343C47.6806 82.6927 47.6188 81.4567 48.3398 80.6327C49.0608 79.8087 50.3174 79.7469 51.1414 80.4679C51.2238 80.5297 51.2856 80.6121 51.3474 80.6945C51.4916 80.8799 51.471 81.1477 51.2856 81.3125C51.1002 81.4567 50.8324 81.4361 50.6676 81.2507C50.2556 80.7769 49.5552 80.7357 49.102 81.1477C48.6488 81.5597 48.587 82.2601 48.999 82.7133C49.0196 82.7339 49.0402 82.7751 49.0814 82.7957C49.3698 83.0017 49.72 83.1665 50.0702 83.2489C50.1938 83.2901 50.3174 83.3313 50.441 83.3725C51.265 83.6609 51.7594 84.1347 51.883 84.7527C51.986 85.3913 51.6976 86.0505 51.1414 86.4007C50.647 86.7097 50.0496 86.7921 49.4934 86.6891L49.4522 86.6685Z" fill="white"/>
<path d="M50.1531 87.945C49.9677 87.9038 49.8235 87.7596 49.8029 87.5742C49.4733 84.8962 49.3291 82.1976 49.3909 79.499C49.3909 79.2518 49.5969 79.0664 49.8441 79.0664C50.0913 79.0664 50.2767 79.2724 50.2767 79.5196C50.2149 82.177 50.3591 84.8344 50.6681 87.4506C50.6887 87.6978 50.5239 87.9038 50.2973 87.945C50.2355 87.945 50.1943 87.945 50.1531 87.945Z" fill="white"/>
<path d="M41.1505 47.0544C39.6673 48.1874 38.9257 50.2474 39.4201 52.0396C40.0175 53.9966 41.8509 55.2944 43.9109 55.2326C45.9503 55.0678 47.6189 53.564 48.0103 51.5658C48.4429 49.0114 46.1357 46.1068 43.4783 46.1892C42.6337 46.2304 41.8303 46.5394 41.1505 47.0544Z" fill="white"/>
<path d="M41.4188 47.3638C40.0798 48.3938 39.3794 50.2684 39.8532 51.8958C40.4094 53.6674 42.078 54.8622 43.932 54.8004C45.786 54.6562 47.3104 53.2966 47.6606 51.4632C48.052 49.1354 45.9508 46.4986 43.52 46.581C42.7578 46.6222 42.0162 46.89 41.4188 47.3638Z" fill="#004C48"/>
<path d="M43.7264 54.9653C41.8724 54.9241 40.245 53.7087 39.6888 51.9371C39.215 50.2685 39.8948 48.3321 41.3162 47.2403C41.9548 46.7459 42.717 46.4575 43.5204 46.4163C44.6534 46.3751 45.807 46.9107 46.6722 47.8995C47.5786 48.9295 48.0112 50.2891 47.8052 51.4839C47.4344 53.3791 45.8482 54.8005 43.9324 54.9653C43.8706 54.9653 43.8088 54.9653 43.7264 54.9653ZM41.5222 47.4875C40.1832 48.5175 39.5652 50.3097 39.9978 51.8547C40.5334 53.5645 42.1196 54.6975 43.9118 54.6563C45.704 54.5121 47.1666 53.1937 47.5168 51.4427C47.7022 50.3303 47.3108 49.0943 46.4456 48.1055C45.6422 47.1991 44.5916 46.6841 43.541 46.7253C42.7994 46.7665 42.099 47.0343 41.5222 47.4875Z" fill="white"/>
<path d="M43.0669 52.9051C42.4489 52.7197 41.9957 52.2253 41.8927 51.5867C41.8515 51.4013 41.9751 51.2365 42.1605 51.1953C42.3459 51.1541 42.5107 51.2777 42.5519 51.4631C42.5519 51.4837 42.5519 51.5043 42.5519 51.5043C42.5931 51.8751 42.9639 52.1635 43.2935 52.2871C43.5407 52.3901 43.8291 52.3901 44.0763 52.2871C44.2823 52.2047 44.4059 51.9987 44.4265 51.7927C44.4059 51.5043 44.0557 51.2571 43.8497 51.1541C43.7673 51.1129 43.6849 51.0717 43.6025 51.0305C43.2729 50.8863 42.9639 50.6803 42.7167 50.4331C42.2017 49.7945 42.3047 48.8675 42.9433 48.3525C43.5819 47.8375 44.5089 47.9405 45.0239 48.5791C45.0651 48.6203 45.1063 48.6821 45.1269 48.7233C45.2093 48.8881 45.1475 49.0735 44.9827 49.1559C44.8385 49.2177 44.6737 49.1765 44.5707 49.0529C44.4471 48.8469 44.2411 48.7233 44.0145 48.6821C43.5613 48.5997 43.1287 48.8881 43.0463 49.3207C43.0051 49.5679 43.0669 49.8151 43.2111 50.0005C43.3965 50.1859 43.6437 50.3507 43.8909 50.4537C43.9733 50.4949 44.0763 50.5361 44.1587 50.5979C44.7355 50.9069 45.0445 51.3189 45.0857 51.7721C45.1063 52.2665 44.8179 52.7197 44.3647 52.9051C43.9321 53.0493 43.4995 53.0699 43.0669 52.9051Z" fill="white"/>
<path d="M43.4571 53.9349C43.3335 53.8937 43.2305 53.7701 43.2305 53.6259C43.2717 51.6071 43.4777 49.6089 43.8073 47.6107C43.8485 47.4253 44.0133 47.3223 44.1987 47.3635C44.3635 47.4047 44.4665 47.5489 44.4459 47.7137C44.1163 49.6707 43.9103 51.6483 43.8691 53.6259C43.8691 53.8113 43.7043 53.9555 43.5395 53.9349C43.4983 53.9349 43.4777 53.9349 43.4571 53.9349Z" fill="white"/>
<defs>
<linearGradient id="paint0_linear_2121_10088" x1="76.8801" y1="0" x2="76.8801" y2="153.643" gradientUnits="userSpaceOnUse">
<stop stop-color="#98CA66"/>
<stop offset="1" stop-color="#009688"/>
</linearGradient>
</defs>
</svg>
