<svg width="1370" height="812" viewBox="0 0 1370 812" fill="none" xmlns="http://www.w3.org/2000/svg">
<path d="M846.474 81.5651C806.229 107.615 792.438 165.313 815.674 210.432L910.617 394.791C950.929 473.07 927.393 573.15 857.898 618.967C787.606 665.313 697.096 638.56 656.323 559.387L592.136 434.749C568.071 388.02 514.775 372.014 473.098 398.99C431.417 425.969 417.139 485.719 441.202 532.443L511.116 668.203C550.263 744.219 520.883 835.767 455.853 877.858C387.603 922.035 300.342 895.813 260.943 819.307L195.209 691.666C177.159 656.616 135.229 644.414 98.6523 668.088C63.0934 691.104 50.9106 742.077 71.4404 781.942L160.048 954H89.0833L18.2169 816.392C-19.284 743.572 2.97042 650.461 67.9237 608.419C129.728 568.416 211.102 584.727 248.433 657.216L314.166 784.858C336.596 828.412 386.271 843.338 425.125 818.189C464.924 792.429 477.76 741.232 457.893 702.653L387.978 566.893C346.946 487.217 371.291 385.327 442.369 339.321C513.439 293.32 604.323 320.613 645.36 400.299L709.547 524.937C733.252 570.969 785.874 586.523 826.745 559.576C867.146 532.94 880.831 474.754 857.393 429.241L762.451 244.882C722.244 166.808 746.105 66.9722 815.746 21.8963C885.386 -23.1797 974.438 3.57141 1014.64 81.6451L1136.1 317.493C1149.67 343.846 1179.73 352.875 1203.24 337.66L1450 177.938V257.497L1233.97 397.329C1181.06 431.57 1113.42 411.25 1082.88 351.943L961.421 116.095C938.185 70.9754 886.72 55.5154 846.474 81.5651Z" fill="#292929"/>
<path d="M122.25 954C68.9943 869.67 42.7643 818.509 27.2681 750.481C11.7718 682.453 80.758 629.044 80.758 629.044C80.758 629.044 151.745 589.689 200.235 638.601C248.726 687.514 262.223 782.527 309.215 832.563C356.207 882.599 413.194 865.172 442.19 845.494C471.185 825.816 493.68 784.111 493.68 735.863C493.68 648 429.5 600.5 402.197 515.478C374.894 430.455 405.138 388.404 457.187 356.935C504.971 328.044 550.17 341.755 594.661 379.423C639.152 417.092 665.147 536.842 704.14 573.385C743.134 609.928 816.618 603.186 850.113 573.385C883.607 543.585 898.105 516.036 896.604 461.506C895.103 406.975 797.753 259.285 778.626 198.392C759.5 137.5 778.337 82.3312 829.5 46.5C879.883 11.2156 932.098 28.0396 968.091 64.0247C1004.08 100.01 1094.12 299.89 1113.56 336.695C1133 373.5 1144 387.051 1162.5 392C1181 396.95 1210.46 377.886 1226 365.5C1241.54 353.115 1447 214.5 1447 214.5" stroke="#3A3A3A" stroke-width="2" stroke-dasharray="20 19"/>
</svg>
