<svg width="155" height="155" viewBox="0 0 155 155" fill="none" xmlns="http://www.w3.org/2000/svg">
<circle cx="77.4543" cy="77.7004" r="76.8215" fill="url(#paint0_linear_2121_10147)"/>
<circle cx="77.4535" cy="77.7006" r="64.8715" fill="#004C48"/>
<path d="M94.3287 112.256C93.2777 110.791 91.8549 109.719 90.0661 109.318C88.5063 108.968 86.9025 109.028 85.3169 109.04L65.2687 109.194C63.5517 109.207 61.9054 110.688 61.9852 112.462C62.0644 114.222 63.4282 115.745 65.2687 115.731C71.1415 115.686 77.0142 115.641 82.8869 115.596C84.2714 115.585 85.6567 115.56 87.0414 115.565C87.3523 115.566 87.6619 115.582 87.9726 115.586C88.0478 115.587 88.1021 115.586 88.1405 115.584C88.1501 115.587 88.1582 115.59 88.1708 115.593C88.3328 115.638 88.499 115.668 88.662 115.71C88.6049 115.712 88.7678 115.813 88.8495 115.847C88.8608 115.869 88.8847 115.908 88.9247 115.969C88.9805 116.073 89.1457 116.389 89.1525 116.379C89.4008 117.004 89.6056 117.646 89.7655 118.298C90.1471 119.738 90.2309 120.039 90.2859 121.39C90.3553 123.096 91.7464 124.74 93.5693 124.658C95.2888 124.582 96.9273 123.22 96.8528 121.39C96.7274 118.306 96.1837 114.842 94.3287 112.256Z" fill="white"/>
<path d="M66.4481 119.632C66.0715 117.36 65.7021 115.087 65.3183 112.817C64.9287 110.513 64.1332 108.404 62.3328 106.893C61.8517 106.489 61.3529 106.112 60.8519 105.736C60.6758 105.604 60.4999 105.471 60.3259 105.336C60.3155 105.328 60.3088 105.323 60.2998 105.316C60.2807 105.3 60.2577 105.28 60.2269 105.254C59.4764 104.622 58.7513 103.962 58.0607 103.26C57.4473 102.636 56.8607 101.986 56.301 101.31C56.1611 101.141 56.023 100.97 55.8867 100.798C55.8633 100.769 55.737 100.606 55.6538 100.5C55.5765 100.394 55.4351 100.203 55.4114 100.169C55.2521 99.945 55.0957 99.7188 54.9422 99.4905C53.8964 97.9306 52.9908 96.282 52.236 94.5638C52.1611 94.3934 52.0881 94.222 52.0167 94.0496C51.9976 93.9969 51.9729 93.9294 51.94 93.8394C51.7879 93.423 51.6361 93.007 51.497 92.5857C51.2015 91.6907 50.9474 90.7826 50.7348 89.8612C50.6297 89.4062 50.5351 88.9489 50.451 88.4894C50.4076 88.253 50.367 88.0162 50.3292 87.7789C50.323 87.7395 50.2861 87.4834 50.2644 87.3387C50.2483 87.1934 50.2185 86.936 50.2145 86.8962C50.1904 86.657 50.1691 86.4175 50.1504 86.1778C50.1085 85.6385 50.0801 85.0982 50.0653 84.5571C50.04 83.5953 50.0573 82.6336 50.1172 81.672C50.1513 81.1318 50.1998 80.5929 50.2595 80.055C50.2631 80.0219 50.2659 79.9957 50.2685 79.972C50.2721 79.948 50.2763 79.9207 50.2813 79.8867C50.3255 79.5895 50.372 79.2926 50.424 78.9967C50.621 77.8732 50.8771 76.7607 51.1914 75.664C51.3402 75.1452 51.5018 74.6307 51.6763 74.1204C51.754 73.8939 51.8343 73.6682 51.917 73.4434C51.9115 73.4579 52.1595 72.8273 52.1629 72.8061C53.1469 70.4917 54.7563 68.3817 54.7585 65.7526C54.76 63.9725 53.2473 62.2673 51.4751 62.3495C50.5915 62.3826 49.7553 62.7559 49.1428 63.3908C48.5303 64.0256 48.1892 64.8723 48.1916 65.7526C48.1916 65.7925 48.1914 65.8266 48.1913 65.8597C48.1747 65.9152 48.1609 65.9614 48.1485 66.0023C47.9566 66.4174 47.7215 66.8119 47.5109 67.2167C46.9341 68.3247 46.4418 69.469 45.9741 70.6301C45.2086 72.521 44.6225 74.4791 44.2238 76.4788C43.357 80.8601 43.2898 85.3611 44.0252 89.7662C45.2983 97.4911 49.4966 104.886 55.3333 109.856C55.8398 110.288 56.3587 110.705 56.8825 111.113C57.0992 111.282 57.3177 111.448 57.5374 111.613C57.6412 111.691 58.0713 112.028 57.8821 111.865C58.2889 112.21 58.4602 112.384 58.5647 112.639C58.5798 112.698 58.6005 112.777 58.6284 112.886C58.7021 113.173 58.772 113.46 58.8301 113.751C59.3382 116.295 59.6913 118.881 60.1157 121.441C60.4073 123.2 62.5828 124.345 64.1548 123.818C65.9845 123.204 66.7606 121.517 66.4481 119.632Z" fill="white"/>
<path d="M94.6621 126.23C93.2831 126.234 91.9591 125.693 90.9803 124.726C90.0016 123.759 89.4481 122.445 89.4414 121.072V117.343C85.5199 117.78 72.0916 117.679 68.2424 117.063V120.923C68.2321 122.294 67.6775 123.606 66.6995 124.573C65.7215 125.539 64.3995 126.081 63.0216 126.081C61.6437 126.081 60.3217 125.539 59.3437 124.573C58.3657 123.606 57.8112 122.294 57.8008 120.923V113.345C52.5874 110.462 48.2413 106.246 45.211 101.132C42.1807 96.0188 40.576 90.1929 40.5625 84.2558C40.5625 74.0758 45.1969 64.5793 53.2776 58.2013C58.5315 54.0404 64.915 51.538 71.6081 51.0156C72.5166 50.9447 73.4307 50.9088 74.325 50.9088C77.4756 50.9088 91.6903 51.3933 95.2568 52.4147L103.389 44.3815C103.509 44.2618 103.661 44.1802 103.828 44.1472C103.994 44.1143 104.166 44.1313 104.323 44.1962C104.481 44.2587 104.616 44.3672 104.71 44.5074C104.805 44.6477 104.855 44.8131 104.853 44.9821V46.2594L106.437 44.6981C106.556 44.5783 106.709 44.4966 106.875 44.4636C107.041 44.4305 107.213 44.4476 107.37 44.5126C107.528 44.575 107.663 44.6835 107.758 44.8238C107.852 44.9641 107.902 45.1297 107.901 45.2987V59.5718C111.981 63.234 115.092 67.8419 116.956 72.9869C118.82 78.1319 119.38 83.6553 118.587 89.0674C117.794 94.4796 115.672 99.6135 112.41 104.014C109.147 108.415 104.844 111.946 99.8828 114.296V121.072C99.8761 122.445 99.3227 123.759 98.3439 124.726C97.3652 125.693 96.0411 126.234 94.6621 126.23ZM89.8518 116.88V121.072C89.8622 122.335 90.3735 123.543 91.2745 124.433C92.1755 125.322 93.3931 125.822 94.6621 125.822C95.9311 125.822 97.1487 125.322 98.0497 124.433C98.9507 123.543 99.4621 122.335 99.4724 121.072V114.037L99.5896 113.982C105.157 111.352 109.883 107.238 113.243 102.096C117.525 95.5342 119.305 87.6634 118.263 79.9079C117.22 72.1524 113.423 65.0247 107.559 59.8149L107.49 59.754V45.2987C107.492 45.2109 107.466 45.1247 107.417 45.0518C107.368 44.9789 107.297 44.9228 107.215 44.891C107.133 44.8562 107.043 44.8468 106.956 44.8641C106.868 44.8813 106.788 44.9244 106.726 44.9877L104.443 47.2391V44.9821C104.444 44.8943 104.419 44.8081 104.369 44.7352C104.32 44.6623 104.25 44.6062 104.167 44.5744C104.086 44.5397 103.995 44.5304 103.908 44.5477C103.82 44.5651 103.74 44.6083 103.678 44.6718L95.3715 52.877L95.2534 52.8402C91.9379 51.8071 77.4995 51.3173 74.325 51.3173C73.4413 51.3173 72.5381 51.3529 71.6404 51.423C65.0285 51.939 58.7226 54.411 53.5326 58.5214C45.5507 64.8215 40.9729 74.2013 40.9729 84.2558C40.9865 90.1404 42.5827 95.9139 45.5954 100.977C48.6082 106.04 52.9278 110.207 58.1054 113.046L58.2113 113.104V120.923C58.2218 122.186 58.7333 123.394 59.6343 124.283C60.5352 125.173 61.7527 125.672 63.0216 125.672C64.2905 125.672 65.508 125.173 66.4089 124.283C67.3099 123.394 67.8214 122.186 67.832 120.923V116.574L68.0751 116.62C71.5342 117.268 86.0998 117.37 89.6199 116.91L89.8518 116.88Z" fill="white"/>
<path d="M80 21.0801C76.2669 21.0815 72.6808 22.529 70.0008 25.1161C67.3208 27.7032 65.7572 31.227 65.6409 34.9415C65.6368 35.0866 65.6348 35.2337 65.6348 35.3807C65.6348 38.2091 66.4773 40.974 68.0557 43.3258C69.6342 45.6775 71.8778 47.5104 74.5027 48.5928C77.1276 49.6752 80.016 49.9584 82.8026 49.4066C85.5892 48.8548 88.1488 47.4928 90.1578 45.4928C92.1668 43.4929 93.535 40.9447 94.0893 38.1707C94.6436 35.3966 94.3591 32.5212 93.2718 29.9081C92.1845 27.295 90.3433 25.0616 87.981 23.4902C85.6186 21.9188 82.8412 21.0801 80 21.0801ZM80 49.2728C76.3002 49.269 72.7529 47.8041 70.1367 45.1997C67.5205 42.5952 66.0491 39.064 66.0452 35.3807C66.0452 35.1907 66.0493 35.0028 66.0575 34.8169C66.1686 32.0956 67.0808 29.4669 68.6807 27.2576C70.2805 25.0484 72.4974 23.356 75.0557 22.3909C77.614 21.4258 80.4008 21.2306 83.0696 21.8296C85.7384 22.4287 88.1715 23.7954 90.0662 25.76C91.961 27.7245 93.2339 30.2002 93.7267 32.8792C94.2194 35.5581 93.9102 38.3222 92.8376 40.8276C91.765 43.3331 89.9762 45.4694 87.6938 46.9709C85.4113 48.4724 82.7358 49.2729 80 49.2728Z" fill="white"/>
<path d="M92.1083 35.3795C92.1083 38.5763 90.8327 41.6421 88.562 43.9026C86.2913 46.163 83.2117 47.433 80.0004 47.433C76.7892 47.433 73.7096 46.163 71.4389 43.9026C69.1682 41.6421 67.8926 38.5763 67.8926 35.3795C67.8926 34.9975 67.911 34.6216 67.9459 34.2498C68.2377 31.1646 69.7119 28.3098 72.0624 26.2781C74.4129 24.2465 77.4591 23.1941 80.5685 23.3395C83.6779 23.4848 86.6116 24.8168 88.7605 27.0589C90.9094 29.3009 92.1083 32.2807 92.1083 35.3795Z" fill="white"/>
<path d="M41.9765 74.0424C39.1132 73.6213 36.3748 72.5905 33.9479 71.0204C32.7456 70.2431 31.6325 69.3369 30.6287 68.3179C29.6379 67.3119 28.6901 66.1685 28.1994 64.8287C27.7272 63.5892 27.7515 62.2164 28.2673 60.9942C28.7761 59.7795 29.7479 58.8152 30.9698 58.3128C32.199 57.8248 33.6841 57.7726 34.8803 58.307C35.4504 58.5557 35.9437 58.951 36.3095 59.4522C36.4796 59.6833 36.6055 59.9436 36.681 60.22C36.7511 60.4705 36.7575 60.7344 36.6996 60.988C36.6294 61.2411 36.5057 61.4764 36.3368 61.6781C36.1678 61.8797 35.9575 62.0431 35.7199 62.1572C35.197 62.4242 34.6305 62.5962 34.0469 62.6651C33.46 62.7448 32.6168 62.8173 32.145 62.3482C32.0478 62.2554 31.9714 62.1433 31.9207 62.0192C31.8853 61.9241 31.8731 61.822 31.8854 61.7213C31.8785 61.7657 31.9138 61.6248 31.9118 61.6304C31.9044 61.6512 31.872 61.702 31.918 61.624C31.9323 61.5983 31.9483 61.5735 31.9658 61.5498C31.9502 61.5699 31.916 61.6034 31.9771 61.5459C32.0277 61.4909 32.0927 61.4509 32.1648 61.4306C32.1932 61.4224 32.222 61.4158 32.2505 61.4081C32.3229 61.3884 32.1783 61.4092 32.2524 61.4068C32.281 61.4059 32.3099 61.4066 32.3384 61.4053C32.411 61.4021 32.2667 61.3856 32.3363 61.403C32.3633 61.4098 32.3901 61.4164 32.4168 61.4247C32.4746 61.4429 32.3758 61.3825 32.415 61.4277C32.461 61.4807 32.3667 61.3761 32.419 61.4275C32.445 61.4529 32.4695 61.4798 32.4924 61.508C32.583 61.5971 32.7052 61.647 32.8325 61.647C32.9599 61.647 33.0821 61.5971 33.1727 61.508C33.2602 61.4168 33.309 61.2955 33.309 61.1694C33.309 61.0433 33.2602 60.922 33.1727 60.8308C32.6983 60.2454 31.7614 60.39 31.2815 60.8848C30.6696 61.5157 30.9119 62.5157 31.5072 63.0662C32.1811 63.6895 33.1355 63.7328 34.0023 63.6283C34.7349 63.5584 35.4488 63.3576 36.1097 63.0354C36.7664 62.7142 37.2801 62.1618 37.5512 61.4852C37.6736 61.1241 37.7175 60.7413 37.6801 60.362C37.6428 59.9827 37.5249 59.6157 37.3344 59.2852C36.569 57.8528 34.9843 57.1185 33.4179 56.9913C32.6115 56.9284 31.8005 57.0253 31.0319 57.2765C30.2633 57.5277 29.5524 57.9281 28.9403 58.4546C27.7605 59.5119 27.034 60.9802 26.9111 62.5558C26.7743 64.1894 27.411 65.7758 28.3392 67.0941C29.311 68.4335 30.4706 69.6274 31.7827 70.6393C34.3478 72.678 37.3566 74.0906 40.5685 74.7641C40.9505 74.8427 41.3346 74.91 41.7207 74.9659C41.8436 74.9955 41.9732 74.9775 42.0831 74.9153C42.193 74.8532 42.275 74.7517 42.3124 74.6314C42.3454 74.509 42.3287 74.3786 42.2658 74.2683C42.2029 74.1581 42.099 74.0769 41.9765 74.0424Z" fill="white"/>
<path d="M87.8185 53.2306C83.6235 53.1717 79.4416 53.2777 75.2729 53.5486C73.8481 53.6412 72.6152 54.1426 72.6152 54.9852C72.6152 55.6897 73.8383 56.5151 75.2729 56.4218C79.4395 56.151 83.6213 56.045 87.8185 56.1039C91.2403 56.1519 91.2383 53.2787 87.8185 53.2306Z" fill="white"/>
<path d="M81.621 55.9606C81.1677 55.9606 70.5176 55.9438 70.5176 54.4793C70.5176 53.0149 81.1677 52.998 81.621 52.998C82.0744 52.998 92.7245 53.0149 92.7245 54.4793C92.7245 55.9438 82.0744 55.9606 81.621 55.9606ZM70.934 54.4793C71.2255 54.9233 75.1402 55.552 81.621 55.552C88.1019 55.552 92.0166 54.9233 92.3081 54.4793C92.0166 54.0354 88.1019 53.4066 81.621 53.4066C75.1402 53.4066 71.2255 54.0354 70.934 54.4793Z" fill="white"/>
<path d="M115.411 94.46C117.768 94.3949 120.703 94.3134 122.963 92.6696C123.636 92.16 124.189 91.5101 124.583 90.7654C124.978 90.0206 125.203 89.1991 125.245 88.3583C125.291 87.0601 124.82 85.9269 123.918 85.1684C122.738 84.1752 121.014 83.9423 119.156 84.4858L121.081 70.4818L119.668 70.2891L117.405 86.7526L118.585 86.2135C119.953 85.5889 121.831 85.271 122.998 86.2527C123.284 86.5094 123.508 86.8284 123.65 87.1849C123.793 87.5414 123.851 87.9259 123.82 88.3083C123.785 88.9341 123.616 89.5451 123.323 90.0998C123.03 90.6545 122.62 91.1399 122.122 91.5229C120.363 92.802 118.024 92.967 115.371 93.0408L115.411 94.46Z" fill="white"/>
<path d="M111.504 71.6904H103.822V73.1103H111.504V71.6904Z" fill="white"/>
<defs>
<linearGradient id="paint0_linear_2121_10147" x1="77.4543" y1="0.878906" x2="77.4543" y2="154.522" gradientUnits="userSpaceOnUse">
<stop stop-color="#98CA66"/>
<stop offset="1" stop-color="#009688"/>
</linearGradient>
</defs>
</svg>
