<svg width="154" height="155" viewBox="0 0 154 155" fill="none" xmlns="http://www.w3.org/2000/svg">
<circle cx="76.8215" cy="77.4856" r="76.8215" fill="url(#paint0_linear_2121_10049)"/>
<circle cx="76.8207" cy="77.4858" r="64.8715" fill="#004C48"/>
<path d="M31.8039 86.7998C31.6587 96.9396 36.6681 106.499 43.0085 114.388C46.1545 118.308 49.7361 121.987 54.1889 124.31C56.2217 125.375 58.4239 126.076 60.6745 126.415C63.0945 126.754 65.2483 126.101 67.6199 126.076C69.4349 126.052 70.8627 127.238 72.5567 127.746C74.8557 128.424 77.3483 128.206 79.6231 127.577C83.0837 126.609 86.3265 124.818 89.8597 124.237C94.3125 123.511 98.9105 124.721 103.315 123.802C108.929 122.616 113.334 118.09 116.068 113.033C118.803 107.975 120.158 102.336 122.021 96.8912C123.667 92.1238 125.7 87.3564 125.821 82.3228C125.942 76.4422 123.328 70.8036 119.916 66.012C116.504 61.2204 112.245 57.1064 108.445 52.6052C103.218 46.4342 98.3297 39.15 90.6583 36.5364C85.2375 34.673 79.3085 35.52 73.6457 36.3428C67.5473 37.2624 61.2553 38.2304 56.0039 41.4974C49.7361 45.4178 45.7915 52.1212 42.1373 58.5342C37.1279 67.3672 31.9491 76.66 31.8039 86.7998ZM95.1595 116.227C97.1923 115.041 99.6123 114.775 101.839 114.146C104.96 113.226 107.768 111.508 110.018 109.161C110.357 108.749 110.768 108.41 111.228 108.144C111.712 107.926 112.341 107.951 112.68 108.362C113.019 108.773 112.922 109.354 112.777 109.862C111.785 113.541 109.462 116.735 106.243 118.792C103.992 120.196 101.403 121.019 98.7653 121.164C97.3859 121.261 94.4093 121.962 93.2235 121.043C91.3359 119.567 93.8043 117.026 95.1595 116.227Z" fill="#004C48"/>
<path d="M92.546 129.586C93.3446 129.465 94.2642 129.102 94.3852 128.303C94.5062 127.553 93.7802 126.948 93.1026 126.634C91.5296 125.932 89.7146 125.956 88.0448 126.392C86.375 126.827 84.8262 127.65 83.3258 128.473C82.9386 128.666 82.5272 128.957 82.503 129.392C82.4788 129.78 82.866 130.094 83.229 130.167C83.6162 130.215 84.0034 130.167 84.3906 130.022C85.7942 129.61 86.7622 129.271 88.19 129.489C89.6178 129.707 91.094 129.901 92.546 129.586Z" fill="#004C48"/>
<path d="M43.9031 51.2259C44.5081 49.7739 42.6447 48.5397 41.5799 49.7013C41.0717 50.2821 40.6119 50.8629 40.1763 51.5163C36.5463 56.7677 33.0373 62.1401 30.4963 67.9965C27.9553 73.8529 26.3823 80.2175 26.7937 86.5821C26.8421 87.3323 27.0115 88.2277 27.7617 88.4455C28.2457 88.5665 28.7539 88.4213 29.0685 88.0341C29.6009 87.4533 29.6735 86.6789 29.7703 85.9045C30.3995 80.2417 31.9725 74.7725 34.1989 69.5453C35.1427 67.3189 35.8203 65.6007 37.1997 63.5679C38.7243 61.3173 40.1279 58.9699 41.3863 56.5499C42.3059 54.8075 43.1287 53.0167 43.9031 51.2259Z" fill="#004C48"/>
<path d="M30.7628 92.6807C30.6902 92.0999 30.6176 91.4949 30.2788 91.0109C29.94 90.5269 29.214 90.2607 28.73 90.5995C28.367 90.8415 28.246 91.3255 28.1734 91.7611C27.762 94.1327 27.9072 96.5527 28.609 98.8517C29.093 100.497 31.4162 101.756 31.7066 99.4083C31.8034 98.6097 31.3678 97.5207 31.271 96.7221C31.0774 95.3911 30.9322 94.0359 30.7628 92.6807Z" fill="#004C48"/>
<path d="M83.5417 52.3392C84.2193 52.194 84.9695 52.0972 85.5503 52.4602C86.0827 52.799 86.3247 53.4282 86.5425 54.009C90.8743 66.1816 94.0203 78.7414 95.9563 91.519C96.3193 93.8422 96.5371 96.48 95.0851 98.3434C93.9719 99.747 92.1327 100.328 90.4145 100.884C76.0397 105.386 62.2699 111.629 49.4197 119.446C45.6687 112.767 44.7975 104.902 43.9989 97.2786C43.4181 91.7126 42.8615 86.1466 42.2323 80.6048C41.8935 77.483 40.7561 74.216 43.1035 71.6266C46.1285 68.287 50.7507 65.7218 54.5985 63.4712C58.8093 60.9786 63.2379 58.8248 67.7875 57.0098C72.8937 54.9528 78.1693 53.404 83.5417 52.3392Z" fill="white"/>
<path d="M50.4113 79.3459C47.9913 79.3459 46.4909 78.7167 45.8617 77.4341C45.2809 76.2483 45.6923 74.9173 46.2973 74.0461C46.9265 73.1023 47.8461 72.4247 48.8867 71.6987C52.1537 69.3755 55.5659 67.2459 59.0749 65.3099C65.5847 61.6799 71.9735 58.2919 78.4591 56.7189C84.2429 55.3153 86.0337 60.6151 87.6067 65.2857C87.8971 66.1811 88.1875 67.0281 88.5021 67.8025C88.9377 68.8915 89.3491 70.1257 88.8167 71.1905C88.3327 72.1585 87.2195 72.5941 86.2273 72.9329C74.8291 76.7565 62.9469 78.9103 50.9437 79.3217C50.7501 79.3217 50.5807 79.3459 50.4113 79.3459ZM80.2257 56.7431C79.6449 56.7431 79.0883 56.8157 78.5317 56.9609C72.0703 58.5339 65.7057 61.8977 59.1959 65.5277C55.6869 67.4637 52.2989 69.5691 49.0319 71.8923C48.0155 72.5941 47.1443 73.2475 46.5151 74.1671C45.9827 74.9899 45.5713 76.2241 46.1037 77.3131C46.7329 78.5957 48.3059 79.1523 50.9679 79.0797C62.9469 78.6683 74.8049 76.5145 86.1789 72.6909C87.1227 72.3763 88.1875 71.9649 88.6231 71.0695C89.1071 70.1015 88.7199 68.9641 88.3085 67.8751C87.9939 67.1007 87.7035 66.2537 87.4131 65.3583C86.0095 61.2927 84.4607 56.7431 80.2257 56.7431Z" fill="white"/>
<path d="M62.923 35.8343C57.8894 39.7547 55.3726 46.7969 57.1392 52.9195C59.0268 59.4293 65.7786 64.1725 72.5546 63.7611C79.3306 63.3497 85.429 57.7837 86.4938 51.1045C87.8974 42.3441 79.9356 32.4705 70.8122 32.8577C67.9566 33.0029 65.1978 34.0435 62.923 35.8343Z" fill="#004C48"/>
<path d="M71.7325 63.9549C65.1985 63.9549 58.8097 59.2601 56.9705 52.9681C55.1797 46.8697 57.5997 39.7549 62.8027 35.6893C65.1017 33.8743 67.8847 32.8095 70.8129 32.6401C74.9753 32.4465 79.1861 34.4067 82.3805 37.9883C85.7685 41.7877 87.3657 46.7003 86.6639 51.1047C85.5749 57.8565 79.3797 63.4951 72.5553 63.9307C72.2891 63.9307 71.9987 63.9549 71.7325 63.9549ZM62.9237 35.8345L63.0447 35.9797C57.9385 39.9485 55.5911 46.8939 57.3335 52.8713C59.1243 59.0181 65.3437 63.5919 71.7325 63.5919C71.9987 63.5919 72.2891 63.5919 72.5553 63.5677C79.2345 63.1563 85.2845 57.6629 86.3251 51.0563C87.0027 46.7487 85.4539 41.9571 82.1143 38.2303C78.9925 34.7455 74.8785 32.8337 70.8371 33.0031C68.0057 33.1725 65.2711 34.2131 63.0447 35.9555L62.9237 35.8345Z" fill="white"/>
<path d="M63.8188 36.8993C59.245 40.4809 56.946 46.8697 58.5674 52.4357C60.2856 58.3647 66.4324 62.6723 72.6034 62.2851C78.7744 61.8979 84.3162 56.8643 85.2842 50.7417C86.5668 42.7557 79.331 33.7775 71.0304 34.1405C68.3926 34.3099 65.9 35.2779 63.8188 36.8993Z" fill="#004C48"/>
<path d="M71.8287 62.5029C65.8755 62.5029 60.0675 58.2437 58.3977 52.4841C56.7763 46.9181 58.9785 40.4567 63.7217 36.7541C65.8029 35.1085 68.3681 34.1405 71.0301 33.9711C74.8053 33.8017 78.6773 35.5683 81.5813 38.8353C84.6789 42.2959 86.1309 46.7729 85.4775 50.7901C84.5095 56.9611 78.8467 62.0915 72.6273 62.4787C72.3611 62.5029 72.0949 62.5029 71.8287 62.5029ZM71.5141 34.3341C71.3447 34.3341 71.1995 34.3341 71.0301 34.3341C68.4407 34.4793 65.9723 35.4231 63.9395 37.0203C59.2931 40.6261 57.1635 46.9423 58.7365 52.3631C60.3579 57.9533 66.0207 62.1157 71.8287 62.1157C72.0707 62.1157 72.3369 62.1157 72.5789 62.0915C78.6289 61.7043 84.1465 56.7191 85.0903 50.7175C85.7195 46.7971 84.2917 42.4411 81.2667 39.0773C78.5805 36.0523 75.0473 34.3341 71.5141 34.3341Z" fill="white"/>
<path d="M67 58.1906C68.4036 51.8018 69.9524 45.3404 71.5738 39L73.9212 39.605C72.2998 45.9212 70.751 52.3584 69.3716 58.723L67 58.1906Z" fill="white"/>
<path d="M47.4341 62.1636C45.7159 68.8428 48.2085 76.5626 53.7987 80.6282C59.7277 84.96 68.6575 84.5486 74.1751 79.7086C79.6927 74.8686 81.2415 66.0598 77.7325 59.6226C73.1345 51.201 59.7761 47.9824 52.2257 54.3712C49.8541 56.4282 48.1843 59.1386 47.4341 62.1636Z" fill="#004C48"/>
<path d="M63.3343 83.7985C59.8979 83.7985 56.4615 82.8063 53.6785 80.7735C48.1125 76.7321 45.4747 69.0607 47.2413 62.1153C48.0157 59.0419 49.6855 56.2831 52.0813 54.2261C55.5177 51.3221 60.4303 50.1847 65.5123 51.1285C70.9331 52.1449 75.5311 55.2667 77.8543 59.5259C81.4117 66.0357 79.8387 74.9413 74.2727 79.8297C71.2961 82.4675 67.3273 83.7985 63.3343 83.7985ZM62.0275 51.1769C58.3249 51.1769 54.9127 52.3385 52.3475 54.5165C50.0243 56.5493 48.3545 59.2355 47.6285 62.2363C45.8861 69.0123 48.4755 76.5385 53.9205 80.5073C59.7769 84.7665 68.6341 84.3793 74.0791 79.5877C79.5241 74.7961 81.0729 66.0841 77.5881 59.7195C75.3133 55.5813 70.8121 52.5079 65.4881 51.5157C64.3265 51.2979 63.1891 51.1769 62.0275 51.1769Z" fill="white"/>
<path d="M48.9115 62.5025C47.3385 68.6009 49.6133 75.5947 54.6953 79.2973C60.0919 83.2419 68.2231 82.8547 73.2325 78.4503C78.2419 74.0459 79.6697 66.0357 76.4753 60.1793C72.2887 52.5079 60.1403 49.6039 53.2675 55.3877C51.1137 57.2511 49.5891 59.7437 48.9115 62.5025Z" fill="#004C48"/>
<path d="M63.383 82.2015C60.237 82.2257 57.1636 81.2819 54.5984 79.4427C49.5406 75.7643 47.1206 68.7705 48.742 62.4543C49.4438 59.6471 50.9684 57.1545 53.1464 55.2427C56.2924 52.5807 60.7452 51.5643 65.3916 52.4355C70.3284 53.3551 74.5392 56.2107 76.6446 60.0827C79.8874 66.0117 78.4354 74.1429 73.3776 78.5957C70.643 80.9673 67.013 82.2015 63.383 82.2015ZM62.1972 52.5081C58.8334 52.5081 55.7358 53.5487 53.3884 55.5331C51.2588 57.3723 49.7584 59.8165 49.0808 62.5511C47.5078 68.7221 49.8552 75.5465 54.792 79.1523C60.116 83.0243 68.1504 82.6613 73.1114 78.3295C78.0724 73.9977 79.476 66.0601 76.3058 60.2763C74.2488 56.5011 70.1348 53.7181 65.319 52.8227C64.3026 52.6049 63.262 52.5081 62.1972 52.5081Z" fill="white"/>
<path d="M65.7846 76.5216C62.7596 70.1086 59.8072 63.5504 57 57.0406L59.42 56C62.203 62.4856 65.1554 69.0196 68.1562 75.3842L65.7846 76.5216Z" fill="white"/>
<path d="M81.3875 47.7408C75.9425 51.9758 73.2079 59.5988 75.1197 66.2296C77.1767 73.2718 84.4851 78.4022 91.8177 77.9424C99.1503 77.4826 105.757 71.481 106.919 64.221C108.419 54.7346 99.8279 44.0382 89.9543 44.4738C86.8325 44.6674 83.8317 45.8048 81.3875 47.7408Z" fill="#004C48"/>
<path d="M90.923 78.1601C83.8566 78.1601 76.9596 73.1023 74.9752 66.2779C73.0634 59.6713 75.6528 51.9757 81.2914 47.5955C83.784 45.6353 86.809 44.4737 89.955 44.3043C94.4562 44.1107 99.03 46.2161 102.466 50.0881C106.121 54.2021 107.863 59.5019 107.113 64.2693C105.951 71.5777 99.2478 77.6761 91.8426 78.1359C91.528 78.1601 91.2134 78.1601 90.923 78.1601ZM90.5358 44.6431C90.3422 44.6431 90.1486 44.6431 89.955 44.6431C86.8816 44.8125 83.9292 45.9499 81.5092 47.8617C75.9674 52.1693 73.4264 59.6955 75.314 66.1569C77.25 72.8361 84.0018 77.7729 90.923 77.7729C91.2134 77.7729 91.528 77.7729 91.8184 77.7487C99.0542 77.2889 105.612 71.3357 106.75 64.1725C107.5 59.5019 105.782 54.3231 102.2 50.2817C98.9574 46.7001 94.7224 44.6431 90.5358 44.6431Z" fill="white"/>
<path d="M82.3552 48.9021C77.3942 52.7741 74.9016 59.6953 76.6682 65.7453C78.5316 72.1583 85.1866 76.8289 91.8658 76.4175C98.545 76.0061 104.547 70.5369 105.611 63.9303C106.991 55.2909 99.15 45.5625 90.1718 45.9497C87.3162 46.0949 84.6058 47.1355 82.3552 48.9021Z" fill="#004C48"/>
<path d="M91.0437 76.6115C84.6065 76.6115 78.3145 71.9893 76.4995 65.7941C74.7571 59.7683 77.1045 52.7745 82.2591 48.7573C84.5097 46.9665 87.2685 45.9259 90.1483 45.7565C94.2623 45.5871 98.4005 47.4989 101.546 51.0321C104.886 54.7831 106.459 59.5989 105.781 63.9549C104.717 70.6099 98.6183 76.1759 91.8665 76.5873C91.6003 76.5873 91.3099 76.6115 91.0437 76.6115ZM90.6807 46.1195C90.5113 46.1195 90.3419 46.1195 90.1725 46.1437C87.3653 46.3131 84.6791 47.3295 82.4769 49.0719C77.4433 52.9923 75.1443 59.8409 76.8383 65.7215C78.6049 71.7715 84.7275 76.2969 91.0195 76.2969C91.2857 76.2969 91.5519 76.2969 91.8423 76.2727C98.4247 75.8613 104.378 70.4405 105.418 63.9307C106.096 59.6957 104.547 54.9767 101.28 51.2983C98.3521 47.9587 94.5043 46.0953 90.6807 46.1195Z" fill="white"/>
<path d="M87.3716 73.5216C90.3966 67.1086 93.349 60.5504 96.1562 54.0406L93.7362 53C90.9532 59.4856 88.0008 66.0196 85 72.3842L87.3716 73.5216Z" fill="white"/>
<path d="M44.6529 76.1274C45.9355 76.4904 47.2665 76.2726 48.5733 76.0548C66.2635 72.9814 83.5423 65.794 101.45 66.9314C103.241 67.0524 105.274 67.367 106.315 68.819C106.823 69.545 107.041 70.4162 107.234 71.2874C109.969 83.6294 112.728 95.9956 115.462 108.338C115.849 110.104 116.188 112.113 115.148 113.565C113.986 115.186 111.711 115.356 109.727 115.428C91.9881 115.961 74.3705 118.187 57.0675 122.083C54.3571 122.688 51.1143 123.221 49.0815 121.333C47.9925 120.341 47.5085 118.865 47.0729 117.437C43.3219 105.143 41.0955 92.414 40.4421 79.5638C40.3937 78.3296 40.0307 75.2078 41.0713 74.264C42.1361 73.3202 43.2735 75.7402 44.6529 76.1274Z" fill="#004C48"/>
<path d="M52.9773 122.834C51.4769 122.834 50.0491 122.495 48.9359 121.478C47.8227 120.462 47.3387 119.034 46.8789 117.51C43.1279 105.192 40.9015 92.4626 40.2481 79.6124C40.2481 79.4672 40.2239 79.2978 40.2239 79.1284C40.1271 77.6038 39.9577 75.0628 40.9499 74.1674C41.7243 73.4656 42.4987 74.1916 43.2247 74.8934C43.7087 75.3532 44.1927 75.813 44.7009 75.9582C45.9109 76.297 47.2177 76.1034 48.5487 75.8856C54.4293 74.8692 60.3583 73.3688 66.0937 71.9168C77.5887 69.0128 89.4951 66.012 101.474 66.7622C103.337 66.8832 105.37 67.1978 106.483 68.7224C107.04 69.4726 107.234 70.4406 107.427 71.2634L115.631 108.314C116.042 110.129 116.357 112.186 115.292 113.686C114.082 115.356 111.783 115.549 109.726 115.622C92.0119 116.154 74.3943 118.381 57.0913 122.277C55.7603 122.592 54.3567 122.809 52.9773 122.834ZM41.6033 74.24C41.4339 74.24 41.2887 74.3126 41.1677 74.4336C40.2965 75.208 40.4659 77.7248 40.5627 79.1042C40.5869 79.2978 40.5869 79.443 40.5869 79.5882C41.2403 92.4142 43.4667 105.119 47.1935 117.413C47.6533 118.889 48.1373 120.268 49.1537 121.212C51.1381 123.027 54.2357 122.519 56.9945 121.914C74.2975 118.018 91.9635 115.791 109.702 115.259C111.686 115.211 113.889 115.017 115.002 113.468C115.994 112.089 115.704 110.201 115.292 108.386L107.088 71.336C106.919 70.5374 106.701 69.6178 106.193 68.916C105.177 67.5124 103.216 67.222 101.45 67.101C89.5193 66.3508 77.6613 69.3516 66.1905 72.2556C60.4551 73.7076 54.5019 75.208 48.6213 76.2244C47.2419 76.4664 45.8867 76.66 44.6041 76.297C43.9991 76.1276 43.4667 75.6194 42.9585 75.1596C42.4019 74.6272 41.9663 74.24 41.6033 74.24Z" fill="white"/>
<path d="M54.4048 118.744C54.308 118.744 54.2112 118.695 54.187 118.598C54.1386 118.477 54.187 118.332 54.308 118.284C69.5056 112.016 85.9858 109.427 102.369 110.782L102.635 110.806C104.039 110.927 105.491 111.048 106.846 110.758C108.443 110.419 109.726 109.499 110.234 108.289C110.791 106.982 110.452 105.434 110.016 103.861L102.563 76.2725C102.2 74.9415 101.813 73.4411 100.772 72.4247C99.4652 71.1179 97.4082 70.8759 95.5932 70.8275C85.2598 70.4887 75.12 73.7073 65.319 76.8291C61.6406 78.0149 57.817 79.2249 54.0418 80.2413C50.4602 81.2093 46.3946 81.8869 43.4422 79.6605C43.3454 79.5879 43.3212 79.4185 43.3938 79.3217C43.4664 79.2249 43.6358 79.2007 43.7326 79.2733C46.5398 81.3787 50.4602 80.7011 53.9208 79.7815C57.6718 78.7651 61.4954 77.5551 65.1738 76.3935C75.0232 73.2475 85.1872 70.0047 95.6174 70.3677C97.5292 70.4403 99.683 70.6823 101.135 72.1101C102.248 73.2233 102.708 74.8689 103.047 76.1757L110.5 103.764C110.96 105.434 111.299 107.055 110.694 108.507C110.113 109.862 108.734 110.879 106.967 111.242C105.539 111.532 104.039 111.411 102.611 111.29L102.345 111.266C86.0342 109.911 69.6508 112.476 54.5258 118.719C54.4774 118.719 54.429 118.744 54.4048 118.744Z" fill="white"/>
<path d="M97.7957 90.7444C95.6661 91.2284 93.4397 92.2448 92.5443 94.2292C91.6973 96.141 92.2781 98.3432 92.8831 100.328C93.3671 101.925 93.9479 103.643 95.3273 104.587C96.8519 105.652 98.8847 105.434 100.724 105.168C104.91 104.563 109.097 103.861 113.259 103.062C114.808 102.772 116.502 102.36 117.446 101.102C118.583 99.5532 118.172 97.3994 117.688 95.536C116.817 92.2206 115.946 88.8326 114.106 85.9286C113.743 85.3478 113.332 84.767 112.727 84.4524C112.122 84.1378 111.299 84.1378 110.839 84.646C110.38 85.1542 110.573 86.1464 111.227 86.2916C109.75 85.977 105.612 88.0098 104.281 88.7358C102.176 89.9216 100.191 90.212 97.7957 90.7444Z" fill="white"/>
<path d="M99.3927 101.078C100.409 101.973 102.103 102.046 103.095 101.151C103.918 100.4 104.16 99.1662 104.136 98.053C104.087 95.9476 102.466 93.1888 100.143 94.6892C98.1585 95.9718 97.5293 99.4324 99.3927 101.078Z" fill="#004C48"/>
<path d="M101.33 101.973C100.579 101.973 99.8534 101.707 99.2726 101.223C98.4498 100.497 98.0142 99.3596 98.111 98.077C98.2078 96.6008 98.958 95.2456 100.071 94.5438C101.088 93.8904 101.91 94.0598 102.419 94.326C103.629 94.9552 104.306 96.6734 104.355 98.0528C104.379 99.045 104.209 100.424 103.266 101.296C102.709 101.731 102.031 101.973 101.33 101.973ZM99.5146 100.933C100.483 101.78 102.08 101.804 102.975 101.005C103.822 100.231 103.967 98.9724 103.943 98.0528C103.919 96.8186 103.29 95.1972 102.201 94.6406C101.596 94.326 100.918 94.3986 100.241 94.8342C99.2484 95.4634 98.5466 96.7702 98.4498 98.1012C98.4014 99.2628 98.7644 100.279 99.5146 100.933Z" fill="white"/>
<path d="M107.306 38.4727C107.5 37.9161 107.766 37.3837 108.153 36.8997C108.565 36.4399 109.194 36.1253 109.557 36.3189C110.065 36.6093 109.751 37.5531 109.412 38.3033C108.928 39.3681 106.58 45.3697 105.685 45.1277C104.669 44.8857 106.895 39.5133 107.306 38.4727Z" fill="white"/>
<path d="M118.22 45.8775C118.777 45.6113 119.285 45.2725 119.793 44.9095C120.277 44.5223 120.737 44.0141 120.882 43.5543C121.1 42.7799 120.325 42.5137 119.454 42.7799C118.583 43.0461 117.688 43.7237 116.841 44.3771C115.147 45.7081 113.114 47.2811 111.734 48.8783C112.509 49.5317 116.865 46.6277 118.22 45.8775Z" fill="white"/>
<path d="M125.795 55.316C126.521 54.5174 126.4 53.864 125.771 53.6946C125.142 53.5252 124.174 53.7672 123.254 53.985C121.899 54.3238 114.953 55.4854 116.744 56.9616C117.857 57.9054 123.351 56.163 125.795 55.316Z" fill="white"/>
<defs>
<linearGradient id="paint0_linear_2121_10049" x1="76.8215" y1="0.664062" x2="76.8215" y2="154.307" gradientUnits="userSpaceOnUse">
<stop stop-color="#9CCC65"/>
<stop offset="1" stop-color="#009688"/>
</linearGradient>
</defs>
</svg>
