<svg width="154" height="154" viewBox="0 0 154 154" fill="none" xmlns="http://www.w3.org/2000/svg">
<circle cx="76.8215" cy="76.8215" r="76.8215" fill="url(#paint0_linear_2203_7759)"/>
<path d="M141.692 76.8217C141.692 112.649 112.648 141.693 76.8207 141.693C40.9932 141.693 11.9492 112.649 11.9492 76.8217C11.9492 40.9942 40.9932 11.9502 76.8207 11.9502C112.648 11.9502 141.692 40.9942 141.692 76.8217Z" fill="#004C48"/>
<path d="M62.653 66.141C62.6807 66.1724 62.7111 66.2064 62.744 66.2429C62.9438 66.4642 63.238 66.7751 63.6117 67.1288C64.3616 67.8383 65.4202 68.7092 66.6695 69.3777C67.9196 70.0466 69.3347 70.4993 70.8097 70.4115C72.2131 70.328 73.7176 69.7528 75.2294 68.3204L72.7109 55.7993L72.6781 55.636L62.653 66.141ZM62.653 66.141C62.8404 65.7667 63.0101 65.3832 63.1617 64.9919C64.7432 61.0156 65.0421 56.619 64.0148 52.4538C63.0789 48.6148 63.5926 45.9625 64.3075 44.2884C64.6666 43.4476 65.0802 42.8445 65.3988 42.4557C65.5254 42.3013 65.637 42.1807 65.724 42.0925L71.7517 44.2493C74.0905 45.8006 74.4102 48.4906 74.0685 50.9632C73.8983 52.1944 73.568 53.328 73.2784 54.1568C73.1339 54.5702 73.0004 54.9053 72.9035 55.1359C72.8551 55.2511 72.8159 55.3401 72.7892 55.3995C72.7758 55.4292 72.7656 55.4515 72.7589 55.466L72.7515 55.4818L72.7499 55.4853L72.7497 55.4856L72.7496 55.4858L62.653 66.141Z" stroke="white"/>
<path d="M69.0937 77.8075H45.5806L45.3314 70.3344C45.3206 70.0104 45.3778 69.6879 45.4992 69.389C45.6205 69.0901 45.8031 68.822 46.0343 68.603C46.2655 68.384 46.5399 68.2194 46.8385 68.1206C47.1371 68.0217 47.4529 67.9909 47.7642 68.0303L61.4472 69.7623H61.4489C63.4774 69.7679 65.4211 70.6045 66.854 72.0888C68.287 73.5731 69.0923 75.584 69.0937 77.6809V77.8075Z" fill="white"/>
<path d="M99.1771 56.1166L99.178 56.1196C99.339 56.6447 99.3078 57.2129 99.0912 57.7151C98.8746 58.2171 98.4894 58.6152 98.0128 58.8382C97.5367 59.061 96.9994 59.0951 96.5014 58.9352C96.003 58.7751 95.5744 58.4301 95.3003 57.9608L95.1988 57.787L95.0053 57.732L72.9472 51.4616L73.7641 46.6721L95.7602 54.83L95.9712 54.9083L96.1696 54.8023C96.4456 54.6548 96.7486 54.5722 97.0574 54.5594C97.3661 54.5466 97.6743 54.6038 97.9604 54.7277C98.2465 54.8516 98.5043 55.0395 98.7149 55.2792C98.9255 55.519 99.0836 55.8047 99.1771 56.1166Z" stroke="white"/>
<path d="M77.3752 47.057L75.2447 52.8105C75.1841 52.9742 75.0901 53.1225 74.969 53.2453C74.848 53.368 74.7027 53.4623 74.5432 53.5218C74.3837 53.5813 74.2137 53.6046 74.0447 53.59C73.8757 53.5755 73.7118 53.5234 73.564 53.4375L68.3861 50.4249C67.5779 50.0994 66.9275 49.4559 66.5775 48.6355C66.2275 47.8151 66.2064 46.8847 66.5188 46.0482C66.8313 45.2118 67.4518 44.5374 68.2444 44.1731C69.0369 43.8088 69.9369 43.7841 70.7471 44.1046L76.529 45.4302C76.6946 45.4682 76.8502 45.5426 76.9854 45.6484C77.1206 45.7542 77.2322 45.8889 77.3125 46.0433C77.3928 46.1977 77.4399 46.3681 77.4508 46.5431C77.4616 46.718 77.4358 46.8933 77.3752 47.057Z" fill="white"/>
<path d="M101.43 61.3018L93.3457 65.1003L94.4071 69.2308C96.4567 77.2071 97.0006 85.517 96.0091 93.706L101.92 94.9821L106.819 82.0671L105.105 67.3794L101.43 61.3018Z" fill="white"/>
<path d="M117.292 80.4199C111.98 80.4199 107.651 84.4114 107.441 89.4098H127.142C126.932 84.4114 122.603 80.4199 117.292 80.4199Z" fill="#004C48"/>
<path d="M112.658 81.3102L112.658 81.289C112.52 70.0907 109.371 65.1537 106.405 62.9816C104.914 61.8896 103.435 61.4686 102.33 61.3194C101.778 61.2448 101.32 61.2385 101.004 61.2503C100.991 61.2507 100.978 61.2512 100.966 61.2518C100.972 61.4237 100.979 61.6362 100.988 61.8787C101.012 62.5401 101.044 63.4239 101.08 64.3144C101.116 65.2053 101.156 66.1008 101.193 66.7864C101.212 67.1297 101.23 67.4169 101.246 67.6234C101.254 67.7274 101.262 67.8057 101.269 67.8585C101.269 67.8621 101.269 67.8654 101.27 67.8685C109.301 83.6872 95.9701 102.269 78.9031 98.8419C78.5866 98.7784 78.2821 98.7138 77.9895 98.6483C75.7532 98.165 73.7832 96.8206 72.477 94.8938C71.1716 92.968 70.6256 90.6035 70.947 88.2797C71.7542 81.5721 70.1348 78.4224 68.4672 76.9301C67.6228 76.1744 66.7321 75.811 66.0526 75.6362C65.7129 75.5488 65.4277 75.509 65.2307 75.4911C65.1323 75.4822 65.0563 75.4787 65.0069 75.4774C64.9822 75.4767 64.9642 75.4766 64.9535 75.4767L64.9436 75.4767L64.9429 75.4767L64.9423 75.4768L64.9418 75.4768L64.9362 75.4769H64.9288H53.0067H52.8101L52.6662 75.343L46.4748 69.5829C46.3163 69.4354 46.1267 69.3316 45.923 69.279C45.7194 69.2263 45.5067 69.226 45.3031 69.2781C45.0993 69.3302 44.9094 69.4335 44.7505 69.5805C44.5916 69.7276 44.4685 69.9141 44.3935 70.1244L43.597 72.3592L43.4916 72.6548L43.18 72.6884L43.1799 72.6884L43.1795 72.6885L43.1794 72.6885L43.175 72.689L43.1539 72.6915C43.1345 72.6939 43.1044 72.6978 43.0644 72.7035C42.9844 72.7148 42.8649 72.7333 42.7117 72.761C42.4053 72.8165 41.9653 72.9091 41.4389 73.0566C40.384 73.3523 38.994 73.8652 37.6387 74.7332C36.2853 75.6001 34.9741 76.8158 34.0582 78.5178C33.1929 80.1256 32.6661 82.1935 32.8137 84.8596H35.9825H36.4956L36.4823 85.3726C36.478 85.5379 36.4793 85.7034 36.4862 85.8686L63.1473 85.6445C63.1476 85.6445 63.1478 85.6445 63.1481 85.6445C64.0591 85.6343 64.9346 85.9929 65.5883 86.6384C66.2418 87.2836 66.6223 88.164 66.6535 89.0904L66.6537 89.0978L66.6537 89.1052C66.6575 90.0219 66.3089 90.9058 65.6798 91.5616C65.0502 92.218 64.1905 92.5921 63.2888 92.596H63.2887C63.2463 92.5962 63.2039 92.5956 63.1616 92.5941L63.1614 92.5941L59.2108 92.458C58.1506 98.1634 61.221 102.039 64.6993 104.547C68.0454 106.924 72.0138 108.183 76.0703 108.157L76.0735 108.157L87.9566 108.157C95.5018 108.157 99.8941 104.887 102.413 101.64C103.679 100.009 104.476 98.3756 104.957 97.1502C105.197 96.5381 105.358 96.0296 105.458 95.6764C105.508 95.4998 105.543 95.3623 105.565 95.2702C105.576 95.2242 105.583 95.1896 105.588 95.1672L105.593 95.1428L105.595 95.1377L105.595 95.1374L105.595 95.137L105.595 95.1369L105.646 94.8823L105.884 94.7779C109.731 93.0907 111.431 89.7706 112.168 86.8091C112.536 85.3299 112.659 83.9551 112.69 82.9492C112.705 82.4469 112.697 82.0385 112.686 81.7573C112.68 81.6168 112.673 81.5082 112.668 81.4358C112.666 81.3995 112.664 81.3724 112.662 81.3548L112.66 81.3356L112.66 81.3315L112.66 81.3312L112.658 81.3102ZM112.658 81.3102L112.66 81.3309L112.658 81.3102ZM101.24 67.8095C101.24 67.81 101.24 67.8105 101.241 67.8111C101.24 67.8106 101.24 67.8101 101.24 67.8096L101.24 67.8095ZM101.275 67.9016C101.277 67.9126 101.277 67.915 101.275 67.9045C101.275 67.9037 101.275 67.9028 101.275 67.9016Z" fill="#004C48" stroke="white"/>
<path d="M129.837 101.756C129.837 109.362 123.876 115.5 116.557 115.5C109.238 115.5 103.277 109.362 103.277 101.756C103.277 94.1491 109.238 88.0112 116.557 88.0112C123.876 88.0112 129.837 94.1491 129.837 101.756Z" fill="#004C48" stroke="white"/>
<path d="M116.559 105.246C118.424 105.246 119.936 103.683 119.936 101.754C119.936 99.8263 118.424 98.2632 116.559 98.2632C114.694 98.2632 113.182 99.8263 113.182 101.754C113.182 103.683 114.694 105.246 116.559 105.246Z" fill="white"/>
<path d="M62.3455 99.6011C62.3455 108.397 55.4521 115.498 46.9833 115.498C38.5145 115.498 31.6211 108.397 31.6211 99.6011C31.6211 90.8057 38.5145 83.7041 46.9833 83.7041C55.4521 83.7041 62.3455 90.8057 62.3455 99.6011Z" fill="#004C48" stroke="white"/>
<path d="M46.9835 103.623C49.1307 103.623 50.8713 101.823 50.8713 99.6038C50.8713 97.3843 49.1307 95.585 46.9835 95.585C44.8363 95.585 43.0957 97.3843 43.0957 99.6038C43.0957 101.823 44.8363 103.623 46.9835 103.623Z" fill="white"/>
<path d="M100.958 50.9164L100.958 50.9164C102.293 50.4082 103.768 50.4688 105.06 51.0857C106.353 51.7029 107.361 52.8284 107.857 54.2196L107.857 54.2202C108.078 54.8379 108.191 55.4919 108.191 56.1511C108.188 56.9891 108.004 57.8153 107.654 58.5696C107.304 59.3239 106.796 59.9867 106.169 60.5105C105.717 60.8856 105.209 61.1814 104.666 61.3868L104.665 61.3872L93.668 65.5744L90.9307 57.889C90.6676 57.1503 90.6993 56.3334 91.0182 55.6195C91.337 54.906 91.9144 54.3577 92.6185 54.0898C92.6185 54.0898 92.6185 54.0898 92.6185 54.0898L100.958 50.9164Z" fill="#004C48" stroke="white"/>
<path d="M108.57 56.1499C108.569 57.0414 108.375 57.9214 108.002 58.7251C107.629 59.5289 107.086 60.2359 106.414 60.7943C105.383 60.513 104.423 60.0029 103.601 59.2995C102.78 58.596 102.116 57.716 101.657 56.7207C101.198 55.7254 100.954 54.6387 100.942 53.536C100.93 52.4334 101.151 51.3413 101.588 50.3357C102.428 50.1468 103.299 50.1548 104.136 50.3592C104.973 50.5636 105.755 50.9591 106.424 51.5168C107.094 52.0744 107.634 52.78 108.006 53.5817C108.377 54.3835 108.57 55.261 108.57 56.1499Z" fill="white"/>
<path d="M34.4297 87.0035C36.3238 87.0035 37.8593 85.0761 37.8593 82.6985C37.8593 80.321 36.3238 78.3936 34.4297 78.3936C32.5355 78.3936 31 80.321 31 82.6985C31 85.0761 32.5355 87.0035 34.4297 87.0035Z" fill="white"/>
<path d="M79.7642 97.9363H82.7671L84.1964 89.8843L79.7637 89.8848L79.7642 97.9363Z" fill="white"/>
<path d="M79.0005 98.2102H82.0034L83.4327 90.1582L79 90.1587L79.0005 98.2102Z" fill="white"/>
<path d="M79.4982 100.449L79.4981 97.4255L84.9127 97.4253C85.3397 97.4253 85.7632 97.5122 86.1586 97.6815C86.554 97.8508 86.9145 98.0995 87.2189 98.4141C87.5233 98.7287 87.7656 99.1032 87.9312 99.5164C88.0506 99.8145 88.1284 100.128 88.1624 100.448L79.4982 100.449Z" fill="#004C48" stroke="white"/>
<path d="M83.1952 94.1307L83.1952 94.1308C83.2143 94.1327 83.233 94.1337 83.2513 94.1337L83.1952 94.1307ZM83.1952 94.1307L83.1836 94.1298M83.1952 94.1307L83.1836 94.1298M83.1836 94.1298L79.0331 93.8175C78.9455 93.8084 78.86 93.7789 78.7831 93.7301C78.7048 93.6805 78.6371 93.612 78.5863 93.5288C78.5354 93.4455 78.5031 93.3503 78.4928 93.2504C78.483 93.1551 78.4935 93.0591 78.5232 92.9693L84.0783 80.0678L84.0857 80.0507M83.1836 94.1298L84.0857 80.0507M84.0857 80.0507L84.0917 80.0332M84.0857 80.0507L84.0917 80.0332M84.0917 80.0332C84.1534 79.8545 84.1785 79.6651 84.1657 79.4766C84.1529 79.2891 84.103 79.1057 84.0183 78.9378C83.9326 78.7664 83.8122 78.6143 83.664 78.4924C83.5157 78.3704 83.343 78.2814 83.1571 78.2322L83.0293 78.7156M84.0917 80.0332L69.1245 66.3274M69.1245 66.3274L69.1245 66.3274L63.9931 65.8452C63.728 66.4042 63.5611 67.0089 63.5014 67.6308C63.4338 68.3342 63.5047 69.0442 63.7095 69.7179C64.2475 71.2659 65.6612 72.5442 68.0704 73.4574C73.8558 75.6503 80.5473 77.5271 83.1597 78.233L83.0293 78.7156M69.1245 66.3274L69.1275 66.3276M69.1245 66.3274L69.1275 66.3276M83.0293 78.7156C80.4137 78.0089 73.7026 76.1269 67.8931 73.9249M83.0293 78.7156L67.8931 73.9249M67.8931 73.9249C65.4042 72.9815 63.8366 71.6181 63.234 69.8727C63.0079 69.1335 62.9295 68.3545 63.0037 67.583L67.8931 73.9249ZM69.1275 66.3276L74.948 66.8394L87.8405 73.986C87.8408 73.9861 87.841 73.9862 87.8413 73.9864C88.8173 74.5323 89.563 75.4407 89.925 76.5347C90.287 77.6289 90.237 78.8242 89.7856 79.8814C89.7854 79.8818 89.7852 79.8821 89.7851 79.8825L83.7983 93.7602L83.7982 93.7604M69.1275 66.3276L83.7982 93.7604M83.7982 93.7604C83.7489 93.8748 83.6697 93.9695 83.5725 94.0348M83.7982 93.7604L83.5725 94.0348M83.5725 94.0348C83.4755 94.0999 83.364 94.1336 83.2515 94.1337L83.5725 94.0348Z" fill="#004C48" stroke="white"/>
<path d="M75.6372 34.0513C75.6372 37.2259 73.1518 39.771 70.1204 39.771C67.089 39.771 64.6035 37.2259 64.6035 34.0513C64.6035 30.8766 67.089 28.3315 70.1204 28.3315C73.1518 28.3315 75.6372 30.8766 75.6372 34.0513Z" stroke="white"/>
<path d="M77.7853 101.208L77.7852 98.1853L83.1998 98.1851C83.6268 98.185 84.0503 98.2719 84.4457 98.4412C84.8411 98.6105 85.2016 98.8592 85.5059 99.1738C85.8104 99.4885 86.0527 99.8629 86.2183 100.276C86.3377 100.574 86.4155 100.888 86.4495 101.208L77.7853 101.208Z" fill="#004C48" stroke="white"/>
<mask id="path-23-inside-1_2203_7759" fill="white">
<path d="M70.8685 40.4821C70.0122 39.1571 69.3364 37.3198 70.2792 36.0591C71.2099 34.8146 73.0455 34.998 74.4709 34.4473C76.4561 33.6803 77.6075 31.2694 77.2484 29.1102C77.027 28.0352 76.5387 27.0382 75.8315 26.2174C75.1244 25.3965 74.2227 24.7802 73.2152 24.4288C71.1751 23.7545 68.9664 23.8788 67.0092 24.778C65.7941 25.2785 64.6924 26.0335 63.7734 26.9957C62.8544 27.9578 62.1381 29.1062 61.6694 30.3685C61.2239 31.6409 61.1181 33.0139 61.3634 34.3432C61.6086 35.6724 62.1958 36.9088 63.0632 37.9224C64.9896 40.0187 68.0131 40.5774 70.81 40.5435"/>
</mask>
<path d="M70.8685 40.4821C70.0122 39.1571 69.3364 37.3198 70.2792 36.0591C71.2099 34.8146 73.0455 34.998 74.4709 34.4473C76.4561 33.6803 77.6075 31.2694 77.2484 29.1102C77.027 28.0352 76.5387 27.0382 75.8315 26.2174C75.1244 25.3965 74.2227 24.7802 73.2152 24.4288C71.1751 23.7545 68.9664 23.8788 67.0092 24.778C65.7941 25.2785 64.6924 26.0335 63.7734 26.9957C62.8544 27.9578 62.1381 29.1062 61.6694 30.3685C61.2239 31.6409 61.1181 33.0139 61.3634 34.3432C61.6086 35.6724 62.1958 36.9088 63.0632 37.9224C64.9896 40.0187 68.0131 40.5774 70.81 40.5435" fill="white"/>
<path d="M70.2792 36.0591L69.4784 35.4602L69.4784 35.4602L70.2792 36.0591ZM74.4709 34.4473L74.1105 33.5145H74.1105L74.4709 34.4473ZM77.2484 29.1102L78.2349 28.9462L78.2318 28.9273L78.2279 28.9085L77.2484 29.1102ZM73.2152 24.4288L73.5444 23.4846L73.5367 23.4819L73.529 23.4793L73.2152 24.4288ZM67.0092 24.778L67.39 25.7026L67.4085 25.695L67.4266 25.6867L67.0092 24.778ZM61.6694 30.3685L60.732 30.0204L60.7287 30.0292L60.7256 30.038L61.6694 30.3685ZM63.0632 37.9224L62.3034 38.5726L62.3149 38.586L62.3269 38.599L63.0632 37.9224ZM71.7084 39.9393C71.3211 39.3401 71.0044 38.6674 70.8793 38.0484C70.7552 37.4342 70.8367 36.9833 71.08 36.658L69.4784 35.4602C68.7788 36.3956 68.7268 37.4936 68.919 38.4445C69.1101 39.3906 69.5595 40.299 70.0286 41.0249L71.7084 39.9393ZM71.08 36.658C71.3272 36.3274 71.7243 36.131 72.4201 35.9661C72.7812 35.8805 73.1135 35.8252 73.5471 35.7359C73.9491 35.6532 74.3961 35.5482 74.8312 35.3801L74.1105 33.5145C73.8329 33.6217 73.516 33.7004 73.1438 33.777C72.8033 33.8471 72.3513 33.927 71.9589 34.02C71.1479 34.2122 70.1618 34.5463 69.4784 35.4602L71.08 36.658ZM74.8312 35.3801C77.3356 34.4126 78.6575 31.4869 78.2349 28.9462L76.262 29.2743C76.5576 31.0519 75.5766 32.9481 74.1105 33.5145L74.8312 35.3801ZM78.2279 28.9085C77.9726 27.669 77.409 26.5162 76.5891 25.5647L75.0739 26.8701C75.6685 27.5601 76.0815 28.4014 76.269 29.3119L78.2279 28.9085ZM76.5891 25.5647C75.7691 24.6129 74.7205 23.8947 73.5444 23.4846L72.8859 25.373C73.7248 25.6656 74.4796 26.1802 75.0739 26.8701L76.5891 25.5647ZM73.529 23.4793C71.2481 22.7255 68.7781 22.8648 66.5917 23.8693L67.4266 25.6867C69.1547 24.8928 71.1021 24.7836 72.9013 25.3783L73.529 23.4793ZM66.6283 23.8533C65.2824 24.4077 64.0645 25.2431 63.0503 26.305L64.4965 27.6864C65.3203 26.824 66.3058 26.1492 67.39 25.7026L66.6283 23.8533ZM63.0503 26.305C62.0361 27.3667 61.2474 28.6321 60.732 30.0204L62.6069 30.7165C63.0288 29.5802 63.6728 28.5488 64.4965 27.6864L63.0503 26.305ZM60.7256 30.038C60.2224 31.4751 60.1032 33.0246 60.38 34.5246L62.3468 34.1617C62.133 33.0032 62.2253 31.8067 62.6132 30.699L60.7256 30.038ZM60.38 34.5246C60.6568 36.0247 61.3199 37.4233 62.3034 38.5726L63.823 37.2722C63.0717 36.3943 62.5605 35.3202 62.3468 34.1617L60.38 34.5246ZM62.3269 38.599C64.5484 41.0165 67.9406 41.5784 70.8221 41.5435L70.7979 39.5436C68.0855 39.5765 65.4309 39.021 63.7995 37.2457L62.3269 38.599Z" fill="white" mask="url(#path-23-inside-1_2203_7759)"/>
<path d="M61.1056 29.3001C61.7377 29.735 62.5133 30.071 63.2982 30.1698C63.9833 30.2559 64.7017 30.1625 65.3201 29.7655L65.5775 29.8964C65.5737 30.4618 65.3329 31.0085 64.9247 31.4747C64.4533 32.013 63.7838 32.4117 63.1005 32.5659C61.6771 32.887 60.1863 32.4883 58.606 32.0656L58.5751 32.0573C57.029 31.6438 55.2345 31.2112 53.5334 31.7384L53.6814 32.216L53.5334 31.7384C51.9928 32.2157 50.8711 33.3532 49.8672 34.4788C49.7115 34.6535 49.5587 34.8276 49.4074 34.9999C48.5544 35.9718 47.7519 36.8862 46.76 37.5108C45.7407 38.1526 44.5565 38.4527 43.3686 38.3722C42.1806 38.2917 41.0436 37.8342 40.113 37.0595C39.1822 36.2845 38.503 35.2295 38.1709 34.0368C37.9085 33.0942 37.8735 32.1035 38.0636 31.1505C40.0012 32.5813 42.7588 32.3977 44.8724 31.5066C46.0554 31.0079 47.1333 30.3239 48.1671 29.6273C48.3938 29.4745 48.6178 29.3216 48.8403 29.1696C49.6439 28.6209 50.4283 28.0853 51.253 27.6174C53.3582 26.4228 55.8332 25.7913 57.8144 26.7791C58.3817 27.0619 58.8904 27.4665 59.4228 27.9244C59.5214 28.0092 59.6214 28.0964 59.7228 28.1849C60.1547 28.5615 60.613 28.9612 61.1056 29.3001Z" fill="white" stroke="white"/>
<path d="M98.8972 55.9195L98.8985 55.9223C99.1205 56.422 99.1578 56.9898 99.0025 57.5168C98.8472 58.0436 98.5116 58.4891 98.064 58.772C97.6168 59.0545 97.0873 59.1566 96.5747 59.0615C96.0619 58.9664 95.5967 58.6793 95.2697 58.2498L95.1468 58.0885L94.9463 58.0583L72.3126 54.6498L72.5517 49.7908L95.3565 55.0816L95.5752 55.1324L95.7585 55.0026C96.0155 54.8206 96.3068 54.6998 96.6119 54.6477C96.917 54.5955 97.2294 54.6131 97.5275 54.6994C97.8256 54.7857 98.1031 54.9389 98.34 55.1493L98.672 54.7755L98.34 55.1493C98.5769 55.3598 98.7675 55.6224 98.8972 55.9195Z" fill="#004C48" stroke="white"/>
<path d="M76.1831 49.7119L74.7556 55.6932C74.715 55.8634 74.6394 56.0225 74.5339 56.1597C74.4284 56.297 74.2956 56.4091 74.1444 56.4885C73.9932 56.5679 73.8273 56.6127 73.6578 56.6198C73.4884 56.6269 73.3195 56.5962 73.1626 56.5297L67.6647 54.2006C66.8233 53.9811 66.1005 53.4256 65.6548 52.6559C65.209 51.8862 65.0768 50.9652 65.2872 50.0949C65.4975 49.2246 66.0332 48.4761 66.7767 48.0135C67.5202 47.5509 68.4108 47.4121 69.2532 47.6274L75.1492 48.2054C75.318 48.222 75.4814 48.276 75.6282 48.3638C75.775 48.4515 75.9018 48.5709 75.9999 48.7139C76.098 48.8569 76.1651 49.02 76.1968 49.1922C76.2284 49.3644 76.2237 49.5417 76.1831 49.7119Z" fill="white"/>
<path d="M96.6543 60.4159C97.6014 60.4159 98.3691 59.6223 98.3691 58.6433C98.3691 57.6643 97.6014 56.8706 96.6543 56.8706C95.7072 56.8706 94.9395 57.6643 94.9395 58.6433C94.9395 59.6223 95.7072 60.4159 96.6543 60.4159Z" fill="white"/>
<defs>
<linearGradient id="paint0_linear_2203_7759" x1="76.8215" y1="0" x2="76.8215" y2="153.643" gradientUnits="userSpaceOnUse">
<stop stop-color="#9CCC65"/>
<stop offset="1" stop-color="#009688"/>
</linearGradient>
</defs>
</svg>
