<svg width="62" height="63" viewBox="0 0 62 63" fill="none" xmlns="http://www.w3.org/2000/svg">
<path d="M27.9255 15.8325C27.6068 14.9269 27.0149 14.1426 26.2315 13.5876C25.4481 13.0327 24.5118 12.7345 23.5518 12.7343H19.9573C18.9376 12.7371 17.9548 13.116 17.1971 13.7985C16.4394 14.4809 15.9601 15.4189 15.8509 16.4327C15.7418 17.4466 16.0105 18.4651 16.6056 19.2931C17.2007 20.1212 18.0804 20.7006 19.0761 20.9204L24.5397 22.1171C25.6577 22.3611 26.646 23.0097 27.3146 23.9383C27.9832 24.8669 28.285 26.0099 28.1618 27.1476C28.0387 28.2852 27.4994 29.3372 26.6475 30.1012C25.7957 30.8652 24.6915 31.2874 23.5472 31.2865H20.4536C19.4947 31.2869 18.5592 30.9901 17.776 30.4369C16.9927 29.8837 16.4002 29.1014 16.0799 28.1976M22.0073 12.7343V8.09619M22.0073 35.9246V31.2865M30.8521 61.2808V36.931C30.8521 35.3934 31.4629 33.9188 32.5502 32.8315C33.6375 31.7443 35.1121 31.1334 36.6497 31.1334C38.1873 31.1334 39.662 31.7443 40.7492 32.8315C41.8365 33.9188 42.4473 35.3934 42.4473 36.931V49.6857H51.7234C54.1836 49.6857 56.543 50.663 58.2826 52.4026C60.0222 54.1422 60.9995 56.5016 60.9995 58.9618V61.2808" stroke="white" stroke-width="2" stroke-linecap="round" stroke-linejoin="round"/>
<path d="M22.0122 43.0301C17.733 43.0296 13.556 41.7226 10.0396 39.2841C6.52317 36.8456 3.83499 33.3918 2.33443 29.3843C0.833878 25.3769 0.59247 21.0068 1.64249 16.8584C2.6925 12.7101 4.9839 8.98114 8.21032 6.17015C11.4367 3.35917 15.4444 1.60012 19.6975 1.1282C23.9506 0.656286 28.2464 1.49399 32.0105 3.5293C35.7747 5.56462 38.8278 8.70055 40.7617 12.5178C42.6955 16.3351 43.418 20.6517 42.8325 24.8907" stroke="white" stroke-width="2" stroke-linecap="round"/>
</svg>
