<svg width="100" height="100" viewBox="0 0 100 100" fill="none" xmlns="http://www.w3.org/2000/svg">
<path d="M73.0778 41.7857C71.9022 41.7816 70.7452 42.0844 69.7177 42.6653L59.7815 30.0574C60.5732 29.1561 61.1233 28.0627 61.3788 26.8826C61.6342 25.7025 61.5865 24.4754 61.2401 23.3195C60.8937 22.1636 60.2603 21.1179 59.401 20.283C58.5417 19.4481 57.4855 18.8523 56.3339 18.5528C55.1824 18.2533 53.9744 18.2603 52.8263 18.5732C51.6782 18.886 50.6286 19.4941 49.7788 20.3389C48.9289 21.1837 48.3074 22.2368 47.974 23.3966C47.6407 24.5565 47.6067 25.784 47.8754 26.9611L32.7822 33.3442C32.1607 32.3394 31.2993 31.5106 30.278 30.9352C29.2568 30.3597 28.109 30.0562 26.9413 30.0529C25.7737 30.0497 24.6242 30.3467 23.5999 30.9164C22.5755 31.4861 21.7096 32.3099 21.0826 33.3113C20.4556 34.3126 20.088 35.459 20.0139 36.6436C19.9399 37.8282 20.1618 39.0126 20.659 40.0866C21.1562 41.1606 21.9126 42.0892 22.8578 42.7862C23.803 43.4831 24.9062 43.9257 26.0649 44.0727L26.6734 59.5277C25.5184 59.7713 24.4437 60.3109 23.5514 61.0954C22.6592 61.8798 21.9789 62.8831 21.5752 64.0099C21.1715 65.1367 21.0578 66.3497 21.2449 67.5338C21.4319 68.7178 21.9135 69.8336 22.6439 70.7753C23.3744 71.717 24.3294 72.4533 25.4184 72.9143C26.5074 73.3753 27.6943 73.5457 28.8663 73.4094C30.0383 73.2731 31.1566 72.8346 32.115 72.1354C33.0735 71.4363 33.8402 70.4997 34.3426 69.4147L50.0415 73.8832C50.0184 74.1265 50.004 74.3758 50.004 74.625C50.0032 75.7978 50.2908 76.9523 50.8407 77.9834C51.3905 79.0144 52.1852 79.8894 53.1523 80.5289C54.1195 81.1683 55.2285 81.5518 56.3786 81.6445C57.5287 81.7373 58.6834 81.5364 59.7376 81.06C60.7919 80.5837 61.7123 79.847 62.4152 78.9169C63.1181 77.9869 63.5812 76.893 63.7624 75.7347C63.9436 74.5764 63.8371 73.3905 63.4527 72.2847C63.0682 71.1789 62.418 70.1883 61.5611 69.403L70.3869 55.3055C71.238 55.6726 72.1533 55.8611 73.0778 55.8597C74.9137 55.8597 76.6744 55.1183 77.9725 53.7986C79.2707 52.4789 80 50.689 80 48.8227C80 46.9564 79.2707 45.1665 77.9725 43.8468C76.6744 42.5271 74.9137 41.7857 73.0778 41.7857ZM66.2076 47.9812L50.327 48.7494L54.1602 32.3854C54.3121 32.3972 54.4649 32.403 54.6188 32.403C55.7944 32.4072 56.9514 32.1043 57.9789 31.5234L67.9151 44.1314C66.97 45.2056 66.3738 46.5499 66.2076 47.9812ZM32.7505 61.2313C31.6988 60.2476 30.3725 59.6205 28.9549 59.4368L28.3463 43.9818C29.8747 43.6517 31.2488 42.8065 32.2458 41.5834L46.7823 50.1392L32.7505 61.2313ZM54.6188 20.6747C55.5315 20.6747 56.4237 20.9499 57.1826 21.4654C57.9415 21.9808 58.533 22.7135 58.8822 23.5708C59.2315 24.428 59.3229 25.3713 59.1449 26.2813C58.9668 27.1913 58.5273 28.0272 57.8819 28.6833C57.2365 29.3394 56.4142 29.7862 55.5191 29.9672C54.6239 30.1483 53.696 30.0553 52.8528 29.7003C52.0095 29.3452 51.2888 28.7439 50.7817 27.9724C50.2746 27.2009 50.004 26.2939 50.004 25.366C50.004 24.1218 50.4902 22.9286 51.3556 22.0488C52.2211 21.169 53.3948 20.6747 54.6188 20.6747ZM48.7666 29.1162C49.5185 30.3303 50.6175 31.2817 51.9162 31.843L48.086 48.1923L33.4139 39.5544C33.7045 38.7679 33.853 37.9345 33.8523 37.0944C33.8521 36.5604 33.7921 36.0283 33.6735 35.5081L48.7666 29.1162ZM22.3153 37.0944C22.3153 36.1665 22.586 35.2595 23.0931 34.488C23.6002 33.7165 24.3209 33.1152 25.1641 32.7601C26.0074 32.4051 26.9352 32.3122 27.8304 32.4932C28.7256 32.6742 29.5479 33.121 30.1933 33.7771C30.8386 34.4332 31.2782 35.2691 31.4562 36.1791C31.6343 37.0892 31.5429 38.0324 31.1936 38.8897C30.8443 39.7469 30.2528 40.4796 29.494 40.9951C28.7351 41.5106 27.8428 41.7857 26.9301 41.7857C25.7062 41.7857 24.5324 41.2914 23.667 40.4116C22.8015 39.5318 22.3153 38.3386 22.3153 37.0944ZM28.0838 71.1065C27.1711 71.1065 26.2789 70.8314 25.52 70.3159C24.7611 69.8004 24.1696 69.0677 23.8203 68.2105C23.471 67.3532 23.3797 66.41 23.5577 65.4999C23.7358 64.5899 24.1753 63.754 24.8207 63.0979C25.4661 62.4418 26.2883 61.995 27.1835 61.814C28.0787 61.633 29.0066 61.7259 29.8498 62.0809C30.6931 62.436 31.4138 63.0373 31.9209 63.8088C32.4279 64.5803 32.6986 65.4873 32.6986 66.4152C32.6986 67.6594 32.2124 68.8526 31.347 69.7324C30.4815 70.6122 29.3077 71.1065 28.0838 71.1065ZM34.9685 67.157C34.9916 66.9136 35.006 66.6644 35.006 66.4152C35.0072 65.2512 34.7226 64.1054 34.1782 63.0814L48.2706 51.9395L53.6727 68.4149C52.3568 69.1347 51.3032 70.2654 50.6674 71.6401L34.9685 67.157ZM56.9261 79.3163C56.0134 79.3163 55.1212 79.0412 54.3623 78.5257C53.6034 78.0102 53.0119 77.2775 52.6627 76.4203C52.3134 75.5631 52.222 74.6198 52.4 73.7098C52.5781 72.7997 53.0176 71.9638 53.663 71.3077C54.3084 70.6516 55.1307 70.2048 56.0258 70.0238C56.921 69.8428 57.8489 69.9357 58.6921 70.2908C59.5354 70.6458 60.2561 71.2472 60.7632 72.0186C61.2703 72.7901 61.5409 73.6971 61.5409 74.625C61.5409 75.8692 61.0547 77.0625 60.1893 77.9423C59.3238 78.8221 58.1501 79.3163 56.9261 79.3163ZM59.6171 68.1422C58.766 67.7751 57.8507 67.5866 56.9261 67.588C56.5699 67.5886 56.2141 67.616 55.8619 67.6701L50.4251 51.0921L66.3172 50.3239C66.6248 51.76 67.3683 53.0615 68.4429 54.0447L59.6171 68.1422ZM73.0778 53.514C72.1651 53.514 71.2729 53.2389 70.514 52.7234C69.7551 52.2079 69.1636 51.4752 68.8143 50.618C68.4651 49.7608 68.3737 48.8175 68.5517 47.9075C68.7298 46.9974 69.1693 46.1615 69.8147 45.5054C70.4601 44.8493 71.2824 44.4025 72.1775 44.2215C73.0727 44.0405 74.0006 44.1334 74.8438 44.4885C75.6871 44.8435 76.4078 45.4448 76.9149 46.2163C77.422 46.9878 77.6926 47.8948 77.6926 48.8227C77.6926 50.0669 77.2064 51.2602 76.341 52.14C75.4755 53.0198 74.3018 53.514 73.0778 53.514Z" fill="white"/>
</svg>
