<svg width="57" height="57" viewBox="0 0 57 57" fill="none" xmlns="http://www.w3.org/2000/svg">
<path d="M24.7748 24.7751C23.7499 25.7947 23.1713 27.1791 23.166 28.6247C23.166 30.0723 23.7411 31.4607 24.7647 32.4843C25.7884 33.508 27.1767 34.083 28.6243 34.083C30.0699 34.0777 31.4544 33.4991 32.4739 32.4743" stroke="white" stroke-width="2" stroke-linecap="round" stroke-linejoin="round"/>
<path d="M28.625 12.25C25.3863 12.25 22.2204 13.2104 19.5275 15.0097C16.8347 16.809 14.7359 19.3664 13.4965 22.3586C12.2571 25.3507 11.9328 28.6432 12.5646 31.8196C13.1965 34.996 14.756 37.9138 17.0461 40.2039C19.3362 42.494 22.254 44.0535 25.4304 44.6854C28.6068 45.3172 31.8993 44.9929 34.8914 43.7535C37.8836 42.5141 40.441 40.4153 42.2403 37.7225C44.0396 35.0296 45 31.8637 45 28.625" stroke="white" stroke-width="2" stroke-linecap="round" stroke-linejoin="round"/>
<path d="M28.6247 1.33325C23.2269 1.33325 17.9503 2.93388 13.4622 5.93273C8.97416 8.93157 5.47612 13.1939 3.41047 18.1808C1.34483 23.1677 0.804367 28.6552 1.85742 33.9493C2.91048 39.2433 5.50975 44.1062 9.32656 47.923C13.1434 51.7398 18.0063 54.3391 23.3003 55.3922C28.5944 56.4452 34.0818 55.9048 39.0687 53.8391C44.0556 51.7735 48.318 48.2754 51.3169 43.7874C54.3157 39.2993 55.9163 34.0227 55.9163 28.6249M38.7513 18.5011L31.3538 25.8957" stroke="white" stroke-width="2" stroke-linecap="round" stroke-linejoin="round"/>
<path d="M54.308 10.94L45.0001 12.25L46.3101 2.94206C46.3197 2.83395 46.2968 2.72543 46.2445 2.63036C46.1921 2.53529 46.1126 2.458 46.0161 2.40835C45.9195 2.3587 45.8104 2.33896 45.7026 2.35164C45.5948 2.36432 45.4932 2.40885 45.4109 2.47954L39.2401 8.61873C38.6063 9.25713 38.1401 10.0423 37.883 10.9043C37.6259 11.7664 37.5858 12.6787 37.7663 13.56L38.7488 18.5012L43.6901 19.4808C44.5714 19.6614 45.4836 19.6213 46.3457 19.3642C47.2077 19.1071 47.9929 18.6409 48.6313 18.0071L54.7676 11.8391C54.8386 11.7566 54.8832 11.6547 54.8958 11.5466C54.9084 11.4385 54.8884 11.3291 54.8384 11.2325C54.7884 11.1358 54.7106 11.0563 54.6151 11.0042C54.5195 10.9521 54.4106 10.9297 54.3022 10.94" stroke="white" stroke-width="2" stroke-linecap="round" stroke-linejoin="round"/>
</svg>
