<svg width="52" height="51" viewBox="0 0 52 51" fill="none" xmlns="http://www.w3.org/2000/svg">
<path d="M46.0041 31.6675V11.6669C46.0041 6.95178 46.0041 4.59671 44.5391 3.13167C43.074 1.66663 40.719 1.66663 36.0038 1.66663H16.0032C11.2881 1.66663 8.93302 1.66663 7.46797 3.13167C6.00293 4.59671 6.00293 6.95178 6.00293 11.6669V31.6675" stroke="white" stroke-width="2" stroke-linecap="round" stroke-linejoin="round"/>
<path d="M16.0036 16.402H16.4086C18.4362 16.402 19.4512 16.402 20.2262 16.837C21.0013 17.2721 21.3463 18.0371 22.0438 19.5696L22.8838 21.4197C23.3413 22.4297 23.5713 22.9322 23.9414 22.9172C24.3114 22.9022 24.4714 22.3822 24.7939 21.3422L27.6865 12.0344C28.019 10.9644 28.1865 10.4293 28.559 10.4168C28.9315 10.4043 29.1565 10.9244 29.6015 11.9669L30.109 13.1494C30.7841 14.7195 31.1191 15.5045 31.9016 15.952C32.6841 16.3995 33.7167 16.402 35.7817 16.402H36.0042M4.74828 34.2051L6.05332 31.6675H45.8845L47.2596 34.2051C50.8672 40.8603 51.7672 44.1879 50.3947 46.6779C49.0221 49.168 45.3895 49.168 38.1193 49.168H13.8886C6.61584 49.168 2.98073 49.168 1.61069 46.6779C0.238148 44.1879 1.13817 40.8603 4.74828 34.2051Z" stroke="white" stroke-width="2" stroke-linecap="round" stroke-linejoin="round"/>
</svg>
