<svg width="100" height="100" viewBox="0 0 100 100" fill="none" xmlns="http://www.w3.org/2000/svg">
<path d="M50 80C49.3071 80 48.6245 79.8621 47.9521 79.5863C47.2798 79.3106 46.6678 78.9026 46.1162 78.3625L21.6376 53.8853C21.0974 53.3338 20.6895 52.7218 20.4137 52.0495C20.1379 51.3772 20 50.6946 20 50.0018C20 49.3089 20.1379 48.6229 20.4137 47.9438C20.6895 47.2646 21.0974 46.6561 21.6376 46.1182L46.1162 21.641C46.6678 21.0895 47.2798 20.6793 47.9521 20.4103C48.6245 20.1414 49.3071 20.0047 50 20.0001C50.6929 19.9956 51.3789 20.13 52.0581 20.4035C52.7373 20.677 53.347 21.0872 53.8872 21.6342L78.3658 46.1114C78.9151 46.6515 79.3254 47.2612 79.5966 47.9403C79.8655 48.6195 80 49.3055 80 49.9983C80 50.6912 79.8655 51.3738 79.5966 52.0461C79.3276 52.7184 78.9174 53.3315 78.3658 53.8853L53.8872 78.3625C53.347 78.9003 52.7373 79.3072 52.0581 79.5829C51.3789 79.8587 50.6929 80 50 80ZM51.5111 75.9216L75.9214 51.5128C76.2746 51.1618 76.4513 50.657 76.4513 49.9983C76.4513 49.3397 76.2758 48.836 75.9248 48.4873L51.5145 24.0785C51.1635 23.7252 50.6587 23.5486 50 23.5486C49.3413 23.5486 48.8376 23.7241 48.4889 24.0751L24.0786 48.4839C23.7254 48.8372 23.5487 49.342 23.5487 49.9983C23.5487 50.6547 23.7242 51.1584 24.0752 51.5094L48.4855 75.9182C48.8387 76.2714 49.3436 76.4481 50 76.4481C50.6564 76.4481 51.1601 76.2726 51.5111 75.9216ZM48.2906 54.0084H51.7094V36.1291H48.2906V54.0084ZM50 61.6319C50.5744 61.6319 51.0689 61.4256 51.4838 61.0131C51.8986 60.6006 52.106 60.1072 52.106 59.5328C52.106 58.9585 51.8986 58.4639 51.4838 58.0492C51.0689 57.6344 50.5744 57.427 50 57.427C49.4256 57.427 48.9311 57.6344 48.5162 58.0492C48.1014 58.4639 47.894 58.9585 47.894 59.5328C47.894 60.1072 48.1014 60.6006 48.5162 61.0131C48.9311 61.4256 49.4256 61.6296 50 61.6319Z" fill="white"/>
</svg>
