<svg width="100" height="100" viewBox="0 0 100 100" fill="none" xmlns="http://www.w3.org/2000/svg">
<rect width="100" height="100" rx="50" fill="#FF5400"/>
<path d="M43.7035 62.7155C48.9505 62.7155 53.4103 60.8727 57.0832 57.1873C60.756 53.5019 62.5924 49.0273 62.5924 43.7636C62.5924 38.4999 60.756 34.0253 57.0832 30.3399C53.4103 26.6545 48.9505 24.8128 43.7035 24.8149C38.4566 24.817 33.9968 26.6597 30.3239 30.343C26.6511 34.0264 24.8147 38.4999 24.8147 43.7636C24.8147 49.0273 26.6511 53.5019 30.3239 57.1873C33.9968 60.8727 38.4566 62.7155 43.7035 62.7155ZM42.1295 51.8764V33.1103H45.2776V51.8764H42.1295ZM31.5958 51.8764V39.1075H34.7439V51.8795L31.5958 51.8764ZM52.6632 51.8764V42.1297H55.8113V51.8764H52.6632ZM76.1673 78.3334L58.1787 60.348C56.229 62.0271 54.02 63.3451 51.5519 64.3021C49.0837 65.2592 46.4676 65.7387 43.7035 65.7408C37.5521 65.7408 32.3408 63.6074 28.0698 59.3406C23.8009 55.0718 21.6665 49.8626 21.6665 43.7132C21.6665 37.5638 23.8009 32.3526 28.0698 28.0795C32.3387 23.8064 37.5468 21.6688 43.6941 21.6667C49.8414 21.6647 55.0537 23.7991 59.331 28.0701C63.604 32.3432 65.7406 37.5544 65.7406 43.7038C65.7406 46.4679 65.261 49.084 64.3019 51.5521C63.3427 54.0203 62.0247 56.2093 60.3478 58.1192L78.3332 76.1045L76.1673 78.3334Z" fill="white"/>
</svg>
