<svg width="24" height="24" viewBox="0 0 24 24" fill="none" xmlns="http://www.w3.org/2000/svg">
<path fill-rule="evenodd" clip-rule="evenodd" d="M15.2201 6.26766C15.2914 6.08226 15.4334 5.93276 15.6149 5.85196C15.7964 5.77115 16.0025 5.76565 16.1881 5.83666L22.1301 8.11666C22.2221 8.15199 22.3063 8.20512 22.3778 8.273C22.4492 8.34089 22.5066 8.42221 22.5467 8.5123C22.5867 8.60239 22.6086 8.69949 22.611 8.79804C22.6135 8.8966 22.5965 8.99467 22.5611 9.08666L20.2811 15.0267C20.2477 15.1211 20.1958 15.208 20.1283 15.282C20.0608 15.3561 19.9792 15.4159 19.8883 15.4579C19.7973 15.4999 19.6988 15.5233 19.5987 15.5266C19.4986 15.5299 19.3988 15.5131 19.3052 15.4773C19.2117 15.4414 19.1263 15.3871 19.0541 15.3177C18.9818 15.2482 18.9242 15.165 18.8847 15.073C18.8452 14.9809 18.8245 14.8819 18.8238 14.7817C18.8232 14.6815 18.8427 14.5822 18.8811 14.4897L20.5111 10.2387L19.4251 10.7227C17.0669 11.768 15.1418 13.5952 13.9751 15.8957C13.9214 16.0012 13.8434 16.0925 13.7476 16.1622C13.6519 16.2318 13.541 16.2778 13.424 16.2963C13.307 16.3148 13.1873 16.3054 13.0747 16.2688C12.9621 16.2322 12.8598 16.1694 12.7761 16.0857L9.00006 12.3117L2.78006 18.5317C2.63854 18.6682 2.44906 18.7437 2.25241 18.7419C2.05576 18.7401 1.86769 18.6611 1.7287 18.522C1.58971 18.3829 1.51092 18.1948 1.5093 17.9981C1.50769 17.8015 1.58337 17.612 1.72006 17.4707L8.47006 10.7207C8.61069 10.5802 8.80131 10.5013 9.00006 10.5013C9.19881 10.5013 9.38943 10.5802 9.53006 10.7207L13.1361 14.3267C14.4811 12.131 16.4621 10.3963 18.8161 9.35266L19.9021 8.86966L15.6511 7.23766C15.5589 7.20242 15.4747 7.14936 15.4031 7.08152C15.3315 7.01367 15.274 6.93237 15.2338 6.84227C15.1937 6.75217 15.1718 6.65503 15.1692 6.55643C15.1667 6.45783 15.1836 6.3597 15.2191 6.26766H15.2201Z" fill="#999999"/>
</svg>
