<svg width="40" height="40" viewBox="0 0 40 40" fill="none" xmlns="http://www.w3.org/2000/svg">
<path d="M15.8787 30.1886L16.25 29.7801V27.7656L10.166 14.9219H7.33398L1.25 27.7656V29.8783L1.58078 30.2373C2.4893 31.221 3.59138 32.0063 4.81782 32.5438C6.04426 33.0813 7.36859 33.3595 8.70766 33.3609H8.74047C10.0851 33.3549 11.4138 33.0699 12.6425 32.5238C13.8712 31.9778 14.9732 31.1826 15.8787 30.1886ZM13.75 28.7975C12.4163 30.1223 10.6118 30.8643 8.73195 30.861H8.70617C6.85941 30.8703 5.08166 30.1598 3.75 28.8802V28.3281L8.75 17.7725L13.75 28.3281V28.7975ZM32.666 14.9219H29.834L23.75 27.7656V29.8783L24.0808 30.2373C24.9893 31.221 26.0914 32.0063 27.3178 32.5438C28.5443 33.0813 29.8686 33.3595 31.2077 33.3609H31.2405C32.5851 33.3549 33.9138 33.0698 35.1425 32.5238C36.3712 31.9777 37.4732 31.1825 38.3787 30.1884L38.75 29.7801V27.7656L32.666 14.9219ZM36.25 28.7975C34.9163 30.1223 33.1118 30.8643 31.232 30.861H31.2062C29.3594 30.8703 27.5817 30.1598 26.25 28.8802V28.3281L31.25 17.7725L36.25 28.3281V28.7975Z" fill="#FF5400"/>
<path d="M21.25 15.364C21.9454 15.155 22.5781 14.7769 23.0915 14.2634C23.605 13.75 23.9831 13.1173 24.1921 12.4219H32.5V9.9219H24.1921C23.923 9.01903 23.3697 8.22716 22.6144 7.66409C21.859 7.10103 20.9421 6.79688 20 6.79688C19.0579 6.79688 18.141 7.10103 17.3856 7.66409C16.6303 8.22716 16.077 9.01903 15.8079 9.9219H7.5V12.4219H15.8079C16.0169 13.1173 16.395 13.75 16.9085 14.2634C17.4219 14.7769 18.0546 15.155 18.75 15.364V36.1719H10.625V38.6719H29.375V36.1719H21.25V15.364ZM18.125 11.1719C18.125 10.8011 18.235 10.4385 18.441 10.1302C18.647 9.82186 18.9399 9.58154 19.2825 9.43962C19.6251 9.29771 20.0021 9.26058 20.3658 9.33292C20.7295 9.40527 21.0636 9.58385 21.3258 9.84607C21.588 10.1083 21.7666 10.4424 21.839 10.8061C21.9113 11.1698 21.8742 11.5468 21.7323 11.8894C21.5904 12.232 21.35 12.5249 21.0417 12.7309C20.7334 12.9369 20.3708 13.0469 20 13.0469C19.5027 13.0469 19.0258 12.8494 18.6742 12.4977C18.3225 12.1461 18.125 11.6692 18.125 11.1719Z" fill="#FF5400"/>
</svg>
