<svg width="40" height="40" viewBox="0 0 40 40" fill="none" xmlns="http://www.w3.org/2000/svg">
<path d="M32.0644 24.1762L25.8004 21.1882L23.1516 19.9246C24.3084 19.1958 25.248 18.071 25.8628 16.7162C26.3761 15.5869 26.6414 14.3607 26.6408 13.1202C26.6408 12.3894 26.5248 11.6954 26.3632 11.0258C25.5752 7.78102 23.0412 5.39062 19.9992 5.39062C17.0148 5.39062 14.5192 7.69583 13.6824 10.8482C13.4892 11.5714 13.3564 12.3234 13.3564 13.1202C13.3564 14.5038 13.6796 15.7938 14.2288 16.9158C14.8636 18.2174 15.8048 19.2906 16.9504 19.9806L14.4136 21.1618L7.94642 24.1738C7.38482 24.437 7.01562 25.0706 7.01562 25.7782V32.8842C7.01562 33.8366 7.67923 34.6086 8.49843 34.6086H18.1036V29.1678C18.1053 29.1118 18.1218 29.0571 18.1512 29.0094L18.1472 29.007L19.7204 26.2822L19.7244 26.2846C19.7804 26.1886 19.88 26.1206 19.9992 26.1206C20.1184 26.1206 20.218 26.1882 20.274 26.2846L20.2756 26.2834L20.29 26.3086L20.2964 26.3198L21.8488 29.0082L21.8468 29.0094C21.8764 29.0573 21.8928 29.112 21.8944 29.1682V34.609H31.4996C32.3188 34.609 32.9828 33.837 32.9828 32.8846V25.7782C32.984 25.073 32.6208 24.4454 32.0644 24.1762ZM21.848 22.3542L21.852 22.3566L20.2784 25.0814L20.2744 25.079C20.247 25.128 20.2072 25.1689 20.1589 25.1976C20.1107 25.2263 20.0558 25.2419 19.9996 25.2426C19.9435 25.2419 19.8886 25.2263 19.8403 25.1976C19.7921 25.1689 19.7523 25.128 19.7248 25.079L19.7228 25.0802L19.7068 25.0526L19.702 25.0446L18.1496 22.3554L18.1512 22.3542C18.1217 22.3064 18.1053 22.2516 18.1036 22.1954C18.1036 22.0174 18.248 21.873 18.426 21.873H21.5724C21.7504 21.873 21.8948 22.0174 21.8948 22.1954C21.8942 22.2517 21.878 22.3066 21.848 22.3542Z" fill="black"/>
</svg>
