<svg width="38" height="38" viewBox="0 0 38 38" fill="none" xmlns="http://www.w3.org/2000/svg">
<path d="M33.25 26.1248C33.25 26.7265 32.9175 27.249 32.4108 27.5182L19.9025 34.5482C19.6492 34.7382 19.3325 34.8332 19 34.8332C18.6675 34.8332 18.3508 34.7382 18.0975 34.5482L5.58918 27.5182C5.33522 27.3849 5.12269 27.1845 4.97473 26.9389C4.82676 26.6932 4.74904 26.4116 4.75001 26.1248V11.8748C4.75001 11.2732 5.08251 10.7507 5.58918 10.4815L18.0975 3.4515C18.3508 3.2615 18.6675 3.1665 19 3.1665C19.3325 3.1665 19.6492 3.2615 19.9025 3.4515L32.4108 10.4815C32.9175 10.7507 33.25 11.2732 33.25 11.8748V26.1248ZM7.91668 14.2498V23.7498H9.89584V20.5832H11.0833C11.9232 20.5832 12.7286 20.2495 13.3225 19.6557C13.9164 19.0618 14.25 18.2564 14.25 17.4165C14.25 16.5767 13.9164 15.7712 13.3225 15.1773C12.7286 14.5835 11.9232 14.2498 11.0833 14.2498H7.91668ZM9.89584 18.9998V15.8332H10.6875C11.1074 15.8332 11.5102 16 11.8071 16.2969C12.104 16.5939 12.2708 16.9966 12.2708 17.4165C12.2708 17.8364 12.104 18.2392 11.8071 18.5361C11.5102 18.833 11.1074 18.9998 10.6875 18.9998H9.89584ZM15.4375 14.2498V23.7498H17.4167V20.5832H18.6042L19.6492 23.7498H21.7392L20.4883 19.9657C21.2642 19.3957 21.7708 18.4615 21.7708 17.4165C21.7708 16.5767 21.4372 15.7712 20.8433 15.1773C20.2495 14.5835 19.444 14.2498 18.6042 14.2498H15.4375ZM17.4167 18.9998V15.8332H18.2083C18.6283 15.8332 19.031 16 19.3279 16.2969C19.6249 16.5939 19.7917 16.9966 19.7917 17.4165C19.7917 17.8364 19.6249 18.2392 19.3279 18.5361C19.031 18.833 18.6283 18.9998 18.2083 18.9998H17.4167ZM26.9167 14.2498C24.7317 14.2498 22.9583 16.3715 22.9583 18.9998C22.9583 21.6282 24.7317 23.7498 26.9167 23.7498C29.1017 23.7498 30.875 21.6282 30.875 18.9998C30.875 16.3715 29.1017 14.2498 26.9167 14.2498ZM26.9167 16.229C28.12 16.229 29.1017 17.464 29.1017 18.9998C29.1017 20.5357 28.12 21.7707 26.9167 21.7707C25.7133 21.7707 24.7475 20.5357 24.7475 18.9998C24.7475 17.464 25.7133 16.229 26.9167 16.229Z" fill="black"/>
</svg>
