<svg width="32" height="32" viewBox="0 0 32 32" fill="none" xmlns="http://www.w3.org/2000/svg">
<path d="M26.896 8.99986H24.4146L18.3266 15.0852C18.5363 15.6196 18.5556 16.2099 18.3812 16.7568C18.2069 17.3037 17.8495 17.774 17.3692 18.0884C16.889 18.4028 16.3151 18.5423 15.744 18.4833C15.173 18.4244 14.6397 18.1706 14.2338 17.7647C13.8279 17.3588 13.5741 16.8255 13.5152 16.2545C13.4562 15.6834 13.5957 15.1095 13.9101 14.6293C14.2245 14.149 14.6948 13.7916 15.2417 13.6173C15.7886 13.4429 16.3789 13.4622 16.9133 13.6719L23 7.5852V5.10386C23.0001 4.77184 23.132 4.45342 23.3666 4.21853L25.6733 1.91186C25.716 1.8689 25.7696 1.83838 25.8283 1.82358C25.887 1.80878 25.9487 1.81026 26.0066 1.82786C26.1253 1.86253 26.2133 1.9612 26.2373 2.08253L26.8506 5.15053L29.9173 5.76386C30.0373 5.78786 30.136 5.87586 30.1706 5.99453C30.1881 6.05218 30.1897 6.11349 30.1751 6.17195C30.1606 6.23041 30.1305 6.28383 30.088 6.32653L27.78 8.6332C27.5454 8.86754 27.2275 8.99938 26.896 8.99986Z" fill="black"/>
<path d="M3.5 16C3.5 19.3152 4.81696 22.4946 7.16117 24.8388C9.50537 27.183 12.6848 28.5 16 28.5C17.6415 28.5 19.267 28.1767 20.7835 27.5485C22.3001 26.9203 23.6781 25.9996 24.8388 24.8388C25.9996 23.6781 26.9203 22.3001 27.5485 20.7836C28.1767 19.267 28.5 17.6415 28.5 16C28.5 14.8027 28.332 13.6453 28.0187 12.5507C27.9564 12.2993 27.994 12.0336 28.1237 11.8095C28.2533 11.5853 28.4649 11.4202 28.7138 11.3489C28.9627 11.2775 29.2296 11.3055 29.4583 11.427C29.687 11.5484 29.8597 11.7538 29.94 12C30.3053 13.272 30.5 14.6133 30.5 16C30.5 24.008 24.008 30.5 16 30.5C7.992 30.5 1.5 24.008 1.5 16C1.5 7.99201 7.992 1.50001 16 1.50001C17.3533 1.49867 18.6987 1.68667 20 2.05867C20.1269 2.09427 20.2455 2.15459 20.349 2.23617C20.4525 2.31775 20.5388 2.41898 20.6031 2.53404C20.6673 2.64911 20.7082 2.77573 20.7233 2.90664C20.7384 3.03755 20.7275 3.17016 20.6913 3.29685C20.655 3.42353 20.594 3.5418 20.5119 3.64485C20.4297 3.74789 20.328 3.83369 20.2126 3.8973C20.0972 3.96091 19.9703 4.00108 19.8394 4.0155C19.7084 4.02993 19.5758 4.01832 19.4493 3.98134C18.3276 3.66115 17.1666 3.49914 16 3.50001C12.6848 3.50001 9.50537 4.81697 7.16117 7.16117C4.81696 9.50538 3.5 12.6848 3.5 16Z" fill="black"/>
<path d="M9.49982 16.0002C9.50354 16.8833 9.68721 17.7564 10.0396 18.5661C10.392 19.3759 10.9058 20.1053 11.5495 20.7099C12.1932 21.3144 12.9534 21.7815 13.7836 22.0824C14.6139 22.3834 15.4967 22.512 16.3783 22.4604C17.2599 22.4088 18.1217 22.178 18.9112 21.7822C19.7006 21.3864 20.4011 20.8338 20.9698 20.1582C21.5386 19.4827 21.9637 18.6983 22.2192 17.8529C22.4747 17.0076 22.5552 16.119 22.4558 15.2415C22.4278 15.0638 22.4484 14.8818 22.5154 14.7149C22.5824 14.5479 22.6934 14.4022 22.8364 14.2931C22.9795 14.1841 23.1494 14.1158 23.3282 14.0954C23.507 14.0751 23.6879 14.1034 23.8518 14.1775C24.1865 14.3269 24.4118 14.6455 24.4412 15.0109C24.6482 16.7645 24.3037 18.5391 23.4557 20.088C22.6076 21.6369 21.2981 22.8831 19.7091 23.6533C18.1201 24.4236 16.3307 24.6798 14.5894 24.3861C12.8482 24.0925 11.2416 23.2637 9.99315 22.0149C8.74501 20.7674 7.91599 19.1625 7.62105 17.4227C7.32612 15.6829 7.57989 13.8944 8.34718 12.3053C9.11447 10.7162 10.3572 9.4053 11.9031 8.55432C13.449 7.70335 15.2214 7.35452 16.9745 7.55621C17.107 7.56851 17.2358 7.60713 17.3532 7.66983C17.4706 7.73253 17.5743 7.81803 17.6582 7.92132C17.7421 8.02462 17.8046 8.14363 17.8419 8.27138C17.8793 8.39913 17.8907 8.53305 17.8757 8.66529C17.8606 8.79753 17.8192 8.92543 17.7541 9.04148C17.6889 9.15754 17.6012 9.25942 17.4962 9.34116C17.3912 9.42289 17.2709 9.48283 17.1424 9.51747C17.0138 9.55211 16.8797 9.56075 16.7478 9.54288C15.8372 9.4376 14.9146 9.52608 14.0406 9.80253C13.1666 10.079 12.3609 10.5371 11.6764 11.1469C10.992 11.7567 10.4442 12.5044 10.0691 13.3408C9.69395 14.1772 9.49996 15.0835 9.49982 16.0002Z" fill="black"/>
</svg>
