<svg width="36" height="36" viewBox="0 0 36 36" fill="none" xmlns="http://www.w3.org/2000/svg">
<path d="M29.8126 13.5001C29.3064 13.4973 28.8044 13.5928 28.3346 13.7814L24.047 8.42919C24.3994 7.92156 24.6274 7.3381 24.7125 6.72601C24.7977 6.11392 24.7375 5.49038 24.537 4.90584C24.3365 4.3213 24.0012 3.79217 23.5582 3.36126C23.1152 2.93034 22.5771 2.60974 21.9872 2.42538C21.3974 2.24103 20.7724 2.1981 20.1629 2.30006C19.5534 2.40203 18.9764 2.64603 18.4787 3.01233C17.981 3.37863 17.5765 3.85694 17.2979 4.40856C17.0193 4.96019 16.8745 5.56965 16.8751 6.18763C16.8751 6.32571 16.8822 6.4637 16.8962 6.60107L10.3613 9.32357C9.96769 8.84074 9.46509 8.4582 8.89485 8.20739C8.3246 7.95657 7.70298 7.84465 7.08107 7.8808C6.45915 7.91695 5.85469 8.10015 5.31735 8.41535C4.78 8.73055 4.32512 9.16874 3.99006 9.69393C3.65501 10.2191 3.44935 10.8163 3.38999 11.4364C3.33063 12.0566 3.41925 12.6819 3.64858 13.2612C3.87791 13.8404 4.2414 14.3569 4.70919 14.7683C5.17697 15.1798 5.7357 15.4743 6.33946 15.6278L6.59962 22.15C6.00348 22.3535 5.46488 22.6971 5.02904 23.1519C4.5932 23.6067 4.27284 24.1595 4.09486 24.7637C3.91688 25.368 3.88648 26.0062 4.0062 26.6246C4.12592 27.2431 4.39228 27.8237 4.78291 28.3179C5.17353 28.8121 5.67702 29.2054 6.25111 29.4647C6.82519 29.724 7.45311 29.8418 8.08214 29.8081C8.71117 29.7745 9.32295 29.5904 9.86612 29.2714C10.4093 28.9524 10.868 28.5077 11.2037 27.9747L18.0001 29.8787C18.0096 30.512 18.1718 31.1337 18.4729 31.691C18.7739 32.2482 19.205 32.7246 19.7294 33.0798C20.2539 33.4349 20.8563 33.6583 21.4855 33.7309C22.1147 33.8036 22.7521 33.7234 23.3437 33.4971C23.9353 33.2708 24.4636 32.9052 24.8837 32.4312C25.3038 31.9573 25.6034 31.3889 25.7571 30.7745C25.9107 30.16 25.9138 29.5175 25.7662 28.9016C25.6185 28.2857 25.3245 27.7144 24.909 27.2364L28.7354 21.2247C29.277 21.3788 29.8453 21.4151 30.4021 21.3309C30.9589 21.2467 31.4911 21.0441 31.9629 20.7367C32.4347 20.4293 32.8351 20.0243 33.1371 19.549C33.439 19.0737 33.6355 18.5392 33.7133 17.9815C33.791 17.4237 33.7483 16.8558 33.5879 16.3161C33.4275 15.7763 33.1532 15.2772 32.7835 14.8525C32.4138 14.4277 31.9573 14.0872 31.4448 13.8539C30.9323 13.6206 30.3757 13.5 29.8126 13.5001ZM10.0112 14.6758L15.992 18.1408L10.1617 22.6717C9.76545 22.3883 9.3201 22.1809 8.84821 22.06L8.58806 15.5378C9.11842 15.3551 9.60363 15.0612 10.0112 14.6758ZM21.0334 10.1251C21.4651 10.1015 21.8899 10.0065 22.2906 9.84388L26.5782 15.1961C26.3049 15.5888 26.1056 16.0282 25.9904 16.4926L19.4415 16.8048L21.0334 10.1251ZM11.544 24.4478L17.4376 19.8648L19.6792 26.5909C19.2523 26.8919 18.8891 27.2742 18.6104 27.7159L11.8126 25.809C11.8043 25.343 11.7134 24.8821 11.544 24.4478ZM21.9376 25.8751H21.8124L19.5371 19.0506L26.0973 18.7384C26.263 19.2032 26.5149 19.6326 26.8398 20.004L23.0134 26.0158C22.663 25.9195 22.301 25.8721 21.9376 25.8751ZM17.7638 8.67669C18.0661 9.04524 18.4318 9.35672 18.8438 9.59638L17.2548 16.269L11.1418 12.7295C11.2137 12.4292 11.2501 12.1214 11.2501 11.8126C11.2501 11.6745 11.243 11.5366 11.229 11.3992L17.7638 8.67669Z" fill="black"/>
</svg>
