<svg width="23" height="22" viewBox="0 0 23 22" fill="none" xmlns="http://www.w3.org/2000/svg">
<path d="M11.5 21V5C11.5 3.114 11.5 2.172 10.914 1.586C10.328 1 9.386 1 7.5 1H5.5C3.614 1 2.672 1 2.086 1.586C1.5 2.172 1.5 3.114 1.5 5V17C1.5 18.886 1.5 19.828 2.086 20.414C2.672 21 3.614 21 5.5 21H11.5ZM11.5 21H17.5C19.386 21 20.328 21 20.914 20.414C21.5 19.828 21.5 18.886 21.5 17V11C21.5 9.114 21.5 8.172 20.914 7.586C20.328 7 19.386 7 17.5 7H11.5M18 15H15M18 11H15M8 13H5M8 9H5M8 5H5" stroke="black" stroke-width="1.5" stroke-linecap="round" stroke-linejoin="round"/>
</svg>
