<svg width="133" height="74" viewBox="0 0 133 74" fill="none" xmlns="http://www.w3.org/2000/svg">
<path d="M104.769 37.2729L110.735 49.7093L132.766 48.2184L124.351 37.782L104.769 37.2729Z" fill="white"/>
<path d="M110.735 49.964C110.643 49.964 110.582 49.9276 110.551 49.8185L104.584 37.3822C104.554 37.3095 104.554 37.2004 104.584 37.1276C104.615 37.0549 104.707 37.0186 104.768 37.0186L124.381 37.5276C124.443 37.5276 124.504 37.564 124.534 37.6004L132.918 48.0731C132.98 48.1458 133.01 48.2549 132.949 48.3276C132.918 48.4367 132.857 48.4731 132.765 48.4731L110.735 49.964ZM105.135 37.5276L110.857 49.4185L132.276 48.0003L124.259 38.0004L105.135 37.5276Z" fill="#231F20"/>
<path d="M104.769 26.8364V37.2728L110.735 49.7091H132.766V39.2L104.769 26.8364Z" fill="white"/>
<path d="M132.766 49.9638H110.766C110.674 49.9638 110.613 49.9274 110.582 49.8183L104.585 37.382C104.554 37.3456 104.554 37.3093 104.554 37.2729V26.8366C104.554 26.6911 104.646 26.582 104.768 26.582C104.799 26.582 104.83 26.582 104.83 26.582L132.827 38.9456C132.919 38.982 132.98 39.0911 132.98 39.1638V49.6729C132.98 49.8183 132.888 49.9638 132.766 49.9638ZM110.857 49.4547H132.521V39.382L104.983 27.2002V37.2002L110.857 49.4547Z" fill="#231F20"/>
<path d="M104.769 26.8364L110.98 39.2H132.766L125.055 26.8364H104.769Z" fill="white"/>
<path d="M132.766 39.4547H111.011C110.949 39.4547 110.858 39.4184 110.827 39.3456L104.585 26.982C104.554 26.9093 104.554 26.8002 104.585 26.7275C104.616 26.6548 104.707 26.582 104.769 26.582H125.055C125.116 26.582 125.177 26.6184 125.239 26.6911L132.949 39.0547C133.011 39.1274 133.011 39.2365 132.98 39.3093C132.919 39.4184 132.827 39.4547 132.766 39.4547ZM111.102 38.9456H132.307L124.933 27.0911H105.105L111.102 38.9456Z" fill="#231F20"/>
<path d="M110.735 49.964C110.613 49.964 110.521 49.8549 110.521 49.7094L110.766 39.2003C110.766 39.0549 110.858 38.9458 110.98 38.9458C111.102 38.9458 111.194 39.0549 111.194 39.2003L110.949 49.7094C110.949 49.8549 110.858 49.964 110.735 49.964Z" fill="#231F20"/>
<path d="M0.214355 73.7451H17.5023L27.6303 61.8905H60.1254L64.348 52.436H93.4162L95.0379 45.127H110.031L110.735 39.3452L89.2548 39.1997L87.7555 46.436H59.1463L54.8932 55.3815H22.9793L13.3409 65.2724H6.36457" fill="white"/>
<path d="M17.5021 74H0.214187C0.0917945 74 0 73.8909 0 73.7454C0 73.6 0.0917945 73.4909 0.214187 73.4909H17.4103L27.4771 61.7091C27.5077 61.6727 27.5689 61.6364 27.6301 61.6364H60.0029L64.1642 52.291C64.1948 52.2182 64.2866 52.1455 64.3478 52.1455H93.263L94.8541 45.0183C94.8847 44.9092 94.9765 44.8364 95.0683 44.8364H109.878L110.52 39.5637L89.4382 39.4183L88.0001 46.4364C87.9695 46.5455 87.8777 46.6182 87.7859 46.6182H59.2991L55.1072 55.4546C55.0766 55.5273 54.9848 55.6 54.9236 55.6H23.1016L13.5244 65.4182C13.4938 65.4546 13.4326 65.4909 13.402 65.4909H6.3644C6.24201 65.4909 6.15022 65.3818 6.15022 65.2364C6.15022 65.0909 6.24201 64.9818 6.3644 64.9818H13.249L22.8262 55.1637C22.8568 55.1273 22.918 55.091 22.9792 55.091H54.74L58.9319 46.2546C58.9625 46.1819 59.0543 46.1092 59.1155 46.1092H87.5718L89.0099 39.091C89.0405 38.9819 89.1323 38.9092 89.224 38.9092L110.735 39.0546C110.796 39.0546 110.857 39.091 110.888 39.1274C110.918 39.2001 110.949 39.2728 110.949 39.3455L110.245 45.1273C110.214 45.2364 110.153 45.3455 110.031 45.3455H95.1907L93.5996 52.4728C93.569 52.5819 93.4772 52.6546 93.3854 52.6546H64.4396L60.2783 62C60.2477 62.0728 60.1559 62.1455 60.0947 62.1455H27.7219L17.6551 73.9273C17.6245 73.9636 17.5633 74 17.5021 74Z" fill="#231F20"/>
<path d="M14.9932 69.6725H13.7081C13.5857 69.6725 13.4939 69.5634 13.4939 69.4179C13.4939 69.2725 13.5857 69.1634 13.7081 69.1634H14.9932C15.1156 69.1634 15.2074 69.2725 15.2074 69.4179C15.2074 69.5634 15.1156 69.6725 14.9932 69.6725ZM12.423 69.6725H11.1379C11.0155 69.6725 10.9237 69.5634 10.9237 69.4179C10.9237 69.2725 11.0155 69.1634 11.1379 69.1634H12.423C12.5454 69.1634 12.6372 69.2725 12.6372 69.4179C12.6372 69.5634 12.5454 69.6725 12.423 69.6725ZM9.85275 69.6725H8.56763C8.44524 69.6725 8.35344 69.5634 8.35344 69.4179C8.35344 69.2725 8.44524 69.1634 8.56763 69.1634H9.85275C9.97514 69.1634 10.0669 69.2725 10.0669 69.4179C10.0669 69.5634 9.97514 69.6725 9.85275 69.6725ZM7.28251 69.6725H5.99739C5.875 69.6725 5.7832 69.5634 5.7832 69.4179C5.7832 69.2725 5.875 69.1634 5.99739 69.1634H7.28251C7.4049 69.1634 7.4967 69.2725 7.4967 69.4179C7.4967 69.5634 7.4049 69.6725 7.28251 69.6725ZM16.2478 69.5997C16.1254 69.5997 16.0336 69.4906 16.0336 69.3452C16.0336 69.2725 16.0642 69.1997 16.0948 69.1634L17.0433 68.1088C17.1351 67.9997 17.2575 67.9997 17.3493 68.1088C17.4411 68.2179 17.4411 68.3634 17.3493 68.4725L16.4007 69.527C16.3701 69.5997 16.309 69.5997 16.2478 69.5997ZM18.1448 67.527C18.0224 67.527 17.9307 67.4179 17.9307 67.2725C17.9307 67.1997 17.9612 67.127 17.9918 67.0907L18.9404 66.0361C19.0322 65.927 19.1546 65.927 19.2464 66.0361C19.3382 66.1452 19.3382 66.2906 19.2464 66.3997L18.2978 67.4543C18.2672 67.527 18.206 67.527 18.1448 67.527ZM20.0419 65.4543C19.9195 65.4543 19.8277 65.3452 19.8277 65.1997C19.8277 65.127 19.8583 65.0543 19.8889 65.0179L20.8375 63.9634C20.9293 63.8907 21.0823 63.927 21.1435 64.0361C21.174 64.1088 21.174 64.2179 21.1435 64.327L20.1949 65.3452C20.1337 65.4179 20.1031 65.4543 20.0419 65.4543ZM21.9084 63.3816C21.786 63.3816 21.6942 63.2725 21.6942 63.127C21.6942 63.0543 21.7248 62.9816 21.7554 62.9452L22.704 61.8907C22.7957 61.7816 22.9181 61.7816 23.0099 61.8907C23.1017 61.9998 23.1017 62.1452 23.0099 62.2543L22.0614 63.3088C22.0308 63.3816 21.9696 63.3816 21.9084 63.3816ZM23.8055 61.3088C23.6831 61.3088 23.5913 61.1998 23.5913 61.0543C23.5913 60.9816 23.6219 60.9089 23.6525 60.8725L24.601 59.818C24.6928 59.7089 24.8152 59.7089 24.907 59.818C24.9988 59.927 24.9988 60.0725 24.907 60.1816L23.9585 61.2361C23.9279 61.3089 23.8667 61.3088 23.8055 61.3088ZM25.7026 59.2361C25.6414 59.2361 25.5802 59.1998 25.5496 59.1634C25.4578 59.0543 25.4578 58.9089 25.5496 58.7998L25.9168 58.3998C25.9474 58.3634 26.0085 58.327 26.0697 58.327H26.8653C26.9877 58.327 27.0795 58.4361 27.0795 58.5816C27.0795 58.727 26.9877 58.8361 26.8653 58.8361H26.1615L25.8556 59.1634C25.7944 59.1998 25.7332 59.2361 25.7026 59.2361ZM57.5858 58.8361H56.4231C56.3007 58.8361 56.2089 58.727 56.2089 58.5816C56.2089 58.4361 56.3007 58.327 56.4231 58.327H57.4634C57.5246 58.218 57.647 58.1452 57.7694 58.2179C57.8612 58.2907 57.8918 58.4361 57.8612 58.5452L57.8 58.6543C57.7388 58.7998 57.647 58.8361 57.5858 58.8361ZM55.1379 58.8361H53.8528C53.7304 58.8361 53.6386 58.727 53.6386 58.5816C53.6386 58.4361 53.7304 58.327 53.8528 58.327H55.1379C55.2603 58.327 55.3521 58.4361 55.3521 58.5816C55.3521 58.727 55.2603 58.8361 55.1379 58.8361ZM52.5677 58.8361H51.2826C51.1602 58.8361 51.0684 58.727 51.0684 58.5816C51.0684 58.4361 51.1602 58.327 51.2826 58.327H52.5677C52.6901 58.327 52.7819 58.4361 52.7819 58.5816C52.7819 58.727 52.6901 58.8361 52.5677 58.8361ZM49.9975 58.8361H48.7123C48.5899 58.8361 48.4982 58.727 48.4982 58.5816C48.4982 58.4361 48.5899 58.327 48.7123 58.327H49.9975C50.1199 58.327 50.2117 58.4361 50.2117 58.5816C50.2117 58.727 50.1199 58.8361 49.9975 58.8361ZM47.4272 58.8361H46.1421C46.0197 58.8361 45.9279 58.727 45.9279 58.5816C45.9279 58.4361 46.0197 58.327 46.1421 58.327H47.4272C47.5496 58.327 47.6414 58.4361 47.6414 58.5816C47.6414 58.727 47.5496 58.8361 47.4272 58.8361ZM44.857 58.8361H43.5719C43.4495 58.8361 43.3577 58.727 43.3577 58.5816C43.3577 58.4361 43.4495 58.327 43.5719 58.327H44.857C44.9794 58.327 45.0712 58.4361 45.0712 58.5816C45.0712 58.727 44.9794 58.8361 44.857 58.8361ZM42.2867 58.8361H41.0016C40.8792 58.8361 40.7874 58.727 40.7874 58.5816C40.7874 58.4361 40.8792 58.327 41.0016 58.327H42.2867C42.4091 58.327 42.5009 58.4361 42.5009 58.5816C42.5009 58.727 42.4091 58.8361 42.2867 58.8361ZM39.7165 58.8361H38.4314C38.309 58.8361 38.2172 58.727 38.2172 58.5816C38.2172 58.4361 38.309 58.327 38.4314 58.327H39.7165C39.8389 58.327 39.9307 58.4361 39.9307 58.5816C39.9307 58.727 39.8389 58.8361 39.7165 58.8361ZM37.1463 58.8361H35.8611C35.7387 58.8361 35.6469 58.727 35.6469 58.5816C35.6469 58.4361 35.7387 58.327 35.8611 58.327H37.1463C37.2687 58.327 37.3604 58.4361 37.3604 58.5816C37.3604 58.727 37.2687 58.8361 37.1463 58.8361ZM34.576 58.8361H33.2909C33.1685 58.8361 33.0767 58.727 33.0767 58.5816C33.0767 58.4361 33.1685 58.327 33.2909 58.327H34.576C34.6984 58.327 34.7902 58.4361 34.7902 58.5816C34.7902 58.727 34.6984 58.8361 34.576 58.8361ZM32.0058 58.8361H30.7207C30.5983 58.8361 30.5065 58.727 30.5065 58.5816C30.5065 58.4361 30.5983 58.327 30.7207 58.327H32.0058C32.1282 58.327 32.22 58.4361 32.22 58.5816C32.22 58.727 32.1282 58.8361 32.0058 58.8361ZM29.4355 58.8361H28.1504C28.028 58.8361 27.9362 58.727 27.9362 58.5816C27.9362 58.4361 28.028 58.327 28.1504 58.327H29.4355C29.5579 58.327 29.6497 58.4361 29.6497 58.5816C29.6497 58.727 29.5579 58.8361 29.4355 58.8361ZM58.2895 57.3816C58.2589 57.3816 58.2284 57.3816 58.1672 57.3452C58.0754 57.2725 58.0142 57.127 58.0754 56.9816L58.7179 55.6725C58.7791 55.5634 58.9015 55.5271 58.9933 55.5634C59.0851 55.6361 59.1463 55.7816 59.0851 55.8907C59.0851 55.8907 59.0851 55.8907 59.0851 55.927L58.4425 57.2361C58.4425 57.3452 58.3813 57.418 58.2895 57.3816ZM59.5747 54.7634C59.4523 54.7634 59.3605 54.6543 59.3605 54.5089C59.3605 54.4725 59.3605 54.4361 59.3911 54.3998L60.0336 53.0907C60.0948 52.9816 60.2172 52.9089 60.309 52.9816C60.309 52.9816 60.309 52.9816 60.3396 52.9816C60.4314 53.0543 60.4926 53.1998 60.4314 53.3452L59.7583 54.6907C59.7277 54.7271 59.6665 54.7634 59.5747 54.7634ZM60.8904 52.1089C60.8598 52.1089 60.8292 52.1089 60.768 52.0725C60.6762 51.9998 60.615 51.8543 60.6762 51.7452C60.6762 51.7452 60.6762 51.7089 60.7068 51.7089L61.3494 50.3998C61.4106 50.2907 61.5329 50.2543 61.6553 50.3271C61.7471 50.3998 61.7777 50.5452 61.7165 50.6907L61.074 51.9998C61.0434 52.0725 60.9516 52.1452 60.8904 52.1089ZM89.4078 49.9271H88.1227C88.0003 49.9271 87.9085 49.818 87.9085 49.6725C87.9085 49.5271 88.0003 49.418 88.1227 49.418H89.4078C89.5302 49.418 89.622 49.5271 89.622 49.6725C89.622 49.818 89.4996 49.9271 89.4078 49.9271ZM86.8376 49.9271H85.5524C85.4301 49.9271 85.3383 49.818 85.3383 49.6725C85.3383 49.5271 85.4301 49.418 85.5524 49.418H86.8376C86.96 49.418 87.0518 49.5271 87.0518 49.6725C87.0518 49.818 86.9294 49.9271 86.8376 49.9271ZM84.2673 49.9271H82.9822C82.8598 49.9271 82.768 49.818 82.768 49.6725C82.768 49.5271 82.8598 49.418 82.9822 49.418H84.2367C84.3591 49.418 84.4509 49.5271 84.4509 49.6725C84.4509 49.818 84.3591 49.9271 84.2673 49.9271C84.2367 49.9271 84.2367 49.9271 84.2673 49.9271ZM81.6971 49.9271H80.412C80.2896 49.9271 80.1978 49.818 80.1978 49.6725C80.1978 49.5271 80.2896 49.418 80.412 49.418H81.6971C81.8195 49.418 81.9113 49.5271 81.9113 49.6725C81.9113 49.818 81.7889 49.9271 81.6971 49.9271ZM79.1268 49.9271H77.8111C77.6887 49.9271 77.5969 49.818 77.5969 49.6725C77.5969 49.5271 77.6887 49.418 77.8111 49.418H79.0963C79.2187 49.418 79.3104 49.5271 79.3104 49.6725C79.3104 49.818 79.2186 49.9271 79.1268 49.9271C79.0962 49.9271 79.0962 49.9271 79.1268 49.9271ZM76.5566 49.9271H75.2715C75.1491 49.9271 75.0573 49.818 75.0573 49.6725C75.0573 49.5271 75.1491 49.418 75.2715 49.418H76.5566C76.679 49.418 76.7708 49.5271 76.7708 49.6725C76.7708 49.818 76.6484 49.9271 76.5566 49.9271ZM73.9864 49.9271H72.7012C72.5788 49.9271 72.4871 49.818 72.4871 49.6725C72.4871 49.5271 72.5788 49.418 72.7012 49.418H73.9864C74.1088 49.418 74.2006 49.5271 74.2006 49.6725C74.2006 49.818 74.0782 49.9271 73.9864 49.9271ZM71.4161 49.9271H70.131C70.0086 49.9271 69.9168 49.818 69.9168 49.6725C69.9168 49.5271 70.0086 49.418 70.131 49.418H71.3855C71.5079 49.418 71.5997 49.5271 71.5997 49.6725C71.5997 49.818 71.5079 49.9271 71.4161 49.9271C71.3855 49.9271 71.3855 49.9271 71.4161 49.9271ZM68.8459 49.9271H67.5608C67.4384 49.9271 67.3466 49.818 67.3466 49.6725C67.3466 49.5271 67.4384 49.418 67.5608 49.418H68.8459C68.9683 49.418 69.0601 49.5271 69.0601 49.6725C69.0601 49.818 68.9377 49.9271 68.8459 49.9271ZM66.2757 49.9271H64.9599C64.8375 49.9271 64.7457 49.818 64.7457 49.6725C64.7457 49.5271 64.8375 49.418 64.9599 49.418H66.2451C66.3674 49.418 66.4592 49.5271 66.4592 49.6725C66.4592 49.818 66.3674 49.9271 66.2757 49.9271C66.2451 49.9271 66.2451 49.9271 66.2757 49.9271ZM63.7054 49.9271H62.4203C62.2979 49.9271 62.2061 49.818 62.2061 49.6725C62.2061 49.5271 62.2979 49.418 62.4203 49.418H63.7054C63.8278 49.418 63.9196 49.5271 63.9196 49.6725C63.9196 49.818 63.7972 49.9271 63.7054 49.9271ZM90.234 49.1998H90.1728C90.0504 49.1634 89.9892 49.018 90.0198 48.8725L90.3564 47.3816C90.3869 47.2362 90.4787 47.1634 90.6011 47.1998C90.7235 47.2362 90.7847 47.3453 90.7541 47.4907V47.5271L90.4175 49.018C90.4175 49.1271 90.3258 49.2362 90.2034 49.2362L90.234 49.1998ZM90.8765 46.2543C90.8459 46.2543 90.8459 46.2543 90.8153 46.2543C90.6929 46.218 90.6317 46.0725 90.6623 45.9271L90.9989 44.4362C91.0295 44.2907 91.1519 44.218 91.2743 44.2907C91.3661 44.3271 91.4273 44.4725 91.4273 44.5816L91.0907 46.0725C91.0601 46.1816 90.9989 46.2907 90.8765 46.2543ZM91.5497 43.3089H91.4885C91.3661 43.2725 91.3049 43.1271 91.3355 43.018L91.4885 42.3998C91.5191 42.2907 91.6109 42.218 91.7027 42.218H92.437C92.5594 42.218 92.6512 42.3271 92.6512 42.4725C92.6512 42.618 92.5594 42.7271 92.437 42.7271H91.8557L91.7639 43.1634C91.7639 43.3089 91.6721 43.3816 91.5497 43.3816V43.3089ZM110.398 42.6907H109.113C108.991 42.6907 108.899 42.5816 108.899 42.4362C108.899 42.2907 108.991 42.1816 109.113 42.1816H110.398C110.521 42.1816 110.612 42.2907 110.612 42.4362C110.612 42.5816 110.521 42.6907 110.398 42.6907ZM107.828 42.6907H106.543C106.42 42.6907 106.329 42.5816 106.329 42.4362C106.329 42.2907 106.42 42.1816 106.543 42.1816H107.828C107.95 42.1816 108.042 42.2907 108.042 42.4362C108.042 42.5816 107.95 42.6907 107.828 42.6907ZM105.258 42.6907H103.973C103.85 42.6907 103.758 42.5816 103.758 42.4362C103.758 42.2907 103.85 42.1816 103.973 42.1816H105.258C105.38 42.1816 105.472 42.2907 105.472 42.4362C105.472 42.5816 105.38 42.6907 105.258 42.6907ZM102.687 42.6907H101.402C101.28 42.6907 101.188 42.5816 101.188 42.4362C101.188 42.2907 101.28 42.1816 101.402 42.1816H102.687C102.81 42.1816 102.902 42.2907 102.902 42.4362C102.902 42.5816 102.81 42.6907 102.687 42.6907ZM100.117 42.6907H98.832C98.7096 42.6907 98.6178 42.5816 98.6178 42.4362C98.6178 42.2907 98.7096 42.1816 98.832 42.1816H100.117C100.24 42.1816 100.331 42.2907 100.331 42.4362C100.331 42.5816 100.24 42.6907 100.117 42.6907ZM97.5469 42.6907H96.2618C96.1394 42.6907 96.0476 42.5816 96.0476 42.4362C96.0476 42.2907 96.1394 42.1816 96.2618 42.1816H97.5469C97.6693 42.1816 97.7611 42.2907 97.7611 42.4362C97.7611 42.5816 97.6693 42.6907 97.5469 42.6907ZM94.9767 42.6907H93.6915C93.5692 42.6907 93.4774 42.5816 93.4774 42.4362C93.4774 42.2907 93.5692 42.1816 93.6915 42.1816H94.9767C95.0991 42.1816 95.1908 42.2907 95.1908 42.4362C95.1908 42.5816 95.0991 42.6907 94.9767 42.6907Z" fill="#D1D3D4"/>
<path d="M14.014 68.5089C13.8916 68.5089 13.7998 68.3998 13.7998 68.2544V57.8908C13.7998 57.7453 13.8916 57.6362 14.014 57.6362C14.1364 57.6362 14.2282 57.7453 14.2282 57.8908V68.2544C14.2282 68.3635 14.1364 68.5089 14.014 68.5089Z" fill="#231F20"/>
<path d="M14.014 69.7089C14.6899 69.7089 15.2379 69.0577 15.2379 68.2543C15.2379 67.451 14.6899 66.7998 14.014 66.7998C13.338 66.7998 12.79 67.451 12.79 68.2543C12.79 69.0577 13.338 69.7089 14.014 69.7089Z" fill="#231F20"/>
<path d="M14.0138 69.927C13.2182 69.927 12.5757 69.1633 12.5757 68.2179C12.5757 67.2724 13.2182 66.5088 14.0138 66.5088C14.8093 66.5088 15.4519 67.2724 15.4519 68.2179C15.4519 69.1633 14.8093 69.927 14.0138 69.927ZM14.0138 67.0542C13.463 67.0542 13.0041 67.5997 13.0041 68.2542C13.0041 68.9088 13.463 69.4542 14.0138 69.4542C14.5646 69.4542 15.0235 68.9088 15.0235 68.2542C15.0235 67.5997 14.5646 67.0542 14.0138 67.0542Z" fill="#231F20"/>
<path d="M14.0139 58.9453C19.2356 58.9453 23.4687 53.9146 23.4687 47.709C23.4687 41.5033 19.2356 36.4727 14.0139 36.4727C8.79215 36.4727 4.55908 41.5033 4.55908 47.709C4.55908 53.9146 8.79215 58.9453 14.0139 58.9453Z" fill="#FF8300"/>
<path d="M7.98616 48.9088L9.45487 47.3452C9.54667 47.2725 9.60786 47.1634 9.66906 47.0543C9.73026 46.9452 9.79145 46.8361 9.79145 46.6907C9.79145 46.5452 9.76085 46.3998 9.66906 46.327C9.57727 46.2543 9.45487 46.1816 9.33248 46.1816C9.21009 46.1816 9.0877 46.2179 8.9959 46.3634C8.90411 46.4725 8.87351 46.6179 8.84291 46.7634L8.04736 46.727C8.04736 46.5089 8.10856 46.327 8.16975 46.1089C8.23095 45.927 8.32274 45.7816 8.44514 45.6725C8.56753 45.5634 8.72052 45.4543 8.84291 45.4179C8.9959 45.3452 9.17949 45.3452 9.36308 45.3452C9.51607 45.3452 9.69966 45.3816 9.85265 45.4179C10.0056 45.4543 10.128 45.5634 10.2504 45.6725C10.3728 45.7816 10.434 45.927 10.4952 46.0725C10.5564 46.2543 10.587 46.4725 10.587 46.6543C10.587 46.9088 10.5564 47.127 10.434 47.3452C10.4034 47.4543 10.3422 47.527 10.281 47.5998C10.2198 47.6725 10.1586 47.7452 10.0668 47.8179L8.93471 48.9816H10.587V49.8179H7.95557V48.9088H7.98616Z" fill="#231F20"/>
<path d="M11.0459 47.6727C11.0459 47.4182 11.0765 47.1273 11.1071 46.8727C11.1377 46.6182 11.2295 46.3637 11.3213 46.1455C11.4131 45.9273 11.5661 45.7455 11.7497 45.6C12.178 45.3091 12.6982 45.3091 13.1266 45.6C13.3102 45.7455 13.4325 45.9273 13.5549 46.1455C13.6467 46.3637 13.7385 46.6182 13.7691 46.8727C13.8609 47.4182 13.8609 47.9636 13.7691 48.4727C13.7385 48.7273 13.6467 48.9818 13.5549 49.2C13.4631 49.4182 13.3102 49.6 13.1266 49.7455C12.6982 50.0364 12.178 50.0364 11.7497 49.7455C11.5661 49.6 11.4131 49.4182 11.3213 49.2C11.1989 48.9818 11.1377 48.7273 11.1071 48.4727C11.0765 48.2182 11.0459 47.9273 11.0459 47.6727ZM11.8414 47.6727C11.8414 47.7818 11.8414 47.9273 11.8414 48.1091C11.8414 48.2546 11.872 48.4364 11.9026 48.5818C11.9332 48.7273 11.9944 48.8727 12.0862 48.9818C12.2698 49.2 12.5758 49.2 12.7594 48.9818C12.8512 48.8727 12.9124 48.7273 12.943 48.5818C12.9736 48.4364 13.0042 48.2546 13.0042 48.1091C13.0042 47.9273 13.0042 47.8182 13.0042 47.6727C13.0042 47.5273 13.0042 47.4182 13.0042 47.2364C13.0042 47.0909 12.9736 46.9091 12.943 46.7636C12.9124 46.6182 12.8512 46.4727 12.7594 46.3637C12.5758 46.1455 12.2698 46.1455 12.0862 46.3637C11.9944 46.4727 11.9332 46.6182 11.9026 46.7636C11.872 46.9091 11.8414 47.0909 11.8414 47.2364C11.8414 47.4182 11.8414 47.5636 11.8414 47.6727Z" fill="#231F20"/>
<path d="M14.1665 47.6727C14.1665 47.4182 14.1971 47.1273 14.2277 46.8727C14.2583 46.6182 14.3501 46.3637 14.4419 46.1455C14.5337 45.9273 14.6867 45.7455 14.8703 45.6C15.2986 45.3091 15.8188 45.3091 16.2472 45.6C16.4308 45.7455 16.5532 45.9273 16.6755 46.1455C16.7673 46.3637 16.8591 46.6182 16.8897 46.8727C16.9815 47.4182 16.9815 47.9636 16.8897 48.4727C16.8591 48.7273 16.7673 48.9818 16.6755 49.2C16.5838 49.4182 16.4308 49.6 16.2472 49.7455C15.8188 50.0364 15.2986 50.0364 14.8703 49.7455C14.6867 49.6 14.5337 49.4182 14.4419 49.2C14.3195 48.9818 14.2583 48.7273 14.2277 48.4727C14.1971 48.2182 14.1665 47.9273 14.1665 47.6727ZM14.9621 47.6727C14.9621 47.7818 14.9621 47.9273 14.9621 48.1091C14.9621 48.2546 14.9927 48.4364 15.0232 48.5818C15.0538 48.7273 15.115 48.8727 15.2068 48.9818C15.3904 49.2 15.6964 49.2 15.88 48.9818C15.9718 48.8727 16.033 48.7273 16.0636 48.5818C16.0942 48.4364 16.1248 48.2546 16.1248 48.1091C16.1248 47.9273 16.1248 47.8182 16.1248 47.6727C16.1248 47.5273 16.1248 47.4182 16.1248 47.2364C16.1248 47.0909 16.0942 46.9091 16.0636 46.7636C16.033 46.6182 15.9718 46.4727 15.88 46.3637C15.6964 46.1455 15.3904 46.1455 15.2068 46.3637C15.115 46.4727 15.0538 46.6182 15.0232 46.7636C14.9927 46.9091 14.9621 47.0909 14.9621 47.2364C14.9621 47.4182 14.9621 47.5636 14.9621 47.6727Z" fill="#231F20"/>
<path d="M18.7872 48.2909L18.6648 48.3273C18.6342 48.3273 18.573 48.3273 18.5424 48.3273C18.3895 48.3273 18.2059 48.2909 18.0529 48.2182C17.8999 48.1454 17.7775 48.0363 17.6857 47.8909C17.5939 47.7454 17.5021 47.6 17.4409 47.4182C17.3797 47.2364 17.3491 47.0545 17.3491 46.8364C17.3491 46.6182 17.3797 46.4 17.4715 46.2182C17.5327 46.0364 17.6551 45.8545 17.7775 45.7454C17.8999 45.6 18.0529 45.4909 18.2059 45.4182C18.3895 45.3455 18.573 45.3091 18.7566 45.3091C18.9402 45.3091 19.1238 45.3455 19.3074 45.4182C19.4604 45.4909 19.6134 45.6 19.7664 45.7454C19.8888 45.8909 20.0112 46.0364 20.0724 46.2182C20.1335 46.4 20.1947 46.6182 20.1641 46.8364C20.1641 46.9818 20.1641 47.1273 20.1335 47.2727C20.103 47.3818 20.0724 47.5273 20.0418 47.6364C20.0112 47.7454 19.95 47.8545 19.8888 47.9636L19.7052 48.2909L18.879 49.8182H17.8999L18.7872 48.2909ZM18.1447 46.9454C18.1447 47.1273 18.2059 47.3091 18.3283 47.4545C18.573 47.7091 18.9402 47.7091 19.2156 47.4545C19.338 47.3091 19.3992 47.1273 19.3992 46.9454C19.3992 46.7636 19.338 46.5818 19.2156 46.4364C18.9708 46.1818 18.6036 46.1818 18.3283 46.4364C18.2059 46.5454 18.1447 46.7273 18.1447 46.9454Z" fill="#231F20"/>
<path d="M52.4764 58.5092C52.354 58.5092 52.2622 58.4001 52.2622 58.2546V47.9274C52.2622 47.7819 52.354 47.6729 52.4764 47.6729C52.5988 47.6729 52.6906 47.7819 52.6906 47.9274V58.291C52.6906 58.4001 52.5988 58.5092 52.4764 58.5092Z" fill="#231F20"/>
<path d="M52.4764 59.7094C53.1523 59.7094 53.7003 59.0582 53.7003 58.2548C53.7003 57.4515 53.1523 56.8003 52.4764 56.8003C51.8004 56.8003 51.2524 57.4515 51.2524 58.2548C51.2524 59.0582 51.8004 59.7094 52.4764 59.7094Z" fill="#231F20"/>
<path d="M52.4762 59.9636C51.6806 59.9636 51.0381 59.1999 51.0381 58.2545C51.0381 57.309 51.6806 56.5454 52.4762 56.5454C53.2717 56.5454 53.9143 57.309 53.9143 58.2545C53.9143 59.1999 53.2717 59.9636 52.4762 59.9636ZM52.4762 57.0909C51.9254 57.0909 51.4665 57.6363 51.4665 58.2909C51.4665 58.9454 51.9254 59.4908 52.4762 59.4908C53.027 59.4908 53.4859 58.9454 53.4859 58.2909C53.4859 57.5999 53.027 57.0909 52.4762 57.0909Z" fill="#231F20"/>
<path d="M52.4763 48.9819C57.698 48.9819 61.9311 43.9513 61.9311 37.7456C61.9311 31.54 57.698 26.5093 52.4763 26.5093C47.2545 26.5093 43.0215 31.54 43.0215 37.7456C43.0215 43.9513 47.2545 48.9819 52.4763 48.9819Z" fill="#FF8300"/>
<path d="M53.9451 36.6185L53.1802 37.4185L52.7212 36.8003L53.9451 35.564H54.6795V40.0367H53.9145L53.9451 36.6185Z" fill="#231F20"/>
<path d="M46.4482 38.9093L47.917 37.3821C47.9781 37.3093 48.0699 37.2002 48.1311 37.0912C48.1923 36.9821 48.2535 36.873 48.2535 36.7275C48.2535 36.5821 48.2229 36.4366 48.1311 36.3639C48.0393 36.2912 47.9169 36.2184 47.7946 36.2184C47.6722 36.2184 47.5498 36.2548 47.458 36.3639C47.3662 36.473 47.3356 36.6184 47.305 36.7639L46.5094 36.6912C46.5094 36.473 46.5706 36.2912 46.6318 36.1093C46.693 35.9275 46.7848 35.7821 46.9072 35.673C47.0296 35.5639 47.1826 35.4548 47.3356 35.4184C47.4886 35.3457 47.6722 35.3457 47.8558 35.3457C48.0087 35.3457 48.1923 35.3821 48.3453 35.4184C48.4983 35.4548 48.6207 35.5639 48.7431 35.673C48.8655 35.7821 48.9573 35.9275 48.9879 36.073C49.0491 36.2548 49.0797 36.473 49.0797 36.6548C49.0797 36.8002 49.0797 36.9093 49.0491 37.0548C49.0185 37.1639 48.9879 37.273 48.9573 37.3821C48.9267 37.4912 48.8655 37.5639 48.8043 37.6366C48.7431 37.7093 48.6819 37.7821 48.6207 37.8548L47.4886 39.0184H49.1409V39.8548H46.5094L46.4482 38.9093Z" fill="#231F20"/>
<path d="M49.5083 37.7091C49.5083 37.4546 49.5389 37.1636 49.5695 36.9091C49.6001 36.6546 49.6919 36.4 49.7837 36.1455C49.8755 35.9273 50.0285 35.7455 50.2121 35.6C50.6404 35.3091 51.1606 35.3091 51.589 35.6C51.7726 35.7455 51.9255 35.9273 52.0173 36.1455C52.1091 36.3637 52.2009 36.6182 52.2315 36.9091C52.3233 37.4546 52.3233 38 52.2315 38.5091C52.2009 38.7636 52.1091 39.0182 52.0173 39.2364C51.9255 39.4546 51.7726 39.6364 51.589 39.7818C51.1606 40.0727 50.6404 40.0727 50.2121 39.7818C50.0285 39.6364 49.8755 39.4546 49.7837 39.2364C49.6919 39.0182 49.6001 38.7636 49.5695 38.5091C49.5389 38.2546 49.5083 37.9636 49.5083 37.7091ZM50.3039 37.7091C50.3039 37.8182 50.3039 37.9636 50.3039 38.1455C50.3039 38.2909 50.3345 38.4727 50.365 38.6182C50.3956 38.7636 50.4568 38.9091 50.5486 39.0182C50.7322 39.2364 51.0382 39.2364 51.2218 39.0182C51.3136 38.9091 51.3748 38.7636 51.4054 38.6182C51.436 38.4727 51.4666 38.2909 51.4972 38.1455C51.4972 38 51.5278 37.8546 51.5278 37.7091C51.5278 37.5636 51.5278 37.4546 51.4972 37.2727C51.4972 37.1273 51.4666 36.9455 51.436 36.8C51.4054 36.6546 51.3442 36.5091 51.2524 36.4C51.0688 36.1818 50.7628 36.1818 50.5792 36.4C50.4874 36.5091 50.4262 36.6546 50.3956 36.8C50.365 36.9455 50.3344 37.1273 50.3344 37.2727C50.3039 37.4546 50.3039 37.6 50.3039 37.7091Z" fill="#231F20"/>
<path d="M55.8115 37.7091C55.8115 37.4546 55.8421 37.1636 55.8727 36.9091C55.9033 36.6546 55.9951 36.4 56.0869 36.1455C56.1787 35.9273 56.3317 35.7455 56.5153 35.6C56.9436 35.3091 57.4638 35.3091 57.8922 35.6C58.0758 35.7455 58.2288 35.9273 58.3206 36.1455C58.4124 36.3637 58.5042 36.6182 58.5348 36.9091C58.6265 37.4546 58.6265 38 58.5348 38.5091C58.5042 38.7636 58.4124 39.0182 58.3206 39.2364C58.2288 39.4546 58.0758 39.6364 57.8922 39.7818C57.4638 40.0727 56.9436 40.0727 56.5153 39.7818C56.3317 39.6364 56.1787 39.4546 56.0869 39.2364C55.9951 39.0182 55.9033 38.7636 55.8727 38.5091C55.8115 38.2546 55.8115 37.9636 55.8115 37.7091ZM56.6071 37.7091C56.6071 37.8182 56.6071 37.9636 56.6377 38.1455C56.6377 38.2909 56.6683 38.4727 56.6989 38.6182C56.7295 38.7636 56.7907 38.9091 56.8825 39.0182C56.9743 39.1273 57.0966 39.2 57.219 39.1636C57.3414 39.1636 57.4638 39.1273 57.5556 39.0182C57.6474 38.9091 57.7086 38.7636 57.7392 38.6182C57.7698 38.4727 57.8004 38.2909 57.8004 38.1455C57.8004 38 57.8004 37.8546 57.8004 37.7091C57.8004 37.5636 57.8004 37.4546 57.8004 37.2727C57.8004 37.1273 57.7698 36.9455 57.7392 36.8C57.7086 36.6546 57.6474 36.5091 57.5556 36.4C57.4638 36.2909 57.3414 36.2182 57.219 36.2546C57.0966 36.2546 56.9743 36.2909 56.8825 36.4C56.7907 36.5091 56.7295 36.6546 56.6989 36.8C56.6683 36.9455 56.6377 37.1273 56.6377 37.2727C56.6071 37.4546 56.6071 37.6 56.6071 37.7091Z" fill="#231F20"/>
<path d="M83.3499 49.3825C83.2275 49.3825 83.1357 49.2734 83.1357 49.1279V38.7643C83.1357 38.6189 83.2275 38.5098 83.3499 38.5098C83.4723 38.5098 83.5641 38.6189 83.5641 38.7643V49.1279C83.5641 49.2734 83.4723 49.3825 83.3499 49.3825Z" fill="#231F20"/>
<path d="M83.3499 50.5824C84.0259 50.5824 84.5738 49.9312 84.5738 49.1279C84.5738 48.3246 84.0259 47.6733 83.3499 47.6733C82.6739 47.6733 82.126 48.3246 82.126 49.1279C82.126 49.9312 82.6739 50.5824 83.3499 50.5824Z" fill="#231F20"/>
<path d="M83.3497 50.8005C82.5542 50.8005 81.9116 50.0369 81.9116 49.0914C81.9116 48.146 82.5542 47.3823 83.3497 47.3823C84.1453 47.3823 84.7878 48.146 84.7878 49.0914C84.7878 50.0369 84.1453 50.8005 83.3497 50.8005ZM83.3497 47.9278C82.799 47.9278 82.34 48.4732 82.34 49.1278C82.34 49.7823 82.799 50.3278 83.3497 50.3278C83.9005 50.3278 84.3595 49.7823 84.3595 49.1278C84.3289 48.4732 83.9005 47.9278 83.3497 47.9278Z" fill="#231F20"/>
<path d="M83.3498 39.855C88.5716 39.855 92.8046 34.8243 92.8046 28.6187C92.8046 22.413 88.5716 17.3823 83.3498 17.3823C78.1281 17.3823 73.895 22.413 73.895 28.6187C73.895 34.8243 78.1281 39.855 83.3498 39.855Z" fill="#FF8300"/>
<path d="M77.3218 29.7821L78.7905 28.2185C78.8823 28.1458 78.9435 28.0367 79.0047 27.9276C79.0659 27.8185 79.1271 27.7094 79.1271 27.5639C79.1271 27.4185 79.0965 27.273 78.9741 27.2003C78.8823 27.1276 78.7599 27.0549 78.6375 27.0549C78.5151 27.0549 78.3927 27.0912 78.3009 27.2003C78.2091 27.3094 78.1785 27.4549 78.1479 27.6003L77.3524 27.5276C77.3524 27.3094 77.4136 27.1276 77.4748 26.9458C77.536 26.7639 77.6278 26.6185 77.7501 26.5094C77.8725 26.4003 78.0255 26.2912 78.1479 26.2549C78.3009 26.1821 78.4845 26.1821 78.6681 26.1821C78.8211 26.1821 79.0047 26.2185 79.1577 26.2549C79.3107 26.2912 79.4331 26.4003 79.5554 26.5094C79.6778 26.6185 79.7696 26.7639 79.8308 26.9094C79.892 27.0912 79.9226 27.3094 79.9226 27.4912C79.9226 27.6367 79.9226 27.7458 79.892 27.8912C79.8614 28.0003 79.8308 28.1094 79.8002 28.2185C79.7696 28.3276 79.7084 28.4003 79.6472 28.473C79.586 28.5458 79.5248 28.6185 79.4636 28.6912L78.3315 29.8548H80.0144V30.6912H77.383L77.3218 29.7821Z" fill="#231F20"/>
<path d="M80.3818 28.5458C80.3818 28.2912 80.4124 28.0003 80.443 27.7458C80.4736 27.4912 80.5654 27.2367 80.6572 27.0185C80.749 26.8003 80.902 26.6185 81.0856 26.4731C81.514 26.1822 82.0341 26.1822 82.4625 26.4731C82.6461 26.6185 82.7991 26.8003 82.8909 27.0185C82.9827 27.2367 83.0745 27.4912 83.1051 27.7458C83.1969 28.2912 83.1969 28.8367 83.1051 29.3458C83.0745 29.6003 82.9827 29.8549 82.8909 30.1094C82.7991 30.3276 82.6461 30.5094 82.4625 30.6549C82.0341 30.9458 81.514 30.9458 81.0856 30.6549C80.902 30.5094 80.749 30.3276 80.6572 30.1094C80.5348 29.8912 80.4736 29.6367 80.443 29.3458C80.3818 29.0912 80.3818 28.8003 80.3818 28.5458ZM81.1774 28.5458C81.1774 28.6549 81.1774 28.8003 81.1774 28.9821C81.1774 29.1276 81.208 29.3094 81.2386 29.4549C81.2692 29.6003 81.3304 29.7458 81.4222 29.8549C81.6058 30.0731 81.9117 30.0731 82.0953 29.8549C82.1871 29.7458 82.2483 29.6003 82.2789 29.4549C82.3095 29.3094 82.3401 29.1276 82.3401 28.9821C82.3401 28.8367 82.3401 28.6912 82.3401 28.5458C82.3401 28.4003 82.3401 28.2912 82.3401 28.1094C82.3401 27.964 82.3095 27.7821 82.2789 27.6367C82.2483 27.4912 82.1871 27.3822 82.0953 27.2731C81.9117 27.0549 81.6058 27.0549 81.4222 27.2731C81.3304 27.3822 81.2692 27.4912 81.2386 27.6367C81.208 27.7821 81.1774 27.964 81.1774 28.1094C81.1774 28.2912 81.1774 28.4367 81.1774 28.5458Z" fill="#231F20"/>
<path d="M83.5947 29.7821L85.0634 28.2185C85.1552 28.1458 85.2164 28.0367 85.2776 27.9276C85.3388 27.8185 85.4 27.7094 85.4 27.5639C85.4 27.4185 85.3694 27.273 85.247 27.2003C85.1552 27.1276 85.0328 27.0549 84.9105 27.0549C84.7881 27.0549 84.6657 27.0912 84.5739 27.2003C84.4821 27.3094 84.4515 27.4549 84.4209 27.6003L83.6253 27.5276C83.6253 27.3094 83.6559 27.1276 83.7477 26.9458C83.8089 26.7639 83.9007 26.6185 84.0231 26.5094C84.1455 26.4003 84.2985 26.2912 84.4515 26.2549C84.6045 26.1821 84.7881 26.1821 84.9716 26.1821C85.1246 26.1821 85.3082 26.2185 85.4612 26.2549C85.6142 26.2912 85.7366 26.4003 85.859 26.5094C85.9814 26.6185 86.0732 26.7639 86.1038 26.9094C86.165 27.0912 86.1956 27.3094 86.1956 27.4912C86.1956 27.6367 86.1956 27.7458 86.165 27.8912C86.1344 28.0003 86.1038 28.1094 86.0732 28.2185C86.0426 28.3276 85.9814 28.4003 85.9202 28.473C85.859 28.5458 85.7978 28.6185 85.7366 28.6912L84.6045 29.8548H86.2874V30.6912H83.6559L83.5947 29.7821Z" fill="#231F20"/>
<path d="M86.5015 28.5458C86.5015 28.2912 86.5321 28.0003 86.5627 27.7458C86.5933 27.4912 86.6851 27.2367 86.7768 27.0185C86.8686 26.8003 87.0216 26.6185 87.2052 26.4731C87.6336 26.1822 88.1538 26.1822 88.5821 26.4731C88.7657 26.6185 88.9187 26.8003 89.0105 27.0185C89.1023 27.2367 89.1941 27.4912 89.2247 27.7458C89.3165 28.2912 89.3165 28.8367 89.2247 29.3458C89.1941 29.6003 89.1023 29.8549 89.0105 30.1094C88.9187 30.3276 88.7657 30.5094 88.5821 30.6549C88.1538 30.9458 87.6336 30.9458 87.2052 30.6549C87.0216 30.5094 86.8686 30.3276 86.7768 30.1094C86.6545 29.8912 86.5933 29.6367 86.5627 29.3458C86.5015 29.0912 86.5015 28.8003 86.5015 28.5458ZM87.297 28.5458C87.297 28.6549 87.297 28.8003 87.297 28.9821C87.297 29.1276 87.3276 29.3094 87.3582 29.4549C87.3888 29.6003 87.45 29.7458 87.5418 29.8549C87.7254 30.0731 88.0314 30.0731 88.215 29.8549C88.3068 29.7458 88.368 29.6003 88.3986 29.4549C88.4291 29.3094 88.4597 29.1276 88.4597 28.9821C88.4597 28.8367 88.4597 28.6912 88.4597 28.5458C88.4597 28.4003 88.4597 28.2912 88.4597 28.1094C88.4597 27.964 88.4291 27.7821 88.3986 27.6367C88.368 27.4912 88.3068 27.3822 88.215 27.2731C88.0314 27.0549 87.7254 27.0549 87.5418 27.2731C87.45 27.3822 87.3888 27.4912 87.3582 27.6367C87.3276 27.7821 87.297 27.964 87.297 28.1094C87.297 28.2912 87.297 28.4367 87.297 28.5458Z" fill="#231F20"/>
<path d="M119.119 32.0363C118.997 32.0363 118.905 31.9272 118.905 31.7817V21.4181C118.905 21.2727 118.997 21.1636 119.119 21.1636C119.241 21.1636 119.333 21.2727 119.333 21.4181V31.7817C119.333 31.8908 119.241 32.0363 119.119 32.0363Z" fill="#231F20"/>
<path d="M119.119 33.2362C119.795 33.2362 120.343 32.585 120.343 31.7817C120.343 30.9784 119.795 30.3271 119.119 30.3271C118.443 30.3271 117.895 30.9784 117.895 31.7817C117.895 32.585 118.443 33.2362 119.119 33.2362Z" fill="#231F20"/>
<path d="M119.119 33.4543C118.323 33.4543 117.681 32.6907 117.681 31.7452C117.681 30.7998 118.323 30.0361 119.119 30.0361C119.914 30.0361 120.557 30.7998 120.557 31.7452C120.557 32.6907 119.914 33.4543 119.119 33.4543ZM119.119 30.5816C118.568 30.5816 118.109 31.127 118.109 31.7816C118.109 32.4361 118.568 32.9816 119.119 32.9816C119.67 32.9816 120.129 32.4361 120.129 31.7816C120.129 31.127 119.7 30.5816 119.119 30.5816Z" fill="#231F20"/>
<path d="M119.119 22.4727C124.341 22.4727 128.574 17.442 128.574 11.2363C128.574 5.03068 124.341 0 119.119 0C113.897 0 109.664 5.03068 109.664 11.2363C109.664 17.442 113.897 22.4727 119.119 22.4727Z" fill="#FF8300"/>
<path d="M113.122 12.4364L114.59 10.8728C114.651 10.8001 114.743 10.691 114.804 10.5819C114.866 10.4728 114.927 10.3637 114.927 10.2182C114.927 10.0728 114.896 9.92733 114.774 9.85461C114.682 9.78188 114.56 9.70915 114.437 9.70915C114.315 9.70915 114.193 9.74551 114.101 9.89097C114.009 10.0001 113.978 10.1455 113.948 10.291L113.152 10.2182C113.152 10.0001 113.213 9.81824 113.275 9.60006C113.336 9.41824 113.428 9.27279 113.55 9.1637C113.672 9.0546 113.825 8.94552 113.948 8.90915C114.101 8.83642 114.284 8.83643 114.468 8.83643C114.621 8.83643 114.804 8.87279 114.957 8.90915C115.11 8.94552 115.233 9.0546 115.355 9.1637C115.478 9.27279 115.569 9.41824 115.6 9.5637C115.661 9.74551 115.692 9.9637 115.692 10.1455C115.692 10.291 115.692 10.4001 115.661 10.5455C115.631 10.6546 115.6 10.7637 115.569 10.8728C115.539 10.9819 115.478 11.0546 115.416 11.1273C115.355 11.2001 115.294 11.2728 115.233 11.3455L114.101 12.5091H115.784V13.3455H113.152L113.122 12.4364Z" fill="#231F20"/>
<path d="M116.182 11.1998C116.182 10.9453 116.212 10.6544 116.243 10.3998C116.273 10.1453 116.365 9.89074 116.457 9.63619C116.549 9.41801 116.702 9.23619 116.885 9.09074C117.314 8.79983 117.834 8.79983 118.262 9.09074C118.446 9.23619 118.599 9.41801 118.691 9.63619C118.782 9.85437 118.874 10.1089 118.905 10.3998C118.997 10.9453 118.997 11.4907 118.905 11.9998C118.874 12.2544 118.782 12.5089 118.691 12.7271C118.599 12.9453 118.446 13.1271 118.262 13.2725C117.834 13.5635 117.314 13.5635 116.885 13.2725C116.702 13.1271 116.549 12.9453 116.457 12.7271C116.365 12.5089 116.273 12.2544 116.243 11.9998C116.182 11.7453 116.182 11.4544 116.182 11.1998ZM116.977 11.1998C116.977 11.3089 116.977 11.4544 116.977 11.6362C116.977 11.7816 117.008 11.9635 117.038 12.1089C117.069 12.2544 117.13 12.3998 117.222 12.5089C117.314 12.618 117.436 12.6907 117.559 12.6544C117.681 12.6544 117.803 12.618 117.895 12.5089C117.987 12.3998 118.048 12.2544 118.079 12.1089C118.109 11.9635 118.14 11.7816 118.14 11.6362C118.14 11.4907 118.14 11.3453 118.14 11.1998C118.14 11.0544 118.14 10.9453 118.14 10.7635C118.14 10.618 118.109 10.4362 118.079 10.2907C118.048 10.1453 117.987 9.99983 117.895 9.89074C117.803 9.78165 117.681 9.70892 117.559 9.74528C117.436 9.74528 117.314 9.78165 117.222 9.89074C117.13 9.99983 117.069 10.1453 117.038 10.2907C117.008 10.4362 116.977 10.618 116.977 10.7635C116.977 10.9453 116.977 11.0907 116.977 11.1998Z" fill="#231F20"/>
<path d="M119.394 12.4364L120.863 10.8728C120.955 10.8001 121.016 10.691 121.077 10.5819C121.169 10.4728 121.199 10.3637 121.199 10.2182C121.199 10.0728 121.169 9.92733 121.046 9.85461C120.955 9.78188 120.832 9.70915 120.71 9.70915C120.587 9.70915 120.465 9.74551 120.373 9.89097C120.281 10.0001 120.251 10.1455 120.22 10.291L119.425 10.2182C119.425 10.0001 119.486 9.81824 119.547 9.60006C119.608 9.41824 119.7 9.27279 119.822 9.1637C119.945 9.0546 120.098 8.94552 120.22 8.90915C120.373 8.83642 120.557 8.83643 120.74 8.83643C120.893 8.83643 121.077 8.87279 121.23 8.90915C121.383 8.94552 121.505 9.0546 121.628 9.1637C121.75 9.27279 121.842 9.41824 121.872 9.5637C121.934 9.74551 121.964 9.9637 121.964 10.1455C121.964 10.291 121.964 10.4001 121.934 10.5455C121.903 10.6546 121.872 10.7637 121.842 10.8728C121.811 10.9819 121.75 11.0546 121.689 11.1273C121.628 11.2001 121.567 11.2728 121.505 11.3455L120.343 12.5455H122.025V13.3819H119.394V12.4364Z" fill="#231F20"/>
<path d="M124.137 9.9271L123.372 10.7271L122.913 10.1089L124.137 8.87256H124.871V13.3453H124.106L124.137 9.9271Z" fill="#231F20"/>
<path d="M21.5415 21.3455H3.21321C3.09082 21.3455 2.99902 21.2364 2.99902 21.091C2.99902 20.9455 3.09082 20.8364 3.21321 20.8364H21.5109C21.6333 20.8364 21.7251 20.9455 21.7251 21.091C21.7557 21.2364 21.6639 21.3455 21.5415 21.3455Z" fill="#D1D3D4"/>
<path d="M21.5415 25.7093H3.21321C3.09082 25.7093 2.99902 25.6002 2.99902 25.4547C2.99902 25.3093 3.09082 25.2002 3.21321 25.2002H21.5109C21.6333 25.2002 21.7251 25.3093 21.7251 25.4547C21.7557 25.5638 21.6639 25.7093 21.5415 25.7093Z" fill="#D1D3D4"/>
<path d="M17.3801 30.0364H3.21321C3.09082 30.0364 2.99902 29.9273 2.99902 29.7819C2.99902 29.6364 3.09082 29.5273 3.21321 29.5273H17.3801C17.5025 29.5273 17.5943 29.6364 17.5943 29.7819C17.5943 29.9273 17.5025 30.0364 17.3801 30.0364Z" fill="#D1D3D4"/>
<path d="M60.4318 8.18194H42.1341C42.0117 8.18194 41.9199 8.07285 41.9199 7.9274C41.9199 7.78194 42.0117 7.67285 42.1341 7.67285H60.4318C60.5542 7.67285 60.646 7.78194 60.646 7.9274C60.646 8.07285 60.5542 8.18194 60.4318 8.18194Z" fill="#D1D3D4"/>
<path d="M60.4318 12.5457H42.1341C42.0117 12.5457 41.9199 12.4366 41.9199 12.2912C41.9199 12.1457 42.0117 12.0366 42.1341 12.0366H60.4318C60.5542 12.0366 60.646 12.1457 60.646 12.2912C60.646 12.4003 60.5542 12.5457 60.4318 12.5457Z" fill="#D1D3D4"/>
<path d="M56.2703 16.8729H42.1033C41.981 16.8729 41.8892 16.7638 41.8892 16.6183C41.8892 16.4729 41.981 16.3638 42.1033 16.3638H56.2703C56.3927 16.3638 56.4845 16.4729 56.4845 16.6183C56.4845 16.7638 56.3927 16.8729 56.2703 16.8729Z" fill="#D1D3D4"/>
<path d="M93.7226 62.6907H75.3944C75.272 62.6907 75.1802 62.5816 75.1802 62.4362C75.1802 62.2907 75.272 62.1816 75.3944 62.1816H93.7226C93.845 62.1816 93.9368 62.2907 93.9368 62.4362C93.9368 62.5816 93.845 62.6907 93.7226 62.6907Z" fill="#D1D3D4"/>
<path d="M93.7226 67.0545H75.3944C75.272 67.0545 75.1802 66.9454 75.1802 66.7999C75.1802 66.6545 75.272 66.5454 75.3944 66.5454H93.7226C93.845 66.5454 93.9368 66.6545 93.9368 66.7999C93.9368 66.9454 93.845 67.0545 93.7226 67.0545Z" fill="#D1D3D4"/>
<path d="M89.561 71.3816H75.4246C75.3022 71.3816 75.2104 71.2726 75.2104 71.1271C75.2104 70.9816 75.3022 70.8726 75.4246 70.8726H89.561C89.6833 70.8726 89.7751 70.9816 89.7751 71.1271C89.7751 71.2726 89.6833 71.3816 89.561 71.3816Z" fill="#D1D3D4"/>
<path d="M129.736 55.6365H111.439C111.316 55.6365 111.225 55.5274 111.225 55.382C111.225 55.2365 111.316 55.1274 111.439 55.1274H129.736C129.859 55.1274 129.951 55.2365 129.951 55.382C129.951 55.5274 129.859 55.6365 129.736 55.6365Z" fill="#D1D3D4"/>
<path d="M129.736 59.9637H111.439C111.316 59.9637 111.225 59.8546 111.225 59.7091C111.225 59.5637 111.316 59.4546 111.439 59.4546H129.736C129.859 59.4546 129.951 59.5637 129.951 59.7091C129.951 59.8546 129.859 59.9637 129.736 59.9637Z" fill="#D1D3D4"/>
<path d="M125.575 64.3274H111.408C111.286 64.3274 111.194 64.2184 111.194 64.0729C111.194 63.9274 111.286 63.8184 111.408 63.8184H125.575C125.697 63.8184 125.789 63.9274 125.789 64.0729C125.789 64.182 125.697 64.3274 125.575 64.3274Z" fill="#D1D3D4"/>
</svg>
