<svg width="25" height="24" viewBox="0 0 25 24" fill="none" xmlns="http://www.w3.org/2000/svg">
<path d="M21.4999 7C21.7547 7.00028 21.9999 7.09788 22.1852 7.27285C22.3706 7.44782 22.4821 7.68695 22.497 7.94139C22.512 8.19584 22.4292 8.44638 22.2656 8.64183C22.102 8.83729 21.87 8.9629 21.6169 8.993L21.4999 9V19C21.7547 19.0003 21.9999 19.0979 22.1852 19.2728C22.3706 19.4478 22.4821 19.687 22.497 19.9414C22.512 20.1958 22.4292 20.4464 22.2656 20.6418C22.102 20.8373 21.87 20.9629 21.6169 20.993L21.4999 21H3.49987C3.24499 20.9997 2.99984 20.9021 2.8145 20.7272C2.62916 20.5522 2.51763 20.313 2.5027 20.0586C2.48776 19.8042 2.57054 19.5536 2.73413 19.3582C2.89772 19.1627 3.12977 19.0371 3.38287 19.007L3.49987 19V9C3.24499 8.99972 2.99984 8.90212 2.8145 8.72715C2.62916 8.55218 2.51763 8.31305 2.5027 8.05861C2.48776 7.80416 2.57054 7.55362 2.73413 7.35817C2.89772 7.16271 3.12977 7.0371 3.38287 7.007L3.49987 7H21.4999ZM19.4999 9H5.49987V19H7.49987V12C7.49987 11.7348 7.60523 11.4804 7.79276 11.2929C7.9803 11.1054 8.23465 11 8.49987 11C8.76509 11 9.01944 11.1054 9.20698 11.2929C9.39451 11.4804 9.49987 11.7348 9.49987 12V19H11.4999V12C11.4999 11.7348 11.6052 11.4804 11.7928 11.2929C11.9803 11.1054 12.2347 11 12.4999 11C12.7651 11 13.0194 11.1054 13.207 11.2929C13.3945 11.4804 13.4999 11.7348 13.4999 12V19H15.4999V12C15.4999 11.7348 15.6052 11.4804 15.7928 11.2929C15.9803 11.1054 16.2347 11 16.4999 11C16.7651 11 17.0194 11.1054 17.207 11.2929C17.3945 11.4804 17.4999 11.7348 17.4999 12V19H19.4999V9ZM18.4999 4C18.7651 4 19.0194 4.10536 19.207 4.29289C19.3945 4.48043 19.4999 4.73478 19.4999 5C19.4999 5.26522 19.3945 5.51957 19.207 5.70711C19.0194 5.89464 18.7651 6 18.4999 6H6.49987C6.23465 6 5.9803 5.89464 5.79276 5.70711C5.60523 5.51957 5.49987 5.26522 5.49987 5C5.49987 4.73478 5.60523 4.48043 5.79276 4.29289C5.9803 4.10536 6.23465 4 6.49987 4H18.4999Z" fill="white"/>
</svg>
