<svg width="104" height="71" viewBox="0 0 104 71" fill="none" xmlns="http://www.w3.org/2000/svg">
<path d="M95.6085 67.0386V69.9673C95.6085 70.4408 90.8713 70.8246 85.0277 70.8246C79.184 70.8246 74.4468 70.4408 74.4468 69.9673V67.0386H95.6085Z" fill="#E59F39"/>
<path d="M87.9512 70.7915V67.0386H95.6084V69.9673C95.6084 70.3587 92.3728 70.6887 87.9512 70.7915Z" fill="#FFAA0F"/>
<path d="M87.5954 70.7992C86.7735 70.8158 85.9135 70.8246 85.0281 70.8246C83.7089 70.8246 82.4459 70.8051 81.2812 70.7693V67.0386H87.5955L87.5954 70.7992Z" fill="#EAB054"/>
<path d="M80.8568 70.7559C77.087 70.6248 74.4468 70.3213 74.4468 69.9678V67.0391H80.8568V70.7559Z" fill="#EAB054"/>
<path d="M85.0277 67.8645C90.8713 67.8645 95.6085 67.4807 95.6085 67.0072C95.6085 66.5337 90.8713 66.1499 85.0277 66.1499C79.184 66.1499 74.4468 66.5337 74.4468 67.0072C74.4468 67.4807 79.184 67.8645 85.0277 67.8645Z" fill="#EB690E"/>
<path d="M76.3135 67.0084C76.3135 67.3367 80.2145 67.6028 85.0266 67.6028C89.8388 67.6028 93.7398 67.3367 93.7398 67.0084C93.7398 66.6802 89.8388 66.4141 85.0266 66.4141C80.2145 66.414 76.3135 66.6801 76.3135 67.0084Z" fill="#F7CC7F"/>
<path d="M97.4182 63.9395V66.8682C97.4182 67.3417 92.6809 67.7255 86.8373 67.7255C80.9936 67.7255 76.2563 67.3417 76.2563 66.8682V63.9395H97.4182Z" fill="#EB690E"/>
<path d="M89.7607 67.6924V63.9395H97.418V66.8682C97.418 67.2595 94.1824 67.5896 89.7607 67.6924Z" fill="#FFAA0F"/>
<path d="M89.405 67.7001C88.583 67.7167 87.7231 67.7255 86.8377 67.7255C85.5184 67.7255 84.2555 67.7059 83.0908 67.6702V63.9395H89.405L89.405 67.7001Z" fill="#FFAA0F"/>
<path d="M82.6664 67.6564C78.8966 67.5252 76.2563 67.2217 76.2563 66.8682V63.9395H82.6664V67.6564Z" fill="#EAB054"/>
<path d="M86.8372 64.7658C92.6809 64.7658 97.4181 64.382 97.4181 63.9086C97.4181 63.4351 92.6809 63.0513 86.8372 63.0513C80.9936 63.0513 76.2563 63.4351 76.2563 63.9086C76.2563 64.382 80.9936 64.7658 86.8372 64.7658Z" fill="#EB690E"/>
<path d="M86.8377 64.5023C91.6498 64.5023 95.5508 64.2362 95.5508 63.9079C95.5508 63.5796 91.6498 63.3135 86.8377 63.3135C82.0255 63.3135 78.1245 63.5796 78.1245 63.9079C78.1245 64.2362 82.0255 64.5023 86.8377 64.5023Z" fill="#F7CC7F"/>
<path d="M96.2141 60.7588V63.6875C96.2141 64.161 91.4768 64.5448 85.6332 64.5448C79.7895 64.5448 75.0522 64.161 75.0522 63.6875V60.7588H96.2141Z" fill="#EB690E"/>
<path d="M88.5557 64.5112V60.7583H96.2129V63.6871C96.2129 64.0783 92.9773 64.4084 88.5557 64.5112Z" fill="#FFAA0F"/>
<path d="M88.1999 64.5189C87.378 64.5355 86.518 64.5444 85.6326 64.5444C84.3134 64.5444 83.0504 64.5248 81.8857 64.489V60.7583H88.2L88.1999 64.5189Z" fill="#FFAA0F"/>
<path d="M81.4613 64.4752C77.6916 64.3441 75.0513 64.0406 75.0513 63.6871V60.7583H81.4613V64.4752Z" fill="#EAB054"/>
<path d="M85.6331 61.5847C91.4768 61.5847 96.214 61.2009 96.214 60.7274C96.214 60.2539 91.4768 59.8701 85.6331 59.8701C79.7895 59.8701 75.0522 60.2539 75.0522 60.7274C75.0522 61.2009 79.7895 61.5847 85.6331 61.5847Z" fill="#EB690E"/>
<path d="M76.9189 60.7277C76.9189 61.056 80.82 61.3221 85.6321 61.3221C90.4442 61.3221 94.3452 61.056 94.3452 60.7277C94.3452 60.3994 90.4442 60.1333 85.6321 60.1333C80.82 60.1333 76.9189 60.3994 76.9189 60.7277Z" fill="#F7CC7F"/>
<path d="M97.4182 57.6206V60.5494C97.4182 61.0229 92.6809 61.4066 86.8373 61.4066C80.9936 61.4066 76.2563 61.0229 76.2563 60.5494V57.6206H97.4182Z" fill="#EB690E"/>
<path d="M89.7607 61.3735V57.6206H97.418V60.5494C97.418 60.9406 94.1824 61.2707 89.7607 61.3735Z" fill="#FFAA0F"/>
<path d="M89.405 61.3812C88.583 61.3978 87.7231 61.4066 86.8377 61.4066C85.5184 61.4066 84.2555 61.3871 83.0908 61.3514V57.6206H89.405L89.405 61.3812Z" fill="#FFAA0F"/>
<path d="M82.6664 61.3375C78.8966 61.2064 76.2563 60.9029 76.2563 60.5494V57.6206H82.6664V61.3375Z" fill="#EAB054"/>
<path d="M86.8372 58.4465C92.6809 58.4465 97.4181 58.0627 97.4181 57.5892C97.4181 57.1158 92.6809 56.7319 86.8372 56.7319C80.9936 56.7319 76.2563 57.1158 76.2563 57.5892C76.2563 58.0627 80.9936 58.4465 86.8372 58.4465Z" fill="#EB690E"/>
<path d="M78.1245 57.5895C78.1245 57.9178 82.0255 58.1839 86.8377 58.1839C91.6498 58.1839 95.5508 57.9178 95.5508 57.5895C95.5508 57.2613 91.6498 56.9951 86.8377 56.9951C82.0255 56.9951 78.1245 57.2612 78.1245 57.5895Z" fill="#FDD88C"/>
<path d="M94.2072 54.6602V57.5889C94.2072 58.0624 89.47 58.4462 83.6263 58.4462C77.7827 58.4462 73.0454 58.0624 73.0454 57.5889V54.6602H94.2072Z" fill="#EB690E"/>
<path d="M86.5508 58.4131V54.6602H94.208V57.5889C94.2079 57.9802 90.9724 58.3103 86.5508 58.4131Z" fill="#FFAA0F"/>
<path d="M86.1941 58.4208C85.3721 58.4374 84.5121 58.4462 83.6268 58.4462C82.3075 58.4462 81.0446 58.4266 79.8799 58.3909V54.6602H86.1941L86.1941 58.4208Z" fill="#FFAA0F"/>
<path d="M79.4555 58.3771C75.6857 58.2459 73.0454 57.9424 73.0454 57.5889V54.6602H79.4555V58.3771Z" fill="#EAB054"/>
<path d="M73.0454 54.6288C73.0454 55.1023 77.7827 55.4861 83.6263 55.4861C89.47 55.4861 94.2072 55.1023 94.2072 54.6288C94.2072 54.1553 89.47 53.7715 83.6263 53.7715C77.7827 53.7715 73.0454 54.1553 73.0454 54.6288Z" fill="#EB690E"/>
<path d="M74.9131 54.6286C74.9131 54.9568 78.8141 55.223 83.6262 55.223C88.4384 55.223 92.3394 54.9568 92.3394 54.6286C92.3394 54.3003 88.4384 54.0342 83.6262 54.0342C78.8141 54.0342 74.9131 54.3004 74.9131 54.6286Z" fill="#F7CC7F"/>
<path d="M96.5617 51.561V54.4898C96.5617 54.9633 91.8244 55.3471 85.9808 55.3471C80.1371 55.3471 75.3999 54.9633 75.3999 54.4898V51.561H96.5617Z" fill="#EB690E"/>
<path d="M88.9043 55.3139V51.561H96.5615V54.4898C96.5615 54.8811 93.3259 55.2112 88.9043 55.3139Z" fill="#FFAA0F"/>
<path d="M88.5485 55.3217C87.7266 55.3382 86.8666 55.3471 85.9813 55.3471C84.662 55.3471 83.3991 55.3275 82.2344 55.2918V51.561H88.5486L88.5485 55.3217Z" fill="#FFAA0F"/>
<path d="M81.8099 55.2779C78.0401 55.1468 75.3999 54.8433 75.3999 54.4898V51.561H81.8099V55.2779Z" fill="#FFAA0F"/>
<path d="M85.9808 52.3869C91.8244 52.3869 96.5617 52.0031 96.5617 51.5297C96.5617 51.0562 91.8244 50.6724 85.9808 50.6724C80.1371 50.6724 75.3999 51.0562 75.3999 51.5297C75.3999 52.0031 80.1371 52.3869 85.9808 52.3869Z" fill="#EB690E"/>
<path d="M77.2681 51.53C77.2681 51.8582 81.1691 52.1243 85.9812 52.1243C90.7934 52.1243 94.6944 51.8582 94.6944 51.53C94.6944 51.2017 90.7934 50.9355 85.9812 50.9355C81.1691 50.9355 77.2681 51.2017 77.2681 51.53Z" fill="#F7CC7F"/>
<path d="M95.8625 48.3799V51.3086C95.8625 51.7821 91.1252 52.1659 85.2816 52.1659C79.4379 52.1659 74.7007 51.7821 74.7007 51.3086V48.3799H95.8625Z" fill="#EB690E"/>
<path d="M88.2046 52.1328V48.3799H95.8618V51.3086C95.8618 51.6999 92.6263 52.03 88.2046 52.1328Z" fill="#FFAA0F"/>
<path d="M87.8489 52.1405C87.0269 52.1571 86.167 52.1659 85.2816 52.1659C83.9623 52.1659 82.6994 52.1464 81.5347 52.1106V48.3799H87.8489V52.1405Z" fill="#FFAA0F"/>
<path d="M81.1103 52.0968C77.3405 51.9657 74.7002 51.6622 74.7002 51.3086V48.3799H81.1103V52.0968Z" fill="#FFAA0F"/>
<path d="M85.2816 49.2058C91.1252 49.2058 95.8624 48.822 95.8624 48.3485C95.8624 47.875 91.1252 47.4912 85.2816 47.4912C79.4379 47.4912 74.7007 47.875 74.7007 48.3485C74.7007 48.822 79.4379 49.2058 85.2816 49.2058Z" fill="#EB690E"/>
<path d="M85.282 48.9421C90.0941 48.9421 93.9951 48.676 93.9951 48.3478C93.9951 48.0195 90.0941 47.7534 85.282 47.7534C80.4699 47.7534 76.5688 48.0195 76.5688 48.3478C76.5688 48.676 80.4699 48.9421 85.282 48.9421Z" fill="#F7CC7F"/>
<path d="M98.7805 45.2412V48.17C98.7805 48.6435 94.0432 49.0273 88.1996 49.0273C82.3559 49.0273 77.6187 48.6435 77.6187 48.17V45.2412H98.7805Z" fill="#EB690E"/>
<path d="M91.123 48.9941V45.2412H98.7803V48.17C98.7803 48.5613 95.5447 48.8914 91.123 48.9941Z" fill="#FFAA0F"/>
<path d="M90.7673 49.0019C89.9453 49.0184 89.0854 49.0273 88.2 49.0273C86.8807 49.0273 85.6178 49.0077 84.4531 48.972V45.2412H90.7673L90.7673 49.0019Z" fill="#FFAA0F"/>
<path d="M84.0287 48.9581C80.2589 48.827 77.6187 48.5235 77.6187 48.17V45.2412H84.0287V48.9581Z" fill="#FFAA0F"/>
<path d="M88.1995 46.0671C94.0432 46.0671 98.7804 45.6833 98.7804 45.2098C98.7804 44.7364 94.0432 44.3525 88.1995 44.3525C82.3559 44.3525 77.6187 44.7364 77.6187 45.2098C77.6187 45.6833 82.3559 46.0671 88.1995 46.0671Z" fill="#EB690E"/>
<path d="M88.2 45.8046C93.0121 45.8046 96.9131 45.5384 96.9131 45.2101C96.9131 44.8819 93.0121 44.6157 88.2 44.6157C83.3878 44.6157 79.4868 44.8819 79.4868 45.2101C79.4868 45.5384 83.3878 45.8046 88.2 45.8046Z" fill="#FDD88C"/>
<path d="M77.8146 18.6099H37.0527V62.1128H77.8146V18.6099Z" fill="#0774AB"/>
<path d="M33.3299 61.2251H38.5127L38.5127 21.2374H33.3299L33.3299 61.2251Z" fill="#76EDC5"/>
<path d="M35.9596 57.8724H35.8826C35.7136 57.8724 35.5767 57.7111 35.5767 57.5121V23.914C35.5767 23.715 35.7136 23.5537 35.8826 23.5537H35.9596C36.1285 23.5537 36.2655 23.715 36.2655 23.914V57.5121C36.2655 57.7111 36.1285 57.8724 35.9596 57.8724Z" fill="#36B4C1"/>
<path d="M34.4845 57.8724H34.4075C34.2385 57.8724 34.1016 57.7111 34.1016 57.5121V23.914C34.1016 23.715 34.2385 23.5537 34.4075 23.5537H34.4845C34.6535 23.5537 34.7904 23.715 34.7904 23.914V57.5121C34.7904 57.7111 34.6534 57.8724 34.4845 57.8724Z" fill="#36B4C1"/>
<path d="M37.4361 57.8724H37.3592C37.1902 57.8724 37.0532 57.7111 37.0532 57.5121V23.914C37.0532 23.715 37.1902 23.5537 37.3592 23.5537H37.4361C37.6051 23.5537 37.7421 23.715 37.7421 23.914V57.5121C37.7421 57.7111 37.6051 57.8724 37.4361 57.8724Z" fill="#36B4C1"/>
<path d="M54.449 61.2271H59.6318L59.6318 21.2393H54.449L54.449 61.2271Z" fill="#76EDC5"/>
<path d="M57.0782 57.8734H57.0013C56.8323 57.8734 56.6953 57.7121 56.6953 57.5131V23.915C56.6953 23.716 56.8323 23.5547 57.0013 23.5547H57.0782C57.2472 23.5547 57.3842 23.716 57.3842 23.915V57.5131C57.3842 57.7121 57.2472 57.8734 57.0782 57.8734Z" fill="#36B4C1"/>
<path d="M55.6031 57.8734H55.5262C55.3572 57.8734 55.2202 57.7121 55.2202 57.5131V23.915C55.2202 23.716 55.3572 23.5547 55.5262 23.5547H55.6031C55.7721 23.5547 55.9091 23.716 55.9091 23.915V57.5131C55.9091 57.7121 55.7721 57.8734 55.6031 57.8734Z" fill="#36B4C1"/>
<path d="M58.5563 57.8734H58.4793C58.3103 57.8734 58.1733 57.7121 58.1733 57.5131V23.915C58.1733 23.716 58.3103 23.5547 58.4793 23.5547H58.5563C58.7252 23.5547 58.8622 23.716 58.8622 23.915V57.5131C58.8622 57.7121 58.7252 57.8734 58.5563 57.8734Z" fill="#36B4C1"/>
<path d="M75.5677 61.2261H80.7505V21.2383H75.5677V61.2261Z" fill="#76EDC5"/>
<path d="M78.1969 57.8724H78.1199C77.9509 57.8724 77.814 57.7111 77.814 57.5121V23.914C77.814 23.715 77.9509 23.5537 78.1199 23.5537H78.1969C78.3658 23.5537 78.5028 23.715 78.5028 23.914V57.5121C78.5028 57.7111 78.3658 57.8724 78.1969 57.8724Z" fill="#36B4C1"/>
<path d="M76.7218 57.8724H76.6448C76.4758 57.8724 76.3389 57.7111 76.3389 57.5121V23.914C76.3389 23.715 76.4758 23.5537 76.6448 23.5537H76.7218C76.8908 23.5537 77.0277 23.715 77.0277 23.914V57.5121C77.0277 57.7111 76.8908 57.8724 76.7218 57.8724Z" fill="#36B4C1"/>
<path d="M79.6734 57.8724H79.5965C79.4275 57.8724 79.2905 57.7111 79.2905 57.5121V23.914C79.2905 23.715 79.4275 23.5537 79.5965 23.5537H79.6734C79.8424 23.5537 79.9794 23.715 79.9794 23.914V57.5121C79.9794 57.7111 79.8424 57.8724 79.6734 57.8724Z" fill="#36B4C1"/>
<path d="M59.2393 23.5541H54.8395C53.7532 23.5541 52.8726 22.5171 52.8726 21.2378H61.2063C61.2063 22.5171 60.3257 23.5541 59.2393 23.5541Z" fill="#76EDC5"/>
<path d="M80.3585 23.5541H75.9586C74.8723 23.5541 73.9917 22.5171 73.9917 21.2378H82.3254C82.3254 22.5171 81.4447 23.5541 80.3585 23.5541Z" fill="#76EDC5"/>
<path d="M38.1202 23.5541H33.7204C32.634 23.5541 31.7534 22.5171 31.7534 21.2378H40.0871C40.0871 22.5171 39.2065 23.5541 38.1202 23.5541Z" fill="#76EDC5"/>
<path d="M62.5517 61.2257H51.5264C51.5264 59.374 52.801 57.873 54.3733 57.873H59.7048C61.2771 57.873 62.5517 59.3741 62.5517 61.2257Z" fill="#76EDC5"/>
<path d="M83.6709 61.2257H72.6455C72.6455 59.374 73.9201 57.873 75.4924 57.873H80.8239C82.3963 57.873 83.6709 59.3741 83.6709 61.2257Z" fill="#76EDC5"/>
<path d="M41.4325 61.2257H30.4072C30.4072 59.374 31.6818 57.873 33.2541 57.873H38.5856C40.1579 57.873 41.4325 59.3741 41.4325 61.2257Z" fill="#96D9C9"/>
<path d="M85.3032 61.0879H28.7788V65.3549H85.3032V61.0879Z" fill="#36B4C1"/>
<path d="M87.9598 65.3555H26.1196V70.6537H87.9598V65.3555Z" fill="#0774AB"/>
<path d="M84.6324 15.8784H29.4478V21.3409H84.6324V15.8784Z" fill="#36B4C1"/>
<path d="M87.0364 15.8783H27.0439L57.0402 0.756348L87.0364 15.8783Z" fill="#76EDC5"/>
<path d="M57.0404 12.1739C58.4353 12.1739 59.5661 10.8422 59.5661 9.19948C59.5661 7.55678 58.4353 6.2251 57.0404 6.2251C55.6455 6.2251 54.5146 7.55678 54.5146 9.19948C54.5146 10.8422 55.6455 12.1739 57.0404 12.1739Z" fill="#36B4C1"/>
<path d="M103.66 69.5845H0.234142C0.104848 69.5845 0 69.9014 0 70.2926C0 70.6835 0.104793 71.0006 0.234142 71.0006H103.66C103.789 71.0006 103.894 70.6835 103.894 70.2926C103.894 69.9015 103.789 69.5845 103.66 69.5845Z" fill="#A1BF25"/>
<path d="M46.384 66.3286V69.4219C46.384 69.922 41.6467 70.3274 35.8031 70.3274C29.9594 70.3274 25.2222 69.922 25.2222 69.4219V66.3286H46.384Z" fill="#EB690E"/>
<path d="M38.7266 70.2923V66.3286H46.3838V69.4219C46.3838 69.8352 43.1482 70.1837 38.7266 70.2923Z" fill="#FFAA0F"/>
<path d="M38.3708 70.3005C37.5489 70.3181 36.6889 70.3274 35.8035 70.3274C34.4843 70.3274 33.2213 70.3067 32.0566 70.2689V66.3286H38.3709L38.3708 70.3005Z" fill="#FFAA0F"/>
<path d="M31.6322 70.2543C27.8624 70.1158 25.2222 69.7953 25.2222 69.4219V66.3286H31.6322V70.2543Z" fill="#EAB054"/>
<path d="M25.2222 66.2961C25.2222 66.7961 29.9594 67.2015 35.8031 67.2015C41.6468 67.2015 46.384 66.7961 46.384 66.2961C46.384 65.796 41.6468 65.3906 35.8031 65.3906C29.9594 65.3906 25.2222 65.796 25.2222 66.2961Z" fill="#EB690E"/>
<path d="M35.8035 66.9235C40.6156 66.9235 44.5166 66.6424 44.5166 66.2957C44.5166 65.949 40.6156 65.668 35.8035 65.668C30.9913 65.668 27.0903 65.949 27.0903 66.2957C27.0903 66.6424 30.9913 66.9235 35.8035 66.9235Z" fill="#F7CC7F"/>
<path d="M48.195 63.0562V66.1495C48.195 66.6495 43.4578 67.0549 37.6141 67.0549C31.7705 67.0549 27.0332 66.6495 27.0332 66.1495V63.0562H48.195Z" fill="#EB690E"/>
<path d="M40.5361 67.0199V63.0562H48.1933V66.1495C48.1933 66.5627 44.9577 66.9114 40.5361 67.0199Z" fill="#FFAA0F"/>
<path d="M40.1804 67.0281C39.3584 67.0456 38.4985 67.0549 37.6131 67.0549C36.2938 67.0549 35.0309 67.0342 33.8662 66.9965V63.0562H40.1804L40.1804 67.0281Z" fill="#FFAA0F"/>
<path d="M33.4418 66.9819C29.672 66.8434 27.0317 66.5228 27.0317 66.1495V63.0562H33.4418V66.9819Z" fill="#EAB054"/>
<path d="M37.6126 63.9276C43.4563 63.9276 48.1935 63.5222 48.1935 63.0221C48.1935 62.5221 43.4563 62.1167 37.6126 62.1167C31.769 62.1167 27.0317 62.5221 27.0317 63.0221C27.0317 63.5222 31.769 63.9276 37.6126 63.9276Z" fill="#EB690E"/>
<path d="M37.6131 63.6505C42.4252 63.6505 46.3262 63.3695 46.3262 63.0228C46.3262 62.6761 42.4252 62.395 37.6131 62.395C32.8009 62.395 28.8999 62.6761 28.8999 63.0228C28.8999 63.3695 32.8009 63.6505 37.6131 63.6505Z" fill="#F7CC7F"/>
<path d="M46.9875 59.6948V62.7881C46.9875 63.2882 42.2502 63.6936 36.4066 63.6936C30.5629 63.6936 25.8257 63.2882 25.8257 62.7881V59.6948H46.9875Z" fill="#EB690E"/>
<path d="M39.3301 63.6586V59.6948H46.9873V62.7881C46.9872 63.2014 43.7517 63.55 39.3301 63.6586Z" fill="#FFAA0F"/>
<path d="M38.9729 63.6667C38.151 63.6843 37.291 63.6936 36.4056 63.6936C35.0863 63.6936 33.8234 63.6729 32.6587 63.6352V59.6948H38.9729V63.6667Z" fill="#FFAA0F"/>
<path d="M32.2358 63.6205C28.466 63.4821 25.8257 63.1615 25.8257 62.7881V59.6948H32.2358V63.6205Z" fill="#FFAA0F"/>
<path d="M36.4066 60.5672C42.2502 60.5672 46.9874 60.1619 46.9874 59.6618C46.9874 59.1617 42.2502 58.7563 36.4066 58.7563C30.5629 58.7563 25.8257 59.1617 25.8257 59.6618C25.8257 60.1619 30.5629 60.5672 36.4066 60.5672Z" fill="#EB690E"/>
<path d="M27.6938 59.662C27.6938 60.0087 31.5949 60.2898 36.407 60.2898C41.2191 60.2898 45.1201 60.0087 45.1201 59.662C45.1201 59.3153 41.2191 59.0342 36.407 59.0342C31.5949 59.0342 27.6938 59.3153 27.6938 59.662Z" fill="#F7CC7F"/>
<path d="M48.195 56.3809V59.4742C48.195 59.9742 43.4578 60.3796 37.6141 60.3796C31.7705 60.3796 27.0332 59.9742 27.0332 59.4742V56.3809H48.195Z" fill="#EB690E"/>
<path d="M40.5361 60.3446V56.3809H48.1933V59.4742C48.1933 59.8874 44.9577 60.236 40.5361 60.3446Z" fill="#FFAA0F"/>
<path d="M40.1804 60.3528C39.3584 60.3703 38.4985 60.3796 37.6131 60.3796C36.2938 60.3796 35.0309 60.3589 33.8662 60.3212V56.3809H40.1804L40.1804 60.3528Z" fill="#FFAA0F"/>
<path d="M33.4418 60.3066C29.672 60.1681 27.0317 59.8475 27.0317 59.4742V56.3809H33.4418V60.3066Z" fill="#FFAA0F"/>
<path d="M37.6126 57.2538C43.4563 57.2538 48.1935 56.8484 48.1935 56.3483C48.1935 55.8483 43.4563 55.4429 37.6126 55.4429C31.769 55.4429 27.0317 55.8483 27.0317 56.3483C27.0317 56.8484 31.769 57.2538 37.6126 57.2538Z" fill="#EB690E"/>
<path d="M28.8999 56.348C28.8999 56.6947 32.8009 56.9758 37.6131 56.9758C42.4252 56.9758 46.3262 56.6947 46.3262 56.348C46.3262 56.0013 42.4252 55.7202 37.6131 55.7202C32.8009 55.7202 28.8999 56.0013 28.8999 56.348Z" fill="#FDD88C"/>
<path d="M14.8895 70.3271H33.4258V62.3824H14.8895V70.3271Z" fill="#A1BF25"/>
<path d="M14.8895 64.562H33.4258V63.54H14.8895V64.562Z" fill="#E6F249"/>
<path d="M14.8895 66.5591H33.4258V65.5371H14.8895V66.5591Z" fill="#E6F249"/>
<path d="M14.8895 68.5557H33.4258V67.5336H14.8895V68.5557Z" fill="#E6F249"/>
<path d="M14.8895 70.3271H33.4258V69.3051H14.8895V70.3271Z" fill="#E6F249"/>
<path d="M21.7889 70.3271H25.644V62.3824H21.7889V70.3271Z" fill="#EB690E"/>
<path d="M33.2002 70.3271H35.9995V62.3824H33.2002V70.3271Z" fill="#52A43A"/>
<path d="M30.5268 39.4221C29.8008 39.5606 29.8437 39.7003 29.7503 39.715C29.6399 39.7325 28.3294 38.9574 28.3294 38.9574C28.3294 38.9574 24.4536 36.7047 24.2481 36.574L21.4504 32.4292L19.2944 33.6002C19.2944 33.6002 22.4407 38.0069 22.6397 38.2011C22.8388 38.3953 28.3961 40.6901 28.8794 40.9115C28.8794 40.9115 29.3666 41.436 29.6819 41.7528C29.9973 42.0695 30.4189 42.1951 30.5195 42.2673C30.5344 42.278 30.8821 42.4942 31.3735 42.6201C31.7971 42.7285 31.4442 42.3898 31.4442 42.3898C31.4442 42.3898 30.6949 42.0173 30.7318 41.95C30.7602 41.8981 31.1584 42.1311 31.6258 42.257C31.746 42.2894 31.8647 42.3208 31.9739 42.3486C32.2608 42.4217 32.3868 42.2284 32.0985 42.0938C31.9967 42.0463 31.8259 41.9723 31.6973 41.9407C31.5583 41.9066 31.4416 41.8206 31.3291 41.7703C31.1058 41.6702 30.9418 41.6007 30.9507 41.5916C30.9621 41.5799 30.9307 41.5218 31.0593 41.5513C31.2139 41.5869 31.5257 41.7507 31.7571 41.7815C31.8882 41.799 32.16 41.8558 32.16 41.8558C32.16 41.8558 32.6408 41.91 32.6441 41.8305C32.6513 41.6571 32.3552 41.5601 32.1734 41.5646C32.0588 41.4958 31.7712 41.4459 31.7712 41.4459C31.7712 41.4459 31.2136 41.1867 31.2459 41.0895C31.2589 41.0507 31.5965 41.1104 31.9547 41.1393C32.3334 41.1698 32.6078 41.1697 32.628 41.0834C32.6601 40.9463 32.3587 40.8944 32.3587 40.8944C32.3587 40.8944 32.0929 40.8488 32.0058 40.8254C31.9038 40.798 31.6044 40.6875 31.6044 40.6875C31.6044 40.6875 30.5786 40.2438 30.6157 40.1547C30.6527 40.0655 30.8221 39.8789 30.8944 39.8794C30.9667 39.8799 31.0961 39.9648 31.1685 39.9654C31.2408 39.9659 31.3964 39.9494 31.4072 39.8422C31.4181 39.7351 31.0164 39.5131 31.0164 39.5131C31.0164 39.5131 30.7364 39.3821 30.5268 39.4221Z" fill="#F8A492"/>
<path d="M23.3983 34.9967C23.3983 34.9967 22.7004 35.7434 22.41 35.9892C22.1687 36.1935 20.9926 36.8606 20.9926 36.8606C20.9926 36.8606 19.8226 34.7508 19.311 33.6928C18.6903 32.4091 18.2606 30.5002 18.4073 30.4485C18.819 30.3033 19.3855 30.2144 19.9087 30.4973C21.719 31.4757 23.3983 34.9967 23.3983 34.9967Z" fill="#93161C"/>
<path d="M29.8501 40.5249C30.1607 40.5826 30.4783 40.5131 30.6159 40.1782C30.6468 40.5754 30.1358 40.7724 29.8501 40.5249Z" fill="#FE875E"/>
<path d="M11.9406 67.3354C11.9406 67.3354 11.8632 68.9508 11.8627 68.9541C11.8342 69.1592 11.7222 69.6659 11.7222 69.8523C11.7222 70.5527 14.3609 69.2578 13.7695 68.9473C13.7159 68.9193 13.4355 68.7068 13.4179 68.4684C13.3907 68.1011 13.3219 67.3581 13.3219 67.3581L11.9406 67.3354Z" fill="#F7A491"/>
<path d="M13.7963 68.9541C13.7963 68.9541 13.1768 69.1683 12.8595 69.2219C12.5422 69.2754 12.1239 68.8244 11.8995 68.9463C11.6525 69.0803 11.6622 70.2873 11.6622 70.2873C11.6622 70.2873 14.9843 70.6309 15.9185 70.2755C16.2886 70.1347 15.0628 69.4531 13.7963 68.9541Z" fill="#4A0000"/>
<path d="M7.54752 67.251C7.54752 67.251 7.4701 68.8663 7.46965 68.8696C7.44118 69.0747 7.3291 69.5814 7.3291 69.7679C7.3291 70.4683 9.9678 69.1733 9.3764 68.8629C9.32287 68.8348 8.95932 68.4637 8.94172 68.2254C8.91457 67.8581 8.92892 67.2737 8.92892 67.2737L7.54752 67.251Z" fill="#F7A491"/>
<path d="M9.37 68.8569C9.37 68.8569 8.75051 69.0712 8.43321 69.1247C8.1159 69.1783 7.69762 68.7273 7.47319 68.8491C7.22619 68.9832 7.21631 70.1901 7.21631 70.1901C7.21631 70.1901 10.5148 70.3497 11.4922 70.1783C11.8768 70.1109 10.6365 69.3559 9.37 68.8569Z" fill="#4A0000"/>
<path d="M8.32939 41.5951C8.32939 41.5951 7.88218 44.32 8.06445 46.3862C8.24667 48.4523 8.26102 55.7918 8.26102 55.7918L7.42041 67.5312L9.21568 67.5805C9.21568 67.5805 11.1723 55.8428 11.1358 56.1442C11.0994 56.4454 11.7919 47.8796 11.7919 47.8796L9.45932 41.3369L8.32939 41.5951Z" fill="#C1303D"/>
<path d="M8.95591 39.8354C8.95591 39.8354 6.93008 42.3483 7.68361 45.0931C7.98629 46.1956 10.8097 56.7278 10.8462 57.5887C10.8826 58.4496 11.801 67.965 11.801 67.965L13.7197 67.897L14.1347 57.3178L13.5863 43.0635L12.4217 40.6596L8.95591 39.8354Z" fill="#EB690E"/>
<path d="M21.2547 31.6561C20.5914 30.7845 19.1475 29.5443 19.1475 29.5443C19.1475 29.5443 18.2873 28.679 17.9367 28.5367C17.4206 28.3271 16.5366 27.7681 15.258 30.0501C14.343 31.6831 8.56935 40.1388 7.62158 40.4234L13.8108 43.9104C13.9802 42.2448 17.0393 39.0986 17.4794 38.5116C18.4634 37.1994 21.8827 32.4813 21.2547 31.6561Z" fill="#C1303D"/>
<path d="M20.9668 28.1133L19.0388 29.4425C19.0388 29.4425 18.9845 31.3805 19.6148 31.8839C20.1436 32.3063 20.5462 31.2926 20.5462 31.2926C20.5462 31.2926 21.2631 30.1226 21.8076 29.7581C22.3522 29.3937 20.9668 28.1133 20.9668 28.1133Z" fill="#F7A491"/>
<path d="M20.6425 28.9663C20.715 29.3706 20.8829 29.9552 21.1429 30.4366C21.3553 30.166 21.594 29.9005 21.8069 29.7581C22.0582 29.5899 21.8983 29.2267 21.6533 28.8843C21.3074 28.4602 20.966 28.1133 20.966 28.1133L20.5955 28.3687C20.5716 28.5343 20.6184 28.8317 20.6425 28.9663Z" fill="#F47458"/>
<path d="M21.9702 24.7827C21.9378 24.7354 20.353 27.0587 20.5484 28.1484C20.7439 29.2382 21.7019 30.2326 22.3678 29.9591C23.1044 29.6567 24.4739 26.9216 23.9827 25.5936C23.4915 24.2657 21.9702 24.7827 21.9702 24.7827Z" fill="#F7A491"/>
<path d="M23.7057 24.0495C23.0148 23.5969 21.8878 23.4671 21.0458 23.9862C20.0105 24.6246 19.7747 26.2307 20.0987 27.2104C20.4229 28.1901 20.0517 28.7439 20.0517 28.7439L20.6009 28.3662C20.6009 28.3662 20.9216 27.7766 20.9636 27.3066C21.0055 26.8366 21.5876 26.9199 21.8719 26.7067C22.0907 26.5426 22.37 26.0093 22.7241 25.7325C22.7241 25.7325 23.6156 25.6037 24.054 25.8934C24.8015 26.3874 24.6952 24.6978 23.7057 24.0495Z" fill="#4A0000"/>
<path d="M21.4268 27.098C21.4319 27.4465 21.292 27.7319 21.1143 27.7353C20.9366 27.7388 20.7885 27.459 20.7833 27.1105C20.7782 26.762 20.9181 26.4766 21.0958 26.4732C21.2735 26.4697 21.4216 26.7495 21.4268 27.098Z" fill="#F7A491"/>
<path d="M23.0505 28.9484L22.2115 28.2095C22.2115 28.2095 21.9897 28.6087 22.3506 28.9464C22.7906 29.3582 23.0505 28.9484 23.0505 28.9484Z" fill="white"/>
<path d="M32.8681 53.482C37.7084 52.4623 40.9246 46.9773 40.0516 41.2308C39.1787 35.4844 34.5472 31.6526 29.707 32.6722C24.8667 33.6919 21.6505 39.177 22.5234 44.9234C23.3964 50.6699 28.0278 54.5017 32.8681 53.482Z" fill="#EB690E"/>
<path d="M32.6535 52.0706C36.8373 51.1892 39.6173 46.4481 38.8627 41.4811C38.1082 36.514 34.1049 33.2019 29.9211 34.0833C25.7373 34.9647 22.9574 39.7058 23.7119 44.6728C24.4664 49.6399 28.4697 52.952 32.6535 52.0706Z" fill="#FFAA0F"/>
<path d="M31.5495 50.0258L31.2917 48.3531C30.6448 48.4564 29.9934 48.4487 29.4436 48.3599C28.9848 48.2858 28.6537 47.8048 28.6868 47.2608L28.6908 47.1952C28.7272 46.5957 29.1886 46.1554 29.6932 46.2453C30.2074 46.3368 30.7806 46.3527 31.3656 46.2276C32.2178 46.0455 32.7413 45.5335 32.6328 44.8292C32.5297 44.1602 31.9861 43.8399 30.8118 43.6362C29.1145 43.3443 27.8873 42.6972 27.6241 40.9894C27.3853 39.44 28.125 38.027 29.6678 37.3153L29.41 35.6428L30.8752 35.3296L31.114 36.879C31.6621 36.7914 32.1221 36.7817 32.514 36.8192C32.9928 36.8651 33.3493 37.3601 33.3149 37.9243C33.2793 38.5078 32.8404 38.9417 32.3465 38.8791C31.9763 38.8322 31.527 38.8277 30.9993 38.9404C30.0275 39.1481 29.7896 39.7082 29.8656 40.2012C29.9551 40.7823 30.5353 41.0401 31.893 41.3319C33.7861 41.6911 34.653 42.5061 34.8972 44.0907C35.1387 45.6577 34.403 47.1972 32.7379 47.9167L33.0147 49.7126L31.5495 50.0258Z" fill="#FDD88C"/>
<path opacity="0.3" d="M30.1725 34.032C27.8122 34.4357 25.8606 36.0713 24.7114 38.3112C25.8853 36.5749 27.5952 35.3426 29.6003 34.9996C33.8063 34.2803 37.717 37.7448 38.335 42.7377C38.6063 44.9287 38.1982 47.0499 37.2995 48.8015C38.5879 46.8958 39.2306 44.3827 38.9072 41.7701C38.2892 36.7771 34.3785 33.3127 30.1725 34.032Z" fill="#F7CC7F"/>
<path d="M25.1577 43.6453C24.9475 43.2838 24.8559 42.7618 24.5653 42.3638C24.4677 42.2301 24.3124 42.0794 24.1355 41.9293C22.7375 40.9661 19.096 38.4832 18.9543 38.2905C18.7863 38.0622 16.3008 33.1992 16.3008 33.1992L18.5331 32.6035L20.7146 37.1399C20.8968 37.3102 24.3596 40.324 24.3596 40.324C24.3596 40.324 25.0481 40.9577 25.4245 41.2542C25.6148 41.3849 25.7991 41.4695 25.9605 41.5356C26.1637 41.6188 26.5508 41.8459 26.6291 41.927C26.72 42.0213 26.9021 42.2229 27.0102 42.3459C27.1184 42.4689 27.2497 42.6078 27.3003 42.6811C27.3312 42.7256 27.4269 42.7871 27.4972 42.8283C27.6018 42.8898 27.5882 43.0722 27.4757 43.1097C27.3697 43.1451 27.2265 43.0668 27.1377 43.0176C26.887 42.8789 26.5807 42.5043 26.5645 42.5501C26.5483 42.5959 26.8593 43.3985 26.8898 43.4929C26.9203 43.5874 27.2775 44.5225 27.2958 44.731C27.3141 44.9396 27.2075 44.9877 27.1281 44.9114C27.0598 44.8459 26.4855 43.5972 26.4855 43.5972C26.4855 43.5972 26.4119 43.4381 26.3834 43.5291C26.3548 43.6201 26.8743 44.7551 26.925 44.9413C26.9757 45.1276 26.9354 45.2804 26.7891 45.215C26.6113 45.1356 26.12 43.8839 26.12 43.8839C26.12 43.8839 26.0561 43.7282 26.0124 43.7824C25.9687 43.8366 26.4244 44.7936 26.4295 44.9038C26.4346 45.014 26.3501 45.1228 26.2271 45.0307C26.0823 44.9222 25.6518 43.8003 25.6518 43.8003C25.6518 43.8003 25.5987 43.7261 25.582 43.7782C25.5653 43.8303 25.9044 44.6789 25.879 44.8029C25.8578 44.9071 25.7783 44.8862 25.7783 44.8862C25.601 44.8856 25.368 44.0067 25.1577 43.6453Z" fill="#F8A492"/>
<path d="M16.9115 35.7681C16.9115 35.7681 17.6385 35.4957 18.1048 35.2443C18.4171 35.0759 19.7793 34.2776 19.7793 34.2776C19.7793 34.2776 19.192 31.3602 18.795 30.3112C17.338 26.4614 15.6822 29.1164 15.4575 29.7353C14.955 31.1196 16.9115 35.7681 16.9115 35.7681Z" fill="#93161C"/>
<path d="M86.8055 16.5175L57.0416 1.51273L27.2777 16.5175L26.813 15.2391L57.0416 0L87.2702 15.2391L86.8055 16.5175Z" fill="#36B4C1"/>
</svg>
