<svg width="153" height="203" viewBox="0 0 153 203" fill="none" xmlns="http://www.w3.org/2000/svg">
<path d="M116.594 106.326C116.116 106.198 115.489 106.453 115.245 106.86C114.653 107.847 92.9773 112.067 83.5915 113.074C66.5413 114.856 44.3518 110.558 28.3563 102.394C22.2328 99.277 21.6051 99.5324 23.0666 104.355C23.6044 106.099 24.4382 111.177 24.9569 115.593C25.4407 120.067 26.9534 127.841 28.2408 132.954C29.5866 138.103 30.4893 142.67 30.2805 143.018C30.0368 143.425 30.1773 143.982 30.5266 144.192C30.9341 144.436 32.0331 148.015 32.9466 152.036C34.9142 160.636 33.2602 159.171 47.6814 164.813C64.7913 171.514 76 171.167 94.1159 171.167C100.373 170.496 108.084 169.511 111.2 168.932C117.027 167.923 127.304 164.372 130.779 162.271C132.534 161.191 132.708 160.9 132.6 159.099C132.529 158.03 131.593 154.706 130.507 151.766C127.809 144.781 119.302 112.369 119.449 109.616C119.504 107.675 118.641 106.606 116.594 106.326ZM120.034 126.86C121.521 133.356 124.119 143.281 125.884 148.917L129.041 159.098L123.1 161.221C97.6741 170.378 69.6044 169.82 43.6254 159.699L36.7116 156.976L36.6503 154.966C36.5884 152.561 35.3477 147.633 33.5957 143.031C32.8833 141.183 31.606 135.129 30.6551 129.586C29.7391 123.984 28.4942 116.291 27.8369 112.503C27.1562 108.622 26.802 105.252 26.976 104.961C27.1849 104.613 28.7213 105.218 30.4677 106.264C48.0489 116.8 81.6593 119.731 107.601 113.015L115.577 110.927L116.488 112.972C117.013 114.077 118.639 120.34 120.034 126.86Z" fill="white"/>
<path d="M107.297 120.731C103.191 122.154 95.0372 123.846 90.9887 124.114C87.2201 124.313 86.2282 124.114 83.7879 122.494C79.5729 119.73 75.6633 118.972 71.2074 120.185C68.2796 120.967 66.4243 120.885 63.378 120.011C58.0909 118.507 39.1964 114.555 38.3565 114.765C37.9483 114.917 36.375 116.748 34.7787 118.882C31.889 122.777 31.889 122.777 33.2206 124.13C35.066 125.949 38.4279 138.742 38.7144 145.016L38.9532 150.311L42.2568 151.815C44.7666 152.923 45.8058 153.704 46.4373 155.033C47.6533 157.506 48.6572 157.949 52.6124 157.703C57.6993 157.423 68.3415 158.332 69.8009 159.207C72.3694 160.746 86.8845 160.885 100.663 159.473C108.386 158.632 115.421 158.014 116.215 158.014C117.498 157.99 117.766 157.675 118.522 154.958C119.196 152.509 119.79 151.518 121.248 150.41C122.938 149.045 123.019 148.777 122.166 147.156C121.184 145.22 118.068 133.208 117.269 128.054C116.741 124.963 116.636 124.742 114.301 124.136C112.749 123.681 111.523 122.946 110.717 121.908C109.186 119.961 109.303 120.031 107.297 120.731ZM116.381 137.745L118.83 148.089L116.64 151.611L114.485 155.075L107.916 155.577C104.358 155.822 97.7893 156.324 93.4259 156.721C89.0625 157.118 85.3174 157.409 85.1423 157.305C84.9671 157.2 86.318 154.681 88.1002 151.707C89.789 148.756 91.6287 145.024 92.0237 143.438C93.2324 138.773 91.8713 131.379 89.1605 127.694C88.518 126.913 93.2658 125.875 98.0612 125.816C99.8347 125.769 102.623 125.221 104.267 124.463C107.195 123.285 107.405 123.331 110.58 125.314L113.931 127.401L116.381 137.745ZM86.0347 127.283C86.3873 127.296 86.0356 128.773 85.8897 129.182C85.1777 128.913 75.0848 138.098 73.5523 140.656C77.7164 142.158 81.811 150.073 81.811 150.073L82.6156 152.045L83.0621 154.156C83.3556 155.917 83.3807 157.596 83.2409 157.829C82.7647 157.596 81.6688 156.939 81.6688 156.939C81.3403 155.236 79.4658 151.684 78.7423 151.567C78.7423 151.567 77.4535 152.924 77.3787 153.048C77.9633 154.191 79.1108 154.353 79.184 154.457C78.7984 153.909 81.0639 154.861 79.1375 153.706C76.0785 151.794 81.0398 157.989 81.6688 156.939L80.425 153.215C80.425 153.215 79.8394 150.878 78.5409 148.594C78.2009 147.042 72.0579 141.538 70.7152 140.734C67.6797 138.915 75.5226 137.368 75.4473 133.351C75.1316 129.949 69.3094 128.68 69.3542 128.706C69.3989 128.733 69.163 128.095 69.3819 127.73C69.3819 127.73 71.5 127.51 72.9184 127.392C72.9184 127.392 73.7166 127.227 75.1518 127.215L76.1013 127.288L77.6351 127.214L78.5847 127.287L80.4838 127.432C80.4838 127.432 84.7199 126.991 86.0347 127.283ZM60.7214 134.904C59.8643 140.968 61.7376 147.242 66.0138 152.816L68.1285 155.51L58.8401 154.857C51.6171 154.333 49.4231 153.89 48.8504 152.992C48.4763 152.293 46.6313 150.87 44.8801 149.821C41.7278 147.932 41.6459 147.803 41.4791 144.375C41.0885 139.068 39.0384 131.103 36.8518 126.544L34.9341 122.462L37.0553 120.246C39.0134 118.17 39.2934 118.1 42.5148 119.08C46.3898 120.292 58.2582 122.332 62.7507 122.647L65.7262 122.845L63.4208 127.486C62.0933 130.099 60.8949 133.423 60.7214 134.904Z" fill="white"/>
<path d="M122.963 47.2615C122.722 47.3419 122.526 47.6255 122.538 47.8645C122.567 48.445 114.498 56.3093 110.77 59.3704C103.984 64.9116 93.2612 69.3485 84.0843 70.4223C80.5736 70.837 80.378 71.1206 82.3814 72.7321C83.1096 73.3119 84.9173 75.207 86.401 76.9129C87.8863 78.6529 90.7549 81.4877 92.7668 83.27C94.8136 85.0504 96.5048 86.7118 96.515 86.9166C96.5269 87.1556 96.7464 87.35 96.9556 87.3396C97.1998 87.3274 98.6927 88.5194 100.233 89.9487C103.532 93.0016 102.405 92.8524 110.188 91.1636C119.423 89.1627 124.647 86.643 131.872 80.7719C134.357 78.7311 137.375 76.1504 138.543 75.031C140.748 72.97 144.131 68.5912 145.017 66.7329C145.459 65.7866 145.451 65.6159 144.89 64.8909C144.554 64.4627 143.204 63.332 141.899 62.4044C138.749 60.234 125.848 49.0344 125.124 47.8382C124.593 47.009 123.919 46.803 122.963 47.2615ZM130.302 54.9049C132.794 57.2108 136.742 60.6422 139.107 62.5095L143.367 65.891L141.432 68.452C133.169 79.4407 120.999 87.0988 106.991 90.1593L103.255 90.9617L102.654 90.136C101.941 89.1447 100.002 87.4273 97.9372 85.99C97.1044 85.4154 94.8279 83.2356 92.8373 81.1785C90.8449 79.0872 88.1142 76.2113 86.7505 74.8075C85.3502 73.3713 84.2358 72.0577 84.2273 71.887C84.2171 71.6821 85.0473 71.5038 86.0936 71.4516C96.6265 70.9263 111.845 62.7054 121.026 52.5951L123.842 49.4767L124.816 50.0785C125.357 50.3938 127.842 52.5631 130.302 54.9049Z" fill="white"/>
<path d="M123.101 55.9162C121.751 57.6674 118.745 60.6694 117.089 61.9204C115.534 63.0632 115.053 63.259 113.545 63.2655C110.952 63.2917 109.063 64.0732 107.503 65.8348C106.474 66.9858 105.656 67.4733 104.103 67.9631C101.411 68.819 92.1974 72.4743 91.898 72.7985C91.7666 72.9769 91.6166 74.1871 91.5434 75.5309C91.42 77.9768 91.42 77.9768 92.3762 78.1697C93.6856 78.4136 98.7794 82.833 100.695 85.3834L102.31 87.5365L104.153 87.2384C105.543 86.9972 106.211 87.0326 106.861 87.4126C108.088 88.1074 108.644 88.0109 110.266 86.796C112.363 85.2482 117.176 82.6371 118.05 82.5934C119.589 82.5167 125.84 78.4937 131.332 74.0275C134.396 71.5036 137.23 69.2661 137.569 69.043C138.112 68.6723 138.136 68.4649 137.683 67.113C137.272 65.8964 137.243 65.3137 137.55 64.4393C137.883 63.3918 137.842 63.2564 137.013 62.8166C136.04 62.281 131.275 58.1202 129.46 56.1833C128.351 55.0359 128.243 54.9725 127.071 55.3746C126.277 55.6204 125.542 55.657 124.901 55.4485C123.689 55.0622 123.759 55.0587 123.101 55.9162ZM131.849 60.497L135.852 64.146L135.922 66.2387L135.989 68.2971L133.322 70.3544C131.87 71.4578 129.203 73.5151 127.449 74.9084C125.695 76.3017 124.176 77.4771 124.071 77.4823C123.966 77.4875 123.825 76.0513 123.737 74.3032C123.617 72.591 123.338 70.5088 123.054 69.7326C122.238 67.4366 119.543 64.7189 117.33 63.9358C116.832 63.7888 118.567 62.0185 120.602 60.6455C121.347 60.1273 122.384 59.1134 122.871 58.3331C123.787 57.016 123.89 56.9765 125.815 56.9149L127.845 56.848L131.849 60.497ZM115.875 64.6419C116.03 64.5484 116.301 65.2665 116.356 65.4791C115.974 65.5668 114.28 72.2563 114.355 73.7595C116.566 73.2187 120.58 75.3866 120.58 75.3866L121.487 75.9871L122.282 76.7468C122.91 77.4027 123.401 78.0999 123.408 78.237C123.137 78.2729 122.481 78.3057 122.481 78.3057C121.854 77.684 120.036 76.7214 119.694 76.8759C119.694 76.8759 119.53 77.807 119.533 77.8805C120.11 78.1953 120.647 77.9405 120.708 77.9635C120.387 77.8421 121.628 77.6042 120.474 77.6617C118.619 77.7199 122.511 78.9227 122.481 78.3057L120.884 77.0936C120.884 77.0936 119.966 76.2783 118.758 75.6855C118.169 75.1307 113.968 74.5499 113.164 74.59C111.345 74.6807 114.259 71.8268 113.079 70.1634C111.972 68.8258 109.118 69.9304 109.145 69.9291C109.171 69.9277 108.888 69.7266 108.878 69.5118C108.878 69.5118 109.721 68.8239 110.294 68.3759C110.294 68.3759 110.589 68.0822 111.199 67.6738L111.626 67.4372L112.262 66.975L112.689 66.7384L113.543 66.2652C113.543 66.2652 115.229 64.8894 115.875 64.6419ZM107.222 74.9551C108.588 77.7391 111.182 79.8433 114.604 80.9784L116.279 81.5135L112.118 83.8515C108.878 85.6626 107.812 86.0937 107.311 85.8782C106.951 85.6899 105.755 85.6121 104.706 85.6645C102.817 85.7587 102.745 85.7279 101.694 84.337C100.011 82.2217 96.8581 79.4581 94.6196 78.1609L92.6329 76.9885L92.9074 75.4629C93.152 74.0418 93.2518 73.9337 94.91 73.4386C96.9145 72.8576 102.576 70.376 104.588 69.2447L105.918 68.4911L106.257 71.0858C106.436 72.5545 106.873 74.2852 107.222 74.9551Z" fill="white"/>
<path d="M58.8995 6.55436C58.6409 6.62806 58.4193 6.92287 58.4193 7.18084C58.4193 7.80731 49.481 15.841 45.3813 18.9365C37.9204 24.5379 26.3597 28.739 16.6088 29.4023C12.8784 29.6603 12.6568 29.9551 14.6882 31.7977C15.4269 32.461 17.2367 34.5984 18.7141 36.5147C20.1915 38.4678 23.0725 41.6739 25.1039 43.7008C27.1723 45.7276 28.8713 47.607 28.8713 47.8281C28.8713 48.0861 29.0929 48.3072 29.3145 48.3072C29.573 48.3072 31.0874 49.6707 32.6387 51.2922C35.9628 54.7562 34.7809 54.5351 43.0913 53.1348C52.9529 51.4764 58.604 49.0442 66.545 43.1111C69.2782 41.0474 72.6024 38.431 73.8951 37.2886C76.3328 35.188 80.1372 30.6553 81.1713 28.7022C81.6884 27.7072 81.6884 27.5229 81.1344 26.7122C80.802 26.2331 79.4354 24.9433 78.1057 23.8746C74.8924 21.3687 61.8543 8.61805 61.1525 7.29139C60.6354 6.3701 59.9337 6.11214 58.8995 6.55436ZM66.2496 15.1776C68.7612 17.7941 72.7501 21.7004 75.1509 23.8377L79.4723 27.7072L77.2932 30.3605C67.9855 41.7476 54.7258 49.339 39.7671 51.8818L35.7781 52.5451L35.1872 51.6238C34.4854 50.5183 32.5278 48.5652 30.4225 46.9068C29.573 46.2435 27.2831 43.7745 25.2886 41.4528C23.2941 39.0943 20.5609 35.8514 19.1943 34.2667C17.7908 32.6453 16.6827 31.1712 16.6827 30.987C16.6827 30.7658 17.5691 30.6184 18.6772 30.6184C29.8316 30.6184 46.3416 22.5848 56.5726 12.1926L59.7121 8.98656L60.7093 9.68674C61.2633 10.0553 63.7749 12.5243 66.2496 15.1776Z" fill="white"/>
<path d="M58.5892 15.8794C57.0707 17.6922 53.7374 20.7629 51.9226 22.0208C50.2189 23.1677 49.7004 23.3527 48.1078 23.2787C45.3671 23.1677 43.3301 23.9076 41.5894 25.7204C40.4412 26.9043 39.5523 27.3853 37.8857 27.8292C34.9968 28.6062 25.071 32.0468 24.7377 32.3798C24.5895 32.5648 24.3673 33.8597 24.2192 35.3025C23.9599 37.9293 23.9599 37.9293 24.9599 38.1883C26.3302 38.5212 31.4783 43.5528 33.3672 46.4015L34.9598 48.8063L36.9227 48.5843C38.4042 48.3993 39.1079 48.4733 39.7746 48.9173C41.0338 49.7312 41.6264 49.6572 43.4042 48.4363C45.7004 46.8824 50.9226 44.3297 51.8485 44.3297C53.4781 44.3297 60.2929 40.3341 66.3299 35.8205C69.7002 33.2677 72.8113 31.0109 73.1816 30.789C73.7742 30.419 73.8113 30.197 73.4039 28.7172C73.0335 27.3853 73.0335 26.7563 73.4039 25.8314C73.8113 24.7215 73.7742 24.5736 72.9224 24.0556C71.9224 23.4267 67.1076 18.6911 65.2928 16.5083C64.1817 15.2134 64.0706 15.1394 62.8114 15.5094C61.9595 15.7314 61.1818 15.7314 60.5151 15.4724C59.2558 14.9915 59.3299 14.9915 58.5892 15.8794ZM67.5891 21.2809L71.6261 25.4245L71.5891 27.6813L71.552 29.9011L68.6261 31.9729C67.0336 33.0828 64.1077 35.1546 62.1817 36.5604C60.2558 37.9663 58.5892 39.1502 58.4781 39.1502C58.367 39.1502 58.2929 37.5963 58.2929 35.7095C58.2559 33.8597 58.0707 31.6029 57.8114 30.752C57.0707 28.2362 54.367 25.1655 52.0707 24.2036C51.5522 24.0186 53.4781 22.2058 55.7003 20.8369C56.5151 20.319 57.6633 19.2831 58.2188 18.4691C59.2558 17.1003 59.367 17.0633 61.404 17.1003L63.5521 17.1373L67.5891 21.2809ZM50.4963 24.8857C50.6646 24.7933 50.9136 25.581 50.9599 25.8128C50.5525 25.8868 48.4104 32.9979 48.4104 34.6204C50.7745 34.1568 54.9001 36.7063 54.9001 36.7063L55.8272 37.4017L56.6262 38.2623C57.2559 39.0022 57.7373 39.7791 57.7373 39.9271C57.4497 39.9512 56.7543 39.9512 56.7543 39.9512C56.1247 39.2483 54.2559 38.1143 53.8855 38.2623C53.8855 38.2623 53.6633 39.2559 53.6633 39.3352C54.2559 39.7051 54.8368 39.4596 54.9001 39.4877C54.5668 39.3397 55.8905 39.1502 54.6683 39.1502C52.7054 39.1132 56.7543 40.6172 56.7543 39.9512L55.1319 38.5606C55.1319 38.5606 54.2048 37.6335 52.9596 36.9304C52.367 36.3014 47.9597 35.4505 47.1078 35.4505C45.1819 35.4505 48.4104 32.5344 47.2515 30.6801C46.1526 29.1806 43.0795 30.2166 43.1079 30.2166C43.1363 30.2166 42.8477 29.9848 42.8477 29.753C42.8477 29.753 43.7748 29.0577 44.4041 28.6062C44.4041 28.6062 44.7306 28.3058 45.3972 27.8988L45.8608 27.667L46.5561 27.2035L47.0197 26.9717L47.9468 26.5081C47.9468 26.5081 49.801 25.1175 50.4963 24.8857ZM40.8116 35.5245C42.1079 38.5952 44.7375 41 48.293 42.4059L50.0337 43.0718L45.5152 45.3656C41.9968 47.1414 40.8486 47.5484 40.3301 47.2894C39.9597 47.0674 38.7005 46.9194 37.5894 46.9194C35.5894 46.9194 35.5153 46.8824 34.4783 45.3286C32.8117 42.9608 29.6265 39.8161 27.3302 38.2993L25.2932 36.9304L25.6636 35.3025C25.9969 33.7857 26.108 33.6747 27.8858 33.2307C30.0339 32.7128 36.145 30.345 38.3301 29.2351L39.7746 28.4952L39.9968 31.3069C40.1079 32.8978 40.4783 34.7846 40.8116 35.5245Z" fill="white"/>
<path d="M107.573 -4.31908C107.743 -4.38463 107.983 -4.31515 108.089 -4.17521C108.344 -3.83537 116.472 -3.12561 119.96 -3.11976C126.294 -3.1264 134.28 -5.5661 139.84 -9.18625C141.969 -10.569 142.21 -10.4995 141.86 -8.67076C141.73 -8.00941 141.62 -6.11121 141.601 -4.46864C141.597 -2.80608 141.343 0.109053 141.068 2.03773C140.773 3.98148 140.619 5.69451 140.709 5.81446C140.814 5.9544 140.784 6.1648 140.664 6.25525C140.524 6.36078 140.259 7.71856 140.079 9.23135C139.69 12.4673 140.241 11.865 135.161 14.4973C129.134 17.6229 125.076 18.6101 118.346 18.6328C116.021 18.6289 113.15 18.5664 111.982 18.4743C109.803 18.3298 105.889 17.4237 104.531 16.7863C103.844 16.4576 103.769 16.3576 103.738 15.6917C103.723 15.2961 103.938 14.0386 104.223 12.9161C104.944 10.2451 106.812 -1.99352 106.651 -2.99964C106.556 -3.71048 106.831 -4.13686 107.573 -4.31908ZM107.105 3.35891C106.811 5.80343 106.241 9.55067 105.811 11.6901L105.046 15.553L107.311 16.1029C117.008 18.4811 127.3 17.1871 136.453 12.4608L138.887 11.1925L138.832 10.4515C138.761 9.56532 139.026 7.70678 139.491 5.94786C139.681 5.24128 139.916 2.96718 140.05 0.893649C140.169 -1.19987 140.328 -4.0747 140.423 -5.49212C140.523 -6.9446 140.522 -8.19652 140.447 -8.29648C140.357 -8.41642 139.816 -8.13457 139.214 -7.6823C133.163 -3.12944 120.928 -0.748668 111.136 -2.2102L108.124 -2.668L107.869 -1.88112C107.719 -1.45508 107.364 0.90948 107.105 3.35891Z" fill="white"/>
<path d="M111.547 0.612847C113.111 0.976463 116.172 1.28171 117.67 1.22334C119.063 1.15011 119.419 1.03882 120.253 0.348641C121.695 -0.830239 123.102 -1.26029 124.786 -0.987377C125.892 -0.813777 126.571 -0.915682 127.656 -1.35512C129.54 -2.11279 136.329 -4.29771 136.646 -4.25313C136.802 -4.21326 137.451 -3.60152 138.12 -2.87926C139.333 -1.56013 139.333 -1.56013 138.896 -1.01148C138.289 -0.271514 137.55 4.55926 137.688 6.87561L137.805 8.83019L136.65 9.51098C135.771 10.0153 135.419 10.3427 135.239 10.8556C134.888 11.8111 134.536 12.0129 133.073 12.0762C131.193 12.1705 127.319 12.9172 126.816 13.2952C125.932 13.9603 120.605 14.5744 115.487 14.5899C112.617 14.5808 110.008 14.6264 109.717 14.6571C109.244 14.6983 109.133 14.593 108.75 13.6239C108.408 12.7502 108.151 12.4091 107.573 12.0585C106.899 11.6227 106.858 11.5273 107.109 10.8986C107.395 10.1493 108.074 5.6151 108.167 3.69025C108.241 2.53429 108.272 2.4488 109.106 2.13551C109.658 1.90823 110.08 1.59077 110.336 1.17817C110.823 0.403283 110.783 0.433517 111.547 0.612847ZM108.87 7.21651L108.371 11.1121L109.312 12.3212L110.238 13.5103L112.671 13.44C113.988 13.392 116.421 13.3217 118.04 13.2982C119.658 13.2748 121.046 13.2367 121.106 13.1914C121.166 13.146 120.572 12.2729 119.802 11.2493C119.067 10.2307 118.246 8.93086 118.04 8.36344C117.415 6.69635 117.628 3.927 118.481 2.46792C118.687 2.15593 116.902 1.95861 115.138 2.12306C114.484 2.17466 113.439 2.08134 112.805 1.86656C111.684 1.54726 111.608 1.57254 110.518 2.42406L109.368 3.32092L108.87 7.21651ZM119.613 2.19534C119.484 2.21393 119.671 2.74284 119.74 2.88748C119.992 2.76134 124.056 5.74459 124.718 6.62473C123.247 7.33821 122.049 10.4053 122.049 10.4053L121.83 11.1609L121.748 11.9538C121.708 12.6122 121.764 13.2302 121.825 13.3105C121.991 13.2062 122.368 12.9224 122.368 12.9224C122.422 12.284 122.973 10.9061 123.235 10.8352C123.235 10.8352 123.761 11.2835 123.793 11.3265C123.623 11.7691 123.207 11.873 123.184 11.9141C123.305 11.6977 122.509 12.1352 123.172 11.6364C124.222 10.8151 122.64 13.2836 122.368 12.9224L122.68 11.5057C122.68 11.5057 122.805 10.6244 123.193 9.73474C123.258 9.15168 125.302 6.89113 125.764 6.54343C126.809 5.75734 123.867 5.49313 123.739 4.01423C123.723 2.75227 125.813 2.05989 125.797 2.07148C125.782 2.08307 125.844 1.83955 125.749 1.71382C125.749 1.71382 124.963 1.71503 124.437 1.72697C124.437 1.72697 124.137 1.69725 123.609 1.74859L123.263 1.81207L122.697 1.84441L122.351 1.90789L121.659 2.03483C121.659 2.03483 120.085 2.03726 119.613 2.19534ZM129.21 4.01365C129.76 6.20854 129.315 8.5864 127.96 10.8003L127.287 11.8721L130.675 11.2721C133.308 10.7993 134.097 10.5514 134.273 10.1993C134.383 9.92773 135.006 9.33346 135.609 8.87995C136.694 8.06362 136.719 8.01331 136.647 6.7471C136.585 4.78236 137.029 1.77636 137.655 0.0162311L138.202 -1.5578L137.336 -2.28969C136.536 -2.9765 136.431 -2.99136 135.285 -2.50657C133.909 -1.91075 129.627 -0.700881 127.989 -0.41106L126.903 -0.222885L127.93 1.39312C128.519 2.30147 129.088 3.4762 129.21 4.01365Z" fill="white"/>
</svg>
