<svg width="103" height="106" viewBox="0 0 103 106" fill="none" xmlns="http://www.w3.org/2000/svg">
<path d="M101.458 88.8863C98.4076 79.7029 95.8479 72.7451 90.7061 59.6094C87.4249 51.3115 84.4811 43.6286 84.1395 42.5093C83.7979 41.3901 83.3204 40.4444 83.1226 40.3934C82.8883 40.3084 81.2528 42.587 79.5016 45.4249C77.7191 48.2671 76.0781 50.7407 75.8485 50.9269C75.624 51.1513 73.8098 51.6285 71.8603 52.0461C67.3098 53.0079 61.8618 54.6342 61.1519 55.2735C60.2698 56.0525 60.9974 56.9644 65.4707 60.6351C66.9791 61.9082 68.2584 63.1344 68.2943 63.4014C68.3302 63.6685 67.4201 65.4222 66.2649 67.2478C62.4124 73.3981 61.9994 74.114 62.2276 74.6271C62.3573 74.8815 64.5121 75.9899 66.9847 77.0944C81.2637 83.3688 89.9356 87.4845 95.5925 90.7241C98.0022 92.0701 100.454 93.2551 101.063 93.2896C102.022 93.316 102.168 93.2187 102.222 92.4346C102.28 91.9218 102.276 91.4174 102.26 91.303C102.214 91.1927 101.846 90.1158 101.458 88.8863ZM98.7421 86.9212C97.3443 85.0507 94.3738 80.2456 88.1482 69.7027C84.4305 63.3668 80.5411 56.9375 79.5074 55.4064C78.5049 53.8711 77.6429 52.4334 77.6121 52.2045C77.4736 51.1744 82.4868 43.0036 82.9652 43.483C83.4748 43.9582 98.8546 85.3913 99.143 87.0615C99.2256 87.4388 99.0902 87.3793 98.7421 86.9212ZM94.9826 88.3203C93.8947 87.8064 89.986 85.7299 86.3168 83.7765C77.4377 79.0672 72.6231 76.6465 68.3597 74.7731C66.4336 73.9447 64.8202 73.0742 64.7946 72.8834C64.7638 72.6545 65.9819 70.5874 67.4769 68.2112C68.977 65.8731 70.5247 63.179 70.9383 62.23L71.6557 60.4633L73.0903 62.1347C73.8804 63.0383 78.1848 67.8193 82.6399 72.7742C89.7202 80.6775 96.8728 88.8817 96.9139 89.1869C96.9241 89.2632 96.0444 88.8766 94.9826 88.3203ZM94.7321 83.3823C94.6696 83.3908 91.826 80.2388 88.442 76.3827C82.1574 69.188 79.8389 66.6257 74.3019 60.7288C71.224 57.4918 71.0836 57.3942 68.8545 56.9172C65.5423 56.1976 65.4648 55.8585 68.5293 55.4462C69.9677 55.2527 72.4852 54.7974 74.0958 54.4642L77.0306 53.7975L84.9909 67.059C89.3787 74.3534 93.3876 80.9609 93.907 81.7455C94.8782 83.285 94.9198 83.3571 94.7321 83.3823ZM69.7062 60.881C69.3869 61.5842 69.2567 61.5629 67.3946 60.0268C66.2917 59.1652 65.3868 58.3548 65.3765 58.2785C65.3457 58.0496 66.9083 58.3055 68.5693 58.82C70.0637 59.2792 70.2714 59.6397 69.7062 60.881Z" fill="#1E1E1E"/>
<path d="M66.8859 47.2039C66.3973 46.7305 65.9604 46.416 65.9172 46.5462C65.7225 46.9042 67.1606 49.6969 67.4666 49.4899C68.0544 49.1205 67.7926 48.0773 66.8859 47.2039Z" fill="#1E1E1E"/>
<path d="M60.0302 38.901C58.4202 37.5863 57.1522 37.0869 57.2471 37.792C57.3356 38.45 59.8834 41.5526 60.7709 42.1032C62.0767 42.8846 62.1845 42.8222 62.0075 41.5061C61.9063 40.7541 61.2472 39.8857 60.0302 38.901Z" fill="#1E1E1E"/>
<path d="M52.0046 32.3656C51.2155 31.1084 48.1731 29.6372 46.9443 29.9906C45.7092 30.2978 45.184 31.5437 46.3302 31.3895C46.7242 31.3365 47.8437 31.7971 48.8386 32.4154C51.7812 34.2291 53.0893 34.1942 52.0046 32.3656Z" fill="#1E1E1E"/>
<path d="M45.598 38.4118C45.0875 36.8872 44.5681 35.8645 44.4047 36.0686C44.2848 36.3123 44.3231 38.5833 44.51 41.1075C44.8445 45.2962 44.9421 45.7382 45.5467 45.9756C47.2554 46.4741 47.2903 43.3283 45.598 38.4118Z" fill="#1E1E1E"/>
<path d="M45.2187 49.943C44.4606 50.0449 42.8222 51.3469 42.4963 52.079C41.5563 54.2702 43.7513 54.8106 44.9695 52.6803C45.7611 51.3939 45.863 49.8563 45.2187 49.943Z" fill="#1E1E1E"/>
<path d="M42.2193 30.2163C41.7832 29.2534 37.5259 25.5178 36.9991 25.5886C36.2464 25.6899 36.485 26.3241 37.7324 27.622C38.359 28.2927 38.861 28.8914 38.8786 29.0223C38.8962 29.1532 38.06 29.4878 37.0674 29.799C36.0372 30.1153 34.9034 30.8008 34.4729 31.3029C33.7565 32.2432 33.7565 32.2432 37.0329 31.5359C39.8201 30.8944 40.3964 30.9057 41.1242 31.474C42.287 32.428 42.9198 31.721 42.2193 30.2163Z" fill="#1E1E1E"/>
<path d="M39.6547 54.9765C38.3983 53.9391 35.8109 53.3129 35.5563 53.9967C35.3078 54.7261 36.1286 55.9612 36.9659 56.1734C38.7478 56.5368 40.588 56.4749 40.5389 56.1103C40.5022 55.8368 40.0881 55.3357 39.6547 54.9765Z" fill="#1E1E1E"/>
<path d="M33.0919 22.2549C31.6395 21.0092 27.9919 19.6536 25.7644 19.593C24.205 19.5777 24.1667 19.5828 24.9885 20.1928C25.4628 20.5343 26.888 21.2882 28.1305 21.8416C29.379 22.4392 31.122 23.2404 31.9583 23.6683C33.1303 24.2762 33.6011 24.3029 33.8917 23.8585C34.1824 23.4141 33.9758 23.0366 33.0919 22.2549Z" fill="#1E1E1E"/>
<path d="M32.2772 35.5338C31.0721 33.9229 28.4421 38.8607 29.5543 40.7004C30.0327 41.5009 30.1021 41.4051 30.908 39.4371C31.3662 38.2511 31.8933 37.272 32.0551 37.2502C32.5809 37.1795 32.7212 36.0795 32.2772 35.5338Z" fill="#1E1E1E"/>
<path d="M31.8415 47.4977C31.157 45.1497 28.9179 44.9445 29.2282 47.2508C29.5081 49.3309 31.521 52.4209 32.1074 51.6054C32.3403 51.2058 32.213 48.7368 31.8415 47.4977Z" fill="#1E1E1E"/>
<path d="M19.5733 16.7773C18.0532 15.6575 12.184 15.578 12.3371 16.7162C12.3864 17.082 17.9457 18.8172 19.5214 18.9363C20.4455 19.0189 20.616 18.8718 20.5285 18.2214C20.4683 17.7743 20.039 17.1285 19.5733 16.7773Z" fill="#1E1E1E"/>
<path d="M6.08365 12.2208C5.84728 11.9189 4.7908 11.6319 3.73997 11.6779C2.25356 11.6871 1.69567 11.9052 1.02743 12.758L0.224279 13.772L1.14585 14.2202C2.69462 14.9655 6.03937 14.8016 6.32308 14.0005C6.63895 13.1474 6.61374 12.9601 6.08365 12.2208Z" fill="#1E1E1E"/>
</svg>
