<svg width="119" height="132" viewBox="0 0 119 132" fill="none" xmlns="http://www.w3.org/2000/svg">
<path d="M6.11707 104.405C3.15908 103.184 2.7986 100.153 5.03563 95.3116L6.17652 92.8424C8.41355 88.0009 11.0111 86.1905 13.9691 87.4113L33.6397 95.5294L67.665 21.8902L72.7397 32.6316L43.8621 25.3832C41.9978 24.8444 40.8904 23.8109 40.5399 22.2827C40.2341 20.6577 40.336 18.9127 40.8455 17.0477C41.3551 15.1827 41.923 13.5723 42.5494 12.2167C43.3995 10.3769 44.2993 9.19181 45.2488 8.66132C46.3416 8.0747 47.5737 7.94905 48.945 8.28439L88.8591 16.8017C90.0423 17.29 91.1452 18.2063 92.1676 19.5506C93.2887 20.9357 93.5584 22.2576 92.9768 23.5164L55.5289 104.563L74.3121 112.315C77.2701 113.536 77.6306 116.567 75.3936 121.408L74.2527 123.878C72.0157 128.719 69.4181 130.529 66.4602 129.309L6.11707 104.405Z" fill="#3C7572"/>
</svg>
