<svg width="79" height="117" viewBox="0 0 79 117" fill="none" xmlns="http://www.w3.org/2000/svg">
<path opacity="0.5" d="M4.31913 114.297C3.57298 114.269 2.91567 113.391 2.3472 111.662C1.88532 109.937 1.54114 107.95 1.31466 105.7C1.08818 103.45 1.00604 101.579 1.06824 100.087C1.09045 99.5537 1.16374 99.0761 1.2881 98.6538C1.41247 98.2315 1.53239 97.9157 1.64787 97.7065L44.1657 49.6558C45.4004 48.2074 46.4775 46.6998 47.3969 45.1329C48.4228 43.57 49.2401 41.8926 49.8486 40.1007C50.4571 38.3088 50.8013 36.4537 50.8813 34.5353C51.0634 30.1658 49.9198 26.8676 47.4504 24.6409C44.9811 22.4142 41.881 21.2313 38.1503 21.0924C34.5261 20.9575 31.3572 21.4266 28.6435 22.4997C25.9342 23.4662 23.6491 24.5019 21.7882 25.6067C20.0338 26.7155 18.6237 27.2501 17.5578 27.2104C15.9589 27.1508 14.4955 26.4026 13.1675 24.9655C11.844 23.4219 10.7959 21.675 10.0231 19.7249C9.25475 17.6683 8.90391 15.8406 8.97055 14.242C9.02831 12.8565 9.99432 11.4515 11.8686 10.027C13.8539 8.49979 16.4188 7.15432 19.5633 5.99053C22.7123 4.72016 26.1677 3.78143 29.9295 3.17432C33.8024 2.46461 37.6042 2.17921 41.335 2.31812C52.6338 2.73883 61.1456 5.9911 66.8705 12.0749C72.5953 18.1588 75.2667 25.7834 74.8846 34.9487C74.7425 38.3591 74.1806 41.5937 73.199 44.6526C72.324 47.7155 71.0826 50.6046 69.4748 53.32C67.8714 55.9288 66.0616 58.3698 64.0451 60.643L32.28 96.6056L69.3743 97.9867C72.5721 98.1058 74.0599 100.83 73.8378 106.158L73.7245 108.876C73.5023 114.205 71.7924 116.81 68.5946 116.69L4.31913 114.297Z" fill="#1E605D"/>
</svg>
