<svg width="118" height="132" viewBox="0 0 118 132" fill="none" xmlns="http://www.w3.org/2000/svg">
<path opacity="0.5" d="M93.4544 114.386C90.3068 115.399 87.8269 115.749 86.0145 115.437C84.3037 115.092 83.1589 114.116 82.5802 112.511L76.504 95.6524L35.687 108.792C34.8747 109.054 33.755 108.463 32.3279 107.018C30.9661 105.441 29.6843 103.613 28.4825 101.537C27.2445 99.3593 26.3904 97.6184 25.9202 96.3139C25.7755 95.9125 25.6489 95.5613 25.5404 95.2603C25.5335 94.9265 25.5627 94.6932 25.628 94.5601L44.717 15.0047C45.0591 13.4386 45.9882 12.2436 47.5042 11.4196C49.1218 10.5629 51.0475 9.77494 53.2813 9.05583L59.5257 7.04559C62.7748 5.99961 65.2548 5.6492 66.9656 5.99437C68.6764 6.33953 69.8212 7.31489 70.3999 8.92046L92.6973 70.7848L98.4848 68.9217C101.531 67.9411 103.958 69.9595 105.766 74.9769L106.689 77.5357C107.629 80.1448 107.961 82.1658 107.684 83.5987C107.407 85.0317 106.457 86.0097 104.832 86.5327L99.0448 88.3959L105.121 105.254C105.7 106.86 105.423 108.293 104.291 109.553C103.159 110.814 100.968 111.967 97.7189 113.013L93.4544 114.386ZM45.0959 94.3404L38.4777 88.2396L70.1566 78.0413L61.8018 54.861C60.97 52.553 60.2181 49.9953 59.5461 47.1878C58.9757 44.3477 58.6043 42.0595 58.4317 40.3232L48.4798 41.0072L59.8313 31.4733L45.0959 94.3404Z" fill="#3C7572"/>
</svg>
