<svg width="81" height="118" viewBox="0 0 81 118" fill="none" xmlns="http://www.w3.org/2000/svg">
<path opacity="0.5" d="M37.8426 115.826C33.3657 115.66 28.9199 114.747 24.5052 113.088C20.0905 111.429 16.0844 108.932 12.4869 105.596C9.00048 102.157 6.24911 97.7318 4.2328 92.3197C2.32308 86.9116 1.52816 80.3709 1.84804 72.6976C2.27454 62.4665 3.92463 53.6152 6.79829 46.1436C9.77855 38.6761 13.4561 32.4087 17.8309 27.3413C22.2102 22.1674 26.8159 17.9626 31.6482 14.7268C36.5914 11.3885 41.2327 8.89282 45.572 7.23981C50.0222 5.4842 53.7019 4.28697 56.611 3.64812C59.5201 3.00926 61.1346 2.69578 61.4543 2.70769C62.8401 2.75928 63.9881 3.3891 64.8986 4.59714C65.9157 5.80914 66.7084 7.27964 67.2769 9.00865C67.8454 10.7376 68.2562 12.4074 68.5093 14.0179C68.7669 15.5219 68.8779 16.7001 68.8424 17.5527C68.7979 18.6185 68.6047 19.4118 68.2627 19.9328C68.0318 20.3511 67.4855 20.651 66.6239 20.8324C58.8559 22.7847 52.3848 25.6392 47.2105 29.3959C42.1473 33.05 38.0723 37.328 34.9855 42.2298C32.0053 47.1356 29.8089 52.4441 28.3965 58.1555C26.9885 63.7603 26.1601 69.5467 25.9113 75.5149C25.747 79.4581 25.9268 82.8271 26.4508 85.6218C27.0859 88.314 28.0097 90.4832 29.2222 92.1294C30.4346 93.7756 31.8248 95.0015 33.3926 95.8071C35.0669 96.6166 36.8635 97.0571 38.7821 97.1285C41.6602 97.2357 44.1384 96.6875 46.217 95.4841C48.3 94.174 49.9256 92.3132 51.0937 89.9017C52.2618 87.4902 52.917 84.5792 53.0591 81.1689C53.1969 77.8651 52.7283 75.019 51.6536 72.6307C50.6854 70.2464 49.1087 68.3731 46.9236 67.0109C44.845 65.6526 42.2602 64.916 39.169 64.8009C35.6514 64.6699 32.1538 65.3402 28.6762 66.8118C25.1986 68.2834 21.8653 70.134 18.6764 72.3635L22.3074 54.4064C27.2641 50.7483 31.7365 48.4598 35.7249 47.5409C39.7133 46.622 43.4129 46.2261 46.8239 46.3531C49.8085 46.4642 53.0352 47.1714 56.5038 48.4747C60.0836 49.6754 63.4723 51.6162 66.6701 54.297C69.8678 56.9778 72.4415 60.5427 74.3912 64.9916C76.3409 69.4405 77.1803 74.9155 76.9093 81.4165C76.6383 87.9175 75.288 93.4177 72.8585 97.917C70.5401 102.314 67.5088 105.883 63.7647 108.626C60.025 111.262 55.8879 113.189 51.3532 114.408C46.823 115.52 42.3195 115.993 37.8426 115.826Z" fill="#1E605D"/>
</svg>
