<svg width="74" height="70" viewBox="0 0 74 70" fill="none" xmlns="http://www.w3.org/2000/svg">
<path d="M72.2985 42.4296C67.7325 61.0478 48.0625 72.6459 28.3575 68.3297C25.6655 67.7399 23.1125 66.8837 20.7225 65.7959C17.7165 64.4312 14.9675 62.6998 12.5245 60.6782C10.3425 58.8741 8.40547 56.8355 6.74447 54.6174C6.23647 53.9398 5.75447 53.2451 5.30047 52.5344C3.30147 49.4147 1.82146 45.9973 0.941465 42.4078C0.768465 41.7066 0.618466 40.9996 0.494466 40.287C-0.273534 35.934 -0.166534 31.3673 0.953466 26.8016C1.05547 26.3848 1.16746 25.969 1.28946 25.556C6.40546 7.66832 25.6365 -3.31736 44.8945 0.901506C49.6335 1.93921 53.9425 3.80385 57.6895 6.2951C58.4135 6.7771 59.1165 7.28083 59.7975 7.80914C62.7745 10.1104 65.3315 12.8304 67.3935 15.8509C67.8475 16.5162 68.2785 17.1957 68.6835 17.8894C70.1255 20.3561 71.2525 22.991 72.0255 25.7374C72.8225 28.5689 73.2445 31.5185 73.2505 34.5239C73.2545 36.7193 73.0355 38.9422 72.5775 41.1726C72.4955 41.5932 72.4005 42.0128 72.2985 42.4296Z" fill="#004C48"/>
<path d="M72.2985 42.4296C67.7325 61.0478 48.0625 72.6459 28.3575 68.3297C25.6655 67.7399 23.1125 66.8837 20.7225 65.7959C17.7165 64.4312 14.9675 62.6998 12.5245 60.6782C10.3425 58.8741 8.40547 56.8355 6.74447 54.6174C6.23647 53.9398 5.75447 53.2451 5.30047 52.5344C3.30147 49.4147 1.82146 45.9973 0.941465 42.4078C0.768465 41.7066 0.618466 40.9996 0.494466 40.287C-0.273534 35.934 -0.166534 31.3673 0.953466 26.8016C1.05547 26.3848 1.16746 25.969 1.28946 25.556C6.40546 7.66832 25.6365 -3.31736 44.8945 0.901506C49.6335 1.93921 53.9425 3.80385 57.6895 6.2951C58.4135 6.7771 59.1165 7.28083 59.7975 7.80914C62.7745 10.1104 65.3315 12.8304 67.3935 15.8509C67.8475 16.5162 68.2785 17.1957 68.6835 17.8894C70.1255 20.3561 71.2525 22.991 72.0255 25.7374C72.8225 28.5689 73.2445 31.5185 73.2505 34.5239C73.2545 36.7193 73.0355 38.9422 72.5775 41.1726C72.4955 41.5932 72.4005 42.0128 72.2985 42.4296Z" fill="#005853"/>
<path opacity="0.6" d="M64.8084 42.094C64.9444 41.406 65.0494 40.7151 65.1254 40.0281C65.4774 36.9131 65.2584 33.8274 64.5364 30.8872C63.8034 27.8676 62.5294 25.0002 60.8074 22.4098C60.3644 21.7387 59.8904 21.0866 59.3914 20.4582C57.0744 17.5454 54.1474 15.0523 50.7404 13.1753C49.9034 12.7198 49.0374 12.2935 48.1554 11.9117C46.4084 11.1604 44.5654 10.564 42.6314 10.1397C27.3434 6.7922 12.0314 15.4766 7.83643 29.6132C7.92543 29.1993 8.01543 28.7853 8.11443 28.3695C11.7574 13.5146 27.5164 4.22534 43.2354 7.66829C58.9594 11.1141 68.7824 26.0049 65.1394 40.8607C65.0384 41.2756 64.9244 41.6895 64.8084 42.094Z" fill="black"/>
<g opacity="0.3">
<path d="M30.0174 61.5609C29.6724 61.4891 29.3404 61.4097 29.0074 61.3209L29.0014 61.3171C28.6584 61.2302 28.3244 61.1413 27.9894 61.044C27.9044 61.0213 27.8234 60.992 27.7394 60.9693C27.3774 60.8616 27.0234 60.7444 26.6744 60.63C26.6204 60.6111 26.5664 60.5922 26.5184 60.5771C25.3674 60.1811 24.2584 59.7171 23.1924 59.1925C22.8314 59.0139 22.4704 58.8353 22.1214 58.6406C21.4154 58.2616 20.7344 57.86 20.0734 57.43L20.0564 57.4186C19.8434 57.2806 19.6294 57.1332 19.4204 56.9895C19.3054 56.9149 19.1944 56.8345 19.0774 56.7514C18.9084 56.6342 18.7444 56.5113 18.5854 56.3923C18.3294 56.2099 18.0804 56.0161 17.8354 55.8176C17.5164 55.57 17.2044 55.312 16.9004 55.0427C16.5984 54.7828 16.2954 54.5134 16.0054 54.2375C15.7654 54.0097 15.5304 53.7848 15.2984 53.5456C15.1434 53.3973 14.9974 53.2385 14.8504 53.0788C14.7264 52.9578 14.6104 52.8264 14.4904 52.7007C14.3554 52.5486 14.2204 52.3974 14.0904 52.249C13.8774 52.0061 13.6684 51.7585 13.4634 51.5052C13.2844 51.285 13.1064 51.0657 12.9414 50.838C12.9014 50.7879 12.8614 50.7378 12.8214 50.6887C12.5824 50.3654 12.3434 50.0422 12.1124 49.7086C11.8964 49.4005 11.6944 49.0848 11.4904 48.7607C11.4774 48.7437 11.4694 48.7314 11.4564 48.7144C11.3334 48.5225 11.2144 48.325 11.1014 48.1322C10.9824 47.9347 10.8734 47.7362 10.7644 47.5368C10.6574 47.3468 10.5494 47.1569 10.4464 46.9622C10.3394 46.7486 10.2284 46.5407 10.1274 46.3308C10.0274 46.1305 9.9324 45.9245 9.8314 45.7147C9.7354 45.5086 9.6464 45.3064 9.5544 45.0947C9.3654 44.6684 9.1904 44.2337 9.0264 43.7838C8.9554 43.6024 8.8904 43.4238 8.8294 43.2404C8.6674 42.7991 8.5294 42.3492 8.4004 41.8984C8.3324 41.6782 8.2694 41.4618 8.2164 41.2435C8.0294 40.546 7.88139 39.8419 7.75239 39.135C7.72039 38.9459 7.6924 38.7522 7.6604 38.5632C7.5974 38.1379 7.5394 37.7173 7.4954 37.2883C7.4914 37.2703 7.49239 37.2457 7.48839 37.2278C7.44439 36.7997 7.41039 36.3687 7.39139 35.9415C7.38239 35.744 7.36839 35.5427 7.36339 35.3395C7.35939 35.2403 7.3644 35.1401 7.3604 35.0418C7.3534 34.8292 7.3534 34.6212 7.3564 34.4076C7.3544 34.3746 7.3534 34.3415 7.3574 34.3122C7.3554 34.0712 7.36239 33.8274 7.37639 33.5883C7.38439 33.3217 7.39739 33.0581 7.42139 32.7934C7.43439 32.5307 7.45839 32.2651 7.48739 32.0043C7.50639 31.7926 7.53039 31.5847 7.55839 31.3711C7.57239 31.2359 7.5914 31.1046 7.6104 30.9732C7.6344 30.7889 7.66239 30.5989 7.69639 30.4128C7.73939 30.1444 7.78739 29.8797 7.83639 29.6161C12.0314 15.4794 27.3424 6.79599 42.6314 10.1425C44.5654 10.5669 46.4084 11.1642 48.1554 11.9146C49.0374 12.2955 49.9044 12.7226 50.7404 13.1782C54.1484 15.056 57.0754 17.5482 59.3914 20.461C59.8904 21.0895 60.3644 21.7406 60.8074 22.4126C62.5294 25.0031 63.8044 27.8705 64.5364 30.89C65.2584 33.8302 65.4774 36.9169 65.1254 40.0309C65.0494 40.717 64.9444 41.4088 64.8084 42.0969C60.6134 56.2306 45.3014 64.9141 30.0174 61.5609Z" fill="black"/>
</g>
<g opacity="0.6">
<path d="M36.8415 50.7728L35.7435 55.2496L29.7265 53.9312L30.7745 49.6557C26.5665 48.479 22.6935 46.483 20.4995 44.4303L25.4445 38.2031C27.8755 40.3929 31.3835 42.2244 34.6695 42.9436C37.5285 43.5702 38.6915 43.23 38.9285 42.2613C39.7985 38.7125 22.5805 37.9583 25.1625 27.431C26.2805 22.8729 30.7195 19.8079 37.9455 20.4137L39.0235 16.0172L45.0405 17.3356L43.9825 21.6508C47.0715 22.6252 49.9565 24.0646 52.0725 25.8877L47.3515 32.1205C44.7535 30.064 42.1475 28.7702 39.5435 28.2003C36.5985 27.5558 35.4625 28.1559 35.2245 29.1246C34.3935 32.5127 51.6015 33.3066 49.0505 43.713C47.9815 48.0708 43.7235 51.1328 36.8415 50.7728Z" fill="black"/>
</g>
<path d="M37.0314 49.2445L35.9335 53.7214L29.9165 52.403L30.9644 48.1274C26.7564 46.9508 22.8835 44.9548 20.6895 42.9021L25.6345 36.6749C28.0655 38.8647 31.5735 40.6962 34.8595 41.4154C37.7185 42.042 38.8815 41.7018 39.1185 40.7331C39.9885 37.1843 22.7704 36.4301 25.3524 25.9028C26.4704 21.3446 30.9095 18.2797 38.1355 18.8855L39.2135 14.489L45.2305 15.8074L44.1714 20.1226C47.2604 21.097 50.1454 22.5364 52.2614 24.3595L47.5405 30.5923C44.9415 28.5358 42.3365 27.242 39.7325 26.6721C36.7875 26.0275 35.6515 26.6277 35.4135 27.5954C34.5825 30.9836 51.7904 31.7784 49.2384 42.1838C48.1724 46.5425 43.9134 49.6046 37.0314 49.2445Z" fill="#004C48"/>
</svg>
