<svg width="101" height="96" viewBox="0 0 101 96" fill="none" xmlns="http://www.w3.org/2000/svg">
<path d="M84.778 37.9566C90.9232 56.3812 80.3528 75.6504 61.1599 80.9944C58.5378 81.7245 55.8908 82.1566 53.2582 82.3105C49.949 82.507 46.6617 82.2633 43.4797 81.6237C40.6383 81.0536 37.8801 80.1648 35.261 78.9909C34.4604 78.6325 33.6729 78.2472 32.9007 77.8348C29.5056 76.0276 26.3939 73.7192 23.7028 70.9822C23.1762 70.448 22.6661 69.8982 22.1753 69.3314C19.1677 65.8736 16.7936 61.8235 15.2869 57.3052C15.1491 56.8928 15.0204 56.4767 14.9018 56.0584C9.62179 38.0191 20.1472 19.4897 38.905 14.2674C43.5207 12.9818 48.2148 12.6199 52.7664 13.0671C53.6462 13.154 54.5198 13.2698 55.3878 13.4172C59.1779 14.0546 62.8346 15.2532 66.23 16.9444C66.9778 17.317 67.7135 17.7127 68.4346 18.1328C71.0004 19.6259 73.3875 21.4123 75.5319 23.4603C77.7427 25.5716 79.6964 27.9602 81.3242 30.5902C82.513 32.5116 83.5258 34.5603 84.3381 36.7263C84.495 37.1327 84.6403 37.5443 84.778 37.9566Z" fill="#004C48"/>
<path d="M84.778 37.9566C90.9232 56.3812 80.3528 75.6504 61.1599 80.9944C58.5378 81.7245 55.8908 82.1566 53.2582 82.3105C49.949 82.507 46.6617 82.2633 43.4797 81.6237C40.6383 81.0536 37.8801 80.1648 35.261 78.9909C34.4604 78.6325 33.6729 78.2472 32.9007 77.8348C29.5056 76.0276 26.3939 73.7192 23.7028 70.9822C23.1762 70.448 22.6661 69.8982 22.1753 69.3314C19.1677 65.8736 16.7936 61.8235 15.2869 57.3052C15.1491 56.8928 15.0204 56.4767 14.9018 56.0584C9.62179 38.0191 20.1472 19.4897 38.905 14.2674C43.5207 12.9818 48.2148 12.6199 52.7664 13.0671C53.6462 13.154 54.5198 13.2698 55.3878 13.4172C59.1779 14.0546 62.8346 15.2532 66.23 16.9444C66.9778 17.317 67.7135 17.7127 68.4346 18.1328C71.0004 19.6259 73.3875 21.4123 75.5319 23.4603C77.7427 25.5716 79.6964 27.9602 81.3242 30.5902C82.513 32.5116 83.5258 34.5603 84.3381 36.7263C84.495 37.1327 84.6403 37.5443 84.778 37.9566Z" fill="#005853"/>
<path opacity="0.6" d="M78.4032 41.1856C78.1485 40.5186 77.8656 39.8635 77.5598 39.2252C76.1798 36.3279 74.325 33.7221 72.1165 31.4783C69.8557 29.1699 67.2122 27.247 64.3332 25.7756C63.5901 25.393 62.8306 25.0415 62.0623 24.7223C58.498 23.2452 54.6362 22.4203 50.6947 22.3595C49.7294 22.3495 48.755 22.3787 47.7909 22.4543C45.8838 22.6084 43.978 22.9432 42.0868 23.4713C27.1414 27.652 18.6739 42.4018 22.7045 56.7598C22.5574 56.3551 22.4111 55.95 22.2716 55.539C17.3788 40.8077 25.9036 25.319 41.271 21.0214C56.6442 16.724 73.1282 25.2171 78.0215 39.9493C78.1588 40.3604 78.2844 40.7767 78.4032 41.1856Z" fill="black"/>
<g opacity="0.3">
<path d="M58.9116 74.2932C58.5775 74.3901 58.2505 74.4743 57.9174 74.5507L57.9103 74.5502C57.5697 74.6329 57.2358 74.7098 56.8965 74.7796C56.8115 74.7991 56.7264 74.811 56.6422 74.83C56.2742 74.9033 55.9078 74.9646 55.5474 75.026C55.4909 75.0345 55.4345 75.0429 55.3852 75.0519C54.1861 75.2381 52.9863 75.3452 51.7905 75.3793C51.385 75.39 50.9796 75.4007 50.5757 75.3918C49.7667 75.3867 48.9668 75.3502 48.1688 75.2796L48.1481 75.2775C47.8913 75.2553 47.6285 75.2252 47.372 75.1962C47.2332 75.184 47.0949 75.165 46.9498 75.1463C46.7418 75.1219 46.5351 75.0903 46.3347 75.0596C46.0171 75.0183 45.6993 74.9639 45.3824 74.9035C44.9756 74.8343 44.5692 74.7527 44.1635 74.6575C43.7646 74.5696 43.3598 74.474 42.9625 74.3665C42.6341 74.2781 42.3115 74.1898 41.9837 74.0878C41.7709 74.0296 41.5602 73.9581 41.3481 73.8862C41.1767 73.8376 41.0064 73.7763 40.8358 73.7217C40.6381 73.6509 40.4409 73.5809 40.2494 73.5111C39.9359 73.397 39.6233 73.2768 39.311 73.1498C39.0389 73.0398 38.7681 72.9301 38.5039 72.8069C38.4426 72.7816 38.3813 72.7562 38.3205 72.7317C37.9414 72.5592 37.5622 72.3866 37.1843 72.2013C36.833 72.0314 36.4897 71.8484 36.14 71.6588C36.1197 71.6499 36.1062 71.6429 36.0859 71.634C35.877 71.5228 35.6684 71.4049 35.4676 71.2883C35.259 71.1703 35.0585 71.0469 34.8575 70.9227C34.6634 70.8058 34.4683 70.6893 34.275 70.5665C34.0681 70.4289 33.8608 70.2981 33.661 70.161C33.4672 70.0318 33.2746 69.8952 33.0748 69.7582C32.8814 69.6221 32.696 69.4861 32.5029 69.3432C32.1109 69.0573 31.7264 68.7574 31.343 68.4392C31.1842 68.3131 31.0321 68.1867 30.8809 68.0543C30.5039 67.7426 30.1428 67.4123 29.7889 67.077C29.6118 66.9156 29.441 66.7551 29.2777 66.5883C28.7409 66.0638 28.234 65.5154 27.7418 64.9557C27.6123 64.8049 27.4837 64.6481 27.3542 64.4973C27.0706 64.1538 26.7938 63.8121 26.5244 63.4566C26.5113 63.4427 26.4989 63.4207 26.4858 63.4068C26.2169 63.052 25.955 62.6901 25.7081 62.3246C25.5937 62.1557 25.473 61.9858 25.359 61.8101C25.302 61.725 25.2521 61.6349 25.1956 61.5506C25.0748 61.3675 24.9625 61.1853 24.8497 60.9968C24.8301 60.9687 24.8114 60.9402 24.799 60.9127C24.6672 60.7024 24.5415 60.4855 24.4243 60.2695C24.2872 60.0323 24.1559 59.7952 24.0336 59.5522C23.9028 59.316 23.7799 59.0721 23.6639 58.8301C23.5658 58.6358 23.474 58.4425 23.3827 58.2424C23.3217 58.1175 23.267 57.9936 23.2123 57.8697C23.1333 57.6971 23.0547 57.5176 22.9832 57.3387C22.8751 57.0836 22.7732 56.8295 22.6728 56.5758C18.6288 42.2453 27.0449 27.5442 41.9392 23.3946C43.8239 22.8706 45.724 22.5403 47.6247 22.3886C48.5853 22.3138 49.5581 22.2865 50.5198 22.2984C54.4511 22.3653 58.3025 23.1933 61.858 24.6729C62.6246 24.9924 63.382 25.3434 64.1241 25.727C66.9971 27.1993 69.6371 29.1213 71.8944 31.4281C74.1003 33.67 75.9548 36.2733 77.3353 39.1651C77.6408 39.8015 77.9246 40.4563 78.1798 41.1222C82.2222 55.4502 73.8053 70.1518 58.9116 74.2932Z" fill="black"/>
</g>
<g opacity="0.6">
<path d="M58.9096 61.6556L60.3848 66.0779L54.5372 67.7051L53.1278 63.4821C48.9011 64.3975 44.5188 64.4415 41.5394 63.6602L42.4053 55.9299C45.6609 56.7215 49.6429 56.7023 52.836 55.8129C55.6146 55.0398 56.4241 54.2049 56.1044 53.2483C54.9347 49.743 39.8282 57.0392 36.3592 46.6403C34.8573 42.1378 36.9954 37.4065 43.4911 34.5975L42.0421 30.2547L47.8897 28.6274L49.312 32.8899C52.4743 32.3146 55.7131 32.2403 58.5022 32.8568L57.8306 40.4886C54.5042 39.8907 51.5821 39.9634 49.0517 40.6682C46.1901 41.4653 45.5436 42.515 45.8625 43.4721C46.9789 46.8189 62.0982 39.5621 65.5285 49.8408C66.9643 54.1455 64.9792 58.7906 58.9096 61.6556Z" fill="black"/>
</g>
<path d="M58.2655 60.2424L59.7408 64.6646L53.8932 66.2919L52.4837 62.0688C48.257 62.9842 43.8747 63.0283 40.8953 62.247L41.7612 54.5166C45.0168 55.3083 48.9989 55.289 52.1919 54.3997C54.9705 53.6266 55.7801 52.7917 55.4604 51.8351C54.2906 48.3297 39.1841 55.6259 35.7152 45.2271C34.2132 40.7245 36.3513 35.9933 42.8471 33.1842L41.398 28.8415L47.2456 27.2142L48.6671 31.4771C51.8294 30.9019 55.0682 30.8275 57.8573 31.444L57.1857 39.0758C53.8584 38.4783 50.9371 38.5506 48.4068 39.2554C45.5452 40.0526 44.8987 41.1022 45.2171 42.0585C46.3335 45.4053 61.4533 38.1493 64.8822 48.4276C66.3211 52.7318 64.3351 57.3774 58.2655 60.2424Z" fill="#004C48"/>
</svg>
