<svg width="445" height="122" viewBox="0 0 445 122" fill="none" xmlns="http://www.w3.org/2000/svg">
<path d="M108.106 12.2246C109.86 12.2164 111.625 12.3176 113.366 12.1555C118.148 11.7113 122.91 11.0145 127.696 10.6814C132.645 10.3375 137.614 10.3063 142.573 10.1319C145.57 10.0266 148.603 10.1656 151.555 9.74607C158.56 8.75069 165.584 8.12468 172.649 7.81372C176.291 7.65331 179.914 7.1877 183.563 6.99027C190.183 6.63161 196.785 5.96116 203.401 5.52517C207.281 5.26934 211.213 5.50625 215.054 5.00692C221.438 4.17771 227.748 2.83191 234.225 2.68219C236.304 2.63365 238.372 2.08991 240.446 1.77238C238.246 0.690625 236.086 1.51489 233.928 1.61279C230.562 1.7658 227.211 2.25114 223.856 2.62297C219.309 3.12641 214.866 4.41791 210.236 4.34717C208.109 4.31509 205.93 4.25588 203.857 4.51336C200.649 4.91151 197.411 5.31705 194.219 5.41906C187.559 5.63047 180.952 6.42923 174.314 6.82902C171.701 6.98615 169.081 6.91377 166.482 7.16384C160.479 7.74297 154.498 8.7326 148.484 8.97034C143.127 9.18258 137.767 9.71893 132.39 9.47378C131.606 9.43841 130.814 9.52724 130.027 9.57084C122.758 9.97063 115.57 11.5048 108.246 11.1124C107.781 11.0878 107.463 11.2186 107.442 11.7146C107.421 12.1588 107.77 12.2263 108.106 12.2246Z" fill="#35817D"/>
<path d="M444.087 65.5268C443.635 65.558 443.167 65.5515 442.739 65.6773C439.539 66.6151 436.201 66.7747 432.936 67.0067C428.473 67.3242 424.074 68.1164 419.716 68.8576C410.775 70.3794 401.71 70.7348 392.779 72.2221C389.447 72.7766 386.006 72.8103 382.746 73.6156C378.02 74.7829 373.306 76.0646 368.473 76.5212C360.645 77.2599 352.781 77.6078 344.941 78.2215C342.892 78.3819 340.758 78.3243 338.381 79.3008C339.429 79.8659 340.034 79.7952 340.6 79.6775C345.716 78.6172 350.935 78.5382 356.11 78.2379C360.378 77.9903 364.656 77.723 368.893 77.2722C376.568 76.4553 383.987 74.1174 391.662 73.1319C397.562 72.3751 403.463 71.6677 409.377 71.0326C413.3 70.6114 417.195 69.9327 421.122 69.5658C424.468 69.2524 427.69 68.0572 431.011 67.9675C435.437 67.8482 439.75 66.824 444.159 66.7146C444.532 66.7056 444.969 66.7994 444.998 66.1972C445.035 65.4955 444.57 65.493 444.087 65.5268Z" fill="#35817D"/>
<path d="M305.934 70.5883C301.676 70.9905 297.414 71.3582 293.167 71.8666C289.413 72.3166 285.679 72.9385 281.936 73.4847C281.411 73.4847 280.887 73.4847 280.362 73.4847C280.134 73.5802 279.909 73.7472 279.676 73.7611C273.107 74.1568 266.551 74.9153 259.911 74.4563C260.082 75.7938 261.126 75.3759 261.858 75.3891C268.449 75.51 274.993 74.8906 281.53 74.1437C281.665 74.1437 281.801 74.1437 281.936 74.1437C283.981 73.9002 286.034 73.706 288.071 73.4025C291.91 72.8291 295.759 72.4343 299.633 72.1282C304.517 71.7424 309.355 70.8128 314.27 70.6426C314.936 70.5932 315.638 70.8408 316.26 70.4089C326.891 69.421 337.528 68.5441 348.221 68.6658C348.897 68.6049 349.629 68.9101 350.231 68.3598C351.998 68.3186 353.795 68.4618 355.532 68.2051C363.172 67.074 370.92 67.3422 378.575 66.346C382.628 65.8187 386.742 65.7702 390.829 65.5184C391.299 65.4888 391.78 65.5653 391.696 64.8398C391.628 64.2524 391.206 64.319 390.825 64.3561C389.151 64.5173 387.479 64.6728 385.799 64.7912C380.321 65.1771 374.866 65.8722 369.388 66.2794C366.195 66.5171 362.966 66.5467 359.788 66.8075C352.708 67.3891 345.636 67.9106 338.53 67.9205C338.071 67.9205 337.611 67.9246 337.153 67.9608C330.878 68.461 324.6 68.9529 318.326 69.4761C314.194 69.8224 310.063 70.1984 305.934 70.5883Z" fill="#35817D"/>
<path d="M383.799 34.1493C378.932 35.0567 374.118 36.3408 369.167 36.6723C361.54 37.1848 353.898 37.4974 346.265 37.9169C343.848 38.0494 341.424 38.1538 339.024 38.4434C333.151 39.1533 327.29 39.9636 321.424 40.7344C320.711 40.7262 319.985 40.8011 319.286 40.6925C317.658 40.4408 316.04 41.7092 314.425 40.6916C313.334 40.7616 312.203 40.3404 311.156 40.9615C302.936 41.0001 294.715 41.0396 286.492 41.0783C285.632 41.1466 284.727 40.7813 283.916 41.3407C283.126 41.3975 282.337 41.4542 281.547 41.511C278.912 41.7685 276.277 42.0268 273.643 42.2851C270.617 42.5516 267.591 42.8173 264.565 43.083C262.714 43.3232 260.87 43.6646 259.012 43.7798C255.365 44.0068 251.711 44.1146 248.06 44.2495C247.572 44.2676 247.12 44.2034 247.185 44.9084C247.24 45.5106 247.697 45.3485 248.059 45.3831C249.296 45.5032 250.487 45.147 251.701 45.0458C256.253 44.6674 260.837 44.6452 265.339 43.7378C268.108 43.4738 270.877 43.2097 273.645 42.9457C276.799 42.6775 279.953 42.4085 283.106 42.1403C284.482 41.7339 285.898 41.8145 287.299 41.8499C296.31 42.0745 305.307 41.1778 314.319 41.5299C314.973 41.9799 315.626 41.9881 316.276 41.5209C318.377 41.4551 320.478 41.3892 322.58 41.3226C326.093 40.8356 329.592 40.2474 333.117 39.8855C338.361 39.3467 343.583 38.7494 348.903 38.9271C353.388 39.0777 357.901 38.385 362.403 38.0823C366.611 37.8001 370.856 37.6636 374.98 36.7957C381.688 35.3833 388.434 34.2028 395.248 33.5866C401.007 33.0659 406.809 33.0182 412.592 32.7443C413.056 32.7221 413.77 32.9763 413.794 32.1462C413.82 31.2405 413.072 31.6296 412.634 31.5819C412.248 31.5391 411.849 31.6206 411.456 31.6477C406.608 31.9817 401.764 32.3856 396.912 32.6291C392.502 32.852 388.133 33.3415 383.799 34.1493Z" fill="#35817D"/>
<path d="M374.001 98.713C370.816 99.1827 367.644 99.7339 364.469 100.271C356.255 101.662 347.932 101.944 339.655 102.678C337.576 102.862 335.49 103.004 333.412 103.155C327.785 103.566 322.173 104.156 316.523 104.285C314.194 104.339 311.858 104.554 309.548 104.865C304.206 105.584 298.85 106.064 293.462 106.215C290.264 106.305 287.073 106.502 283.915 107.053C279.79 107.323 275.664 107.569 271.542 107.873C268.371 108.108 265.208 108.495 262.032 108.679C256.966 108.974 251.934 109.739 246.848 109.767C246.129 109.776 245.41 109.785 244.69 109.794C244.078 109.931 243.465 110.068 242.853 110.206C238.608 109.823 234.379 110.422 230.165 110.671C228.112 110.793 225.898 110.404 223.899 111.344C223.238 111.362 222.579 111.377 221.919 111.394C221.002 111.409 220.085 111.422 219.168 111.437C217.681 111.751 216.236 112.136 214.673 112.215C211.032 112.401 208.1 110.653 205.198 108.974C201.596 106.891 198.184 104.48 194.69 102.21C195.566 101.054 196.895 101.697 197.98 101.38C204.611 99.4427 211.476 98.9951 218.287 98.3543C224.123 97.8056 230.005 97.7374 235.868 97.4651C238.666 97.3351 241.473 97.312 244.261 97.0743C246.169 96.9114 248.053 96.4598 249.948 96.1373C249.076 95.3682 248.188 95.5426 247.317 95.6446C245.523 95.856 243.739 96.1604 241.941 96.3134C236.822 96.7477 231.68 96.6309 226.557 96.8448C222.11 97.0307 217.682 97.7267 213.222 97.9858C210.646 98.1363 208.101 98.7961 205.526 98.9647C201.715 99.2148 198.148 100.901 194.287 100.738C193.683 100.544 193.042 100.748 192.42 100.353C189.89 98.7442 187.205 97.3614 184.763 95.6314C180.647 92.7136 176.111 90.5427 171.792 87.9893C172.792 87.3542 173.912 87.3081 175.056 87.225C179.518 86.9017 183.984 87.2308 188.459 86.9231C195.945 86.4106 203.457 86.2305 210.963 86.0972C215.133 86.024 219.306 86.0339 223.491 86.3243C230.972 86.8442 238.465 86.1145 245.955 85.9837C246.741 85.9697 247.66 86.2963 248.366 85.5971C250.722 85.7172 253.062 85.4202 255.407 85.3346C261.571 85.1092 267.701 84.415 273.852 84.1476C282.761 83.7593 291.628 82.8487 300.536 82.4242C308.606 82.0392 316.667 81.2857 324.745 80.9163C327.433 80.7938 330.13 80.8974 332.823 80.8974C332.432 80.1101 331.944 79.7556 331.291 79.7762C327.541 79.8963 323.782 79.8971 320.046 80.1957C314.106 80.6704 308.159 81.0175 302.227 81.6501C298.072 82.0935 293.85 81.8739 289.678 82.2079C286.442 82.4662 283.218 82.8125 279.97 82.9967C274.255 83.3217 268.565 84.0604 262.851 84.438C258.185 84.7465 253.502 84.7703 248.827 84.948C248.411 84.9636 247.886 84.7448 247.579 85.2647C240.898 85.1635 234.235 85.8529 227.546 85.6851C219.766 85.4893 211.973 85.1973 204.201 85.4284C197.289 85.6341 190.389 86.3267 183.464 86.4567C179.471 86.5316 175.465 86.1622 171.486 86.8178C170.743 86.9404 170.045 86.8367 169.324 86.2584C167.462 84.7637 165.451 83.4525 163.5 82.0688C161.568 80.301 159.637 78.534 157.545 76.6198C164.036 75.807 170.384 76.285 176.707 76.0727C179.276 75.9863 181.873 76.6362 184.415 75.8004C186.52 75.798 188.627 75.7955 190.734 75.793C191.39 75.7116 192.105 76.0069 192.693 75.4862C196.03 75.1473 199.372 74.8569 202.703 74.4587C207.438 73.8928 212.168 73.275 216.893 72.6259C219.852 72.2195 222.852 72.0452 225.743 71.2258C225.896 71.2554 226.096 71.1682 226.303 71.0679C230.145 70.9873 233.914 70.1515 237.733 69.9014C244.461 69.4605 251.157 68.897 257.857 68.0126C265.037 67.0642 272.229 66.1938 279.412 65.2412C285.879 64.3841 292.298 63.2357 298.733 62.2395C306.278 61.0713 313.859 60.2389 321.407 59.139C323.087 59.1612 324.725 58.5936 326.423 58.805C326.781 58.8494 327.335 58.8396 327.24 58.281C327.155 57.7866 326.81 57.7002 326.213 57.8327C323.998 58.3221 321.734 58.4982 319.462 58.5409C318.005 58.7614 316.545 58.9654 315.091 59.204C311.203 59.8432 307.254 59.9592 303.371 60.7201C299.173 61.5427 294.932 62.1802 290.69 62.7347C286.718 63.2529 282.782 63.9991 278.822 64.5881C272.606 65.5135 266.386 66.3748 260.145 67.0921C255.562 67.6194 250.971 68.0768 246.368 68.4593C239.391 69.0401 232.398 69.5616 225.481 70.729C224.484 70.3966 223.591 70.9782 222.644 71.0852C217.288 71.6873 211.943 72.3775 206.599 73.0776C201.739 73.7134 196.896 74.5056 191.981 74.6307C191.3 74.6718 190.579 74.4028 189.952 74.8857C187.988 75.2279 185.96 74.7458 184.003 75.1802C183.775 75.1695 183.491 75.325 183.233 75.3998C174.454 75.3093 165.669 74.4176 156.891 75.7256C157.196 74.4958 157.979 73.5144 158.176 72.4466C158.385 71.313 158.856 71.067 159.824 70.8713C166.576 69.5065 173.307 68.0398 180.064 66.6981C186.062 65.5078 192.078 64.4062 198.097 63.3245C202.093 62.6055 206.06 61.7492 210.068 61.0788C214.407 60.3524 218.657 59.1637 222.677 57.1598C224.879 56.0632 226.719 53.9351 229.933 55.1295C233.979 56.6325 238.108 58.0375 242.465 58.6701C246.721 59.2887 250.871 60.6863 255.245 60.3639C256.133 60.2989 256.95 60.5761 257.694 60.827C259.574 61.4613 261.476 61.2178 263.327 61.1075C264.794 61.0212 265.886 59.8465 266.109 58.3131C266.321 56.8595 265.673 56.0089 264.079 55.5943C261.242 54.8572 258.42 53.9696 255.711 52.8574C251.221 51.0131 246.332 50.3073 242.061 47.8189C239.016 46.0445 236.937 40.6727 238.642 37.5994C241.506 32.4317 243.603 26.9053 246.31 21.6668C246.599 21.1066 246.82 20.9668 247.342 20.8105C249.508 20.1614 251.754 20.8088 253.921 20.3325C254.051 20.3226 254.181 20.3128 254.314 20.3029C258.775 19.9673 263.238 19.6431 267.696 19.282C268.636 19.2063 269.64 19.6078 270.512 18.9489C272.606 18.9234 274.698 18.8979 276.791 18.8724C277.449 18.8658 278.106 18.8592 278.764 18.8534C280.644 18.865 282.514 18.7267 284.391 18.6083C290.304 18.2365 296.213 17.7956 302.125 17.4237C310.621 16.8882 319.112 16.1923 327.614 15.8492C336.228 15.5013 344.806 14.779 353.394 14.1291C358.984 13.7943 364.578 13.7063 370.175 13.819C370.803 13.8313 371.512 13.7589 371.437 13.0161C371.362 12.3004 370.588 12.678 370.124 12.6212C367.281 12.2716 364.484 13.2111 361.62 12.8911C358.868 12.5834 356.119 12.9437 353.396 13.4142C345.681 13.443 338.043 14.626 330.346 14.9624C319.725 15.4264 309.115 16.082 298.517 16.9376C291.685 17.4887 284.834 17.7947 277.992 18.2102C276.467 18.2077 274.925 17.9329 273.436 18.4915C271.929 18.5326 270.424 18.5746 268.917 18.6157C266.076 18.7391 263.206 18.656 260.401 19.0443C258.014 19.375 255.591 19.1208 253.223 19.5157C252.9 19.5116 252.583 19.5453 252.276 19.7098C250.643 19.7098 249.009 19.7098 247.317 19.7098C248.547 16.3272 249.766 12.9437 250.006 9.362C250.133 7.45351 250.663 6.31006 252.729 6.33638C258.398 5.67663 264.052 4.73228 269.74 4.42462C278.289 3.96148 286.836 3.31489 295.417 3.5115C304.21 3.71304 313.005 3.38893 321.763 2.67489C329.488 2.04558 337.212 1.51335 344.951 1.14811C345.599 1.11685 346.271 1.13247 346.899 1.27478C347.246 1.35376 347.603 1.80372 347.818 1.24516C348.048 0.651227 347.664 0.136272 347.102 0.0762205C346.13 -0.0290754 345.133 -0.0151051 344.156 0.0564632C335.633 0.677545 327.117 1.41217 318.588 1.93207C311.925 2.33845 305.248 2.53752 298.575 2.73659C291.89 2.93567 285.196 2.47828 278.511 3.11828C275.259 3.43006 271.98 3.44816 268.714 3.61598C262.037 3.95984 255.465 5.37721 248.775 5.58287C248.449 5.56395 248.108 5.47017 247.8 5.5368C244.724 6.20806 241.648 6.70739 238.471 6.82255C236.947 6.87767 235.239 6.72385 233.772 7.55882C229.841 7.92982 225.913 8.37156 221.975 8.65373C217.172 8.99758 212.357 9.15224 207.556 9.49774C205.07 9.67625 202.602 10.0917 200.126 10.4001C200.136 10.6157 200.144 10.8304 200.154 11.0459C204.403 11.5946 208.605 9.84817 212.851 10.2562C213.632 10.1616 214.467 10.5022 215.194 9.9691C219.923 9.66555 224.653 9.37269 229.382 9.05351C230.999 8.94411 232.618 8.80179 234.155 8.21279C236.75 8.46122 239.334 7.26349 242.145 8.13959C239.21 10.0398 238.792 13.5286 236.562 15.8122C234.41 18.0168 233.313 21.3246 229.796 22.0502C226.755 22.3323 223.708 22.5627 220.673 22.9073C215.153 23.5342 209.593 23.9726 204.137 24.9622C197.95 26.0835 191.675 26.3311 185.499 27.3166C181.44 27.964 177.467 27.069 173.422 27.5346C166.406 28.3408 159.292 27.6711 152.257 28.4411C148.622 28.8393 145.015 29.4826 141.389 29.9728C138.633 30.3455 135.951 31.0842 133.154 31.3244C131.583 31.4602 129.893 31.2923 127.973 31.9208C128.87 32.5139 129.52 32.3239 130.119 32.3601C135.043 32.6521 139.702 30.9904 144.471 30.2386C152.618 28.9544 160.814 28.9224 168.994 28.4461C172.278 28.2544 175.539 27.8283 178.888 28.3046C182.23 28.7801 185.612 27.9072 188.978 27.672C194.09 27.3158 199.191 26.7531 204.216 25.9124C211.002 24.7771 217.79 23.9825 224.648 23.5432C226.484 23.4248 228.417 23.5934 230.203 22.8703C230.577 22.8999 231.268 22.9493 230.943 23.41C228.615 26.7046 226.951 30.5693 223.66 33.0626C219.474 36.2355 214.444 37.4859 209.37 38.2369C203.963 39.0382 198.472 38.951 193.007 39.1023C189.75 39.192 186.502 38.9962 183.226 39.3935C179.84 39.804 176.368 39.8106 172.955 39.6181C169.085 39.3993 165.214 39.4026 161.366 39.5581C155.659 39.7884 150.006 40.9911 144.284 41.0125C139.451 41.0306 134.675 41.627 129.904 42.151C127.104 42.4586 124.864 42.3418 123.302 39.7489C123.034 39.3047 122.728 38.8769 122.402 38.473C116.926 31.6938 110.843 25.4114 105.798 18.2858C104.038 15.7998 101.648 13.5985 101.588 10.1912C101.566 8.97372 101.348 7.78585 100.875 6.62513C100.497 5.69392 100.282 4.75448 99.0204 4.72404C97.8514 4.69607 97.0173 5.04569 96.258 6.08548C95.0915 7.68138 94.8957 9.55533 94.9032 11.2606C94.9212 15.3984 94.9212 19.6341 95.7833 23.6469C97.1464 29.9918 97.4064 36.474 98.7012 42.8082C98.7818 43.2023 99.0228 43.8135 98.0719 43.8933C96.0236 44.066 94.032 44.5999 91.9433 44.6485C83.235 44.8484 74.5259 44.3063 65.8135 44.9512C60.5898 45.3378 55.33 44.8772 50.0808 45.3518C43.8873 45.912 37.6724 46.2205 31.543 47.3705C28.0838 48.0204 24.7497 48.9927 21.6797 50.763C18.2354 52.748 15.2402 55.2159 12.6037 58.2308C8.61479 62.7915 4.52882 67.2262 1.48347 72.5437C-0.359212 75.7609 -0.662762 78.6854 1.58958 81.7217C3.0045 84.54 5.98075 84.6938 8.45027 85.5979C10.8943 86.4921 13.5703 86.2025 16.1147 86.5398C20.3191 87.0959 24.5317 86.9371 28.7132 86.947C33.9442 86.9585 39.1843 86.548 44.4121 85.7353C51.7853 84.5893 59.3074 84.8592 66.734 83.7889C72.0885 83.0173 77.5737 83.1383 83.0022 82.9071C85.1008 82.8182 87.219 83.0009 89.3035 82.8001C92.7076 82.4719 96.0597 81.6411 99.5098 81.7217C98.475 83.441 98.0908 85.6012 99.0237 87.086C100.488 89.4165 102.8 91.1095 105.845 91.1909C108.513 91.2625 111.111 90.6348 113.745 90.3576C117.831 89.9282 121.972 89.7604 125.855 88.213C126.392 87.9991 126.74 87.9736 127.281 88.2731C128.647 89.0315 130.092 89.6493 131.506 90.323C134.082 92.3171 137.21 93.3108 140.102 94.5974C147.515 97.8945 155.15 100.693 162.738 103.585C165.358 104.582 167.816 105.997 170.58 106.617C174.533 108.416 178.486 110.213 182.439 112.012C182.591 112.134 182.724 112.306 182.897 112.371C188.204 114.372 193.474 116.481 198.838 118.321C203.568 119.944 208.344 121.522 213.441 121.579C218.255 121.631 221.68 117.288 221.077 113.697C220.87 112.458 221.252 112.139 222.314 112.114C222.839 112.102 223.362 112.073 223.886 112.053C227.13 111.802 230.394 111.704 233.612 111.261C237.074 110.784 240.547 111.112 244.001 110.801C246.055 110.696 248.111 110.641 250.159 110.476C256.235 109.989 262.303 109.435 268.378 108.955C272.521 108.627 276.669 108.334 280.814 108.05C282.193 107.955 283.792 108.241 285.118 107.39C286.527 107.375 287.935 107.36 289.344 107.346C290.038 107.313 290.775 107.606 291.398 107.066C293.583 107.037 295.779 107.131 297.951 106.951C301.386 106.665 304.798 106.13 308.232 105.822C313.302 105.367 318.38 104.93 323.463 104.645C331.762 104.18 340.05 103.628 348.322 102.787C351.615 102.453 354.954 102.532 358.234 102.126C363.493 101.475 368.682 100.298 373.978 99.8762C374.565 99.8293 375.393 99.9157 375.393 99.2057C375.397 98.2926 374.456 98.6464 374.001 98.713ZM97.153 9.54381C97.1909 9.16211 97.2534 8.76806 97.3924 8.41433C97.6918 7.64847 97.4599 6.31829 98.7144 6.42688C99.9129 6.53135 99.4695 7.73239 99.5691 8.51224C100.308 14.2846 103.186 18.9883 107.113 23.0653C112.005 28.1433 116.703 33.3744 120.913 39.0373C121.534 39.8731 122.307 40.5929 122.965 41.4032C123.279 41.7899 123.771 42.2267 123.544 42.7581C123.329 43.2599 122.73 42.9481 122.306 43.0205C117.547 43.8316 112.746 43.2369 107.968 43.4565C106.741 43.5133 105.517 43.6605 104.291 43.7699C103.599 43.8324 103.152 43.6062 103.079 42.8428C102.822 40.1372 102.337 37.4316 102.352 34.7293C102.365 32.4646 101.404 30.4146 101.377 28.1952C101.375 27.992 101.074 27.7913 100.897 27.5708C99.9861 28.3992 100.262 29.3732 100.554 30.2978C101.875 34.4792 101.338 38.8967 102.219 43.1315C102.286 43.4573 102.357 43.8489 101.844 43.7946C101.422 43.7493 101.149 43.403 101.121 42.9975C101.033 41.6952 100.907 40.3914 100.811 39.0974C100.479 34.6314 99.2392 30.2616 99.4218 25.7487C99.4243 25.7487 99.4276 25.7479 99.43 25.747C98.3401 20.3926 96.6117 15.127 97.153 9.54381ZM6.84615 70.0273C10.529 65.5645 13.1244 60.2808 17.0138 56.0262C20.3454 52.3836 24.6823 50.0696 29.6838 49.3457C34.3193 48.6744 39.0206 48.6267 43.6479 47.7703C50.4905 46.5035 57.4293 46.5051 64.364 46.5594C69.09 46.5956 73.8365 46.8153 78.5403 46.487C88.754 45.7722 98.9825 46.6293 109.175 46.028C114.53 45.7121 119.885 46.0075 125.243 45.4851C129.077 45.1116 132.803 44.1376 136.652 43.9147C139.197 43.7674 141.744 43.7181 144.294 43.4729C150.746 42.8519 157.23 42.6684 163.716 42.5064C170.329 42.3418 176.922 41.3531 183.534 41.2231C187.215 41.1507 190.913 41.163 194.599 41.0528C198.595 40.9327 202.56 40.3634 206.56 40.1907C211.532 39.9768 216.45 39.0119 221.067 37.2226C224.424 35.9204 227.363 33.3193 228.871 30.153C231.989 23.6074 236.836 18.3467 240.829 12.4625C241.155 11.9812 241.578 11.5518 241.832 11.0377C243.036 8.5978 245.239 8.36415 247.577 8.29094C248.705 8.25557 249.01 8.75409 248.765 9.71163C247.906 13.0753 247.701 16.6661 245.344 19.5173C244.977 19.9607 244.689 20.5201 244.526 21.0729C243.161 25.6837 240.893 29.8717 238.502 33.9996C237.065 36.4798 236.342 39.2488 236.404 41.9963C236.469 44.8599 238.403 47.0645 240.777 48.5469C246.083 51.8588 252.184 53.2161 257.994 55.294C259.612 55.8732 261.458 55.8222 262.863 57.0413C263.352 57.4658 263.906 57.7957 264.3 58.5689C261.031 59.5627 258.013 59.3907 254.95 58.5245C251.082 57.4329 247.022 57.8738 243.091 57.2387C237.567 56.3462 231.947 55.2241 227.517 51.7699C224.22 49.2 221.284 49.6509 218.239 51.1011C214.697 52.7875 210.938 53.3239 207.195 54.0034C200.192 55.2751 193.145 56.2713 186.203 57.9281C177.632 59.974 168.97 61.7928 160.212 62.6533C152.249 63.4364 144.398 64.9862 136.417 65.5843C128.239 66.1963 120.219 68.0423 112.083 68.9965C106.194 69.6867 100.279 70.1465 94.3725 70.6722C90.039 71.0572 85.7046 71.4866 81.3611 71.6988C77.257 71.8987 73.1349 71.735 69.0283 71.9193C61.7884 72.2442 54.5518 72.6761 47.3184 73.1285C38.9515 73.6501 30.5928 73.7143 22.2235 73.131C19.2143 72.9221 16.1854 72.9928 13.1647 72.9426C10.9198 72.9056 8.90106 72.0962 6.88974 71.2011C5.93056 70.7726 6.66764 70.2444 6.84615 70.0273ZM10.3234 73.7982C14.8955 74.7302 19.5417 74.0565 24.1575 74.4538C29.442 74.9087 34.8014 74.7771 40.1139 74.5574C48.2612 74.2202 56.3969 73.5728 64.5384 73.0981C66.4395 72.9871 68.3496 73.0101 70.254 73.02C78.6719 73.0619 87.0561 72.3643 95.442 71.8C101.081 71.42 106.723 70.928 112.325 70.2041C116.925 69.6094 121.516 68.9118 126.086 68.0332C130.263 67.2303 134.582 67.1966 138.823 66.689C142.944 66.1955 147.037 65.4897 151.153 64.9583C153.404 64.6679 155.645 64.1768 157.94 64.3339C158.313 64.1052 158.697 63.9135 159.156 64.0221C162.018 64.2179 164.762 63.0325 167.638 63.3097C163.294 64.2459 158.948 65.0948 154.522 65.5711C150.724 65.9791 146.962 66.717 143.178 67.2706C138.107 68.0143 133.072 68.9241 127.92 69.1586C123.322 69.3683 118.753 70.1474 114.166 70.6171C109.446 71.1 104.72 71.5104 99.996 71.9637C99.8241 71.9802 99.662 72.1036 99.4958 72.1759C96.1519 72.0542 92.9214 73.0101 89.5915 73.1721C82.5621 73.5144 75.546 74.1058 68.5249 74.6101C64.299 74.9145 60.0757 75.2616 55.8499 75.5635C50.9141 75.9173 45.9784 76.4552 41.036 76.5276C34.5941 76.6206 28.1447 76.2282 21.6995 76.2496C17.6094 76.2636 13.7463 75.3883 9.9244 74.1099C10.0593 74.0055 10.1909 73.9018 10.3234 73.7982ZM113.418 88.4228C111.912 88.7452 110.292 88.7897 108.913 89.3943C106.215 90.578 104.071 89.6896 101.603 87.9498C102.965 87.6569 103.569 88.3356 104.278 88.6909C105.741 89.4272 107.122 89.4165 108.454 88.3578C110.215 86.9601 112.218 85.7863 112.571 83.2419C112.697 82.3345 113.244 82.513 113.847 82.8544C115.628 83.8654 117.443 84.818 119.208 85.8554C119.701 86.1441 120.086 86.6105 120.774 86.8203C118.322 87.3558 115.873 87.8988 113.418 88.4228ZM219.31 115.445C217.725 118.857 214.086 120.564 210.37 119.932C202.247 118.551 194.809 115.135 187.137 112.41C185.314 111.762 183.485 111.135 181.658 110.5C179.719 109.018 177.391 108.314 175.172 107.457C173.987 106.999 173.035 106.103 171.774 105.866C165.868 103.302 160.034 100.56 154.039 98.2235C146.885 95.4348 139.797 92.4931 132.711 89.544C127.188 86.9774 121.995 83.7486 116.357 81.4099C115.41 81.0159 114.43 80.658 113.687 79.921C113.063 79.3032 113.104 78.8885 114.122 78.9758C114.546 79.2299 114.949 79.5294 115.396 79.7334C122.946 83.1703 130.517 86.5603 138.039 90.0565C139.229 90.6093 140.296 91.0198 141.603 90.6159C141.506 90.4349 141.474 90.2638 141.381 90.221C132.431 86.0898 123.476 81.9676 114.522 77.8455C113.876 77.6349 113.275 77.4556 112.803 76.8263C112.629 76.5951 112.257 76.1031 111.917 76.1114C111.875 76.1221 111.835 76.1287 111.794 76.1377C111.614 76.215 111.452 76.4667 111.344 77.0253C111.222 77.6579 110.678 77.027 110.472 76.9324C109.054 76.2767 107.576 75.8012 106.032 75.9016C103.685 76.0554 102.811 77.9574 101.892 79.7392C92.0832 79.61 82.3417 80.5947 72.6355 81.7817C66.6106 82.5188 60.5644 82.8224 54.5452 83.4204C47.3966 84.1303 40.2398 84.5433 33.0788 84.8509C26.6648 85.1257 20.2171 85.0673 13.8319 84.4018C9.71957 83.9732 5.40245 83.5874 2.32912 80.1324C1.09436 77.1767 2.93293 75.1539 4.46548 73.0241C4.9171 72.3964 5.21077 72.8974 5.55956 73.0891C6.84038 73.7957 8.04389 74.6595 9.50158 75C12.7797 76.4882 16.2751 77.1857 19.8214 77.3173C24.7094 77.4983 29.6098 77.3174 34.5044 77.3972C37.2183 77.4408 39.9313 77.6242 42.6451 77.444C48.4537 77.0574 54.2663 76.7176 60.0683 76.2348C63.5529 75.9452 67.091 76.0637 70.5173 75.6186C76.3908 74.8561 82.2874 74.8083 88.1642 74.3658C92.1103 74.068 96.0063 73.5135 99.9104 72.9583C104.877 72.9171 109.795 72.236 114.719 71.7062C119.76 71.165 124.789 70.4945 129.856 70.2469C134.607 70.0141 139.283 69.217 143.975 68.5317C149.031 67.7938 154.047 66.8256 159.132 66.2243C163.548 65.7019 167.892 64.602 172.282 63.8329C179.823 62.5126 187.217 60.5235 194.832 59.4598C203.014 58.3172 211.199 56.9122 219.209 54.7783C220.773 54.3612 222.182 53.3337 223.633 52.5333C224.707 51.9419 225.551 52.0414 226.224 53.1659C220.83 56.8373 214.897 59.2443 208.433 59.9559C201.055 60.7678 193.816 62.2329 186.555 63.6758C179.106 65.1557 171.657 66.6249 164.106 67.5799C160.043 68.0941 156.009 69.0928 152.335 71.1485C152.204 70.9856 152.117 70.9009 152.057 70.8005C151.715 70.2354 152.533 69.2951 151.45 68.9595C151.172 68.8731 150.895 68.8443 150.739 69.0788C150.258 69.7994 150.495 70.4624 150.784 71.2415C151.763 73.887 153.466 75.909 155.647 77.6341C158.182 79.638 160.514 81.9101 163.471 83.3324C166.005 85.6201 168.863 87.4512 171.781 89.1944C175.366 91.5208 179.176 93.463 182.73 95.8659C190.098 100.848 197.577 105.669 205.089 110.435C208.313 112.48 211.658 114.442 215.74 114.118C216.307 114.073 216.893 114.181 217.384 113.658C217.934 113.074 218.861 112.967 219.316 113.471C219.68 113.875 219.653 114.706 219.31 115.445ZM155.531 74.031C154.663 74.365 154.182 73.2396 153.731 72.3882C154.614 72.0978 155.443 71.8247 156.356 71.5244C156.642 72.5683 156.319 73.7282 155.531 74.031Z" fill="#35817D"/>
<path d="M317.607 27.9129C323.052 27.101 328.509 26.3434 334.004 26.0711C341.892 25.6804 349.788 25.4994 357.68 25.2295C358.361 25.1794 359.091 25.4722 359.704 24.9433C362.17 24.722 364.674 25.0543 367.111 24.4514C367.542 24.3452 368.384 24.8512 368.326 24.0047C368.272 23.2191 367.528 23.4305 366.924 23.5341C360.508 24.6274 353.993 24.1272 347.525 24.6858C340.413 25.2995 333.216 25.2312 326.098 26.0588C321.523 26.591 316.991 27.5033 312.349 27.2302C311.434 27.3182 310.483 26.9965 309.598 27.4589C300.18 28.1005 290.767 28.8228 281.319 28.8211C279.552 28.8211 277.784 28.8491 276.018 28.8639C275.881 28.8664 275.744 28.8672 275.607 28.8697C274.825 28.8697 274.043 28.8705 273.26 28.8713C263.89 28.6492 254.552 29.1633 244.801 29.4866C245.684 30.7263 246.363 30.4022 246.965 30.3899C252.513 30.2739 258.013 29.3641 263.588 29.5607C267.982 29.7162 272.385 29.5253 276.787 29.4874C281.109 29.5138 285.432 29.5393 289.755 29.5656C290.57 29.5039 291.43 29.8486 292.189 29.2909C299.438 29.2324 306.617 27.9911 313.869 27.9952C315.116 27.9977 316.384 28.0956 317.607 27.9129Z" fill="#35817D"/>
<path d="M383.539 80.4079C377.781 81.576 371.931 82.0844 366.079 82.5764C363.382 82.8026 360.703 83.2394 358.02 83.6121C354.166 84.1468 350.324 84.7588 346.464 85.2507C342.147 85.8011 337.86 86.4921 333.657 87.6388C332.677 87.6569 331.663 87.5187 330.722 87.7194C326.235 88.672 321.723 89.4033 317.137 89.6328C316.461 89.669 315.754 89.4239 315.123 89.8558C314.848 89.9265 314.573 89.9964 314.299 90.0664C311.743 89.7135 309.23 90.3148 306.703 90.4859C304.353 90.6438 302.03 91.2007 299.691 91.5594C299.218 91.6326 298.614 91.7955 298.692 92.2282C298.797 92.8106 299.4 92.7374 299.977 92.6872C304.66 92.2809 309.195 90.8339 313.918 90.7195C317.779 90.337 321.651 90.0409 325.497 89.5432C328.277 89.1837 331.026 88.5807 333.787 88.0748C333.872 88.0591 333.958 88.0419 334.044 88.0263C337.361 87.5014 340.669 86.9067 343.996 86.4666C349.57 85.7303 355.156 85.0837 360.738 84.4149C368.39 83.4977 376.044 82.601 383.695 81.6706C384.173 81.6131 385.096 81.9964 384.948 80.9739C384.835 80.2031 384.364 80.2409 383.539 80.4079Z" fill="#35817D"/>
<path d="M169.6 12.9363C164.782 12.7232 160.081 13.8988 155.266 14.0115C148.919 14.1595 142.601 15.2832 136.252 15.7365C129.531 16.2161 122.881 17.2756 115.854 17.9304C116.464 18.7045 116.829 18.9151 117.638 18.7424C119.207 18.4067 120.832 18.3376 122.431 18.1377C126.427 17.6359 130.443 17.2797 134.435 16.7919C140.757 16.0195 147.107 15.3819 153.438 15.1302C158.912 14.913 164.284 13.8782 169.743 13.7753C170.102 13.7688 170.648 13.8568 170.492 13.2365C170.386 12.8112 170.002 12.9544 169.6 12.9363Z" fill="#35817D"/>
<path d="M292.839 92.312C289.58 92.7086 286.292 92.6469 283.023 92.8435C275.949 93.2688 268.891 93.9507 261.826 94.5274C259.811 94.4106 257.794 94.1745 255.812 94.733C255.37 94.8572 254.827 94.8828 254.933 95.4446C255.035 95.99 255.616 96.0073 256.071 95.9168C257.262 95.6832 258.454 95.1353 259.623 95.1847C265.336 95.4306 270.965 94.2625 276.663 94.3012C278.475 94.3135 280.307 94.1054 282.098 93.8125C285.647 93.2309 289.256 93.8907 292.805 93.2359C293.17 93.1684 293.832 93.5262 293.913 93.022C294.001 92.4667 293.504 92.2306 292.839 92.312Z" fill="#35817D"/>
<path d="M387.355 51.3232C382.347 51.2779 377.339 51.2319 372.33 51.1866C371.546 50.7761 370.765 50.7498 369.99 51.2113C365.323 51.4885 360.611 50.8954 355.742 51.8176C356.753 52.8952 357.769 52.4987 358.66 52.3638C359.434 52.247 360.191 52.0973 360.981 52.094C368.511 52.0611 376.043 52.0833 383.568 51.8982C384.816 51.8677 386.134 52.4115 387.359 51.7295C387.885 51.6999 388.41 51.6703 388.936 51.6407C389.983 51.6399 391.03 51.639 392.077 51.6382C393.835 51.542 395.607 51.5527 397.35 51.3289C402.837 50.6272 408.359 50.4084 413.871 50.1715C418.415 49.9757 422.973 50.1312 427.605 50.1312C427.245 48.5419 426.114 48.8676 425.343 49.0141C422.804 49.4969 420.252 49.339 417.711 49.3332C407.846 49.311 398.07 50.8683 388.213 50.9489C387.927 50.953 387.642 51.1932 387.355 51.3232Z" fill="#35817D"/>
<path d="M266.452 62.4402C262.562 62.7479 258.685 63.2266 254.794 63.5269C250.99 63.8214 247.237 64.4523 243.477 65.0422C239.461 65.6723 235.496 66.6372 231.411 66.8059C227.213 67.167 223.018 67.8062 218.818 67.8308C210.475 67.8802 202.14 68.0373 193.804 68.3384C193.608 68.3458 193.402 68.2677 193.216 68.3055C187.368 69.5098 181.327 69.0335 175.495 70.2897C173.302 70.7619 170.975 70.3283 168.817 71.2505C169.268 72.018 169.925 71.9127 170.472 71.8148C173.334 71.3032 176.214 70.9437 179.096 70.5636C186.915 69.5304 194.786 69.0023 202.642 68.7695C212.761 68.4709 222.899 68.8369 232.966 67.4261C235.454 67.1012 237.956 66.8643 240.426 66.4332C247.492 65.2009 254.578 64.1685 261.759 63.93C262.552 63.8699 263.375 64.143 264.135 63.7177C264.96 63.3739 265.836 63.6816 266.664 63.5327C267.176 63.4405 268.229 64.0567 268.072 62.8663C267.938 61.857 266.953 62.4007 266.452 62.4402Z" fill="#35817D"/>
<path d="M352.743 52.4388C352.851 51.5314 351.999 51.7881 351.463 51.7207C350.788 51.7832 350.057 51.4788 349.456 52.0259C345.129 52.9274 340.695 52.9127 336.341 53.5979C330.846 54.4625 325.346 55.2892 319.848 56.1324C319.652 56.1151 319.445 56.0501 319.261 56.0888C313.718 57.2602 308.035 57.456 302.471 58.4851C302.077 58.4884 301.684 58.4917 301.291 58.4942C299.623 59.0651 297.9 59.2658 296.146 59.2666C291.76 59.52 287.463 60.3755 283.168 61.3215C287.6 61.9031 291.781 59.9691 296.146 59.9362C298.202 60.2982 300.066 59.2197 302.063 59.149C302.742 59.065 303.505 59.5134 304.091 58.8298C307.165 58.5303 310.255 58.3329 313.311 57.9019C315.762 57.5564 318.25 57.368 320.644 56.6803C320.893 56.6424 321.16 56.5199 321.417 56.4442C325.139 56.0263 328.904 55.8338 332.574 55.1419C338.812 53.9648 345.081 53.2022 351.413 52.8855C351.917 52.8608 352.664 53.0961 352.743 52.4388Z" fill="#35817D"/>
<path d="M373.303 23.6461C378.637 23.2044 383.976 22.9592 389.327 22.7873C391.805 22.7083 394.41 22.793 397.133 21.7393C396.392 21.1585 395.857 21.272 395.381 21.3181C391.175 21.7236 386.968 22.0634 382.739 22.1152C379.667 22.1522 376.612 22.6729 373.529 22.5018C372.952 22.4698 372.408 22.6738 372.394 23.2883C372.381 23.8715 372.961 23.6749 373.303 23.6461Z" fill="#35817D"/>
<path d="M241.088 39.6493C241.165 40.1042 241.518 40.142 242.112 40.0499C247.72 39.1829 253.343 38.4145 259.027 38.2171C259.163 38.2171 259.301 38.2179 259.438 38.2179C264.175 38.2714 268.911 39.2396 273.646 38.2155C275.083 38.5569 276.41 37.6314 277.855 37.8593C278.267 37.9251 279.126 38.2097 279.091 37.4397C279.053 36.5858 278.152 36.5595 277.555 36.7586C276.523 37.1008 275.531 37.5393 274.421 37.5516C273.771 37.5327 273.122 37.5138 272.472 37.4957C271.551 37.6026 270.581 37.2193 269.706 37.7754C269.172 37.7811 268.637 37.7877 268.104 37.7935C267.459 37.3377 266.808 37.3558 266.152 37.7729C265.625 37.8091 265.098 37.8453 264.571 37.8815C263.7 37.3353 262.746 37.5409 261.811 37.5771C261.41 37.5713 261.008 37.5656 260.606 37.5598C259.17 37.5845 257.734 37.61 256.298 37.6347C255.095 37.7227 253.89 37.7811 252.692 37.9053C249.095 38.2771 245.503 38.6844 241.905 39.0488C241.458 39.0957 241.03 39.3021 241.088 39.6493Z" fill="#35817D"/>
<path d="M185.766 11.4374C184.231 11.7097 182.701 11.982 181.57 11.8421C180.085 11.8421 179.038 11.8364 177.99 11.8446C177.494 11.8487 177.01 12.0511 177.007 12.566C177.006 13.0999 177.561 12.9806 177.925 13.0061C180.596 13.1912 183.232 12.7602 185.879 12.5241C186.271 12.4895 186.728 12.3341 186.695 11.8767C186.657 11.3551 186.122 11.3749 185.766 11.4374Z" fill="#35817D"/>
<path d="M253.082 75.9929C249.978 76.0719 246.878 76.2603 243.646 76.1624C245.261 77.5987 250.681 77.574 253.082 75.9929Z" fill="#35817D"/>
<path d="M278.215 61.5805C276.396 61.5788 274.586 61.5591 272.775 61.9103C272.257 62.0107 271.832 62.1242 271.841 62.5462C271.853 63.0637 272.397 63.1402 272.874 63.1541C274.232 63.1953 275.512 62.4541 276.749 62.7741C277.287 62.7741 277.731 62.6557 278.064 62.7988C278.704 63.0744 279.138 62.8967 279.248 62.2978C279.403 61.4735 278.739 61.5805 278.215 61.5805Z" fill="#35817D"/>
<path d="M191.173 11.1692C192.297 12.1942 194.68 12.2452 198.03 11.2128C195.802 9.8711 193.482 11.5213 191.173 11.1692Z" fill="#35817D"/>
<path d="M281.611 36.8591C281.729 37.0713 281.935 37.3806 282.121 37.3889C284.038 37.4744 285.983 37.7911 288.279 36.9035C285.933 35.8909 283.933 36.5243 281.987 36.4576C281.859 36.4543 281.581 36.8056 281.611 36.8591Z" fill="#35817D"/>
<path d="M292.022 36.6888C293.295 37.4448 294.572 37.147 295.842 36.669C295.925 36.6378 295.967 36.5028 296.213 36.1565C294.72 35.9139 293.411 35.561 292.074 36.2783C291.922 36.3597 291.773 36.5415 292.022 36.6888Z" fill="#35817D"/>
<path d="M18.9235 64.5871C19.3134 64.6382 19.705 64.6612 20.0974 64.6949C24.5354 64.1429 24.9484 64.2573 24.913 60.0874C24.9097 59.63 24.7863 59.1052 24.964 58.726C25.5185 57.543 25.2141 56.4465 24.2418 55.9175C23.1748 55.3367 21.8915 55.2339 20.8517 56.3593C19.6951 57.6105 18.3921 58.7284 17.2725 60.0101C16.5732 60.8105 15.4463 61.6167 15.8757 62.8506C16.3347 64.1717 17.6665 64.4243 18.9235 64.5871ZM23.3632 59.7C24.2385 62.3982 23.4808 63.2224 20.15 63.1278C21.1191 61.6858 22.5842 61.0622 23.3632 59.7Z" fill="#35817D"/>
<path d="M235.383 35.9484C236.319 36.4469 236.471 35.6209 236.726 35.0821C237.572 33.2913 238.353 31.47 239.214 29.6874C241.062 25.8589 242.946 22.0468 244.812 18.2266C245.063 17.7124 245.291 17.1868 245.599 16.5155C245.638 16.2844 245.349 16.0919 245.088 15.9059C244.72 15.6427 244.443 15.9232 244.271 16.1692C244.017 16.5328 243.846 16.9564 243.654 17.3628C240.937 23.0998 238.214 28.8327 235.528 34.5844C235.347 34.9719 234.374 35.4095 235.383 35.9484Z" fill="#35817D"/>
<path d="M32.0239 60.7571C32.9362 60.5235 33.8427 60.1237 34.0623 58.9761C33.6091 57.8804 33.781 56.2812 32.1613 56.185C31.235 56.1298 30.1985 56.658 30.0545 57.8343C29.9237 58.907 31.3156 60.9389 32.0239 60.7571ZM31.9178 57.5752C32.4253 58.1 33.1805 58.5311 32.5142 59.3397C32.3332 59.5585 32.0173 59.7576 31.8577 59.5618C31.3592 58.9449 31.6833 58.2646 31.9178 57.5752Z" fill="#35817D"/>
<path d="M185.27 52.2445C186.53 52.057 187.515 51.3323 187.612 49.9626C187.525 48.7747 186.927 48.1207 185.879 48.1767C184.354 48.2581 183.634 49.5142 183.426 50.7227C183.26 51.6777 184.293 52.391 185.27 52.2445ZM185.741 49.659C186.097 49.6343 186.469 49.6993 186.364 50.1181C186.2 50.7679 185.732 51.1924 185.284 51.2854C184.674 51.343 184.37 51.2385 184.431 50.8124C184.537 50.0802 185.004 49.71 185.741 49.659Z" fill="#35817D"/>
<path d="M153.387 54.4156C154.429 54.3292 155.405 53.7928 155.358 52.5523C155.323 51.5906 154.74 50.9145 153.589 50.9194C152.606 51.158 151.452 51.5791 151.422 52.6922C151.396 53.6398 152.268 54.5077 153.387 54.4156ZM154.351 52.6337C153.918 53.0319 153.576 53.4177 152.913 53.166C153.204 52.5284 153.622 52.3277 154.351 52.6337Z" fill="#35817D"/>
<path d="M49.4196 59.8234C50.5549 59.8958 51.1323 58.647 51.1274 57.6237C51.1225 56.6645 50.4693 55.6568 49.3769 55.7259C48.5378 55.7785 47.3713 55.9932 47.4215 57.3851C47.5062 58.6865 48.2408 59.7477 49.4196 59.8234ZM48.5748 57.8137C48.5756 57.4682 48.6957 57.0725 49.1128 57.2691C49.5052 57.4542 50.2645 57.4608 50.0374 58.2127C49.9346 58.5524 49.6804 58.944 49.1531 58.8387C48.5567 58.7515 48.5731 58.2686 48.5748 57.8137Z" fill="#35817D"/>
<path d="M192.908 51.2409C193.93 51.2096 195.029 50.6519 194.987 49.6113C194.938 48.3955 193.661 48.263 192.923 48.1404C191.591 48.0911 190.715 48.5378 190.819 49.5989C190.921 50.6322 191.843 51.273 192.908 51.2409ZM192.758 49.3513C193.049 49.3563 193.384 49.2641 193.517 49.6574C193.481 49.9502 193.331 50.1213 193.034 50.1147C192.75 50.1082 192.364 50.2357 192.299 49.8128C192.257 49.5554 192.45 49.3464 192.758 49.3513Z" fill="#35817D"/>
<path d="M103.664 57.6336C104.855 57.6163 105.44 57.0043 105.484 55.5647C105.669 54.5759 104.84 53.801 103.888 53.8109C102.91 53.8208 101.892 54.5101 101.899 55.786C101.907 56.8933 102.409 57.6517 103.664 57.6336ZM103.708 55.2711C104.066 55.109 104.452 55.3739 104.622 55.8165C104.347 56.2294 104.079 56.7501 103.518 56.7353C103.188 56.7271 102.712 56.4992 102.725 56.0369C102.743 55.4734 103.35 55.4323 103.708 55.2711Z" fill="#35817D"/>
<path d="M57.3993 59.2065C58.597 59.2098 59.2995 58.5583 59.2181 57.4198C59.135 56.2912 58.4349 55.5615 57.3022 55.6372C55.8996 55.6059 55.3279 56.533 55.4036 57.4807C55.4801 58.4234 56.2336 59.2041 57.3993 59.2065ZM56.5536 57.2948C57.1039 56.2755 57.7587 57.3976 58.3946 57.326C58.008 57.8879 57.7431 58.6266 56.9238 58.2827C56.538 58.1207 56.329 57.7118 56.5536 57.2948Z" fill="#35817D"/>
<path d="M199.023 50.7103C200.404 50.5491 201.493 50.1912 201.313 49.0124C201.173 48.0985 200.717 46.881 199.386 47.0068C198.258 47.1138 197.748 48.022 197.724 49.0799C197.7 50.141 198.432 50.5984 199.023 50.7103ZM199.514 48.5344C199.823 48.532 200.229 48.4637 200.2 48.963C200.173 49.4064 199.892 49.6623 199.481 49.7198C199.08 49.7075 198.731 49.538 198.724 49.1925C198.715 48.7541 199.079 48.5377 199.514 48.5344Z" fill="#35817D"/>
<path d="M178.301 52.103C179.638 52.1886 179.843 51.1932 180.098 50.2842C180.029 49.2518 179.55 48.5329 178.563 48.5765C177.601 48.6192 176.584 48.903 176.547 50.2011C176.514 51.3832 177.119 52.0274 178.301 52.103ZM177.748 50.3977C177.859 50.1345 178.139 49.845 178.403 49.7643C178.786 49.6475 178.981 49.928 178.939 50.2373C178.899 50.7646 178.681 51.106 178.246 51.0731C177.947 51.0509 177.589 50.7794 177.748 50.3977Z" fill="#35817D"/>
<path d="M161.376 53.6645C162.779 53.8068 163.228 52.7999 163.503 51.6918C163.672 50.5599 163.06 50.0161 162.087 50.0219C160.993 50.0284 160.027 50.4126 159.927 51.7617C159.849 52.8278 160.303 53.5559 161.376 53.6645ZM161.043 51.9394C161.017 51.454 161.346 51.2862 161.813 51.2912C162.236 51.2961 162.409 51.4598 162.299 51.9246C162.083 52.2454 162.058 52.8558 161.497 52.8484C160.933 52.841 161.062 52.2808 161.043 51.9394Z" fill="#35817D"/>
<path d="M134.747 55.6568C135.707 55.4848 136.696 55.0669 136.662 53.6783C136.637 52.6065 135.985 52.0018 134.898 52.1096C133.685 52.2297 132.774 52.8853 132.714 54.1612C132.66 55.3039 133.52 55.6526 134.747 55.6568ZM133.915 54.0584C134.084 53.5229 134.443 52.9906 135.123 53.0614C135.355 53.0861 135.795 53.165 135.784 53.272C135.596 54.2764 135.099 54.6104 134.54 54.7617C134.033 54.8983 133.801 54.4187 133.915 54.0584Z" fill="#35817D"/>
<path d="M95.262 58.2178C96.2566 58.1791 97.2479 57.6419 97.1574 56.2772C97.1113 55.1346 96.6161 54.1482 95.4323 54.1811C94.2066 54.2149 93.4918 55.36 93.3832 56.4228C93.2746 57.4823 94.2675 58.2564 95.262 58.2178ZM95.4768 55.5459C95.9333 55.5088 96.1949 55.9934 96.3496 56.4442C96.1217 56.9213 95.8519 57.4511 95.29 57.4173C94.947 57.3959 94.3284 57.3532 94.3818 56.6614C94.4353 55.9671 94.9009 55.5927 95.4768 55.5459Z" fill="#35817D"/>
<path d="M126.763 56.4047C128.133 56.468 128.258 55.2127 128.783 54.3185C128.467 53.4819 128.058 52.8575 127.002 52.8649C125.69 52.8748 125.361 53.792 125.238 54.7693C125.109 55.7992 125.811 56.3603 126.763 56.4047ZM126.977 54.0956C127.229 54.0158 127.478 54.0791 127.531 54.4666C127.497 54.8573 127.202 55.1082 126.835 55.2201C126.536 55.3106 126.373 55.0836 126.4 54.7833C126.43 54.4296 126.662 54.1951 126.977 54.0956Z" fill="#35817D"/>
<path d="M111.072 57.6031C112.049 57.7429 113.253 55.9989 113.246 54.2912C113.166 53.7565 112.531 53.4011 111.916 53.5253C110.68 53.7754 109.838 54.561 109.787 55.9331C109.754 56.8273 110.181 57.4756 111.072 57.6031ZM110.684 56.0162C110.883 55.5309 111.17 55.0611 111.689 54.8785C111.971 54.7798 112.159 54.9986 112.142 55.3713C111.879 55.7966 111.904 56.5361 111.084 56.4966C110.8 56.4826 110.551 56.3403 110.684 56.0162Z" fill="#35817D"/>
<path d="M206.827 49.7512C208.096 49.766 208.796 49.0059 208.815 47.8723C208.83 47.0406 208.122 46.529 207.216 46.5125C205.937 46.4887 205.247 47.3532 205.129 48.3938C205.018 49.3571 205.839 49.812 206.827 49.7512ZM206.961 47.7489C207.259 47.7497 207.661 47.6378 207.673 48.1355C207.685 48.5954 207.244 48.5304 206.946 48.685C206.639 48.8874 206.562 48.6653 206.507 48.3897C206.432 48.0105 206.522 47.7464 206.961 47.7489Z" fill="#35817D"/>
<path d="M79.0515 58.8331C80.4903 58.7171 80.9707 57.776 80.9271 56.6926C80.8934 55.8519 80.3628 55.1716 79.2802 55.2037C77.8834 55.2448 77.1677 56.1999 77.1834 57.2882C77.1957 58.1207 78.1318 58.7804 79.0515 58.8331ZM79.2654 56.2171C79.5435 56.2106 79.8322 56.6737 80.1094 56.9188C79.7993 57.4494 79.5352 57.9644 78.9537 57.9463C78.5835 57.9339 78.1837 57.6427 78.2306 57.1829C78.289 56.6013 78.7546 56.2295 79.2654 56.2171Z" fill="#35817D"/>
<path d="M170.142 52.8878C171.346 53.0227 172.076 52.4477 172.136 51.301C172.185 50.3837 171.634 49.6203 170.652 49.6105C169.494 49.5981 168.662 50.2192 168.577 51.4696C168.501 52.5505 169.094 53.0112 170.142 52.8878ZM169.782 51.57C169.807 51.1076 170.067 50.8921 170.525 50.8855C170.843 50.8822 170.966 51.0542 170.995 51.2861C170.9 51.8085 170.487 51.9007 170.144 52.015C169.756 52.1442 169.767 51.8217 169.782 51.57Z" fill="#35817D"/>
<path d="M71.5303 59.2064C72.7741 59.3059 73.4076 58.5277 73.4174 57.4871C73.4281 56.4646 72.9263 55.5235 71.708 55.2339C70.6633 55.4577 69.9682 56.1289 69.9427 57.186C69.9172 58.1822 70.2742 59.106 71.5303 59.2064ZM70.7414 57.5669C70.8714 56.991 71.3181 56.5337 71.9219 56.532C72.2222 56.5312 72.6713 56.8084 72.6598 57.288C72.6392 58.0753 71.8544 58.007 71.5172 58.3903C71.0581 58.2036 70.6435 57.9971 70.7414 57.5669Z" fill="#35817D"/>
<path d="M118.715 56.8365C120.093 56.8217 120.042 55.6865 120.278 54.8013C120.093 53.9211 119.773 53.1602 118.688 53.2367C117.567 53.3157 116.877 53.8578 116.887 55.072C116.896 56.2862 117.539 56.8488 118.715 56.8365ZM118.581 54.3736C119.045 54.2806 119.285 54.5463 119.269 55.0325C119.237 55.5359 118.965 55.907 118.467 55.916C118.11 55.9226 117.677 55.7219 117.705 55.2488C117.736 54.7503 118.13 54.4649 118.581 54.3736Z" fill="#35817D"/>
<path d="M87.6011 58.4463C88.8096 58.355 89.1361 57.4246 89.2011 56.5674C89.2702 55.6658 88.4945 54.9189 87.6924 54.9452C86.8706 54.9723 85.733 55.4486 85.8267 56.495C85.9057 57.3793 86.4437 58.3434 87.6011 58.4463ZM86.9356 56.7344C87.0459 56.4736 87.3371 56.1947 87.6036 56.1191C87.9688 56.0154 88.1589 56.3165 88.1712 56.6875C88.084 57.0988 87.8561 57.4312 87.4275 57.4007C87.1084 57.3785 86.7785 57.1038 86.9356 56.7344Z" fill="#35817D"/>
<path d="M39.4851 60.0727C40.1679 60.6107 40.8383 60.6271 41.4915 60.0241C42.5724 59.4376 42.4013 58.5796 41.9662 57.6978C41.6396 57.0355 38.9002 56.2228 38.8517 56.6703C38.725 57.8302 37.7626 59.2361 39.4851 60.0727ZM39.8964 58.1156C40.1877 57.8952 40.4287 57.46 40.8606 57.8179C41.3105 58.1905 41.3508 58.6742 41.0802 59.1859C40.7265 59.394 40.4155 59.7222 39.9409 59.589C39.6167 59.1077 39.2153 58.6331 39.8964 58.1156Z" fill="#35817D"/>
<path d="M213.081 49.3308C214.354 49.404 214.87 49.0346 214.832 47.9849C214.798 47.0184 214.454 46.2328 213.457 46.1538C212.135 46.0501 211.877 47.2923 211.752 48.147C211.611 49.1128 212.599 49.2641 213.081 49.3308ZM213.251 47.377C213.566 47.3269 213.759 47.4996 213.824 47.7678C213.916 48.1552 213.647 48.4078 213.33 48.4357C213.181 48.4489 212.916 48.1396 212.86 47.9331C212.793 47.6905 212.934 47.4313 213.251 47.377Z" fill="#35817D"/>
<path d="M245.758 14.0904C246.008 14.2788 246.27 14.1891 246.372 13.8995C246.67 13.0547 246.939 12.1992 247.216 11.3527C247.146 10.9751 247.31 10.4757 246.816 10.3433C246.184 10.1755 246.104 10.6592 245.986 11.1404C245.821 11.8183 245.591 12.4846 245.336 13.1353C245.143 13.6313 245.457 13.8625 245.758 14.0904Z" fill="#35817D"/>
<path d="M63.6238 58.7013C64.954 59.1949 65.7626 58.3846 66.243 57.3991C66.5408 56.7887 66.6847 55.8781 65.9172 55.2866C65.0181 54.5939 64.2827 54.9929 63.5991 55.665C62.4474 56.6859 62.208 57.7002 63.6238 58.7013ZM64.7845 57.7068C64.4135 57.789 63.9981 58.2653 63.697 57.627C63.3186 56.8257 64.1831 56.5888 64.4349 56.0714C66.1451 56.2754 65.3134 57.024 64.7845 57.7068Z" fill="#35817D"/>
<path d="M144.947 54.5175C146.036 53.8043 146 52.8904 145.137 52.1328C144.539 51.6063 143.802 50.8256 142.811 51.654C141.779 52.5186 141.346 53.4103 142.512 54.4896C143.316 55.2225 144.121 55.7893 144.947 54.5175ZM144.381 52.9669C144.956 53.3626 144.145 53.6694 144.092 54.0577C143.584 54.2206 143.34 53.8068 143.018 53.5641C143.292 52.9406 143.802 52.5687 144.381 52.9669Z" fill="#35817D"/>
<path d="M167.903 101.064C162.12 98.6949 156.336 96.3249 150.529 94.015C150.071 93.8324 149.332 92.9415 148.928 93.9648C148.61 94.771 149.355 94.9174 150.035 95.1757C154.733 96.9592 159.399 98.8298 164.074 100.675C165.927 101.405 167.785 102.125 169.629 102.878C170.128 103.081 170.508 103.093 170.813 102.49C170.898 102.262 170.619 102.322 170.488 102.26C169.627 101.856 168.781 101.424 167.903 101.064Z" fill="#35817D"/>
<path d="M191.497 111.32C188.856 110.347 186.207 109.396 183.562 108.437C183.205 108.218 183.012 108.52 182.921 108.788C182.681 109.484 183.178 109.684 183.716 109.846C186.147 110.579 188.527 111.457 190.791 112.612C191.229 112.835 191.597 112.819 191.799 112.462C192.021 112.069 192.082 111.535 191.497 111.32Z" fill="#35817D"/>
<path d="M174.029 104.026C173.575 103.751 172.957 103.179 172.298 103.577C172.031 103.738 172.037 104.303 172.284 104.444C173.158 104.943 174.081 105.357 175.011 105.742C175.128 105.791 175.398 105.467 175.598 105.316C175.393 104.471 174.563 104.35 174.029 104.026Z" fill="#35817D"/>
<path d="M143.612 91.6417C143.504 91.8597 143.253 92.1311 143.311 92.285C143.797 93.5715 144.916 93.0187 146.123 93.231C145.779 91.5586 144.382 92.1451 143.612 91.6417Z" fill="#35817D"/>
<path d="M178.365 106.191C177.869 105.998 177.636 106.259 177.704 106.76C177.837 107.734 178.748 107.504 179.333 107.748C179.607 107.862 179.987 107.778 180.056 107.276C179.715 106.616 179.005 106.439 178.365 106.191Z" fill="#35817D"/>
<path d="M99.4253 25.7529C99.4245 25.7488 99.4459 25.8113 99.4459 25.8113C99.4492 25.8104 99.4516 25.8072 99.4549 25.8055C99.6787 26.2201 100.058 26.6545 100.443 26.3443C101.048 25.8557 100.663 25.0397 100.667 24.3692C100.668 24.1043 100.342 24.013 100.067 24.0525C99.2378 24.1718 99.6137 24.8085 99.552 25.2593C99.5298 25.4214 99.492 25.5809 99.4591 25.7414C99.45 25.743 99.4409 25.7446 99.4319 25.7463C99.4344 25.7561 99.436 25.766 99.4385 25.7767C99.4336 25.7685 99.4286 25.7611 99.4253 25.7529Z" fill="#35817D"/>
<path d="M100.278 21.1823C100.184 20.9372 99.8437 20.6526 99.5928 20.632C99.1955 20.5999 99.1042 21.008 99.128 21.3386C99.1535 21.7014 99.4472 21.8388 99.7614 21.9079C100.053 21.736 100.415 21.5353 100.278 21.1823Z" fill="#35817D"/>
</svg>
