<svg width="67" height="65" viewBox="0 0 67 65" fill="none" xmlns="http://www.w3.org/2000/svg">
<mask id="mask0_662_5254" style="mask-type:luminance" maskUnits="userSpaceOnUse" x="0" y="0" width="62" height="60">
<path d="M0.333313 0H61.2564V60H0.333313V0Z" fill="white"/>
</mask>
<g mask="url(#mask0_662_5254)">
<mask id="mask1_662_5254" style="mask-type:luminance" maskUnits="userSpaceOnUse" x="0" y="0" width="62" height="60">
<path d="M0.333313 0H61.2564V60H0.333313V0Z" fill="white"/>
</mask>
<g mask="url(#mask1_662_5254)">
<path d="M47.0179 10.4649V11.8763M47.0179 18.859V20.2323M49.115 11.8753H46.3331C45.3418 11.8753 44.538 12.6581 44.538 13.6246C44.538 14.5912 45.3418 15.3748 46.3331 15.3748H47.7073C48.6978 15.3748 49.4997 16.1593 49.4969 17.125C49.494 18.0925 48.6847 18.8725 47.7258 18.8653L44.591 18.839M56.2976 15.3486C56.2976 20.3577 52.1745 24.4183 47.0883 24.4183C42.002 24.4183 37.879 20.3577 37.879 15.3486C37.879 10.3394 42.002 6.27881 47.0883 6.27881C52.1745 6.27881 56.2976 10.3394 56.2976 15.3486Z" stroke="#07A889" stroke-width="2" stroke-linecap="round" stroke-linejoin="round"/>
<path d="M47.0179 39.7671V41.1785M47.0179 48.1612V49.5345M49.115 41.1775H46.3331C45.3418 41.1775 44.538 41.9603 44.538 42.9269C44.538 43.8934 45.3418 44.6771 46.3331 44.6771H47.7073C48.6978 44.6771 49.4997 45.4615 49.4969 46.4272C49.494 47.3948 48.6847 48.1748 47.7258 48.1675L44.591 48.1413M56.2976 44.6508C56.2976 49.66 52.1745 53.7206 47.0883 53.7206C42.002 53.7206 37.879 49.66 37.879 44.6508C37.879 39.6417 42.002 35.5811 47.0883 35.5811C52.1745 35.5811 56.2976 39.6417 56.2976 44.6508Z" stroke="#07A889" stroke-width="2" stroke-linecap="round" stroke-linejoin="round"/>
<path d="M12.3763 34.8841L22.294 25.1166M15.2099 26.1631C15.2099 27.1265 14.417 27.9073 13.4389 27.9073C12.4607 27.9073 11.6678 27.1265 11.6678 26.1631C11.6678 25.1998 12.4607 24.4189 13.4389 24.4189C14.417 24.4189 15.2099 25.1998 15.2099 26.1631ZM23.0024 33.8375C23.0024 34.8009 22.2095 35.5817 21.2314 35.5817C20.2532 35.5817 19.4603 34.8009 19.4603 33.8375C19.4603 32.8742 20.2532 32.0934 21.2314 32.0934C22.2095 32.0934 23.0024 32.8742 23.0024 33.8375Z" stroke="#07A889" stroke-width="2" stroke-linecap="round" stroke-linejoin="round"/>
<path d="M17.3351 43.2207C24.7687 43.2207 30.7949 37.2858 30.7949 29.9649C30.7949 22.6439 24.7687 16.7788 17.3351 16.7788C9.90151 16.7788 3.87537 22.6439 3.87537 29.9649C3.87537 37.2858 9.90151 43.2207 17.3351 43.2207Z" stroke="#121330" stroke-width="2" stroke-linecap="round" stroke-linejoin="round"/>
</g>
</g>
</svg>
