<svg width="67" height="67" viewBox="0 0 67 67" fill="none" xmlns="http://www.w3.org/2000/svg">
<mask id="mask0_662_6298" style="mask-type:luminance" maskUnits="userSpaceOnUse" x="0" y="0" width="60" height="60">
<path d="M0 0H60V60H0V0Z" fill="white"/>
</mask>
<g mask="url(#mask0_662_6298)">
<mask id="mask1_662_6298" style="mask-type:luminance" maskUnits="userSpaceOnUse" x="0" y="0" width="60" height="60">
<path d="M0 0H60V60H0V0Z" fill="white"/>
</mask>
<g mask="url(#mask1_662_6298)">
<path d="M45.3488 15.2092C45.3488 17.3655 43.5981 19.1162 41.4418 19.1162H16.186C14.0298 19.1162 12.2791 17.3655 12.2791 15.2092C12.2791 13.053 14.0298 11.3022 16.186 11.3022H41.4418C43.5981 11.3022 45.3488 13.053 45.3488 15.2092Z" stroke="#121330" stroke-width="2" stroke-linejoin="round"/>
<path d="M37.814 23.0232C37.814 25.1794 36.0632 26.9302 33.907 26.9302H8.65118C6.49495 26.9302 4.7442 25.1794 4.7442 23.0232C4.7442 20.867 6.49495 19.1162 8.65118 19.1162H33.907C36.0632 19.1162 37.814 20.867 37.814 23.0232Z" stroke="#121330" stroke-width="2" stroke-linejoin="round"/>
<path d="M40.7442 30.8372C40.7442 32.9949 38.995 34.7441 36.8372 34.7441H16.0465C13.8887 34.7441 12.1395 32.9949 12.1395 30.8372C12.1395 28.6794 13.8887 26.9302 16.0465 26.9302H36.8372C38.995 26.9302 40.7442 28.6794 40.7442 30.8372Z" stroke="#121330" stroke-width="2" stroke-linejoin="round"/>
<path d="M41.721 38.6511C41.721 40.8073 39.9702 42.5581 37.814 42.5581H12.5582C10.4019 42.5581 8.65118 40.8073 8.65118 38.6511C8.65118 36.4949 10.4019 34.7441 12.5582 34.7441H37.814C39.9702 34.7441 41.721 36.4949 41.721 38.6511Z" stroke="#121330" stroke-width="2" stroke-linejoin="round"/>
<mask id="mask2_662_6298" style="mask-type:luminance" maskUnits="userSpaceOnUse" x="19" y="15" width="39" height="39">
<path d="M19.2419 15.7539H57.3349V53.8469H19.2419V15.7539Z" fill="white"/>
</mask>
<g mask="url(#mask2_662_6298)">
<path d="M38.2186 18.0702C33.618 18.0702 29.4527 19.9349 26.4378 22.9499C23.4228 25.9648 21.5581 30.13 21.5581 34.7306C21.5581 39.3313 23.4228 43.4965 26.4378 46.5114C29.4527 49.5264 33.618 51.3911 38.2186 51.3911" fill="#E3FFFE"/>
<path d="M38.2186 18.0702C33.618 18.0702 29.4527 19.9349 26.4378 22.9499C23.4228 25.9648 21.5581 30.13 21.5581 34.7306C21.5581 39.3313 23.4228 43.4965 26.4378 46.5114C29.4527 49.5264 33.618 51.3911 38.2186 51.3911" stroke="#121330" stroke-width="2" stroke-linecap="round" stroke-linejoin="round"/>
<path d="M33.3484 50.668C34.8891 51.1381 36.5243 51.3911 38.2186 51.3911C42.8192 51.3911 46.9845 49.5264 49.9994 46.5114C53.0144 43.4965 54.8791 39.3313 54.8791 34.7306C54.8791 30.13 53.0144 25.9648 49.9994 22.9499C48.0949 21.0453 45.7312 19.5998 43.0888 18.7933" fill="#E3FFFE"/>
<path d="M33.3484 50.668C34.8891 51.1381 36.5243 51.3911 38.2186 51.3911C42.8192 51.3911 46.9845 49.5264 49.9994 46.5114C53.0144 43.4965 54.8791 39.3313 54.8791 34.7307C54.8791 30.13 53.0144 25.9648 49.9994 22.9499C48.0949 21.0453 45.7312 19.5998 43.0888 18.7933" stroke="#121330" stroke-width="2" stroke-linecap="round" stroke-linejoin="round"/>
<path d="M38.2186 51.3908C42.8192 51.3908 46.9844 49.526 49.9994 46.5111C53.0143 43.4961 54.879 39.3309 54.879 34.7303C54.879 30.1297 53.0143 25.9644 49.9994 22.9495C46.9844 19.9346 42.8192 18.0698 38.2186 18.0698" fill="#E3FFFE"/>
<path d="M38.2186 51.3908C42.8192 51.3908 46.9844 49.526 49.9994 46.5111C53.0143 43.4961 54.879 39.3309 54.879 34.7303C54.879 30.1297 53.0143 25.9644 49.9994 22.9495C46.9844 19.9346 42.8192 18.0698 38.2186 18.0698" stroke="#121330" stroke-width="2" stroke-linecap="round" stroke-linejoin="round"/>
<path d="M54.879 34.7306C54.879 25.5293 47.4199 18.0702 38.2186 18.0702C29.0172 18.0702 21.5581 25.5293 21.5581 34.7306C21.5581 43.932 29.0172 51.3911 38.2186 51.3911C47.4199 51.3911 54.879 43.932 54.879 34.7306Z" fill="#E3FFFE" stroke="#121330" stroke-width="2" stroke-linecap="round" stroke-linejoin="round"/>
<path d="M26.4697 34.7308C26.4697 41.2194 31.7299 46.4796 38.2186 46.4796C44.7072 46.4796 49.9674 41.2194 49.9674 34.7308C49.9674 28.2421 44.7072 22.9819 38.2186 22.9819C31.7299 22.9819 26.4697 28.2421 26.4697 34.7308Z" fill="#E3FFFE" stroke="#07A889" stroke-width="2" stroke-linecap="round" stroke-linejoin="round"/>
</g>
</g>
</g>
</svg>
