<svg width="64" height="63" viewBox="0 0 64 63" fill="none" xmlns="http://www.w3.org/2000/svg">
<mask id="mask0_662_5504" style="mask-type:luminance" maskUnits="userSpaceOnUse" x="0" y="0" width="61" height="60">
<path d="M0.666626 0H60.6666V60H0.666626V0Z" fill="white"/>
</mask>
<g mask="url(#mask0_662_5504)">
<mask id="mask1_662_5504" style="mask-type:luminance" maskUnits="userSpaceOnUse" x="0" y="0" width="61" height="60">
<path d="M0.666626 0H60.6666V60H0.666626V0Z" fill="white"/>
</mask>
<g mask="url(#mask1_662_5504)">
<path d="M17.1787 38.8413C17.1787 38.8413 15.996 38.9931 15.4653 39.6513C14.634 40.6818 14.6516 42.3907 17.5659 42.3907H42.0247" stroke="#121330" stroke-width="3" stroke-linecap="round" stroke-linejoin="round"/>
<path d="M19.3729 42.3906C21.5101 42.3906 23.245 44.1257 23.245 46.2627C23.245 48.3998 21.5101 50.1348 19.3729 50.1348C17.236 50.1348 15.5009 48.3998 15.5009 46.2627C15.5009 44.1257 17.236 42.3906 19.3729 42.3906ZM42.2829 42.3906C44.4199 42.3906 46.155 44.1257 46.155 46.2627C46.155 48.3998 44.4199 50.1348 42.2829 50.1348C40.1459 50.1348 38.4108 48.3998 38.4108 46.2627C38.4108 44.1257 40.1459 42.3906 42.2829 42.3906Z" stroke="#07A889" stroke-width="3"/>
<path d="M5.11081 10.3813H8.41086C10.1549 10.3813 12.4569 11.8605 13.0878 15.604C14.3889 23.3281 16.9852 38.7767 16.9852 38.7767M13.4028 15.5302L52.8666 15.5441H53.512L53.2605 16.412L49.7354 28.5709C49.0797 30.8327 48.3709 32.7837 46.7916 34.1008C45.0749 35.5324 43.0047 35.899 40.6231 36.1705L17.1788 38.8412C17.1788 38.8412 15.996 38.993 15.4653 39.6513" stroke="#121330" stroke-width="3" stroke-linecap="round" stroke-linejoin="round"/>
</g>
</g>
</svg>
