<svg width="75" height="75" viewBox="0 0 75 75" fill="none" xmlns="http://www.w3.org/2000/svg">
<g clip-path="url(#clip0_662_5187)">
<mask id="mask0_662_5187" style="mask-type:luminance" maskUnits="userSpaceOnUse" x="0" y="0" width="75" height="75">
<path d="M0 0H75V75H0V0Z" fill="white"/>
</mask>
<g mask="url(#mask0_662_5187)">
<mask id="mask1_662_5187" style="mask-type:luminance" maskUnits="userSpaceOnUse" x="0" y="0" width="75" height="75">
<path d="M0 0H75V75H0V0Z" fill="white"/>
</mask>
<g mask="url(#mask1_662_5187)">
<path d="M19.1861 54.9418C14.8512 54.9418 11.3372 58.4558 11.3372 62.7906V65.4069H34.0116V62.7906C34.0116 58.4558 30.4976 54.9418 26.1628 54.9418H19.1861ZM27.907 45.3488C27.907 48.2387 25.5644 50.5813 22.6744 50.5813C19.7845 50.5813 17.4419 48.2387 17.4419 45.3488C17.4419 42.4588 19.7845 40.1162 22.6744 40.1162C25.5644 40.1162 27.907 42.4588 27.907 45.3488Z" stroke="#121330" stroke-width="2" stroke-linejoin="round"/>
<path d="M48.8371 54.9418C44.5023 54.9418 40.9883 58.4558 40.9883 62.7906V65.4069H63.6627V62.7906C63.6627 58.4558 60.1487 54.9418 55.8139 54.9418H48.8371ZM57.558 45.3488C57.558 48.2387 55.2154 50.5813 52.3255 50.5813C49.4355 50.5813 47.0929 48.2387 47.0929 45.3488C47.0929 42.4588 49.4355 40.1162 52.3255 40.1162C55.2154 40.1162 57.558 42.4588 57.558 45.3488Z" stroke="#121330" stroke-width="2" stroke-linejoin="round"/>
<path d="M32.2674 15.6978C32.2674 13.7712 33.8291 12.2095 35.7558 12.2095H61.9185C63.8452 12.2095 65.4069 13.7712 65.4069 15.6978V25.2909C65.4069 27.2175 63.8452 28.7792 61.9185 28.7792H54.0697V35.756L43.6046 28.7792H35.7558C33.8291 28.7792 32.2674 27.2175 32.2674 25.2909V15.6978Z" stroke="#07A889" stroke-width="2" stroke-linecap="round" stroke-linejoin="round"/>
</g>
</g>
</g>
<defs>
<clipPath id="clip0_662_5187">
<rect width="75" height="75" fill="white"/>
</clipPath>
</defs>
</svg>
