<svg width="60" height="59" viewBox="0 0 60 59" fill="none" xmlns="http://www.w3.org/2000/svg">
<mask id="mask0_685_5636" style="mask-type:luminance" maskUnits="userSpaceOnUse" x="0" y="0" width="60" height="59">
<path d="M0.666626 0H59.6666V59H0.666626V0Z" fill="white"/>
</mask>
<g mask="url(#mask0_685_5636)">
<path d="M55.7987 40.4847C51.7538 40.4847 48.4745 43.764 48.4745 47.8076M11.8588 47.8076C11.8588 43.764 8.57948 40.4847 4.53455 40.4847M55.7987 18.5148C51.7538 18.5148 48.4745 15.2355 48.4745 11.1919M11.8588 11.1919C11.8588 15.2355 8.57948 18.5148 4.53455 18.5148M4.53455 11.1919H55.7973V47.8089H4.53455V11.1919Z" stroke="#121330" stroke-width="2" stroke-linecap="round" stroke-linejoin="round"/>
<path d="M15.5367 22.1206V24.2583M15.5367 34.8344V36.9145M18.6335 24.257H14.5254C13.0614 24.257 11.8745 25.4424 11.8745 26.9065C11.8745 28.3705 13.0614 29.5573 14.5254 29.5573H16.5548C18.0174 29.5573 19.2015 30.7456 19.1974 32.2082C19.1933 33.6736 17.9982 34.855 16.5822 34.844L11.9528 34.8042M26.5045 35.008H48.4744M26.5045 29.5196H48.4744M33.8287 24.0271H26.5045M37.4895 24.0271H48.4744" stroke="#07A889" stroke-width="2" stroke-linecap="round" stroke-linejoin="round"/>
</g>
</svg>
